<svg id="Capa_1" enable-background="new 0 0 512 512" viewBox="0 0 512 512" xmlns="http://www.w3.org/2000/svg"><g><path d="m489.56 208.069c-6.221-104.529-93.219-187.669-199.285-187.669h-68.551c-106.064 0-193.063 83.14-199.284 187.669-13.185 5.686-22.44 18.808-22.44 34.055v77.326c0 20.44 16.63 37.07 37.07 37.07h45v29.521c0 22.64 18.418 41.058 41.058 41.058h71.409l50.005 59.182c2.851 3.372 7.042 5.318 11.458 5.318s8.607-1.946 11.458-5.318l50.005-59.182h71.408c22.64 0 41.059-18.418 41.059-41.058v-29.521h45c20.44 0 37.07-16.63 37.07-37.07v-77.326c0-15.247-9.255-28.369-22.44-34.055zm-267.835-157.669h68.551c88.493 0 161.365 68.107 168.984 154.654h-29.33v-15.896c0-22.64-18.419-41.059-41.059-41.059h-265.743c-22.64 0-41.058 18.419-41.058 41.059v15.896h-29.329c7.619-86.546 80.491-154.654 168.984-154.654zm-184.655 276.121c-3.898 0-7.07-3.172-7.07-7.07v-77.326c0-3.898 3.172-7.069 7.07-7.069h45v91.466h-45zm362.86 59.521c0 6.097-4.961 11.058-11.059 11.058h-78.371c-4.416 0-8.607 1.946-11.458 5.318l-43.042 50.94-43.042-50.94c-2.851-3.372-7.042-5.318-11.458-5.318h-78.372c-6.097 0-11.058-4.961-11.058-11.058v-196.884c0-6.098 4.961-11.059 11.058-11.059h265.743c6.098 0 11.059 4.961 11.059 11.059zm82.07-66.592c0 3.898-3.172 7.07-7.07 7.07h-45v-91.466h45c3.898 0 7.07 3.171 7.07 7.069z"/><path d="m310.866 301.777c-17.026 15.1-35.999 23.08-54.866 23.08s-37.839-7.98-54.864-23.08c-6.198-5.497-15.679-4.928-21.176 1.27-5.496 6.198-4.928 15.679 1.27 21.176 23.063 20.453 48.912 30.676 74.771 30.676 25.853 0 51.714-10.228 74.771-30.676 6.198-5.497 6.767-14.978 1.271-21.175-5.498-6.199-14.979-6.768-21.177-1.271z"/><circle cx="194.83" cy="248.221" r="15"/><circle cx="310.819" cy="248.221" r="15"/></g><g/><g/><g/><g/><g/><g/><g/><g/><g/><g/><g/><g/><g/><g/><g/></svg>