<svg id="Capa_1" enable-background="new 0 0 512 512" viewBox="0 0 512 512" xmlns="http://www.w3.org/2000/svg"><g><path d="m490.237 441.499 20.621-49.758c1.918-4.629 1.398-9.909-1.385-14.075s-7.462-6.668-12.473-6.668h-85.5v-27.001c0-8.284-6.716-15-15-15h-36.006c2.799-3.022 5.556-6.089 8.227-9.242 22.779-26.894 40.87-58.508 53.77-93.961 21.868-60.102 21.267-110.255 21.23-112.361-.121-6.998-5.065-12.983-11.915-14.421-54.828-11.514-96.449-36.218-121.711-54.915-27.589-20.419-42.289-38.363-42.417-38.52-2.841-3.525-7.132-5.567-11.66-5.576-.009 0-.019 0-.028 0-4.518 0-8.804 2.047-11.653 5.555-.145.179-14.845 18.122-42.434 38.541-25.262 18.697-66.883 43.401-121.711 54.915-6.85 1.439-11.794 7.423-11.915 14.421-.037 2.106-.638 52.258 21.23 112.361 12.899 35.453 30.99 67.067 53.77 93.961 2.671 3.154 5.428 6.22 8.227 9.242h-36.004c-8.284 0-15 6.716-15 15v27.001h-85.5c-5.01 0-9.689 2.502-12.473 6.668s-3.303 9.447-1.385 14.075l20.621 49.758-20.62 49.758c-1.918 4.629-1.398 9.909 1.385 14.075s7.462 6.668 12.472 6.668h100c8.284 0 15-6.716 15-15v-47.001h252v47.001c0 8.284 6.716 15 15 15h100c5.01 0 9.689-2.502 12.473-6.668 2.783-4.166 3.303-9.447 1.385-14.075zm-303.72-119.839 10.09-37.701c4.67-17.473 20.566-29.675 38.655-29.675h41.476c18.089 0 33.985 12.203 38.657 29.68l10.089 37.697c-20.111 18.699-43.37 34.096-69.483 45.949-26.114-11.854-49.373-27.251-69.484-45.95zm69.579-97.377h-.192c-16.317-.052-29.575-13.34-29.575-29.669 0-16.361 13.311-29.672 29.671-29.672s29.671 13.311 29.671 29.672c0 16.328-13.258 29.616-29.575 29.669zm-138.035-7.764c-14.262-38.794-18.253-73.635-19.363-90.98 81.825-20.386 135.11-66.017 157.302-88.385 22.192 22.368 75.476 67.999 157.302 88.385-1.111 17.353-5.102 52.189-19.363 90.98-10.922 29.709-25.822 56.337-44.327 79.259l-5.237-19.567c-5.688-21.277-20.892-38.079-40.277-46.336 7.267-9.886 11.573-22.079 11.573-35.262 0-32.904-26.769-59.673-59.671-59.673s-59.671 26.769-59.671 59.673c0 13.183 4.305 25.376 11.572 35.262-19.385 8.257-34.589 25.057-40.276 46.331l-5.238 19.571c-18.503-22.921-33.404-49.549-44.326-79.258zm-18.061 265.48h-62.547l14.404-34.758c1.523-3.677 1.523-7.809 0-11.486l-14.404-34.758h62.547zm281.5-62.001h-251v-61.001h53.586c19.809 15.505 41.873 28.49 66.026 38.797 1.88.802 3.884 1.204 5.888 1.204s4.007-.401 5.888-1.204c24.153-10.308 46.217-23.292 66.026-38.797h53.586zm78.642 27.243 14.404 34.758h-62.546v-81.002h62.547l-14.404 34.758c-1.524 3.678-1.524 7.809-.001 11.486z"/></g><g/><g/><g/><g/><g/><g/><g/><g/><g/><g/><g/><g/><g/><g/><g/></svg>