<svg id="Capa_1" enable-background="new 0 0 512 512" viewBox="0 0 512 512" xmlns="http://www.w3.org/2000/svg"><g><path d="m497 0h-482c-8.284 0-15 6.716-15 15v385c0 8.284 6.716 15 15 15h196v24.81c0 23.264-18.927 42.19-42.19 42.19h-11.36c-8.284 0-15 6.716-15 15s6.716 15 15 15h197.1c8.284 0 15-6.716 15-15s-6.716-15-15-15h-11.36c-23.264 0-42.19-18.927-42.19-42.19v-24.81h196c8.284 0 15-6.716 15-15v-385c0-8.284-6.716-15-15-15zm-401.667 92.924c10.069 10.705 24.346 17.409 40.167 17.409s30.098-6.704 40.167-17.409c10.069 10.705 24.345 17.409 40.166 17.409s30.098-6.704 40.167-17.41c10.069 10.705 24.346 17.41 40.167 17.41s30.098-6.704 40.166-17.409c10.069 10.705 24.346 17.409 40.167 17.409s30.098-6.704 40.167-17.409c10.069 10.705 24.345 17.409 40.166 17.409 9.063 0 17.615-2.211 25.167-6.1v220.767h-452v-220.767c7.552 3.889 16.104 6.1 25.167 6.1 15.821 0 30.098-6.704 40.166-17.409zm386.667-37.757c0 13.877-11.29 25.166-25.167 25.166s-25.166-11.289-25.166-25.166v-25.167h50.333zm-80.333 0c0 13.877-11.29 25.166-25.167 25.166s-25.167-11.289-25.167-25.166v-25.167h50.334zm-80.334 0c0 13.877-11.289 25.166-25.166 25.166s-25.167-11.289-25.167-25.166v-25.167h50.333zm-80.333 0c0 13.877-11.29 25.166-25.167 25.166s-25.166-11.289-25.166-25.166v-25.167h50.333zm-80.333 0c0 13.877-11.29 25.166-25.167 25.166s-25.167-11.289-25.167-25.166v-25.167h50.334zm-130.667-25.167h50.333v25.167c0 13.877-11.289 25.166-25.166 25.166s-25.167-11.289-25.167-25.166zm254.667 452h-57.333c8.586-11.877 13.666-26.448 13.666-42.19v-24.81h30v24.81c0 15.742 5.08 30.313 13.667 42.19zm-254.667-97v-30h452v30z"/><path d="m216 264.953h80c8.284 0 15-6.716 15-15v-80c0-8.284-6.716-15-15-15h-80c-8.284 0-15 6.716-15 15v80c0 8.284 6.716 15 15 15zm15-80h50v50h-50z"/><path d="m356 264.953h80c8.284 0 15-6.716 15-15v-80c0-8.284-6.716-15-15-15h-80c-8.284 0-15 6.716-15 15v80c0 8.284 6.716 15 15 15zm15-80h50v50h-50z"/><path d="m76 264.953h80c8.284 0 15-6.716 15-15v-80c0-8.284-6.716-15-15-15h-80c-8.284 0-15 6.716-15 15v80c0 8.284 6.716 15 15 15zm15-80h50v50h-50z"/></g><g/><g/><g/><g/><g/><g/><g/><g/><g/><g/><g/><g/><g/><g/><g/></svg>