<svg id="Capa_1" enable-background="new 0 0 512 512" viewBox="0 0 512 512" xmlns="http://www.w3.org/2000/svg"><g><path d="m424.325 226.272h-58.615c8.9-14.331 16.444-29.884 22.518-46.589 17.164-47.207 16.69-86.721 16.661-88.38-.121-6.998-5.062-12.983-11.906-14.421-80.263-16.87-124.894-70.795-125.313-71.31-2.837-3.522-7.124-5.561-11.646-5.572-.012 0-.023 0-.036 0-4.508 0-8.789 2.045-11.636 5.544-.441.543-45.073 54.468-125.336 71.337-6.844 1.439-11.785 7.423-11.906 14.421-.028 1.659-.503 41.173 16.661 88.38 6.074 16.706 13.618 32.258 22.518 46.589h-58.614c-25.461 0-46.175 20.73-46.175 46.21v193.309c0 25.48 20.714 46.21 46.175 46.21h336.649c25.461 0 46.175-20.73 46.175-46.21v-193.308c.001-25.48-20.713-46.21-46.174-46.21zm-352.847 90.003h369.045v30.001h-369.045zm352.847-60.002c8.932 0 16.198 7.272 16.198 16.209v13.791h-129.08c11.683-8.927 22.401-18.946 32.086-30.001h80.796zm-168.325-219.369c18.477 18.043 58.529 50.802 118.398 66.413-1.086 13.998-4.43 39.22-14.697 67.083-8.408 22.818-19.627 42.916-33.566 60.234-18.635 23.105-41.995 41.235-70.135 54.229-28.14-12.994-51.5-31.123-70.135-54.228-13.939-17.318-25.157-37.416-33.566-60.234-10.269-27.869-13.612-53.093-14.697-67.082 59.869-15.612 99.921-48.371 118.398-66.415zm-168.325 219.369h80.795c9.685 11.055 20.403 21.074 32.087 30.001h-129.079v-13.791c0-8.938 7.266-16.21 16.197-16.21zm336.65 225.726h-336.65c-8.932 0-16.198-7.272-16.198-16.209v-89.513h369.045v89.513c0 8.937-7.266 16.209-16.197 16.209z"/><path d="m235.944 199.469c2.81 2.814 6.623 4.394 10.599 4.394s7.788-1.58 10.599-4.394l46.427-46.463c5.854-5.858 5.854-15.356 0-21.214-5.853-5.858-15.344-5.858-21.197 0l-35.829 35.856-16.913-16.926c-5.852-5.859-15.343-5.859-21.197 0-5.854 5.858-5.854 15.355 0 21.213z"/><path d="m162.973 406.277h-46.268c-8.278 0-14.989 6.716-14.989 15s6.711 15 14.989 15h46.268c8.278 0 14.989-6.716 14.989-15s-6.711-15-14.989-15z"/><path d="m395.556 406.277h-172.628c-8.278 0-14.989 6.716-14.989 15s6.711 15 14.989 15h172.628c8.278 0 14.989-6.716 14.989-15s-6.711-15-14.989-15z"/></g><g/><g/><g/><g/><g/><g/><g/><g/><g/><g/><g/><g/><g/><g/><g/></svg>