<svg id="Capa_1" enable-background="new 0 0 512 512" viewBox="0 0 512 512" xmlns="http://www.w3.org/2000/svg"><g><path d="m497 0h-482c-8.284 0-15 6.716-15 15v385c0 8.284 6.716 15 15 15h109.477c17.382 56.12 69.767 97 131.523 97s114.142-40.88 131.523-97h109.477c8.284 0 15-6.716 15-15v-385c0-8.284-6.716-15-15-15zm-467 30h126.729l-15 30h-111.729zm226 452c-59.359 0-107.652-48.293-107.652-107.652s48.293-107.652 107.652-107.652 107.652 48.292 107.652 107.651-48.293 107.653-107.652 107.653zm226-97h-88.757c.27-3.516.409-7.068.409-10.652 0-75.901-61.75-137.651-137.652-137.651s-137.652 61.75-137.652 137.651c0 3.584.139 7.136.409 10.652h-88.757v-295h121c5.682 0 10.875-3.21 13.417-8.292l25.854-51.708h291.729z"/><path d="m226 209.885h60c8.284 0 15-6.716 15-15v-60c0-8.284-6.716-15-15-15h-60c-8.284 0-15 6.716-15 15v60c0 8.284 6.716 15 15 15zm15-60h30v30h-30z"/><path d="m166 119.885h-60c-8.284 0-15 6.716-15 15v60c0 8.284 6.716 15 15 15h60c8.284 0 15-6.716 15-15v-60c0-8.284-6.716-15-15-15zm-15 60h-30v-30h30z"/><path d="m346 209.885h60c8.284 0 15-6.716 15-15v-60c0-8.284-6.716-15-15-15h-60c-8.284 0-15 6.716-15 15v60c0 8.284 6.716 15 15 15zm15-60h30v30h-30z"/><path d="m272.35 361.879c-6.395-2.58-10.868-4.206-16.35-6.309-3.607-1.375-6.492-2.558-9.041-3.885-2.876-1.5-4.193-4.838-2.943-7.454 1.029-2.145 3.155-3.751 6.136-4.645 1.981-.596 3.943-.885 5.847-.943 10.368-.318 19.101 6.174 20.091 6.944.01 0 .01.01.019.01 5.886 4.424 13.734 4.299 18.562.24 6.021-5.04 6.694-15.6-.019-22.342-.616-.519-10.147-8.367-24.227-11.964v-8.041c0-7.973-6.463-14.426-14.426-14.426s-14.426 6.453-14.426 14.426v8.55c-8.514 3.052-20.594 10.301-24.958 23.044-5.722 16.013 1.298 34.008 17.014 42.192 4.972 2.587 9.954 4.463 16.263 6.848 3.923 1.466 8.119 3.085 12.253 4.741 3.106 1.154 13.157 5.376 12.032 11.666-.846 4.78-7.127 9.935-15.783 9.935-.798 0-1.596-.029-2.395-.077-8.617-.587-16.715-4.27-22.005-10.108-5.357-5.905-14.475-6.357-20.38-1-5.905 5.347-6.357 14.465-1.01 20.37 7.656 8.444 17.745 14.436 28.968 17.456v9.3c0 7.915 6.511 14.426 14.426 14.426s14.426-6.511 14.426-14.426v-8.531c12.301-3.03 22.534-10.637 28.122-20.861 1.933-3.52 3.308-7.348 4.039-11.416 2.628-14.723-3.94-33.93-30.235-43.72z"/><circle cx="377" cy="75.001" r="15"/><circle cx="437" cy="75.001" r="15"/></g><g/><g/><g/><g/><g/><g/><g/><g/><g/><g/><g/><g/><g/><g/><g/></svg>