<svg id="Capa_1" enable-background="new 0 0 512 512" viewBox="0 0 512 512" xmlns="http://www.w3.org/2000/svg"><g><path d="m420.165 151.528c5.814-5.901 5.744-15.398-.156-21.213-5.901-5.815-15.398-5.744-21.213.156-4.783 4.855-10.933 7.528-17.315 7.528s-12.532-2.673-17.315-7.528c-5.814-5.9-15.311-5.972-21.213-.156-5.9 5.814-5.971 15.312-.156 21.213 10.465 10.622 24.203 16.472 38.683 16.472s28.218-5.85 38.685-16.472z"/><path d="m119.48 122c-14.479 0-28.218 5.85-38.685 16.472-5.814 5.901-5.744 15.398.156 21.213s15.397 5.743 21.213-.156c4.783-4.855 10.933-7.528 17.315-7.528s12.532 2.673 17.315 7.528c2.936 2.979 6.809 4.472 10.686 4.472 3.801 0 7.605-1.437 10.527-4.315 5.9-5.814 5.971-15.312.156-21.213-10.465-10.623-24.204-16.473-38.683-16.473z"/><path d="m119.48 0c-62.859 0-114 51.14-114 114s51.141 114 114 114 114-51.14 114-114-51.141-114-114-114zm0 198c-46.317 0-84-37.682-84-84s37.683-84 84-84 84 37.682 84 84-37.683 84-84 84z"/><path d="m477.775 350.905-51.338-22.388v-85.517c0-7.817-1.993-15.324-5.718-21.96 43.586-16.029 74.76-57.962 74.76-107.04 0-62.86-51.141-114-114-114s-114 51.14-114 114c0 49.137 31.249 91.111 74.917 107.097-3.781 6.669-5.96 14.359-5.96 22.51v90.432c-6.467-3.481-13.731-5.329-21.279-5.329-12.37 0-23.904 4.918-32.479 13.848-16.834 17.533-16.351 45.976 1.077 63.404l25.559 25.559c17.49 17.489 27.122 40.744 27.122 65.479 0 8.284 6.716 15 15 15h111c6.646 0 12.5-4.374 14.385-10.748l27.849-94.199c.02-.067.039-.134.058-.202 6.481-23.107-5.101-47.107-26.953-55.946zm-180.295-236.905c0-46.318 37.683-84 84-84s84 37.682 84 84-37.683 84-84 84-84-37.682-84-84zm178.386 284.667-24.636 83.333h-85.695c-3.281-27.07-15.424-52.11-35.007-71.692l-25.559-25.559c-5.966-5.966-6.258-15.573-.649-21.414 2.863-2.983 6.713-4.625 10.838-4.625 4.002 0 7.768 1.562 10.604 4.396l15.069 15.07c4.29 4.291 10.744 5.573 16.347 3.252 5.605-2.322 9.26-7.792 9.26-13.858v-123.963c0-8.415 6.565-15.415 14.635-15.603 4.131-.103 8.039 1.463 10.969 4.393 2.835 2.835 4.396 6.6 4.396 10.603v95.34c0 5.966 3.535 11.365 9.004 13.75l60.544 26.403c.149.065.301.128.452.188 7.558 3.006 11.686 11.773 9.428 19.986z"/></g><g/><g/><g/><g/><g/><g/><g/><g/><g/><g/><g/><g/><g/><g/><g/></svg>