<svg id="Capa_1" enable-background="new 0 0 512 512" viewBox="0 0 512 512" xmlns="http://www.w3.org/2000/svg"><g><path d="m381.686 0h-251.372c-23.884 0-43.314 19.446-43.314 43.35v425.3c0 23.903 19.43 43.35 43.314 43.35h251.372c23.884 0 43.314-19.446 43.314-43.35v-425.3c0-23.904-19.43-43.35-43.314-43.35zm-251.372 30h251.372c7.355 0 13.339 5.988 13.339 13.35v16.65h-278.05v-16.65c0-7.362 5.984-13.35 13.339-13.35zm251.372 452h-251.372c-7.355 0-13.339-5.988-13.339-13.35v-378.65h278.05v378.65c0 7.362-5.984 13.35-13.339 13.35z"/><path d="m350.062 120h-29.975c-8.277 0-14.988 6.716-14.988 15s6.71 15 14.988 15h14.988v15c0 8.284 6.71 15 14.988 15s14.988-6.716 14.988-15v-30c-.001-8.284-6.712-15-14.989-15z"/><path d="m161.938 180c8.277 0 14.988-6.716 14.988-15v-15h14.988c8.277 0 14.988-6.716 14.988-15s-6.71-15-14.988-15h-29.975c-8.277 0-14.988 6.716-14.988 15v30c-.001 8.284 6.71 15 14.987 15z"/><path d="m350.062 304.448c-8.277 0-14.988 6.716-14.988 15v15h-14.988c-8.277 0-14.988 6.716-14.988 15s6.71 15 14.988 15h29.975c8.277 0 14.988-6.716 14.988-15v-30c.001-8.284-6.71-15-14.987-15z"/><path d="m191.913 334.448h-14.988v-15c0-8.284-6.71-15-14.988-15s-14.988 6.716-14.988 15v30c0 8.284 6.71 15 14.988 15h29.975c8.277 0 14.988-6.716 14.988-15s-6.709-15-14.987-15z"/><path d="m290.203 422h-68.406c-8.277 0-14.988 6.716-14.988 15s6.71 15 14.988 15h68.406c8.277 0 14.988-6.716 14.988-15s-6.71-15-14.988-15z"/><path d="m272.986 228.64c-6.635-2.694-11.29-4.377-16.986-6.55-3.747-1.44-6.754-2.67-9.392-4.06-2.988-1.55-4.356-5.03-3.057-7.74 1.069-2.23 3.277-3.91 6.375-4.84 2.058-.62 4.097-.92 6.075-.98 10.771-.32 19.844 6.43 20.873 7.22.01.01.01.01.02.01 6.255 4.85 15.018 4.26 20.164-.89 5.775-5.79 5.675-16-.899-22.09-.639-.54-10.541-8.7-25.169-12.43v-8.37c0-8.28-6.714-15-14.988-15s-14.988 6.72-14.988 15v8.89c-11.081 3.42-19.774 10.68-24.48 20.48-8.373 17.44-1.249 38.24 16.227 47.35 1.681.876 8.892 3.982 16.896 7.12 5.421 2.104 7.846 2.96 12.729 4.94 3.227 1.19 13.669 5.59 12.5 12.13-.889 4.96-7.404 10.33-16.396 10.33-.829 0-1.659-.03-2.488-.08-8.953-.61-17.366-4.44-22.871-10.52-5.555-6.14-15.028-6.6-21.163-1.04s-6.604 15.05-1.039 21.19c7.944 8.77 18.435 15.01 30.085 18.14v9.68c0 8.28 6.714 15 14.988 15s14.988-6.72 14.988-15v-8.88c17.186-4.24 30.465-17.06 33.412-33.55 2.726-15.32-4.099-35.28-31.416-45.46z"/></g><g/><g/><g/><g/><g/><g/><g/><g/><g/><g/><g/><g/><g/><g/><g/></svg>