<svg id="Capa_1" enable-background="new 0 0 512 512" viewBox="0 0 512 512" xmlns="http://www.w3.org/2000/svg"><g><path d="m451.64 395.067c29.062-40.73 44.37-88.586 44.37-139.067 0-39.561-9.662-78.143-28.075-112.704 25.96-11.807 44.065-37.968 44.065-68.296 0-41.355-33.645-75-75-75-30.328 0-56.489 18.105-68.295 44.065-34.562-18.413-73.144-28.075-112.705-28.075-40.272 0-79.227 9.892-114.113 28.806v-29.796c0-8.284-6.716-15-15-15h-111.887c-8.284 0-15 6.716-15 15v111.887c0 8.284 6.716 15 15 15h29.796c-18.913 34.886-28.806 73.84-28.806 114.113 0 43.81 11.776 86.231 34.152 123.454l-39.886 13.294c-4.517 1.506-8.051 5.066-9.522 9.595-1.472 4.528-.706 9.487 2.064 13.36l26.111 36.52.34 44.891c.036 4.762 2.331 9.224 6.183 12.021 3.853 2.8 8.806 3.603 13.344 2.166l42.8-13.549 42.8 13.549c4.51 1.431 9.484.643 13.344-2.165 3.852-2.799 6.146-7.261 6.183-12.021l.181-23.777c31.733 14.885 66.511 22.672 101.916 22.672 21.024 0 41.57-2.671 61.459-7.934l-.642 1.039c-2.86 4.627-2.99 10.439-.341 15.19 2.648 4.751 7.662 7.695 13.101 7.695h167.423c5.439 0 10.452-2.944 13.101-7.695s2.519-10.563-.341-15.19zm-14.64-365.067c24.813 0 45 20.187 45 45s-20.187 45-45 45-45-20.187-45-45 20.187-45 45-45zm-407 0h81.887v81.887h-81.887zm94.058 446.567-27.955-8.85c-2.946-.932-6.108-.932-9.054 0l-27.955 8.85-.222-29.32c-.023-3.09-1-6.098-2.798-8.611l-17.054-23.853 27.817-9.271c2.932-.978 5.49-2.836 7.325-5.322l17.415-23.59 17.415 23.59c1.835 2.486 4.393 4.345 7.325 5.322l27.817 9.271-17.055 23.853c-1.797 2.514-2.774 5.521-2.797 8.61zm131.942-10.557c-33.281 0-65.918-7.857-95.294-22.825l19.649-27.481c2.769-3.874 3.535-8.832 2.063-13.36-1.471-4.528-5.005-8.089-9.522-9.595l-42.589-14.195-26.663-36.118c-2.828-3.831-7.307-6.092-12.068-6.092-4.762 0-9.24 2.261-12.068 6.092l-8.978 12.162c-16.103-30.22-24.54-63.907-24.54-98.598 0-40.844 11.624-80.13 33.684-114.113h47.213c8.284 0 15-6.716 15-15v-47.212c33.983-22.061 73.269-33.685 114.113-33.685 37.475 0 73.936 9.899 106.008 28.692 0 .106-.008.211-.008.318 0 41.355 33.645 75 75 75 .106 0 .211-.008.317-.008 18.794 32.072 28.693 68.533 28.693 106.008 0 39.85-10.896 77.825-31.692 111.036l-8.269-13.38c-2.733-4.422-7.562-7.114-12.76-7.114s-10.027 2.692-12.76 7.114l-57.901 93.694c-27.256 12.374-56.373 18.66-86.628 18.66zm100.48 15.99 9.473-15.329c.001-.001.002-.003.003-.004l47.333-76.592 56.808 91.925z"/><path d="m276.045 282.237c-5.527 5.609-12.646 8.698-20.045 8.698s-14.519-3.089-20.045-8.698c-5.815-5.902-15.312-5.972-21.213-.157-5.901 5.814-5.971 15.312-.157 21.212 11.21 11.378 25.918 17.644 41.416 17.644s30.206-6.266 41.416-17.644c5.814-5.9 5.744-15.397-.157-21.212-5.902-5.814-15.398-5.745-21.215.157z"/><path d="m256 132.346c-68.183 0-123.654 55.471-123.654 123.654s55.471 123.654 123.654 123.654 123.654-55.47 123.654-123.654-55.471-123.654-123.654-123.654zm0 217.308c-51.641 0-93.654-42.013-93.654-93.654s42.013-93.654 93.654-93.654 93.654 42.013 93.654 93.654-42.013 93.654-93.654 93.654z"/><circle cx="214.91" cy="236.652" r="15"/><circle cx="297.09" cy="236.652" r="15"/></g><g/><g/><g/><g/><g/><g/><g/><g/><g/><g/><g/><g/><g/><g/><g/></svg>