<svg id="Capa_1" enable-background="new 0 0 512 512" viewBox="0 0 512 512" xmlns="http://www.w3.org/2000/svg"><g><path d="m78.088 145.479c8.284 0 15-6.716 15-15v-55.479c0-8.284-6.716-15-15-15s-15 6.716-15 15v55.479c0 8.285 6.716 15 15 15z"/><path d="m138.088 145.479c8.284 0 15-6.716 15-15v-55.479c0-8.284-6.716-15-15-15s-15 6.716-15 15v55.479c0 8.285 6.716 15 15 15z"/><path d="m373.832 137.073c1.583 6.328 7.885 10.898 14.399 10.826h21.316l-20.746 34.823c-4.239 7.116-1.907 16.323 5.21 20.563 2.406 1.434 5.051 2.115 7.662 2.115 5.112 0 10.095-2.614 12.901-7.325l34.256-57.5c2.103-3.526 2.681-7.911 1.512-11.852-1.721-6.292-7.885-10.897-14.399-10.825h-21.316l20.745-34.823c4.24-7.117 1.907-16.323-5.21-20.563s-16.322-1.907-20.563 5.21l-34.255 57.5c-1.389 2.357-2.742 6.933-1.512 11.851z"/><path d="m497 0h-482c-8.284 0-15 6.716-15 15v236.8c0 8.284 6.716 15 15 15h186.074l42.76 59.285c2.819 3.909 7.346 6.226 12.166 6.226s9.347-2.316 12.166-6.226l42.76-59.285h186.074c8.284 0 15-6.716 15-15v-236.8c0-8.284-6.716-15-15-15zm-15 236.8h-178.75c-4.82 0-9.347 2.316-12.166 6.226l-35.084 48.642-35.084-48.643c-2.819-3.909-7.346-6.226-12.166-6.226h-178.75v-206.799h452z"/><path d="m476 392h-21.58c-6.192-17.459-22.865-30-42.42-30h-376c-8.284 0-15 6.716-15 15v60c0 8.284 6.716 15 15 15h15v9.304c0 27.954 22.742 50.696 50.696 50.696h106.304c8.284 0 15-6.716 15-15s-6.716-15-15-15h-106.304c-11.412 0-20.696-9.284-20.696-20.696v-9.304h331c19.555 0 36.228-12.541 42.42-30h21.58c8.284 0 15-6.716 15-15s-6.716-15-15-15zm-425 0h30v30h-30zm361 30h-301v-30h301c8.271 0 15 6.729 15 15s-6.729 15-15 15z"/><path d="m198.37 147.63c-8.284 0-15 6.716-15 15s6.716 15 15 15h12.63v12.63c0 8.284 6.716 15 15 15s15-6.716 15-15v-12.63h30v12.63c0 8.284 6.716 15 15 15s15-6.716 15-15v-12.63h12.63c8.284 0 15-6.716 15-15s-6.716-15-15-15h-12.63v-30h12.63c8.284 0 15-6.716 15-15s-6.716-15-15-15h-12.63v-12.63c0-8.284-6.716-15-15-15s-15 6.716-15 15v12.63h-30v-12.63c0-8.284-6.716-15-15-15s-15 6.716-15 15v12.63h-12.63c-8.284 0-15 6.716-15 15s6.716 15 15 15h12.63v30zm42.63-30h30v30h-30z"/><circle cx="78.088" cy="190.802" r="15"/><circle cx="138.088" cy="190.802" r="15"/></g><g/><g/><g/><g/><g/><g/><g/><g/><g/><g/><g/><g/><g/><g/><g/></svg>