<svg id="Capa_1" enable-background="new 0 0 512 512" viewBox="0 0 512 512" xmlns="http://www.w3.org/2000/svg"><g><path d="m230.604 262.135-220.79 81.35c-6.222 2.293-10.201 8.399-9.784 15.017.416 6.618 5.128 12.177 11.589 13.672l104.118 24.089 24.089 104.118c1.495 6.46 7.054 11.173 13.672 11.589.317.02.633.03.948.03 6.247 0 11.887-3.89 14.069-9.814l81.35-220.79c2.022-5.49.668-11.655-3.469-15.792-4.137-4.138-10.302-5.491-15.792-3.469zm-72.873 182.546-14.877-64.302c-1.292-5.582-5.65-9.941-11.232-11.232l-64.302-14.877 143.159-52.747z"/><path d="m369 0c-78.851 0-143 64.149-143 143s64.149 143 143 143 143-64.149 143-143-64.149-143-143-143zm0 256c-62.309 0-113-50.691-113-113s50.691-113 113-113 113 50.691 113 113-50.691 113-113 113z"/><path d="m326.607 310.394c-5.857-5.858-15.355-5.858-21.213 0s-5.858 15.355 0 21.213l29 29c5.857 5.858 15.355 5.858 21.213 0s5.858-15.355 0-21.213z"/><path d="m270.5 343.994c-8.284 0-15 6.716-15 15v41.012c0 8.284 6.716 15 15 15s15-6.716 15-15v-41.012c0-8.284-6.716-15-15-15z"/><path d="m180.394 206.606c5.857 5.858 15.356 5.858 21.213 0 5.858-5.858 5.858-15.355 0-21.213l-29-29c-5.857-5.858-15.355-5.858-21.213 0s-5.858 15.355 0 21.213z"/><path d="m111.994 256.5h41.012c8.284 0 15-6.716 15-15s-6.716-15-15-15h-41.012c-8.284 0-15 6.716-15 15s6.716 15 15 15z"/><path d="m386 129.91c-6.649-2.683-11.3-4.373-17-6.56-3.75-1.43-6.75-2.66-9.4-4.04-2.99-1.56-4.36-5.03-3.06-7.75 1.07-2.23 3.28-3.9 6.38-4.83 2.06-.62 4.1-.92 6.08-.98 10.78-.33 19.86 6.42 20.89 7.22.01 0 .01.01.02.01 6.12 4.6 14.28 4.47 19.3.25 6.26-5.24 6.96-16.22-.02-23.23-.64-.54-10.55-8.7-25.19-12.44v-8.36c0-8.29-6.72-15-15-15s-15 6.71-15 15v8.89c-8.852 3.173-21.413 10.71-25.95 23.96-5.95 16.65 1.35 35.36 17.69 43.87 5.17 2.69 10.35 4.64 16.91 7.12 4.079 1.524 8.442 3.208 12.74 4.93 3.23 1.2 13.68 5.59 12.51 12.13-.618 5.656-10.078 11.438-18.9 10.25-8.96-.61-17.38-4.44-22.88-10.51-5.57-6.14-15.05-6.61-21.19-1.04-6.14 5.56-6.61 15.04-1.05 21.18 7.96 8.78 18.45 15.01 30.12 18.15v9.67c0 8.23 6.77 15 15 15s15-6.77 15-15v-8.87c12.79-3.15 23.43-11.06 29.24-21.69 2.01-3.66 3.44-7.64 4.2-11.87 2.73-15.31-4.1-35.28-31.44-45.46z"/></g><g/><g/><g/><g/><g/><g/><g/><g/><g/><g/><g/><g/><g/><g/><g/></svg>