<svg id="Capa_1" enable-background="new 0 0 512 512" viewBox="0 0 512 512" xmlns="http://www.w3.org/2000/svg"><g><path d="m292.338 266.193c-6.52-5.109-15.947-3.967-21.059 2.554-3.71 4.735-9.279 7.45-15.279 7.45s-11.569-2.715-15.279-7.45c-5.11-6.521-14.541-7.662-21.059-2.554-6.521 5.11-7.664 14.539-2.555 21.059 9.436 12.04 23.611 18.945 38.893 18.945s29.457-6.905 38.893-18.945c5.109-6.52 3.965-15.949-2.555-21.059z"/><path d="m449.378 492.727-27.106-91.202c-11.65-39.193-43.588-65.525-79.474-65.525h-13.191c12.969-12.647 22.706-28.592 27.83-46.47h28.033c6.236 0 12.311-1.049 18.03-3.048v33.518c0 8.284 6.716 15 15 15s15-6.716 15-15v-59.145c4.243-7.854 6.5-16.681 6.5-25.855 0-9.325-2.357-18.109-6.5-25.793v-30.597c0-98.147-79.347-178.271-176.93-178.61h-.58c-47.285 0-91.78 18.387-125.288 51.774-33.663 33.543-52.202 78.193-52.202 125.726v31.707c-4.143 7.684-6.5 16.468-6.5 25.793 0 14.56 5.674 28.251 15.976 38.554 10.302 10.302 23.994 15.976 38.555 15.976h28.033c5.124 17.878 14.861 33.823 27.83 46.47h-13.191c-35.887 0-67.824 26.332-79.474 65.525l-27.106 91.202c-1.35 4.539-.477 9.448 2.355 13.243 2.831 3.795 7.288 6.03 12.022 6.03h358c4.734 0 9.191-2.235 12.022-6.031 2.832-3.795 3.705-8.704 2.356-13.242zm-280.878-311.933c-2.665-48.196 39.164-91.842 87.499-90.794 48.979-.093 88.707 41.276 87.501 90.794-.272.057-23.866.206-23.866.206-20.881 0-40.269-11.273-50.598-29.42-2.667-4.686-7.645-7.58-13.036-7.58s-10.369 2.894-13.036 7.58c-10.329 18.147-29.717 29.42-50.598 29.42 0 0-23.594-.149-23.866-.206zm216.97 78.736h-23.97v-48.831c.306-.062.602-.149.9-.229h23.07c13.526 0 24.53 11.004 24.53 24.53 0 6.547-2.553 12.705-7.188 17.341-4.636 4.636-10.795 7.189-17.342 7.189zm-233.592-186.505c27.846-27.745 64.819-43.025 104.112-43.025h.528c81.046.281 146.982 66.947 146.982 148.61v4.937c-8.699-3.504-20.557-3.167-30-3.077 1.053-65.944-52.13-120.555-117.504-120.47-64.308-1.371-120.369 56.259-117.496 120.47h-11.97c-6.318 0-12.382 1.092-18.03 3.077v-6.047c0-39.499 15.405-76.602 43.378-104.475zm-42.688 179.316c-4.637-4.636-7.19-10.794-7.19-17.341 0-13.526 11.004-24.53 24.53-24.53h23.07c.299.08.594.167.9.229v48.831h-23.97c-6.547 0-12.706-2.553-17.34-7.189zm71.31 8.159v-49.5h11.866c24.266 0 47.201-10.047 63.634-27.134 16.433 17.087 39.368 27.134 63.634 27.134h11.866v49.5c0 41.631-33.869 75.5-75.5 75.5s-75.5-33.869-75.5-75.5zm186.203 221.5v-39.602c0-8.284-6.716-15-15-15s-15 6.716-15 15v39.602h-161.406v-39.602c0-8.284-6.716-15-15-15s-15 6.716-15 15v39.602h-48.19l21.378-71.928c7.835-26.361 28.217-44.072 50.717-44.072h71.798v40.558c0 8.284 6.716 15 15 15s15-6.716 15-15v-40.558h71.798c22.5 0 42.882 17.711 50.718 44.072l21.377 71.928z"/></g><g/><g/><g/><g/><g/><g/><g/><g/><g/><g/><g/><g/><g/><g/><g/></svg>