<svg id="Capa_1" enable-background="new 0 0 512 512" viewBox="0 0 512 512" xmlns="http://www.w3.org/2000/svg"><g><path d="m352.384 350.904-51.336-22.388v-85.516c0-12.017-4.682-23.316-13.184-31.816-8.783-8.784-20.451-13.477-32.881-13.171-24.226.564-43.935 21.018-43.935 45.594v90.432c-6.467-3.481-13.731-5.328-21.28-5.328-12.369 0-23.903 4.918-32.478 13.848-16.833 17.534-16.351 45.977 1.077 63.404l25.558 25.559c17.49 17.49 27.123 40.745 27.123 65.479 0 8.284 6.716 15 15 15h111c6.646 0 12.5-4.374 14.385-10.747l27.849-94.198c.02-.067.039-.135.058-.203 6.478-23.108-5.105-47.109-26.956-55.949zm-1.907 47.763-24.637 83.333h-85.695c-3.281-27.069-15.423-52.108-35.007-71.692l-25.559-25.559c-5.966-5.967-6.257-15.573-.65-21.414 2.864-2.982 6.713-4.625 10.838-4.625 4.003 0 7.768 1.562 10.603 4.396l15.07 15.07c4.291 4.29 10.741 5.573 16.347 3.252 5.605-2.322 9.26-7.791 9.26-13.858v-123.964c0-8.415 6.565-15.414 14.635-15.602 4.147-.103 8.039 1.463 10.969 4.393 2.835 2.834 4.396 6.6 4.396 10.603v95.34c0 5.966 3.536 11.364 9.004 13.749l60.543 26.402c.149.065.3.128.451.188 7.56 3.008 11.69 11.774 9.432 19.988z"/><path d="m196.823 108.855.313 41.26c.036 4.761 2.331 9.223 6.183 12.021 3.853 2.798 8.805 3.601 13.344 2.165l39.337-12.453 39.337 12.453c1.482.469 3.008.699 4.526.699 3.13 0 6.224-.979 8.818-2.864 3.852-2.799 6.146-7.261 6.183-12.021l.313-41.26 23.999-33.564c2.77-3.873 3.536-8.831 2.064-13.36-1.471-4.528-5.005-8.089-9.522-9.595l-39.144-13.047-24.506-33.197c-2.828-3.831-7.306-6.092-12.068-6.092s-9.24 2.261-12.068 6.092l-24.505 33.196-39.144 13.047c-4.517 1.506-8.051 5.066-9.522 9.595-1.472 4.529-.706 9.487 2.064 13.36zm36.595-42.608c2.932-.978 5.49-2.836 7.325-5.322l15.257-20.668 15.257 20.668c1.835 2.486 4.393 4.345 7.325 5.322l24.371 8.123-14.941 20.897c-1.797 2.514-2.774 5.521-2.798 8.61l-.195 25.688-24.492-7.753c-2.946-.932-6.108-.932-9.054 0l-24.492 7.753-.195-25.688c-.023-3.09-1-6.097-2.798-8.61l-14.941-20.897z"/><path d="m511.266 141.93c-1.471-4.528-5.005-8.089-9.522-9.595l-39.144-13.047-24.505-33.196c-2.828-3.831-7.307-6.092-12.069-6.092s-9.24 2.261-12.068 6.092l-24.505 33.196-39.144 13.047c-4.517 1.506-8.051 5.066-9.522 9.595-1.472 4.529-.706 9.487 2.064 13.36l23.999 33.564.313 41.26c.036 4.761 2.331 9.223 6.183 12.021 3.853 2.799 8.805 3.602 13.344 2.165l39.337-12.453 39.337 12.453c1.482.469 3.008.699 4.526.699 3.13 0 6.224-.979 8.818-2.864 3.852-2.799 6.146-7.261 6.183-12.021l.313-41.26 23.999-33.564c2.768-3.873 3.534-8.831 2.063-13.36zm-53.228 33.338c-1.797 2.514-2.774 5.521-2.798 8.61l-.195 25.688-24.492-7.753c-2.946-.932-6.108-.932-9.054 0l-24.492 7.753-.195-25.688c-.023-3.09-1-6.097-2.798-8.61l-14.941-20.897 24.371-8.123c2.932-.978 5.49-2.836 7.325-5.322l15.257-20.668 15.257 20.668c1.835 2.486 4.393 4.345 7.325 5.322l24.371 8.123z"/><path d="m171.213 141.93c-1.471-4.528-5.005-8.089-9.522-9.595l-39.144-13.047-24.505-33.196c-2.828-3.831-7.307-6.092-12.068-6.092s-9.24 2.261-12.068 6.092l-24.506 33.196-39.144 13.047c-4.517 1.506-8.051 5.066-9.522 9.595-1.472 4.529-.706 9.487 2.064 13.36l23.999 33.564.313 41.26c.036 4.761 2.331 9.223 6.183 12.021s8.805 3.602 13.344 2.165l39.337-12.453 39.337 12.453c4.51 1.431 9.485.643 13.344-2.165 3.852-2.799 6.146-7.261 6.183-12.021l.313-41.26 23.999-33.564c2.769-3.873 3.535-8.831 2.063-13.36zm-53.228 33.338c-1.797 2.514-2.774 5.521-2.798 8.61l-.195 25.688-24.492-7.753c-2.946-.932-6.108-.932-9.054 0l-24.492 7.753-.195-25.688c-.023-3.09-1-6.097-2.798-8.61l-14.94-20.898 24.371-8.123c2.932-.978 5.49-2.836 7.325-5.322l15.257-20.668 15.257 20.668c1.835 2.486 4.393 4.345 7.325 5.322l24.371 8.123z"/></g><g/><g/><g/><g/><g/><g/><g/><g/><g/><g/><g/><g/><g/><g/><g/></svg>