<svg id="Capa_1" enable-background="new 0 0 512 512" viewBox="0 0 512 512" xmlns="http://www.w3.org/2000/svg"><g><path d="m434.913 340.663c-5.857-5.857-15.355-5.857-21.213 0l-74.922 74.922c-5.858 5.857-5.858 15.355 0 21.213 2.929 2.929 6.768 4.394 10.606 4.394s7.678-1.465 10.606-4.394l74.922-74.922c5.859-5.857 5.859-15.355.001-21.213z"/><path d="m512 387.788c0-68.49-55.721-124.212-124.212-124.212-3.161 0-6.295.12-9.398.354l-20.51-160.827c-.956-7.491-7.329-13.103-14.88-13.103h-52.5v-3.5c0-23.107-8.997-44.83-25.333-61.166-16.336-16.337-38.059-25.334-61.167-25.334-47.696 0-86.5 38.804-86.5 86.5v3.5h-52.5c-7.55 0-13.924 5.612-14.879 13.103l-50 392c-.545 4.274.774 8.576 3.622 11.811 2.847 3.232 6.948 5.086 11.257 5.086h372.79.001c68.489-.001 124.209-55.723 124.209-124.212zm-364.5-301.288c0-31.154 25.346-56.5 56.5-56.5 15.094 0 29.283 5.876 39.954 16.547 10.67 10.67 16.546 24.858 16.546 39.953v3.5h-113zm-115.465 395.5 46.174-362h39.291v42c0 8.284 6.716 15 15 15s15-6.716 15-15v-42h113v42c0 8.284 6.716 15 15 15s15-6.716 15-15v-42h39.291l19.107 149.819c-49.5 16.36-85.322 63.057-85.322 117.969 0 37.637 16.83 71.414 43.355 94.212zm355.753 0c-51.949 0-94.212-42.264-94.212-94.212s42.263-94.212 94.212-94.212 94.212 42.264 94.212 94.212-42.263 94.212-94.212 94.212z"/><path d="m221.01 242.91c-6.656-2.68-11.305-4.373-17.01-6.55-3.75-1.44-6.75-2.67-9.4-4.05-2.99-1.56-4.36-5.03-3.06-7.75 1.727-4.061 8.121-5.765 12.46-5.81 10.78-.33 19.86 6.42 20.89 7.21 6.22 4.51 14.6 3.94 19.64-.9 5.82-5.57 6.02-15.72-.34-22.06-.64-.54-10.55-8.7-25.19-12.44v-8.36c0-8.29-6.72-15-15-15s-15 6.71-15 15v8.89c-11.09 3.41-19.79 10.67-24.5 20.48-8.38 17.44-1.25 38.24 16.24 47.35 1.683.877 8.89 3.981 16.92 7.12 5.42 2.096 7.847 2.952 12.73 4.93 3.23 1.2 13.68 5.59 12.51 12.13-.618 5.656-10.078 11.438-18.9 10.25-8.96-.61-17.38-4.44-22.88-10.51-5.57-6.14-15.05-6.61-21.19-1.05-6.14 5.57-6.61 15.05-1.05 21.19 7.96 8.78 18.45 15.01 30.12 18.15v9.67c0 8.29 6.72 15 15 15s15-6.71 15-15v-8.87c17.2-4.24 30.49-17.06 33.44-33.55 2.73-15.32-4.1-35.29-31.43-45.47z"/><circle cx="349.39" cy="351.271" r="15"/><circle cx="424.31" cy="426.192" r="15"/></g><g/><g/><g/><g/><g/><g/><g/><g/><g/><g/><g/><g/><g/><g/><g/></svg>