<svg id="Capa_1" enable-background="new 0 0 512 512" height="512" viewBox="0 0 512 512" width="512" xmlns="http://www.w3.org/2000/svg"><g><path d="m0 0v512h512v-512zm150 60v-30h30v30zm-60 0v-30h30v30zm-60-30h30v30h-30zm452 452h-452v-392h452zm-272-422v-30h272v30z"/><path d="m172.211 326.646c2.562 4.229 5.589 8.094 8.986 11.553l-29.892 96.423 47.756-2.075 38.208 28.726 18.731-60.425 18.731 60.423 38.208-28.725 47.756 2.075-29.891-96.421c3.396-3.459 6.423-7.324 8.985-11.553 18.581-11.257 30.212-31.402 30.669-53.122 10.463-19.037 10.463-42.298 0-61.337-.457-21.722-12.089-41.866-30.669-53.121-11.256-18.582-31.4-30.211-53.12-30.669-19.041-10.464-42.301-10.462-61.337 0-21.72.458-41.865 12.09-53.121 30.67-18.582 11.256-30.211 31.398-30.668 53.119-10.464 19.039-10.464 42.3 0 61.339.456 21.717 12.087 41.862 30.668 53.12zm36.286 75.462-15.919.691 15.009-48.415c5.683 1.793 11.651 2.801 17.743 2.93 3.62 1.989 7.393 3.598 11.259 4.831l-15.357 49.537zm95.006 0-12.736 9.575-15.357-49.539c3.867-1.233 7.64-2.841 11.26-4.83 6.092-.128 12.06-1.136 17.743-2.929l15.009 48.415zm-135.328-176.079 3.353-5.806v-6.705c0-11.986 6.448-23.155 16.831-29.149l5.803-3.353 3.352-5.804c5.993-10.381 17.162-16.829 29.148-16.829h6.702l5.808-3.352c10.379-5.994 23.275-5.995 33.656 0l5.807 3.352h6.703c11.986 0 23.155 6.448 29.149 16.831l3.351 5.803 5.806 3.353c10.38 5.993 16.828 17.162 16.828 29.148v6.705l3.352 5.804c5.993 10.38 5.993 23.277 0 33.658l-3.352 5.806v6.703c0 11.986-6.449 23.155-16.826 29.146l-5.809 3.352-3.353 5.808c-5.992 10.38-17.161 16.828-29.147 16.828h-6.706l-5.803 3.353c-10.382 5.99-23.278 5.991-33.656.001l-5.807-3.354h-6.705c-11.986 0-23.155-6.448-29.147-16.827l-3.353-5.808-5.805-3.351c-10.38-5.993-16.829-17.162-16.829-29.148v-6.703l-3.352-5.807c-5.991-10.379-5.991-23.277.001-33.655z"/><path d="m312.163 224.129-21.213-21.213-48.06 48.061-21.84-21.841-21.213 21.213 43.053 43.053z"/></g></svg>