<svg id="Capa_1" enable-background="new 0 0 512 512" height="512" viewBox="0 0 512 512" width="512" xmlns="http://www.w3.org/2000/svg"><g><path d="m211 302h90v30h-90z"/><path d="m341 242v-19.485c0-22.34-18.175-40.515-40.515-40.515h-88.971c-22.339 0-40.514 18.175-40.514 40.515v19.485h-106v126.688c0 17.94 8.703 33.826 22 43.493v99.819h338v-99.818c13.297-9.667 22-25.553 22-43.493v-126.689zm-140-19.485c0-5.798 4.717-10.515 10.515-10.515h88.971c5.798 0 10.515 4.717 10.515 10.515v19.485h-110.001zm-106 49.485h322v96.688c0 12.854-9.885 23.312-22.034 23.312h-93.966v-30h-90v30h-93.966c-12.149 0-22.034-10.457-22.034-23.312zm176 120v30h-30v-30zm124 90h-278v-60.001c.011 0 .023.001.034.001h93.966v30h90v-30h93.966c.011 0 .023-.001.034-.001z"/><path d="m256 11.109c-36.082-27.765-82.496-.053-81.68 45.19.601 43.392 48.499 80.276 81.68 94.365 33.233-14.099 81.105-51.054 81.68-94.365.816-45.243-45.598-72.955-81.68-45.19zm0 106.059c-20.088-11.615-49.541-32.866-51.668-61.306-.448-23.531 23.178-36.212 39.186-14.961 0 0 4.484 6.316 4.484 6.316h15.996s4.484-6.316 4.484-6.316c16.029-21.268 39.637-8.544 39.186 14.961-2.127 28.44-31.58 49.691-51.668 61.306z"/></g></svg>