<svg id="Capa_1" enable-background="new 0 0 512 512" height="512" viewBox="0 0 512 512" width="512" xmlns="http://www.w3.org/2000/svg"><g><path d="m435.719 48.646c-32.383 0-62.953-15.732-81.77-42.077l-4.685-6.569h-27.411l-4.691 6.561c-18.822 26.353-49.392 42.085-81.775 42.085h-46.513v177.878c-6.676-2.272-13.821-3.524-21.256-3.524h-29.851v74.909l-32.004 36.091h-75.995v178h219.607c27.26 0 50.1-19.548 54.308-46.481l10.451-66.887 21.42 9.891 93.755-43.294c32.149-14.848 52.923-47.322 52.923-82.733v-233.85zm-338.951 433.354h-37v-118h37zm190.409-105.179-13.135 84.066c-1.911 12.234-12.285 21.113-24.667 21.113h-122.607v-126.47l41-46.236v-56.294c19.864.081 36 16.267 36 36.149v58.851h58.743c7.305 0 14.218 3.183 18.968 8.732 4.749 5.55 6.826 12.872 5.698 20.089zm165.055-94.326c0 23.754-13.935 45.538-35.501 55.497l-81.178 37.485-18.407-8.5c-1.189-10.877-5.606-21.258-12.876-29.752-10.457-12.217-25.677-19.225-41.76-19.225h-28.743v-28.851c0-15.824-5.591-30.363-14.893-41.759v-168.744h16.513c38.757 0 75.514-17.354 100.166-46.859 24.656 29.508 61.411 46.859 100.166 46.859h16.513z"/><path d="m320.102 159.787-21.325-21.325-21.213 21.213 42.538 42.538 73.44-73.44-21.213-21.212z"/><path d="m285.04 248h101.026v30h-101.026z"/></g></svg>