<svg id="Capa_1" enable-background="new 0 0 512 512" height="512" viewBox="0 0 512 512" width="512" xmlns="http://www.w3.org/2000/svg"><g><path d="m338.473 37.41-21.213-21.213-83.718 83.718-38.802-38.802-21.213 21.213 60.015 60.016z"/><path d="m512 41.561-21.213-21.213-40.571 40.571-40.571-40.571-21.213 21.213 40.571 40.571-40.571 40.572 21.213 21.213 40.571-40.572 40.571 40.572 21.213-21.213-40.571-40.572z"/><path d="m102.355 20.348-40.571 40.571-40.571-40.571-21.213 21.213 40.571 40.571-40.571 40.572 21.213 21.213 40.571-40.572 40.571 40.572 21.213-21.213-40.571-40.572 40.571-40.571z"/><path d="m301.6 225.783c.532-24.538-20.971-46.878-45.67-46.179-24.468-.47-46.036 21.081-45.53 45.554v90.031c-34.327-6.917-55.115 13.827-67.392 43.557l67.392 75.704v61.354h152.4v-55.51l23.4-48.888v-97.89l-84.6-14.122zm54.6 158.813-23.4 48.888v32.319h-92.4v-42.772l-61.257-68.812c7.417-12.007 25.919-13.903 35.606-3.526 0 0 25.651 25.869 25.651 25.869v-151.404c-.174-8.43 7.322-15.807 15.745-15.555 8.353-.268 15.688 7.803 15.455 16.095v79.103l84.6 14.122z"/></g></svg>