<svg id="Capa_1" enable-background="new 0 0 512 512" height="512" viewBox="0 0 512 512" width="512" xmlns="http://www.w3.org/2000/svg"><g><path d="m136.875 360.125c-5.736 0-10.402-4.666-10.402-10.402 0-5.735 4.666-10.401 10.402-10.401h29.636v-30h-14.636v-17.969h-30v20.868c-14.87 5.969-25.402 20.524-25.402 37.502 0 22.278 18.124 40.402 40.402 40.402 5.736 0 10.402 4.666 10.402 10.402 0 5.735-4.666 10.401-10.402 10.401h-29.636v30h14.636v17.969h30v-20.867c14.87-5.969 25.402-20.524 25.402-37.502 0-22.279-18.124-40.403-40.402-40.403z"/><path d="m481.569 118.689c2.817-5.875 4.398-12.45 4.398-19.389 0-24.813-20.187-45-45-45s-45 20.187-45 45c0 6.939 1.581 13.514 4.398 19.389l-86.065 86.064-17.759-17.759c2.817-5.875 4.398-12.45 4.398-19.389 0-24.813-20.187-45-45-45s-45 20.187-45 45c0 6.939 1.581 13.514 4.398 19.389l-33.46 33.46v-220.454h-90v245.858c-53.435 18.655-91.877 69.553-91.877 129.267 0 75.473 61.402 136.875 136.875 136.875 59.715 0 110.612-38.442 129.267-91.875h245.858v-271.005zm-40.603-34.389c8.271 0 15 6.729 15 15s-6.729 15-15 15-15-6.729-15-15 6.729-15 15-15zm-185.028 68.304c8.271 0 15 6.729 15 15s-6.729 15-15 15-15-6.729-15-15 6.729-15 15-15zm-134.063-122.604h30v209.076c-4.928-.54-9.931-.826-15-.826s-10.072.286-15 .826zm15 452c-58.931 0-106.875-47.944-106.875-106.875s47.944-106.875 106.875-106.875 106.875 47.944 106.875 106.875-47.944 106.875-106.875 106.875zm345.125-91.875h-209.076c.54-4.928.826-9.931.826-15s-.286-10.072-.826-15h209.076zm-215.858-60c-12.288-35.198-38.566-63.885-72.143-79.369l42.549-42.549c5.875 2.817 12.451 4.398 19.389 4.398s13.515-1.581 19.389-4.398l38.972 38.972 107.278-107.277c5.875 2.817 12.451 4.398 19.389 4.398s13.515-1.581 19.39-4.398l21.645 21.644v168.579z"/></g></svg>