<svg id="Capa_1" enable-background="new 0 0 512 512" height="512" viewBox="0 0 512 512" width="512" xmlns="http://www.w3.org/2000/svg"><g><path d="m346 212h-75v-28h-30v28h-75v73h-98v227h376v-227h-98zm-180 270h-68v-47h30v-30h-30v-30h30v-30h-30v-30h68zm150 0h-45v-30h-30v30h-45v-240h120zm98-167v30h-30v30h30v30h-30v30h30v47h-68v-167z"/><path d="m226 392h60v30h-60z"/><path d="m226 332h60v30h-60z"/><path d="m226 272h60v30h-60z"/><path d="m460.603 92.428c4.058-6.756 6.397-14.657 6.397-23.096 0-24.813-20.187-45-45-45s-45 20.187-45 45c0 8.439 2.339 16.34 6.397 23.096-12.885 8.573-21.397 23.22-21.397 39.823v42.196h120v-42.196c0-16.603-8.512-31.25-21.397-39.823zm-38.603-38.096c8.271 0 15 6.729 15 15s-6.729 15-15 15-15-6.729-15-15 6.729-15 15-15zm30 90.115h-60v-12.196c0-9.817 7.986-17.804 17.803-17.804h24.395c9.816 0 17.803 7.986 17.803 17.804v12.196z"/><path d="m150 132.251c0-16.603-8.512-31.25-21.397-39.823 4.058-6.756 6.397-14.657 6.397-23.096 0-24.813-20.187-45-45-45s-45 20.187-45 45c0 8.439 2.339 16.34 6.397 23.096-12.885 8.573-21.397 23.22-21.397 39.823v42.196h120zm-60-77.919c8.271 0 15 6.729 15 15s-6.729 15-15 15-15-6.729-15-15 6.729-15 15-15zm30 90.115h-60v-12.196c0-9.817 7.986-17.804 17.803-17.804h24.394c9.817 0 17.803 7.986 17.803 17.804z"/><path d="m316 107.803c0-16.582-8.49-31.214-21.349-39.791 4.027-6.738 6.349-14.608 6.349-23.012 0-24.813-20.187-45-45-45s-45 20.187-45 45c0 8.404 2.322 16.274 6.349 23.012-12.859 8.577-21.349 23.209-21.349 39.791v42.197h120zm-60-77.803c8.271 0 15 6.729 15 15s-6.729 15-15 15-15-6.729-15-15 6.729-15 15-15zm30 90h-60v-12.197c0-9.817 7.986-17.803 17.803-17.803h24.394c9.817 0 17.803 7.986 17.803 17.803z"/></g></svg>