<svg id="Capa_1" enable-background="new 0 0 512 512" height="512" viewBox="0 0 512 512" width="512" xmlns="http://www.w3.org/2000/svg"><g><path d="m216.374 326.425-216.374-10.765v131.529l201-10v74.447l55-13.75 55 13.75v-74.446l201 10v-131.53l-216.374 10.765zm14.626 80v-50h50v50zm-201-59.236 171 8.508v50.728.728l-171 8.507zm251 126.024-25-6.25-25 6.25v-36.788h50zm201-57.553-171-8.508v-.728-50.728l171-8.508z"/><path d="m482 184.922v-66.017l22.408-9.808-248.408-108.734-248.407 108.734 112.407 49.203v128.125h272v-128.125l60-26.263v52.886c-17.459 6.192-30 22.865-30 42.42v59.083h90v-59.083c0-19.556-12.541-36.229-30-42.421zm-226-151.811 139.324 60.985h-142.931v30h142.931l-139.324 60.985-173.592-75.984zm106 223.314h-212v-84.994l106 46.398 106-46.398zm120 0h-30v-29.083c0-8.271 6.729-15 15-15s15 6.729 15 15z"/></g></svg>