<svg id="Capa_1" enable-background="new 0 0 512 512" height="512" viewBox="0 0 512 512" width="512" xmlns="http://www.w3.org/2000/svg"><g><path d="m90 60h180.459v30h-180.459z"/><path d="m90 120h180.459v30h-180.459z"/><path d="m90 180h180.459v30h-180.459z"/><path d="m512 230.645c0-65.617-53.383-119-119-119-22.927 0-44.356 6.524-62.541 17.803v-129.448h-300.459v306.459h-30v45c0 24.813 20.187 45 45 45h240.459c24.813 0 45-20.187 45-45v-19.618c5.56 3.449 11.424 6.451 17.541 8.959v171.2h90v-171.2c43.37-17.782 74-60.456 74-110.155zm-467 135.814c-8.271 0-15-6.729-15-15v-15h210.459v15c0 5.257.906 10.307 2.57 15zm240.459 0c-8.272 0-15-6.729-15-15v-45h-210.459v-276.459h240.459v125.922c-16.537 20.441-26.459 46.443-26.459 74.723s9.922 54.281 26.459 74.722v46.092c0 8.271-6.729 15-15 15zm122.541 115.541h-30v-133.298c4.914.621 9.92.942 15 .942s10.086-.322 15-.942zm-15-162.355c-49.075 0-89-39.925-89-89s39.925-89 89-89 89 39.925 89 89-39.925 89-89 89z"/></g></svg>