<svg id="Capa_1" enable-background="new 0 0 512 512" height="512" viewBox="0 0 512 512" width="512" xmlns="http://www.w3.org/2000/svg"><g><path d="m347.7 205.133c5.947-20.693 4.744-43.05-3.932-63.334l-.251-.557c-7.535-15.805-15.539-29.884-22.6-42.306-15.012-26.409-26.87-47.269-26.87-70.324v-28.447l-23.473 16.069c-27.312 18.697-55.374 37.908-65.265 78.476l-25.146-26.258-17.803 91.018c-3.001 15.343-2.179 31.076 2.24 45.54-40.475 17.022-68.969 57.08-68.969 103.671 0 31.254 11.315 61.358 34.593 92.033 24.027 31.663 62.322 66.013 117.074 105.016l8.703 6.199 8.703-6.199c54.752-39.002 93.047-73.353 117.074-105.016 23.278-30.675 34.593-60.779 34.593-92.033-.001-46.476-28.354-86.455-68.671-103.548zm-155.898-39.904 6.699-34.252 33.087 34.549v-37.35c0-38.153 14.281-56.312 35.984-73.011 5.235 19.843 15.697 38.249 27.265 58.597 7.097 12.485 14.436 25.394 21.463 40.104 5.873 13.907 6.602 29.223 2.435 43.381-4.835-.637-9.764-.971-14.771-.971-16.616 0-33.037 3.69-47.965 10.731-14.928-7.041-31.349-10.731-47.965-10.731-4.892 0-9.712.316-14.44.925-3.258-10.034-3.917-21.108-1.792-31.972zm64.188 309.81c-65.867-47.708-130.36-104.286-130.36-166.357 0-45.438 36.967-82.406 82.405-82.406 14.234 0 28.262 3.688 40.567 10.664l7.397 4.194 7.397-4.194c12.306-6.976 26.333-10.664 40.567-10.664 45.438 0 82.405 36.967 82.405 82.406.002 35.488-15.741 82.964-130.378 166.357z"/><path d="m420.651 42.17h68.5v30h-68.5z" transform="matrix(.707 -.707 .707 .707 92.812 338.408)"/><path d="m369.279.071h30v64.347h-30z"/><path d="m447.653 112.792h64.347v30h-64.347z"/><path d="m42.099 22.92h30v68.5h-30z" transform="matrix(.707 -.707 .707 .707 -23.701 57.12)"/><path d="m0 112.792h64.347v30h-64.347z"/><path d="m112.721.071h30v64.347h-30z"/></g></svg>