<svg id="Capa_1" enable-background="new 0 0 512 512" height="512" viewBox="0 0 512 512" width="512" xmlns="http://www.w3.org/2000/svg"><g><path d="m477.508 211c-8.753-43.543-29.926-83.009-61.712-114.796-31.787-31.786-71.253-52.959-114.796-61.712v-34.492h-90v34.492c-43.543 8.753-83.009 29.926-114.796 61.712-31.787 31.787-52.959 71.253-61.712 114.796h-34.492v90h34.492c8.753 43.543 29.925 83.009 61.712 114.796 31.787 31.786 71.253 52.959 114.796 61.712v34.492h90v-34.492c43.543-8.753 83.009-29.926 114.796-61.712 31.786-31.787 52.959-71.253 61.712-114.796h34.492v-90zm4.492 60h-30.148l-1.835 12.886c-6.001 42.154-25.17 80.433-55.435 110.696-30.264 30.265-68.542 49.434-110.696 55.435l-12.886 1.835v30.148h-30v-30.148l-12.886-1.835c-42.154-6.001-80.433-25.17-110.697-55.435-30.264-30.264-49.433-68.542-55.435-110.696l-1.834-12.886h-30.148v-30h30.148l1.834-12.886c6.001-42.154 25.17-80.433 55.435-110.696 30.264-30.265 68.542-49.434 110.697-55.435l12.886-1.835v-30.148h30v30.148l12.886 1.835c42.154 6.001 80.433 25.17 110.696 55.435 30.265 30.264 49.434 68.542 55.435 110.696l1.835 12.886h30.148z"/><path d="m256 90c-91.533 0-166 74.468-166 166s74.467 166 166 166c91.532 0 166-74.468 166-166s-74.468-166-166-166zm0 302c-74.991 0-136-61.01-136-136s61.009-136 136-136c74.99 0 136 61.01 136 136s-61.01 136-136 136z"/><path d="m189.744 166-44.773 90.807 111.029 108.499 111.029-108.498-44.772-90.808zm35.454 72.683h-37.843l14.619-29.65zm4.676-42.683h52.253l-26.127 33.357zm80.152 13.032 14.619 29.651h-37.843zm-109.979 59.651h111.906l-55.953 54.677z"/></g></svg>