<svg id="Capa_1" enable-background="new 0 0 512 512" height="512" viewBox="0 0 512 512" width="512" xmlns="http://www.w3.org/2000/svg"><g><path d="m437.02 74.98c-48.353-48.351-112.64-74.98-181.02-74.98s-132.667 26.629-181.02 74.98c-48.351 48.353-74.98 112.64-74.98 181.02s26.629 132.667 74.98 181.02c48.353 48.351 112.64 74.98 181.02 74.98s132.667-26.629 181.02-74.98c48.351-48.353 74.98-112.64 74.98-181.02s-26.629-132.667-74.98-181.02zm44.876 174.399-18.479 16.507-18.235-16.29c-3.033-90.758-70.256-165.525-157.615-180.252l18.546-20.762-14.044-15.721c46.66 7.441 89.678 29.274 123.736 63.333 41.123 41.121 64.436 95.299 66.091 153.185zm-225.896 165.923c-87.839 0-159.302-71.463-159.302-159.302s71.463-159.302 159.302-159.302 159.302 71.463 159.302 159.302-71.463 159.302-159.302 159.302zm-159.806-319.108c41.121-41.122 95.299-64.436 153.185-66.09l16.507 18.479-16.29 18.235c-90.842 3.036-165.662 70.38-180.292 157.856l-20.956-18.851-15.454 13.902c7.472-46.58 29.291-89.522 63.3-123.531zm-66.091 166.396 18.245-16.414 18.485 16.629c3.221 90.66 70.493 165.282 157.841 179.89l-18.851 20.956 13.902 15.454c-46.581-7.472-89.524-29.291-123.532-63.3-41.128-41.128-64.443-95.318-66.09-153.215zm385.703 153.216c-41.128 41.129-95.318 64.444-153.216 66.091l-16.414-18.245 16.629-18.485c90.576-3.218 165.145-70.369 179.85-157.6l20.762 18.547 15.721-14.044c-7.44 46.659-29.273 89.677-63.332 123.736z"/><path d="m328.02 183.98c-9.819-15.823-27.045-25.769-45.658-26.36-16.416-8.795-36.307-8.795-52.723 0-18.614.592-35.841 10.538-45.658 26.36-15.823 9.819-25.769 27.045-26.36 45.658-8.795 16.416-8.795 36.307 0 52.723.592 18.614 10.538 35.841 26.36 45.658 9.819 15.823 27.045 25.769 45.658 26.36 8.208 4.397 17.285 6.597 26.361 6.597s18.153-2.199 26.361-6.597c18.614-.592 35.841-10.538 45.658-26.36 15.823-9.819 25.769-27.045 26.36-45.658 8.795-16.416 8.795-36.307 0-52.723-.591-18.614-10.537-35.84-26.359-45.658zm-.476 84.919-3.136 5.431v6.271c0 9.188-4.942 17.749-12.902 22.345l-5.427 3.134-3.136 5.43c-4.594 7.957-13.155 12.899-22.343 12.899h-6.271l-5.431 3.136c-7.957 4.594-17.842 4.594-25.799 0l-5.431-3.136h-6.271c-9.188 0-17.749-4.942-22.345-12.902l-3.134-5.427-5.43-3.136c-7.957-4.594-12.899-13.155-12.899-22.343v-6.271l-3.136-5.431c-4.594-7.957-4.594-17.842 0-25.799l3.136-5.431v-6.271c0-9.188 4.942-17.749 12.902-22.345l5.427-3.134 3.136-5.43c4.594-7.957 13.155-12.899 22.343-12.899h6.271l5.431-3.136c7.957-4.594 17.842-4.594 25.799 0l5.431 3.136h6.271c9.188 0 17.749 4.942 22.345 12.902l3.134 5.427 5.43 3.136c7.957 4.594 12.899 13.155 12.899 22.343v6.271l3.136 5.431c4.594 7.958 4.594 17.842 0 25.799z"/><path d="m245.007 259.384-16.601-16.601-21.213 21.213 37.814 37.814 59.8-59.8-21.213-21.213z"/></g></svg>