<svg id="Capa_1" enable-background="new 0 0 512.136 512.136" height="512" viewBox="0 0 512.136 512.136" width="512" xmlns="http://www.w3.org/2000/svg"><g><path d="m15.712 25.28h30v53.712h-30z" transform="matrix(.41 -.912 .912 .41 -29.43 58.8)"/><path d="m3.856 185.136h53.712v30h-53.712z" transform="matrix(.912 -.41 .41 .912 -79.281 30.139)"/><path d="m454.569 37.136h53.712v30h-53.712z" transform="matrix(.912 -.41 .41 .912 20.878 201.752)"/><path d="m466.425 173.28h30v53.712h-30z" transform="matrix(.41 -.912 .912 .41 101.659 557.351)"/><path d="m383.497 28.064c-35.206-38.17-92.915-36.114-127.428.175-61.944-61.887-155.265-15.035-153.379 72.595 1.413 32.347 15.031 64.034 40.476 94.179 16.763 19.861 38.251 38.646 63.903 55.893v64.351c-37.04-8.973-61.348 13.41-74.545 46.001l74.545 83.74v67.138h166v-60.389l26-54.32v-106.977l-94-15.69v-23.85c25.208-16.943 46.408-35.395 63.071-54.918 25.98-30.438 39.878-62.454 41.307-95.158-.157-29.449-9.264-54.968-25.95-72.77zm-14.429 287.794v74.76l-26 54.32v37.199h-106v-48.557l-68.47-76.915c8.348-15.092 31.01-17.921 42.818-5.27l25.651 25.869v-164.177c-.005-10.501 8.619-19.032 19.145-18.951 10.159-.322 19.146 9.442 18.855 19.551v86.48zm-64-101.862c.706-26.454-22.478-50.599-49.073-49.859-27.311.011-49.432 22.578-48.927 49.854-32.922-25.221-72.031-65.209-74.387-114.03-.463-38.052 24.824-75.246 68.932-69.069 20.058 3.501 36.29 19.424 46.187 34.75h16.535c9.886-15.32 26.137-31.257 46.188-34.75 44.119-6.181 69.403 31.053 68.932 69.069-2.347 48.728-41.193 88.625-74.387 114.035z"/></g></svg>