<svg id="Capa_1" enable-background="new 0 0 512 512" height="512" viewBox="0 0 512 512" width="512" xmlns="http://www.w3.org/2000/svg"><g><path d="m300.873 159.974h-29.873v-60.297h104.911l-14.306-49.839 14.306-49.838h-134.911v159.974h-29.873l-211.127 210.806v141.22h512v-141.22zm-29.873-129.974h65.089l-5.694 19.838 5.694 19.839h-65.089zm211 362v30h-452v-30zm-430.748-30 104.028-103.87c7.204 15.272 22.745 25.87 40.72 25.87 7.132 0 13.88-1.667 19.878-4.633 7.445 14.607 22.634 24.633 40.122 24.633 17.487 0 32.677-10.026 40.122-24.633 5.997 2.966 12.746 4.633 19.878 4.633 17.976 0 33.516-10.598 40.72-25.871l104.028 103.871zm172.288-172.026h64.921l42.539 42.474v6.552c0 8.271-6.729 15-15 15s-15-6.729-15-15h-30v20c0 8.271-6.729 15-15 15s-15-6.729-15-15v-20h-30c0 8.271-6.729 15-15 15s-15-6.729-15-15v-6.551zm-193.54 292.026v-30h452v30z"/></g></svg>