<svg id="Capa_1" enable-background="new 0 0 511.916 511.916" height="512" viewBox="0 0 511.916 511.916" width="512" xmlns="http://www.w3.org/2000/svg"><g><path d="m435.143 361.92h-129.912c3.954-7.608 6.211-16.233 6.231-25.379v-.125c-.011-5.278-.779-10.378-2.173-15.216l103.91-103.91 17.104 17.104 18.293-18.299v-100.217h-100.218l-18.297 18.296 17.103 17.102-44.546 44.547v-99.084h24.186v-25.874l-70.866-70.865-70.865 70.865v25.874h24.186v99.084l-44.547-44.547 17.103-17.102-18.297-18.296h-100.22v100.218l18.293 18.299 17.104-17.104 103.911 103.911c-1.394 4.838-2.161 9.938-2.173 15.215v.125c.02 9.146 2.277 17.771 6.231 25.379h-129.911c-24.813 0-45 20.187-45 45s20.187 45 45 45h28.573l66.612 12.772v47.224h168v-47.224l66.612-12.772h28.573c24.813 0 45-20.187 45-45s-20.187-45.001-45-45.001zm-373.37 45c0-8.271 6.729-15 15-15h15v30h-15c-8.271 0-15-6.729-15-15zm240.865-168.672 86.974-86.973-5.397-5.397h34.383v34.384l-5.397-5.397-110.563 110.561zm-46.68-195.822 24.313 24.313h-7.634v216.862c-5.267-1.663-10.87-2.565-16.68-2.565s-11.412.902-16.68 2.565v-216.862h-7.634zm-162.64 137.836v-34.384h34.383l-5.397 5.397 86.975 86.974v47.178l-110.563-110.563zm137.136 156.217c.033-14.035 11.462-25.442 25.504-25.442s25.471 11.407 25.504 25.442c-.033 14.034-11.462 25.441-25.504 25.441s-25.471-11.407-25.504-25.441zm159.689 88.043-80.185 15.375v42.019h-108v-42.019l-80.185-15.375v-32.602h268.369v32.602zm45-2.602h-15v-30h15c8.271 0 15 6.729 15 15s-6.729 15-15 15z"/></g></svg>