<svg id="Capa_1" enable-background="new 0 0 512 512" height="512" viewBox="0 0 512 512" width="512" xmlns="http://www.w3.org/2000/svg"><g><path d="m494.646 337.225c-10.457-12.218-25.678-19.225-41.76-19.225h-28.742v-28.851c0-36.425-29.594-66.065-66-66.146v-16.348c36.193-5.557 64-36.906 64-74.63s-27.807-69.073-64-74.63v-57.395h-78.709l-102.66 50h-90.817c-45.112 0-81.814 36.702-81.814 81.814v.371c0 41.445 30.984 75.767 71 81.078v110.737h40.134c28.048 0 50.866-22.818 50.866-50.866v-59.134h10.527l102.766 50h48.707v33.908l-32.005 36.092h-75.995v178h219.607c27.26 0 50.1-19.548 54.308-46.481l13.135-84.066c2.483-15.891-2.091-32.011-12.548-44.228zm-102.502-205.199c0 21.118-14.461 38.919-34 44.028v-88.056c19.539 5.109 34 22.91 34 44.028zm-227 51.974h-60v-104h60zm-131-51.814v-.371c0-24.862 17.604-45.683 41-50.671v101.713c-23.396-4.989-41-25.81-41-50.671zm102 140.948c0 11.506-9.36 20.866-20.866 20.866h-10.134v-80h31zm59-198.711 67-32.633v180.433l-67-32.598zm97 159.577v-204h36v204zm-5 248h-37v-118h37zm190.41-105.179-13.135 84.066c-1.912 12.234-12.286 21.113-24.668 21.113h-122.607v-126.471l41-46.235v-45.294-11c19.864.081 36 16.267 36 36.149v58.851h58.742c7.305 0 14.218 3.183 18.968 8.732s6.828 12.872 5.7 20.089z"/></g></svg>