<svg id="Capa_1" enable-background="new 0 0 512 512" height="512" viewBox="0 0 512 512" width="512" xmlns="http://www.w3.org/2000/svg"><g><path d="m437 234.671c41.355 0 75-33.645 75-75v-39.734h-39.734c-41.355 0-75 33.645-75 75v24.734c0 63.586-42.232 117.487-100.117 135.146-13.438-2.568-27.172-3.881-41.149-3.881s-27.711 1.313-41.149 3.881c-57.885-17.659-100.117-71.56-100.117-135.146v-24.734c0-41.355-33.645-75-75-75h-39.734v39.734c0 41.355 33.645 75 75 75h10.393c1.407 16.14 5.062 31.645 10.651 46.201-22.521-3.145-46.208 3.917-63.489 21.2l-28.097 28.095 28.097 28.096c14.621 14.622 33.827 21.932 53.033 21.932s38.412-7.311 53.033-21.932l7.408-7.408c7.731 6.491 16.041 12.312 24.841 17.374-3.883 1.657-7.731 3.43-11.542 5.323l-8.328 4.136v34.299h-120.552l14.286 50-14.286 50h150.552v-45.436c23.654-10.355 48.837-15.614 75-15.614s51.346 5.259 75 15.614v45.436h150.552l-14.286-50 14.286-50h-120.552v-34.299l-8.328-4.136c-3.811-1.893-7.659-3.666-11.542-5.323 8.8-5.062 17.11-10.883 24.841-17.374l7.408 7.408c14.621 14.622 33.827 21.932 53.033 21.932s38.412-7.311 53.033-21.932l28.097-28.096-28.097-28.096c-17.282-17.282-40.968-24.344-63.49-21.199 5.589-14.556 9.244-30.061 10.651-46.201zm-407-75v-9.734h9.734c24.813 0 45 20.187 45 45v9.734h-9.734c-24.813 0-45-20.187-45-45zm87.407 177.38c-17.545 17.544-46.094 17.545-63.64 0l-6.883-6.883 6.883-6.883c17.546-17.545 46.095-17.544 63.64 0l6.883 6.883zm33.593 144.936h-80.781l5.714-20-5.714-20h80.781v39.196zm30-47.785v-37.669c23.652-10.354 48.837-15.596 75-15.596s51.348 5.242 75 15.596v37.669c-23.909-8.812-49.045-13.266-75-13.266s-51.091 4.454-75 13.266zm260.781 7.785-5.714 20 5.714 20h-80.781v-.804-39.196zm-14.515-247.051c0-24.813 20.187-45 45-45h9.734v9.734c0 24.813-20.187 45-45 45h-9.734zm30.967 128.348 6.883 6.883-6.883 6.883c-17.546 17.545-46.095 17.544-63.64 0l-6.883-6.883 6.883-6.883c17.545-17.544 46.094-17.545 63.64 0z"/><path d="m172.21 206.109c1.961 3.238 4.198 6.259 6.661 9.053l-20.274 65.398 85.964 26.649 11.439-36.897 11.438 36.897 85.964-26.649-20.274-65.398c2.463-2.794 4.699-5.815 6.661-9.053 18.582-11.256 30.211-31.399 30.668-53.12 10.464-19.039 10.464-42.3 0-61.338-.457-21.72-12.087-41.864-30.669-53.12-11.256-18.582-31.4-30.212-53.12-30.669-19.039-10.465-42.298-10.465-61.338 0-21.72.457-41.864 12.087-53.12 30.669-18.582 11.256-30.212 31.4-30.669 53.12-10.464 19.039-10.465 42.298 0 61.338.458 21.721 12.088 41.864 30.669 53.12zm23.926 54.679 8.65-27.903c6.51 2.392 13.442 3.744 20.546 3.893 2.74 1.506 5.57 2.788 8.459 3.861l-9 29.032zm91.073 8.883-9-29.032c2.89-1.073 5.719-2.354 8.459-3.86 7.103-.149 14.035-1.501 20.546-3.893l8.65 27.903zm-119.033-164.18 3.352-5.806v-6.704c0-11.986 6.448-23.155 16.829-29.148l5.805-3.352 3.352-5.805c5.993-10.38 17.162-16.829 29.148-16.829h6.704l5.805-3.352c10.38-5.993 23.278-5.993 33.657 0l5.806 3.352h6.704c11.986 0 23.155 6.448 29.148 16.829l3.352 5.805 5.805 3.352c10.38 5.993 16.829 17.162 16.829 29.148v6.704l3.352 5.806c5.993 10.38 5.993 23.277 0 33.657l-3.352 5.806v6.704c0 11.986-6.448 23.155-16.829 29.148l-5.806 3.352-3.351 5.806c-5.993 10.38-17.162 16.829-29.148 16.829h-6.704l-5.805 3.352c-10.381 5.992-23.277 5.993-33.657 0l-5.806-3.352h-6.704c-11.986 0-23.155-6.448-29.148-16.828l-3.352-5.806-5.807-3.353c-10.38-5.993-16.828-17.161-16.828-29.147v-6.704l-3.352-5.805c-5.992-10.382-5.992-23.278.001-33.659z"/><path d="m288.75 143.32h-17.75v-72h-47.75v30h17.75v42h-17.75v30h65.5z"/></g></svg>