<svg id="Capa_1" enable-background="new 0 0 512 512" height="512" viewBox="0 0 512 512" width="512" xmlns="http://www.w3.org/2000/svg"><g><path d="m511.969 230.645c0-60.537-45.438-110.659-104-118.058v-81.98h-65v-30.607h-30v30.606h-31.984v-30.606h-30v30.606h-31.985v-30.606h-30v30.606h-31.984v-30.606h-30v30.606h-31.985v-30.606h-30v30.606h-65v341.492h347.938v139.902h90v-171.2c43.37-17.782 74-60.456 74-110.155zm-481.938 111.454v-281.493h35v30.606h30v-30.606h31.984v30.606h30v-30.606h31.985v30.606h30v-30.606h31.984v30.606h30v-30.606h31.984v30.606h30v-30.606h35v51.98c-11.127 1.406-21.779 4.357-31.737 8.626h-286.2v190.886h246.269c11.591 12.326 25.773 22.184 41.668 28.702v1.298h-317.937zm183.938-190.886v47.42h-46.969v-47.42zm-76.969 47.42h-46.969v-47.42h46.969zm-46.969 30h46.969v53.466h-46.969zm76.969 0h46.969v53.466h-46.969zm76.969 0h30.026c-.011.67-.026 1.339-.026 2.012 0 18.419 4.207 35.873 11.71 51.454h-41.71zm34.378-30h-34.379v-47.42h60.472c-12.051 13.418-21.103 29.578-26.093 47.42zm129.622 283.367h-30v-133.298c4.914.621 9.92.942 15 .942s10.086-.322 15-.942zm-15-162.355c-49.075 0-89-39.925-89-89s39.925-89 89-89 89 39.925 89 89-39.926 89-89 89z"/></g></svg>