<svg id="Capa_1" enable-background="new 0 0 511.943 511.943" height="512" viewBox="0 0 511.943 511.943" width="512" xmlns="http://www.w3.org/2000/svg"><g><path d="m411.725 105.892-18.297 18.294 17.103 17.103-107.154 107.154c-.255.255-.502.516-.754.773v-152.463h24.186v-25.874l-70.866-70.866-70.866 70.866v25.874h24.186v228.662c-19.073-19.483-45.646-31.596-75-31.596h-37.523v-24.186h-25.874l-70.866 70.865 70.866 70.866h25.874v-24.186h34.164c8.271 0 15 6.729 15 15v109.752h220.08v-187.85c0-4.007 1.561-7.774 4.393-10.607l106.169-106.168 17.103 17.103 18.294-18.297v-100.219zm-202.461 376.038h-33.36v-79.752c0-24.813-20.187-45-45-45h-64.164v7.633l-24.313-24.313 24.313-24.313v7.633h67.524c41.355 0 75 33.645 75 75zm63.359-415.177v415.177h-33.359v-415.177h-7.633l24.313-24.313 24.313 24.313zm209.32 103.523-5.397-5.397-127.383 127.382c-8.499 8.5-13.18 19.8-13.18 31.819v157.85h-33.36v-159.241c0-20.033 7.801-38.867 21.967-53.033l128.367-128.366-5.397-5.397h34.384v34.383z"/></g></svg>