<svg id="Capa_1" enable-background="new 0 0 512 512" height="512" viewBox="0 0 512 512" width="512" xmlns="http://www.w3.org/2000/svg"><g><path d="m183.98 419.02c9.819 15.823 27.044 25.769 45.657 26.36 8.208 4.397 17.284 6.597 26.361 6.597 9.075-.001 18.154-2.2 26.362-6.597 18.614-.592 35.838-10.535 45.658-26.36 15.823-9.819 25.769-27.045 26.36-45.658 8.795-16.416 8.795-36.307 0-52.723-.592-18.613-10.537-35.839-26.36-45.658-9.819-15.823-27.044-25.769-45.658-26.36-16.412-8.794-36.304-8.793-52.724 0-18.614.592-35.84 10.538-45.657 26.36-15.823 9.819-25.769 27.045-26.36 45.658-8.794 16.414-8.794 36.305 0 52.723.593 18.614 10.539 35.84 26.361 45.658zm.476-84.919 3.136-5.431v-6.271c0-9.188 4.942-17.749 12.902-22.345l5.427-3.134 3.136-5.43c4.594-7.957 13.155-12.899 22.343-12.899h6.272l5.428-3.136c7.955-4.594 17.843-4.595 25.8 0l5.428 3.136h6.272c9.188 0 17.75 4.942 22.343 12.897l3.135 5.432 5.432 3.136c7.957 4.594 12.899 13.155 12.899 22.343v6.271l3.136 5.431c4.594 7.957 4.594 17.842.002 25.796l-3.138 5.431v6.273c0 9.188-4.942 17.749-12.899 22.343l-5.432 3.136-3.134 5.43c-4.594 7.957-13.155 12.899-22.344 12.899h-6.272l-5.428 3.136c-7.957 4.593-17.844 4.592-25.797.002l-5.431-3.138h-6.272c-9.188 0-17.749-4.942-22.345-12.902l-3.134-5.427-5.43-3.136c-7.957-4.594-12.899-13.155-12.899-22.343v-6.273l-3.136-5.428c-4.594-7.958-4.594-17.842 0-25.799z"/><path d="m304.806 333.01-21.213-21.213-38.586 38.586-16.601-16.601-21.213 21.213 37.814 37.814z"/><path d="m391.522 182v-46.478c0-74.727-60.794-135.522-135.522-135.522s-135.522 60.795-135.522 135.522v46.478h-29.478v330h330v-330zm-241.044-46.478c0-58.185 47.336-105.522 105.522-105.522s105.522 47.337 105.522 105.522v46.478h-30v-46.478c0-41.643-33.878-75.522-75.522-75.522s-75.522 33.879-75.522 75.522v46.478h-30zm151.044 46.478h-91.045v-46.478c.001-25.101 20.421-45.522 45.523-45.522s45.522 20.421 45.522 45.522zm89.478 300h-270v-270h270z"/></g></svg>