<svg id="Capa_1" enable-background="new 0 0 511.998 511.998" height="512" viewBox="0 0 511.998 511.998" width="512" xmlns="http://www.w3.org/2000/svg"><g><path d="m134.077 451.998h243.844v-172h-243.844zm30-142h183.844v112h-183.844z"/><path d="m511.963 167.17-21.213-21.213-74.042 74.041h-108.1c5.247-8.82 8.332-19.062 8.54-30h.03v-17.608c0-9.107 3.079-17.87 8.671-24.673 13.235-16.104 20.524-36.47 20.524-57.344 0-23.881-9.228-46.402-25.983-63.415-16.736-16.993-39.077-26.563-62.907-26.948-24.261-.353-47.201 8.662-64.528 25.496-17.312 16.819-27.016 39.441-27.324 63.697-.267 21.054 6.864 41.643 20.079 57.976 5.874 7.26 9.109 16.213 9.109 25.211v17.608h.03c.209 10.938 3.293 21.18 8.54 30h-108.1l-74.041-74.041-21.213 21.213 74.041 74.041v270.787h363.844v-270.787zm-298.102-120.146c11.564-11.236 26.87-17.325 43.138-17.018 15.914.257 30.836 6.65 42.018 18.004 11.193 11.364 17.357 26.409 17.357 42.363 0 13.944-4.866 27.545-13.702 38.295-7.385 8.987-12.318 19.816-14.389 31.33h-17.284v-46.574l19.213-19.213-21.213-21.213-13 13-13-13-21.213 21.213 19.213 19.213v46.574h-17.321c-2.119-11.463-7.139-22.412-14.646-31.69-8.821-10.901-13.581-24.654-13.402-38.724.205-16.223 6.68-31.339 18.231-42.56zm10.988 142.974h62.3c-.623 16.647-14.353 30-31.15 30s-30.527-13.353-31.15-30zm183.072 292h-303.844v-232h303.844z"/></g></svg>