<svg id="Capa_1" enable-background="new 0 0 511.906 511.906" height="512" viewBox="0 0 511.906 511.906" width="512" xmlns="http://www.w3.org/2000/svg"><g><path d="m345.93 243.855h19.2v14.69h30v-44.69h-49.2z"/><path d="m489.511 110.954v-37.91h-228.392c-28.497 0-55.392 13.376-72.611 35.935-1.972-3.517-3.907-6.924-5.774-10.208-15.013-26.409-26.87-47.269-26.87-70.324v-28.447l-23.473 16.069c-27.312 18.697-55.373 37.908-65.265 78.477l-25.147-26.258-17.802 91.017c-3.979 20.34-1.247 41.368 7.69 59.211 16.804 33.549 50.539 54.39 88.04 54.39.97 0 1.936-.014 2.894-.042 4.218-.122 8.388-.542 12.49-1.227 2.313 20.998 7.567 41.505 15.724 61.22 11.124 26.887 27.089 51.016 47.47 71.744l17.526 28.118v79.186h173.657v-56.32h26.207c13.022 0 25.264-5.071 34.472-14.279 9.956-9.955 15.12-23.721 14.168-37.768-.881-13.004-6.924-25.064-16.708-33.543l6.892-46.306c18.984-3.233 33.485-19.802 33.485-39.693 0-8.722-2.9-17.354-8.166-24.309l-30.378-40.113v-14.897l-11.058-26.817c11.461-3.145 21.973-9.203 30.604-17.835 13.107-13.106 20.325-30.534 20.325-49.071zm-367.583 131.922c-.671.02-1.345.029-2.021.029-26.073 0-49.53-14.494-61.216-37.826-5.982-11.942-7.783-26.154-5.071-40.017l6.699-34.252 33.087 34.549v-37.35c0-38.15 14.284-56.313 35.983-73.011 5.234 19.843 15.697 38.249 27.265 58.597 7.097 12.485 14.435 25.393 21.463 40.103 8.286 19.62 6.369 42.053-5.148 60.067-11.439 17.894-30.041 28.504-51.041 29.111zm334.173 34.923c1.343 1.773 2.082 3.974 2.082 6.198 0 5.66-4.604 10.264-10.264 10.264h-19.171l-5.861 39.378h-4.676c-5.332 0-10.345-2.077-14.115-5.847l-12.252-12.252-21.213 21.213 12.252 12.252c9.437 9.437 21.983 14.634 35.328 14.634h.211l-2.885 19.382 11.687 8.887c4.374 3.326 6.987 8.177 7.359 13.659s-1.564 10.641-5.449 14.526c-3.542 3.542-8.251 5.492-13.259 5.492h-75.509v30h19.302v26.32h-113.658v-57.77l-16.652-26.717 6.198-6.198c12.446-12.446 19.301-28.994 19.301-46.595v-21.932c.65.025 1.299.05 1.955.05h19.053v-30h-19.053c-11.14 0-20.203-9.063-20.203-20.203s9.063-20.203 20.203-20.203h27.576l31.18-52.319v-19.667h91.59l12.481 30.267v19.033zm3.41-166.845c0 10.524-4.098 20.417-11.54 27.859-7.442 7.441-17.335 11.54-27.859 11.54h-134.544v41.405l-18.225 30.581h-10.531c-27.682 0-50.203 22.521-50.203 50.203 0 15.552 7.109 29.474 18.248 38.69v33.396c0 9.588-3.734 18.602-10.514 25.382l-3.6 3.6c-13.356-15.594-24.097-33.1-32.007-52.22-7.947-19.211-12.724-39.288-14.266-59.862 13.504-7.402 25.187-18.169 33.774-31.6 16.922-26.468 19.667-59.475 7.341-88.293l-.251-.557c-.387-.811-.779-1.598-1.168-2.399l6.872-9.715c11.479-16.229 30.202-25.918 50.081-25.918h198.392z"/></g></svg>