<svg id="Capa_1" enable-background="new 0 0 512.005 512.005" height="512" viewBox="0 0 512.005 512.005" width="512" xmlns="http://www.w3.org/2000/svg"><g><path d="m511.963 14.536-.467-14.026-14.027-.467c-2.505-.086-62.131-1.71-131.499 26.858-40.89 16.84-76.701 40.729-106.439 71.001-15.067 15.338-28.563 32.318-40.435 50.851-35.248-12.496-75.287-3.764-102.059 23.009l-35.234 35.233 63.016 63.016-19.399 19.399 16.771 16.771-40.994 40.994c-3.882-.975-7.934-1.499-12.097-1.499-4.547 0-9.044.624-13.372 1.84-8.223-7.68-19.17-12.139-30.727-12.139h-45.001v176.629h176.628v-45c0-11.558-4.459-22.504-12.138-30.727 1.216-4.328 1.84-8.826 1.84-13.373 0-4.16-.523-8.21-1.497-12.091l40.996-40.996 16.771 16.771 19.4-19.399 63.01 63.01 35.233-35.233c26.771-26.771 35.505-66.807 23.012-102.052 18.535-11.873 35.516-25.37 50.855-40.438 30.272-29.74 54.16-65.552 70.999-106.442 28.566-69.37 26.937-128.995 26.854-131.5zm-40.082 76.078-50.488-50.488c25.262-6.421 46.71-8.791 60.131-9.645-.854 13.426-3.223 34.874-9.643 60.133zm-291.947 210.883-12.087-12.088 24.091-24.092 54.755 54.755-24.091 24.091zm92.115 1.506-63.043-63.043c9.525-28.661 22.011-54.703 37.289-77.948l103.702 103.702c-23.246 15.278-49.287 27.765-77.948 37.289zm-147.82-96.008 14.02-14.021c17.233-17.233 42.392-23.69 65.465-17.605-9.825 18.909-18.165 39.182-24.986 60.732l-12.696 12.696zm22.4 275.01h-116.629v-116.628h15c5.414 0 10.431 2.943 13.091 7.682l7.625 13.58 13.284-8.13c3.029-1.854 6.521-2.833 10.099-2.833 9.424 0 17.452 6.722 19.089 15.982l1.827 10.333 10.333 1.827c9.261 1.637 15.982 9.664 15.982 19.088 0 3.578-.98 7.071-2.833 10.101l-8.129 13.284 13.58 7.624c4.738 2.66 7.681 7.677 7.681 13.091zm1.781-97.192c-3.957-3.269-8.445-5.946-13.348-7.869-1.923-4.901-4.599-9.387-7.867-13.343l36.208-36.208 21.213 21.213zm170.62-11.059-14.021 14.021-41.797-41.797 12.696-12.696c21.549-6.822 41.821-15.16 60.729-24.985 6.081 23.071-.375 48.225-17.607 65.457zm73.534-142.167c-5.768 5.637-11.81 11.021-18.096 16.173l-110.217-110.219c5.151-6.285 10.535-12.326 16.171-18.094 26.722-27.346 58.985-48.999 95.894-64.359 4.26-1.773 8.486-3.418 12.665-4.95l72.89 72.89c-1.531 4.178-3.176 8.403-4.948 12.663-15.361 36.909-37.014 69.173-64.359 95.896z"/><path d="m340.573 107.797c-17.546 17.545-17.546 46.094 0 63.639 8.772 8.772 20.296 13.159 31.819 13.159s23.047-4.387 31.819-13.159c17.546-17.545 17.546-46.094 0-63.639-17.545-17.544-46.093-17.544-63.638 0zm42.425 42.426c-2.833 2.833-6.6 4.394-10.606 4.394s-7.773-1.561-10.606-4.394-4.394-6.6-4.394-10.606 1.561-7.773 4.394-10.606 6.6-4.394 10.606-4.394 7.773 1.561 10.606 4.394 4.394 6.6 4.394 10.606-1.561 7.773-4.394 10.606z"/></g></svg>