<svg id="Capa_1" enable-background="new 0 0 510.655 510.655" height="512" viewBox="0 0 510.655 510.655" width="512" xmlns="http://www.w3.org/2000/svg"><g><path d="m379.902 375.155v-192.808h50.943v-52.564l-175.518-129.783-175.517 129.782v52.564h51.083v192.808.125c.031 14.026 5.301 26.838 13.94 36.603-25.322 14.484-42.436 41.748-42.436 72.95v25.822h138 168v-25.822c0-31.203-17.114-58.466-42.436-72.95 8.639-9.765 13.909-22.577 13.94-36.603v-.124zm-270.092-222.808v-7.437l145.517-107.6 145.518 107.6v7.437h-50.943v173.66c-7.643-3.972-16.312-6.231-25.504-6.231-4.869 0-9.592.636-14.095 1.819-4.135-3.587-8.621-6.777-13.401-9.511 8.633-9.764 13.899-22.571 13.929-36.591v-.125c-.066-30.548-24.94-55.379-55.504-55.379s-55.438 24.831-55.504 55.379v.125c.031 14.02 5.297 26.827 13.93 36.591-4.767 2.727-9.241 5.906-13.366 9.481-4.471-1.165-9.158-1.789-13.989-1.789-9.192 0-17.861 2.259-25.504 6.231v-173.66zm102.092 222.87c-.034 14.035-11.462 25.442-25.504 25.442s-25.47-11.407-25.504-25.442c.034-14.035 11.461-25.441 25.504-25.441s25.47 11.407 25.504 25.441zm43.425-74.345c-14.042 0-25.471-11.407-25.504-25.442.034-14.035 11.462-25.441 25.504-25.441s25.471 11.407 25.504 25.441c-.033 14.035-11.462 25.442-25.504 25.442zm43.567 74.345c.033-14.035 11.462-25.441 25.504-25.441s25.471 11.407 25.504 25.441c-.033 14.035-11.462 25.442-25.504 25.442s-25.471-11.407-25.504-25.442zm-166.336 105.438c2.138-27.832 25.469-49.822 53.84-49.822s51.702 21.99 53.84 49.822zm95.404-68.772c8.639-9.765 13.909-22.577 13.94-36.603v-.125c-.031-14.031-5.304-26.846-13.948-36.612 8.032-4.752 17.384-7.497 27.374-7.497 10.029 0 19.414 2.766 27.467 7.552-8.616 9.76-13.87 22.553-13.9 36.557v.125c.031 14.026 5.301 26.838 13.94 36.603-10.908 6.24-20.289 14.846-27.436 25.126-7.148-10.28-16.529-18.886-27.437-25.126zm42.596 68.772c2.139-27.832 25.469-49.822 53.84-49.822s51.701 21.99 53.84 49.822z"/></g></svg>