<svg id="Capa_1" enable-background="new 0 0 512 512" height="512" viewBox="0 0 512 512" width="512" xmlns="http://www.w3.org/2000/svg"><g><path d="m336 447v-85h31v-118h-33v-39.213l-34.394-34.393-21.213 21.213 25.607 25.606v26.787h-96v-26.787l25.606-25.607-21.213-21.213-34.393 34.394v39.213h-33v118h31v85c0 19.299-15.701 35-35 35v30h230v-30c-19.299 0-35-15.701-35-35zm-161-173h162v58h-162zm20.751 208c6.485-10.109 10.249-22.124 10.249-35v-85h100v85c0 12.876 3.765 24.891 10.249 35z"/><path d="m241 406h30v30h-30z"/><path d="m512 0h-512v30h52.116l51.095 88.5h19.052l51.096-88.5h22.019l51.095 88.5h19.053l51.096-88.5h22.02l51.095 88.5h19.053l51.095-88.5h52.115zm-399.263 75-25.981-45h51.961zm143.263 0-25.981-45h51.962zm143.263 0-25.98-45h51.962z"/></g></svg>