<svg id="Capa_1" enable-background="new 0 0 512 512" height="512" viewBox="0 0 512 512" width="512" xmlns="http://www.w3.org/2000/svg"><g><path d="m480.366 209.026c-3.98-53.972-26.9-104.172-65.56-142.833-42.685-42.685-99.439-66.193-159.806-66.193s-117.121 23.508-159.806 66.193c-38.826 38.827-61.78 89.293-65.614 143.53-17.241 6.308-29.58 22.878-29.58 42.277v104.902l91.433 124.927v30.171h329.135v-30.171l91.432-124.927v-104.902c0-20.161-13.327-37.268-31.634-42.974zm-30.005 1.176c-16.598 6.631-28.361 22.861-28.361 41.798v76.398l-4.725 4.725c-2.142-4.496-5.073-8.708-8.79-12.426-17.545-17.543-46.094-17.544-63.639.001l-4.301 4.302h-10.545c-24.813 0-45-20.187-45-45s20.187-45 45-45h22c30.327 0 55-24.673 55-55s-24.673-55-55-55h-21.376c-8.392 0-15.398-6.535-15.618-14.568-.112-4.096 1.394-7.964 4.242-10.89 2.849-2.929 6.668-4.542 10.752-4.542h15v-43.078c58.492 30.364 99.837 89.346 105.361 158.28zm-135.361-170.796v28.137c-6.448 2.271-12.333 6.02-17.254 11.078-8.544 8.781-13.064 20.371-12.729 32.633.661 24.121 21.12 43.746 45.607 43.746h21.376c13.785 0 25 11.215 25 25s-11.215 25-25 25h-22c-41.355 0-75 33.645-75 75 0 35.364 24.609 65.076 57.597 72.948l-40.843 40.843c-6.121 6.121-11.39 12.866-15.754 20.089-4.364-7.223-9.633-13.968-15.754-20.089l-39.534-39.534v-55.356c0-22.344-18.179-40.522-40.523-40.522-5.802 0-10.523-4.721-10.523-10.523v-28.839h14.179c24.813 0 45-20.187 45-45v-15h3.155c24.813 0 45-20.187 45-45s-20.187-45-45-45h-74.225c32.715-24.494 73.305-39.017 117.225-39.017 20.921 0 41.081 3.308 60 9.406zm-209.168 59.611h106.168c8.271 0 15 6.729 15 15s-6.729 15-15 15h-33.154v45c0 8.271-6.729 15-15 15h-44.179v58.839c0 22.345 18.179 40.523 40.523 40.523 5.802 0 10.523 4.721 10.523 10.522v25.355l-3.56-3.56c-17.545-17.543-46.094-17.542-63.638.001-3.67 3.671-6.628 7.862-8.805 12.409l-4.71-4.708v-76.398c0-19.664-12.683-36.411-30.294-42.52 3.517-41.944 20.299-80.168 46.126-110.463zm135.168 382.983h-119.567v-9.977l-91.433-124.925v-95.098c0-8.271 6.729-15 15-15s15 6.729 15 15v88.824l81.894 81.894 21.213-21.213-38.379-38.38c-2.833-2.833-4.394-6.601-4.394-10.606 0-4.007 1.561-7.774 4.393-10.606 5.849-5.849 15.366-5.849 21.214-.001l73.093 73.093c14.166 14.166 21.967 33 21.967 53.033v13.962zm241-134.902-91.433 124.926v9.976h-119.567v-13.963c0-20.033 7.801-38.867 21.967-53.033l73.092-73.092c5.85-5.85 15.365-5.849 21.214.001 2.833 2.832 4.393 6.599 4.393 10.605s-1.561 7.773-4.394 10.606l-38.379 38.38 21.213 21.213 81.894-81.893v-88.824c0-8.271 6.729-15 15-15s15 6.729 15 15z"/></g></svg>