<svg id="Capa_1" enable-background="new 0 0 512.141 512.141" height="512" viewBox="0 0 512.141 512.141" width="512" xmlns="http://www.w3.org/2000/svg"><g><path d="m489.792 135.594h21.948l-78.285-135.594-78.285 135.594h21.948c-7.327 10.843-11.609 23.904-11.609 37.946s4.282 27.104 11.609 37.946h-11.609v105.923l-163.206.134c7.809-11.687 12.372-25.718 12.372-40.798v-43.225c0-20.158-8.148-38.445-21.317-51.755 3.631-7.565 5.673-16.031 5.673-24.969 0-31.976-26.014-57.989-57.99-57.989s-57.989 26.014-57.989 57.989c0 8.938 2.042 17.403 5.673 24.968-13.169 13.31-21.317 31.597-21.317 51.755v43.225c0 16.604 5.529 31.937 14.836 44.268-46.994 12.045-81.843 54.766-81.843 105.447v85.682h260.427v-73.617l143.399-28.585h40.228c25.519 0 46.28-20.761 46.28-46.279v-16.28h10.667v-135.894h-11.609c7.327-10.843 11.609-23.904 11.609-37.946s-4.283-27.103-11.61-37.946zm-56.337-75.594 26.323 45.594h-52.646zm-37.947 113.54c0-20.924 17.022-37.946 37.946-37.946s37.946 17.022 37.946 37.946-17.022 37.946-37.946 37.946-37.946-17.022-37.946-37.946zm0 143.839v-75.893h75.893v75.893zm-269.761.226c-16.537-6.21-28.339-22.18-28.339-40.86v-28.225h87.268v28.225c0 18.656-11.772 34.608-28.276 40.835zm15.294-127.718c18.792 0 34.847 11.941 40.977 28.634h-81.953c6.129-16.693 22.184-28.634 40.976-28.634zm0-61.079c15.434 0 27.99 12.556 27.99 27.989 0 2.835-.433 5.568-1.221 8.148-8.303-3.253-17.326-5.059-26.768-5.059s-18.465 1.806-26.768 5.058c-.788-2.58-1.221-5.313-1.221-8.148-.001-15.433 12.555-27.988 27.988-27.988zm246.707 253.826-156.92 31.28v68.227h-137.868v-36.123h-30v36.123h-32.56v-55.682c0-43.437 35.338-78.804 78.774-78.84l11.914-.01c6.35 1.791 13.037 2.77 19.952 2.77 6.957 0 13.683-.991 20.067-2.802l226.64-.185v35.242zm72.986-18.975c0 8.977-7.303 16.279-16.28 16.279h-26.707v-32.56h42.986v16.281z"/></g></svg>