<svg id="Capa_1" enable-background="new 0 0 512 512" height="512" viewBox="0 0 512 512" width="512" xmlns="http://www.w3.org/2000/svg"><g><path d="m467 169.34c-9.423 0-18.175 2.917-25.412 7.888l-68.836-50.229c2.482-6.43 3.857-13.406 3.857-20.7 0-31.801-25.872-57.673-57.673-57.673-22.133 0-41.382 12.539-51.048 30.879l-178.22-39.88c-2.667-22.287-21.675-39.625-44.668-39.625-24.813 0-45 20.187-45 45 0 20.297 13.51 37.491 32.008 43.08l8.068 171.67c-23.22 7.458-40.076 29.253-40.076 54.918 0 31.801 25.872 57.673 57.673 57.673 11.491 0 22.198-3.392 31.2-9.207l95.607 86.522c-2.239 5.341-3.48 11.2-3.48 17.344 0 24.813 20.187 45 45 45s45-20.187 45-45c0-4.709-.731-9.25-2.078-13.52l77.686-58.446c9.788 7.653 22.091 12.232 35.45 12.232 31.801 0 57.673-25.872 57.673-57.673 0-15.101-5.841-28.858-15.374-39.149l32.786-52.204c3.175.713 6.471 1.101 9.857 1.101 24.813 0 45-20.187 45-45s-20.187-45.001-45-45.001zm-84.405 122.594-35.162-135.526c2.68-1.53 5.226-3.264 7.616-5.189l68.841 50.233c-1.224 4.085-1.89 8.41-1.89 12.888 0 10.544 3.655 20.244 9.751 27.923l-32.778 52.192c-5.189-1.594-10.686-2.469-16.378-2.521zm-156.595 130.066c-7.736 0-15.021 1.963-21.386 5.416l-95.604-86.519c.891-1.737 1.696-3.523 2.41-5.355l213.663 23.003c.682 4.359 1.865 8.551 3.468 12.531l-77.683 58.444c-7.129-4.746-15.679-7.52-24.868-7.52zm-155.957-163.655-8.069-171.679c8.759-3.582 16.142-9.846 21.129-17.768l178.222 39.88c.309 7.262 1.968 14.178 4.73 20.509l-174.222 138.95c-6.388-4.713-13.78-8.134-21.79-9.892zm258.268 70.374-213.663-23.003c-.769-4.911-2.166-9.615-4.095-14.035l174.222-138.95c9.434 6.959 21.054 11.112 33.623 11.228l35.162 135.526c-11.431 6.525-20.42 16.843-25.249 29.234zm-9.375-250.094c15.259 0 27.673 12.414 27.673 27.673 0 15.26-12.414 27.674-27.673 27.674s-27.673-12.414-27.673-27.674c0-15.259 12.414-27.673 27.673-27.673zm-273.936-48.625c8.271 0 15 6.729 15 15s-6.729 15-15 15-15-6.729-15-15 6.729-15 15-15zm12.673 312.341c-15.259 0-27.673-12.414-27.673-27.673s12.414-27.673 27.673-27.673 27.673 12.414 27.673 27.673-12.414 27.673-27.673 27.673zm168.327 139.659c-8.271 0-15-6.729-15-15s6.729-15 15-15 15 6.729 15 15-6.729 15-15 15zm156.058-104.734c-15.259 0-27.673-12.414-27.673-27.673s12.414-27.673 27.673-27.673 27.673 12.414 27.673 27.673-12.414 27.673-27.673 27.673zm84.942-147.926c-8.271 0-15-6.729-15-15s6.729-15 15-15 15 6.729 15 15-6.729 15-15 15z"/></g></svg>