<svg id="Capa_1" enable-background="new 0 0 512.027 512.027" height="512" viewBox="0 0 512.027 512.027" width="512" xmlns="http://www.w3.org/2000/svg"><g><path d="m368.446 243.963h19.199v14.69h30v-44.69h-49.199z"/><path d="m512.027 111.062v-37.91h-228.392c-8.709 0-17.268 1.25-25.447 3.628l-28.498-51.247-23.557 13.1c-6.209-4.604-12.838-8.542-19.836-11.786v-26.834h-96.167v26.834c-6.999 3.244-13.627 7.183-19.836 11.786l-23.557-13.1-46.737 84.046 24.209 13.462c-.163 2.49-.244 4.984-.244 7.469 0 3.074.124 6.154.37 9.221l-24.335 13.532 46.737 84.044 24.973-13.887c5.8 4.162 11.954 7.754 18.42 10.752v28.656h66.88c1.689 24.111 7.213 47.64 16.52 70.136 11.124 26.887 27.089 51.016 47.47 71.744l17.526 28.118v79.186h173.657v-56.32h26.207c13.022 0 25.264-5.071 34.472-14.279 9.956-9.955 15.12-23.721 14.168-37.768-.881-13.004-6.924-25.064-16.708-33.543l6.892-46.306c18.984-3.233 33.485-19.802 33.485-39.693 0-8.722-2.9-17.354-8.166-24.309l-30.378-40.113v-14.897l-11.058-26.817c11.461-3.145 21.973-9.203 30.604-17.834 13.107-13.106 20.326-30.534 20.326-49.071zm-355.731 121.767h-36.166v-19.332l-10-3.536c-9.985-3.53-19.118-8.855-27.142-15.827l-7.938-6.897-16.674 9.272-17.577-31.607 16.321-9.077c-3.7-16.101-3.885-32.89-.444-49.056l-15.877-8.829 17.577-31.607 15.579 8.664 7.962-7.157c8.279-7.443 17.771-13.088 28.213-16.779l10.001-3.535v-17.513h36.166v17.511l10.001 3.535c10.442 3.691 19.934 9.336 28.213 16.779l7.962 7.157 15.579-8.664 17.577 31.607-15.875 8.829c3.401 16.17 3.249 32.943-.446 49.057l16.321 9.077-17.577 31.607-16.674-9.272-7.938 6.897c-8.024 6.972-17.157 12.297-27.142 15.827l-10 3.536v19.333zm322.32 45.078c1.343 1.773 2.082 3.974 2.082 6.198 0 5.66-4.604 10.264-10.264 10.264h-19.171l-5.861 39.378h-4.676c-5.332 0-10.345-2.077-14.115-5.847l-12.252-12.252-21.213 21.213 12.252 12.252c9.437 9.437 21.983 14.634 35.328 14.634h.211l-2.885 19.382 11.687 8.887c4.374 3.326 6.987 8.177 7.359 13.659s-1.564 10.641-5.449 14.526c-3.542 3.542-8.251 5.492-13.259 5.492h-75.509v30h19.302v26.32h-113.657v-57.77l-16.652-26.717 6.198-6.198c12.446-12.446 19.301-28.994 19.301-46.595v-21.932c.65.025 1.299.05 1.955.05h19.053v-30h-19.053c-11.14 0-20.203-9.063-20.203-20.203s9.063-20.203 20.203-20.203h27.576l31.18-52.319v-19.667h91.59l12.481 30.267v19.033zm3.411-166.845c0 10.524-4.098 20.417-11.54 27.859-7.442 7.441-17.335 11.54-27.859 11.54h-134.545v41.405l-18.225 30.581h-10.531c-27.682 0-50.203 22.521-50.203 50.203 0 15.552 7.109 29.474 18.248 38.69v33.396c0 9.588-3.734 18.602-10.514 25.382l-3.6 3.6c-13.356-15.594-24.097-33.1-32.007-52.22-9.833-23.768-14.818-48.861-14.818-74.583v-12.809c6.416-2.985 12.525-6.552 18.283-10.684l24.973 13.887 46.737-84.044-24.334-13.532c.246-3.066.37-6.146.37-9.221 0-2.485-.082-4.979-.244-7.469l24.209-13.462-3.083-5.545c3.374-.576 6.814-.882 10.292-.882h198.392v7.908z"/><path d="m183.96 131.421c0-25.225-20.522-45.748-45.747-45.748s-45.748 20.522-45.748 45.748 20.522 45.748 45.748 45.748 45.747-20.523 45.747-45.748zm-45.747 15.748c-8.683 0-15.748-7.064-15.748-15.748s7.064-15.748 15.748-15.748 15.747 7.064 15.747 15.748-7.064 15.748-15.747 15.748z"/></g></svg>