<svg id="Capa_1" enable-background="new 0 0 512.001 512.001" height="512" viewBox="0 0 512.001 512.001" width="512" xmlns="http://www.w3.org/2000/svg"><g><path d="m384.522 53.813c-33.405-33.917-77.994-53.02-125.554-53.788-48.436-.788-94.234 17.286-128.812 50.879-34.546 33.563-53.909 78.715-54.524 127.14-.532 42.024 13.697 83.117 40.068 115.71 15.461 19.109 23.976 42.756 23.976 66.585v91.661h19.294l19.114 60h155.832l19.114-60h19.294v-91.662c0-24.121 8.203-47.385 23.099-65.509 26.413-32.139 40.96-72.784 40.96-114.447 0-47.663-18.418-92.614-51.861-126.569zm-72.533 428.188h-111.977l-9.557-30h131.091zm30.335-60h-172.648v-46.209h172.648zm29.922-146.218c-16.262 19.786-26.366 44.227-29.142 70.009h-174.241c-2.862-25.605-13.207-50.35-29.84-70.907-21.978-27.163-33.837-61.42-33.393-96.46.513-40.392 16.647-78.038 45.432-106.003 28.815-27.997 66.949-43.069 107.422-42.4 39.644.641 76.814 16.566 104.664 44.843 27.881 28.308 43.235 65.782 43.235 105.519 0 34.733-12.123 68.613-34.137 95.399z"/><path d="m362.07 176.567c0-1.285-.023-2.574-.071-3.865l18.951-9.94-41.81-79.7-18.259 9.578c-6.173-4.788-12.815-8.847-19.881-12.15v-20.489h-90v20.489c-7.065 3.303-13.708 7.363-19.881 12.15l-18.259-9.578-41.81 79.7 18.951 9.94c-.048 1.291-.071 2.581-.071 3.865 0 1.888.051 3.78.151 5.672l-19.03 9.983 41.809 79.699 19.703-10.336c5.767 4.316 11.927 8.011 18.437 11.057v22.34h90v-22.34c6.51-3.046 12.67-6.741 18.437-11.057l19.703 10.336 41.809-79.699-19.03-9.983c.1-1.892.151-3.784.151-5.672zm-35.561 54.852-11.314-5.936-7.771 7.134c-7.69 7.06-16.561 12.373-26.364 15.792l-10.06 3.509v13.064h-30v-13.064l-10.06-3.509c-9.804-3.419-18.674-8.733-26.364-15.792l-7.771-7.134-11.314 5.936-13.938-26.567 10.973-5.756c-1.145-7.293-2.539-14.579-2.592-21.985-.051-7.209 1.174-14.333 2.153-21.454l-10.533-5.525 13.937-26.566 10.233 5.368 7.789-7.427c7.916-7.549 17.144-13.195 27.427-16.781l10.06-3.509v-11.216h30v11.215l10.06 3.509c10.283 3.586 19.511 9.232 27.427 16.781l7.789 7.427 10.233-5.368 13.937 26.566-10.533 5.525c.98 7.121 2.204 14.244 2.153 21.454-.053 7.406-1.447 14.692-2.592 21.985l10.973 5.756z"/><path d="m256 132.492c-24.813 0-45 20.187-45 45s20.187 45 45 45 45-20.187 45-45-20.186-45-45-45zm0 60c-8.271 0-15-6.729-15-15s6.729-15 15-15 15 6.729 15 15-6.728 15-15 15z"/></g></svg>