<svg id="Capa_1" enable-background="new 0 0 512 512" height="512" viewBox="0 0 512 512" width="512" xmlns="http://www.w3.org/2000/svg"><g><path d="m408.479 352.838-23.684-152.988-66.987-66.987c-8.5-8.5-19.8-13.181-31.82-13.181-11.177 0-21.73 4.053-29.989 11.455-8.259-7.402-18.811-11.455-29.989-11.455-12.02 0-23.32 4.681-31.819 13.181l-66.987 66.987-23.684 152.988-103.52 103.52v55.642h198.306l41.94-41.941c6.121-6.121 11.39-12.865 15.754-20.088 4.364 7.223 9.633 13.968 15.754 20.088l41.94 41.941h198.306v-55.642zm-152.479-93.898c-7.968-7.141-18.483-11.495-30-11.495-5.257 0-10.307.906-15 2.57v-6.682l45-45 45 45v6.682c-4.693-1.664-9.743-2.57-15-2.57-11.517 0-22.032 4.353-30 11.495zm-226 209.845 68.373-68.373 81.587 81.588h-149.96zm189.033-19.939-14.901 14.901-84.547-84.547 12.082-12.082 23.684-152.988 60.054-60.054c2.833-2.833 6.6-4.394 10.606-4.394 4.007 0 7.773 1.561 10.607 4.394 2.76 2.76 4.3 6.408 4.378 10.299-.001.103-.008.205-.008.307s.007.205.008.307c-.078 3.891-1.618 7.539-4.378 10.299l-55.618 55.618v115.815h30v-54.277c0-8.271 6.729-15 15-15s15 6.729 15 15v103.369c0 20.033-7.801 38.867-21.967 53.033zm51.967-53.033v-103.369c0-8.271 6.729-15 15-15s15 6.729 15 15v54.277h30v-115.815l-55.618-55.618c-2.76-2.76-4.3-6.408-4.378-10.298.001-.103.008-.205.008-.307s-.007-.205-.008-.307c.078-3.891 1.618-7.539 4.378-10.299 2.833-2.833 6.6-4.394 10.607-4.394 4.006 0 7.773 1.561 10.606 4.394l60.054 60.054 23.684 152.988 12.082 12.082-84.547 84.547-14.901-14.901c-14.166-14.167-21.967-33.001-21.967-53.034zm211 86.187h-149.96l81.588-81.588 68.372 68.373z"/><path d="m241 0h30v68.5h-30z"/><path d="m173.438 34.389h30v64.347h-30z" transform="matrix(.707 -.707 .707 .707 8.125 152.741)"/><path d="m291.389 51.563h64.347v30h-64.347z" transform="matrix(.707 -.707 .707 .707 47.703 248.289)"/></g></svg>