<svg id="Capa_1" enable-background="new 0 0 511.49 511.49" height="512" viewBox="0 0 511.49 511.49" width="512" xmlns="http://www.w3.org/2000/svg"><g><path d="m491.086 255.745c0-6.642-.442-13.288-1.319-19.863l21.723-12.542-56.69-98.19-21.727 12.544c-10.564-8.179-22.075-14.834-34.4-19.89v-25.06h-113.38v25.06c-12.324 5.056-23.837 11.712-34.4 19.89l-21.727-12.544-20.538 35.573-62.636-46.893h-58.572c-6.192-17.459-22.865-30-42.42-30-24.813 0-45 20.187-45 45s20.187 45 45 45c19.555 0 36.228-12.541 42.42-30h48.588l57.514 43.059-21.045 36.45 21.723 12.542c-.216 1.617-.404 3.239-.567 4.863h-106.213c-6.192-17.459-22.865-30-42.42-30-24.813 0-45 20.187-45 45s20.187 45 45 45c19.555 0 36.228-12.541 42.42-30h106.213c.163 1.625.351 3.246.567 4.863l-21.723 12.542 21.045 36.45-57.514 43.059h-48.588c-6.192-17.459-22.865-30-42.42-30-24.813 0-45 20.187-45 45s20.187 45 45 45c19.555 0 36.228-12.541 42.42-30h58.573l62.636-46.893 20.538 35.573 21.727-12.544c10.563 8.178 22.076 14.834 34.4 19.89v25.06h113.38v-25.06c12.325-5.056 23.836-11.711 34.4-19.89l21.726 12.546 56.69-98.189-21.723-12.542c.877-6.576 1.319-13.222 1.319-19.864zm-446.086-111.915c-8.271 0-15-6.729-15-15s6.729-15 15-15 15 6.729 15 15-6.729 15-15 15zm0 253.83c-8.271 0-15-6.729-15-15s6.729-15 15-15 15 6.729 15 15-6.729 15-15 15zm0-126.915c-8.271 0-15-6.729-15-15s6.729-15 15-15 15 6.729 15 15-6.729 15-15 15zm413.548-39.559c3.38 16.08 3.38 33.039 0 49.119 0 0-2.228 10.634-2.228 10.634l14.189 8.192-26.69 46.229-14.227-8.214-8.097 7.267c-12.417 11.143-26.709 19.406-42.483 24.562l-10.34 3.38v16.392h-53.38v-16.392l-10.34-3.38c-15.773-5.155-30.067-13.419-42.483-24.562l-8.097-7.268-14.227 8.215-26.69-46.229 14.189-8.192c-2.52-11.333-4.964-23.547-4.766-35.193-.201-11.63 2.248-23.882 4.766-35.193l-14.189-8.192 26.69-46.229 14.227 8.215 8.097-7.268c12.416-11.143 26.709-19.406 42.483-24.562l10.34-3.38v-16.392h53.38v16.392l10.34 3.38c15.773 5.155 30.066 13.419 42.483 24.562l8.097 7.267 14.227-8.214 26.69 46.229-14.189 8.192z"/><path d="m381.218 240.155c19.734-30.194-2.931-71.764-39.236-71.409-36.414-.226-58.927 41.054-39.234 71.409-12.53 8.627-20.765 23.064-20.765 39.393v42.197h120v-42.197c0-16.329-8.234-30.766-20.765-39.393zm-39.235-41.41c9.098 0 16.5 7.402 16.5 16.5-.907 21.889-32.097 21.883-33 0 0-9.098 7.402-16.5 16.5-16.5zm30 93h-60v-12.197c0-9.816 7.986-17.803 17.803-17.803h24.394c9.817 0 17.803 7.986 17.803 17.803z"/></g></svg>