<svg id="Capa_1" enable-background="new 0 0 512 512" height="512" viewBox="0 0 512 512" width="512" xmlns="http://www.w3.org/2000/svg"><g><path d="m350.081 70.566h-184.162v90h184.162zm-30 60h-124.162v-30h124.162z"/><path d="m434.019 276.732-.103-276.732h-351.995v41h-65.921v96h65.921v41h-65.921v96h65.921v41h-65.921v96h65.921v41h180.015c22.328 35.984 62.191 60 107.564 60 69.752 0 126.5-56.748 126.5-126.5 0-46.201-24.901-86.689-61.981-108.768zm-388.019-169.732v-36h35.921v36zm0 137v-36h35.921v36zm0 137v-36h35.921v36zm65.921 41v-392h292.005l.088 233.786c-10.975-3.117-22.553-4.786-34.514-4.786-46.208 0-86.702 24.909-108.779 62h-56.221v30h43.282c-3.114 10.971-4.782 22.544-4.782 34.5 0 12.686 1.885 24.938 5.376 36.5zm257.579 60c-53.21 0-96.5-43.29-96.5-96.5s43.29-96.5 96.5-96.5 96.5 43.29 96.5 96.5-43.29 96.5-96.5 96.5z"/><path d="m354.866 395.787-23.126-23.126-21.213 21.213 44.339 44.339 73.607-73.607-21.213-21.212z"/></g></svg>