<svg id="Capa_1" enable-background="new 0 0 511.87 511.87" height="512" viewBox="0 0 511.87 511.87" width="512" xmlns="http://www.w3.org/2000/svg"><g><path d="m209.149 269.747v79.628l46.786 31.191 46.786-31.191v-79.628l-46.786-31.19zm63.572 63.573-16.786 11.191-16.786-11.191v-47.517l16.786-11.19 16.786 11.19z"/><path d="m457.537 72.842-53.397 53.398v25.508c0 27.075-22.027 49.102-49.103 49.102-26.046 0-47.42-20.386-49.008-46.039l32.883-71.834-82.977-82.977-82.978 82.978 32.883 71.834c-1.587 25.653-22.962 46.039-49.007 46.039-27.075 0-49.103-22.027-49.103-49.102v-25.508l-53.397-53.399-54.054 54.054 31.093 299.99v84.983h449.126v-84.983l31.093-299.989zm-396.165 409.028v-40.759h389.126v40.759zm390.601-70.759h-392.076l-28.306-273.101 22.742-22.741 23.397 23.397v13.083c0 43.617 35.485 79.102 79.103 79.102s79.102-35.485 79.102-79.102v-3.27l-27.022-59.03 47.022-47.022 47.022 47.022-27.022 59.03v3.27c0 43.617 35.485 79.102 79.103 79.102s79.103-35.485 79.103-79.102v-13.083l23.397-23.397 22.741 22.741z"/><path d="m128.26 262.775c-25.798 0-46.786 20.988-46.786 46.787 0 25.798 20.988 46.786 46.786 46.786s46.786-20.988 46.786-46.786c0-25.799-20.988-46.787-46.786-46.787zm0 63.573c-9.256 0-16.786-7.53-16.786-16.786s7.53-16.787 16.786-16.787 16.786 7.53 16.786 16.787c0 9.255-7.53 16.786-16.786 16.786z"/><path d="m383.61 262.775c-25.798 0-46.786 20.988-46.786 46.787 0 25.798 20.988 46.786 46.786 46.786s46.786-20.988 46.786-46.786c0-25.799-20.989-46.787-46.786-46.787zm0 63.573c-9.256 0-16.786-7.53-16.786-16.786s7.53-16.787 16.786-16.787 16.786 7.53 16.786 16.787c0 9.255-7.531 16.786-16.786 16.786z"/></g></svg>