<?xml version="1.0" encoding="iso-8859-1"?>
<!-- Generator: Adobe Illustrator 19.0.0, SVG Export Plug-In . SVG Version: 6.00 Build 0)  -->
<svg xmlns="http://www.w3.org/2000/svg" xmlns:xlink="http://www.w3.org/1999/xlink" version="1.1" id="Layer_1" x="0px" y="0px" viewBox="0 0 513.002 513.002" style="enable-background:new 0 0 513.002 513.002;" xml:space="preserve" width="512" height="512">
<path d="M379.081,53.301c6.5-8.93,19.01-10.9,27.94-4.4c8.93,6.5,10.9,19.011,4.4,27.94c-3.92,5.38-10.01,8.229-16.19,8.229  c-4.08,0-8.2-1.239-11.75-3.829C374.551,74.741,372.581,62.23,379.081,53.301z M461.991,189.23c2.74,8.45,10.59,13.83,19.02,13.83  c2.05,0,4.13-0.319,6.18-0.979c10.5-3.41,16.25-14.7,12.84-25.2c-3.41-10.51-14.69-16.26-25.2-12.85  C464.331,167.44,458.581,178.73,461.991,189.23z M447.471,137.291c4.08,0,8.2-1.25,11.75-3.83c8.93-6.5,10.9-19.01,4.4-27.94  c-6.5-8.93-19.01-10.899-27.94-4.399c-8.93,6.489-10.9,19-4.4,27.93C435.191,134.431,441.291,137.291,447.471,137.291z   M323.321,50.531c2.06,0.67,4.14,0.979,6.19,0.979c8.43,0,16.27-5.37,19.02-13.82c3.41-10.51-2.34-21.79-12.84-25.199  c-10.51-3.421-21.79,2.329-25.21,12.84C307.071,35.831,312.821,47.11,323.321,50.531z M236.891,23.911  c0.13,0.63,0.29,1.27,0.48,1.899c0.19,0.62,0.41,1.24,0.66,1.84c0.25,0.601,0.53,1.2,0.84,1.771c0.3,0.57,0.64,1.14,1,1.68  c0.36,0.55,0.76,1.08,1.17,1.58c0.41,0.51,0.86,1,1.32,1.46s0.95,0.91,1.46,1.32c0.5,0.41,1.03,0.81,1.58,1.17  c0.54,0.36,1.11,0.7,1.68,1c0.57,0.31,1.17,0.59,1.77,0.84c0.6,0.25,1.22,0.47,1.84,0.66c0.63,0.189,1.27,0.35,1.9,0.479  c0.64,0.131,1.3,0.23,1.94,0.29c0.66,0.07,1.32,0.101,1.97,0.101c0.65,0,1.31-0.03,1.97-0.101c0.64-0.06,1.3-0.159,1.94-0.29  c0.63-0.13,1.27-0.29,1.9-0.479c0.62-0.19,1.24-0.41,1.84-0.66s1.2-0.53,1.77-0.84c0.57-0.3,1.14-0.64,1.68-1  c0.55-0.36,1.08-0.76,1.58-1.17c0.51-0.41,1-0.86,1.46-1.32s0.91-0.95,1.32-1.46c0.41-0.5,0.81-1.03,1.17-1.58  c0.36-0.54,0.7-1.109,1-1.68c0.31-0.57,0.59-1.17,0.84-1.771c0.25-0.6,0.47-1.22,0.66-1.84c0.19-0.63,0.35-1.27,0.48-1.899  c0.13-0.641,0.23-1.301,0.29-1.94c0.07-0.66,0.1-1.32,0.1-1.97c0-0.65-0.03-1.311-0.1-1.97c-0.06-0.641-0.16-1.301-0.29-1.94  s-0.29-1.271-0.48-1.9c-0.19-0.62-0.41-1.239-0.66-1.84c-0.25-0.6-0.53-1.2-0.84-1.77c-0.3-0.58-0.64-1.141-1-1.681  c-0.36-0.55-0.76-1.08-1.17-1.58c-0.41-0.51-0.86-1-1.32-1.46s-0.95-0.909-1.46-1.319c-0.5-0.42-1.03-0.811-1.58-1.17  c-0.54-0.36-1.1-0.7-1.68-1c-0.57-0.311-1.17-0.59-1.77-0.84s-1.22-0.471-1.84-0.66c-0.62-0.19-1.26-0.351-1.9-0.48  c-0.64-0.13-1.29-0.229-1.94-0.29c-1.31-0.13-2.63-0.13-3.94,0c-0.64,0.061-1.3,0.16-1.94,0.29c-0.63,0.13-1.27,0.29-1.9,0.48  c-0.62,0.189-1.24,0.41-1.84,0.66c-0.6,0.25-1.2,0.529-1.77,0.84c-0.58,0.3-1.14,0.64-1.68,1c-0.55,0.359-1.08,0.75-1.58,1.17  c-0.51,0.41-1,0.859-1.46,1.319s-0.91,0.95-1.32,1.46c-0.41,0.5-0.81,1.03-1.17,1.58c-0.36,0.54-0.7,1.101-1,1.681  c-0.31,0.569-0.59,1.17-0.84,1.77c-0.25,0.601-0.47,1.22-0.66,1.84c-0.19,0.63-0.35,1.261-0.48,1.9c-0.13,0.64-0.23,1.3-0.29,1.94  c-0.07,0.659-0.1,1.319-0.1,1.97c0,0.649,0.03,1.31,0.1,1.97C236.661,22.61,236.761,23.271,236.891,23.911z M471.41,395.157  c26.882-41.438,41.091-89.557,41.091-139.156c0-0.643-0.03-1.296-0.098-1.949c-0.01-0.098-0.024-0.195-0.035-0.293  c-0.058-0.523-0.137-1.054-0.24-1.575c-0.425-2.198-1.216-4.261-2.296-6.138c-0.187-0.328-0.382-0.651-0.587-0.967  c-0.112-0.17-0.225-0.339-0.342-0.505c-0.272-0.393-0.557-0.775-0.853-1.14c-0.086-0.107-0.174-0.212-0.263-0.317  c-0.337-0.404-0.694-0.796-1.062-1.168c-0.057-0.057-0.114-0.114-0.171-0.171c-0.368-0.364-0.756-0.716-1.156-1.051  c-0.115-0.097-0.231-0.194-0.348-0.289c-0.356-0.288-0.729-0.566-1.111-0.831c-0.177-0.124-0.356-0.244-0.538-0.362  c-0.308-0.2-0.624-0.391-0.943-0.573c-1.874-1.079-3.931-1.869-6.123-2.295c-0.53-0.105-1.07-0.186-1.602-0.245  c-0.733-0.081-1.476-0.132-2.231-0.132c-0.754,0-1.496,0.05-2.229,0.131c-0.534,0.059-1.076,0.14-1.608,0.245  c-2.18,0.424-4.227,1.208-6.092,2.277c-0.341,0.193-0.676,0.396-1.003,0.61c-0.168,0.11-0.334,0.223-0.498,0.337  c-0.389,0.269-0.767,0.551-1.129,0.844c-0.112,0.09-0.221,0.182-0.331,0.274c-0.406,0.339-0.8,0.697-1.173,1.066  c-0.051,0.05-0.101,0.101-0.152,0.151c-0.372,0.376-0.733,0.772-1.073,1.181c-0.52,0.616-1,1.264-1.443,1.94  c-0.212,0.324-0.412,0.657-0.604,0.994c-1.075,1.87-1.863,3.923-2.288,6.11c-0.106,0.533-0.188,1.076-0.246,1.612  c-0.01,0.086-0.023,0.171-0.031,0.258c-0.07,0.659-0.099,1.318-0.099,1.967c0,75.638-40.127,145.822-103.931,184.685l-0.069-45.715  c-0.017-11.035-8.967-19.97-20-19.97c-0.01,0-0.021,0-0.031,0c-11.045,0.017-19.986,8.984-19.97,20.03l0.088,58.506  c-0.05,15.897,6.063,30.792,17.217,41.946c11.304,11.304,26.455,17.519,42.613,17.519c0.085,0,0.173-0.001,0.258-0.001h57.823  c11.046,0,20-8.954,20-20s-8.954-20-20-20h-54.105C423.967,453.212,450.939,426.711,471.41,395.157z M189.681,462.471  c-10.51-3.41-21.79,2.34-25.21,12.84c-3.41,10.51,2.34,21.79,12.84,25.2c2.06,0.67,4.14,0.99,6.19,0.99  c8.43,0,16.27-5.38,19.02-13.83C205.931,477.171,200.181,465.881,189.681,462.471z M129.521,431.761  c-8.93-6.5-21.44-4.54-27.94,4.39c-6.5,8.931-4.53,21.44,4.4,27.95c3.55,2.58,7.68,3.83,11.76,3.83c6.18,0,12.27-2.86,16.18-8.229  C140.421,450.771,138.451,438.261,129.521,431.761z M51.011,323.771c-3.41-10.5-14.69-16.26-25.2-12.85  c-10.5,3.41-16.25,14.7-12.84,25.2c2.74,8.46,10.58,13.83,19.02,13.83c2.04,0,4.12-0.311,6.18-0.98  C48.671,345.561,54.421,334.271,51.011,323.771z M53.781,379.541c-8.93,6.5-10.9,19.01-4.4,27.939c3.91,5.38,10.01,8.23,16.19,8.23  c4.08,0,8.19-1.24,11.75-3.83c8.93-6.49,10.9-19,4.4-27.93C75.221,375.011,62.711,373.041,53.781,379.541z M276.111,489.091  c-0.13-0.63-0.29-1.271-0.48-1.9c-0.19-0.62-0.41-1.239-0.66-1.84c-0.25-0.6-0.53-1.2-0.84-1.77c-0.3-0.57-0.64-1.141-1-1.681  c-0.36-0.55-0.76-1.08-1.17-1.58c-0.41-0.51-0.86-1-1.32-1.46s-0.95-0.909-1.46-1.319c-0.5-0.41-1.03-0.811-1.58-1.17  c-0.54-0.36-1.1-0.7-1.68-1c-0.57-0.311-1.17-0.591-1.77-0.841s-1.22-0.47-1.84-0.659c-0.63-0.19-1.27-0.351-1.9-0.48  c-0.64-0.13-1.3-0.229-1.94-0.29c-1.31-0.13-2.63-0.13-3.94,0c-0.65,0.061-1.3,0.16-1.94,0.29s-1.27,0.29-1.9,0.48  c-0.62,0.189-1.24,0.409-1.84,0.659c-0.6,0.25-1.2,0.53-1.77,0.841c-0.58,0.3-1.14,0.64-1.68,1c-0.55,0.359-1.08,0.76-1.58,1.17  c-0.51,0.41-1,0.859-1.46,1.319s-0.91,0.95-1.32,1.46c-0.42,0.5-0.81,1.03-1.17,1.58c-0.36,0.54-0.7,1.11-1,1.681  c-0.31,0.569-0.59,1.17-0.84,1.77c-0.25,0.601-0.47,1.22-0.66,1.84c-0.19,0.63-0.35,1.271-0.48,1.9c-0.13,0.64-0.23,1.3-0.29,1.939  c-0.07,0.66-0.1,1.32-0.1,1.971c0,5.27,2.14,10.42,5.86,14.14c0.46,0.46,0.95,0.91,1.46,1.32c0.5,0.41,1.03,0.81,1.58,1.17  c0.54,0.36,1.11,0.689,1.68,1c0.57,0.31,1.17,0.59,1.77,0.84c0.6,0.25,1.22,0.47,1.84,0.66c0.63,0.189,1.27,0.35,1.9,0.479  c0.64,0.131,1.3,0.221,1.94,0.29c0.66,0.061,1.32,0.101,1.97,0.101c0.65,0,1.31-0.04,1.97-0.101c0.64-0.069,1.3-0.159,1.94-0.29  c0.63-0.13,1.27-0.29,1.9-0.479c0.62-0.19,1.24-0.41,1.84-0.66s1.2-0.53,1.77-0.84c0.58-0.311,1.14-0.64,1.68-1  c0.55-0.36,1.08-0.76,1.58-1.17c0.51-0.41,1-0.86,1.46-1.32c3.73-3.72,5.86-8.88,5.86-14.14c0-0.65-0.03-1.311-0.1-1.971  C276.341,490.391,276.241,489.73,276.111,489.091z M6.449,271.225c0.372,0.368,0.764,0.725,1.168,1.062  c0.105,0.088,0.209,0.176,0.316,0.262c0.366,0.296,0.749,0.582,1.142,0.854c0.166,0.115,0.332,0.228,0.501,0.339  c0.319,0.208,0.645,0.405,0.976,0.593c1.88,1.081,3.946,1.871,6.146,2.295c0.513,0.102,1.035,0.18,1.55,0.237  c0.107,0.012,0.213,0.027,0.321,0.037c0.647,0.067,1.293,0.098,1.931,0.098h0c0,0,0,0,0,0c0,0,0,0,0,0  c0.636,0,1.281-0.03,1.927-0.097c0.111-0.01,0.22-0.026,0.331-0.038c0.51-0.056,1.026-0.134,1.534-0.234  c2.21-0.425,4.284-1.218,6.17-2.305c0.313-0.179,0.622-0.365,0.924-0.562c0.189-0.123,0.376-0.249,0.561-0.378  c0.374-0.26,0.738-0.531,1.088-0.813c0.125-0.101,0.249-0.204,0.372-0.308c0.386-0.323,0.759-0.663,1.115-1.014  c0.077-0.076,0.154-0.152,0.229-0.229c0.35-0.355,0.688-0.728,1.01-1.112c0.106-0.125,0.21-0.25,0.313-0.378  c0.28-0.347,0.549-0.708,0.807-1.079c0.133-0.189,0.261-0.381,0.387-0.575c0.192-0.297,0.376-0.6,0.552-0.907  c1.089-1.887,1.883-3.962,2.308-6.174c0.1-0.508,0.177-1.024,0.234-1.534c0.013-0.112,0.028-0.222,0.039-0.334  c0.066-0.64,0.096-1.28,0.096-1.909c0-0.006,0.001-0.012,0.001-0.019c0-75.639,40.127-145.822,103.931-184.685l0.069,45.715  c0.017,11.035,8.967,19.97,19.999,19.97c0.01,0,0.021,0,0.031,0c11.046-0.017,19.986-8.984,19.97-20.03l-0.089-58.504  c0.05-15.898-6.063-30.793-17.217-41.947C155.892,6.216,140.741,0,124.583,0c-0.085,0-0.173,0.001-0.258,0.001H66.501  c-11.046,0-20,8.954-20,20s8.954,20,20,20h54.104c-31.571,19.789-58.543,46.29-79.013,77.844  C14.716,159.273,0.508,207.381,0.502,256.969c0,0.011-0.001,0.021-0.001,0.032c0,0.661,0.034,1.32,0.1,1.974  C1.069,263.752,3.219,268.033,6.449,271.225z M255.506,367.106c-15.535,0-29.225-1.972-41.569-6.006l-50.365,22.201  c-2.594,1.144-5.34,1.699-8.063,1.7c-5.097,0-10.116-1.948-13.926-5.642c-5.844-5.666-7.671-14.309-4.621-21.855l16.867-41.724  c-11.887-17.655-18.325-38.291-18.325-59.255c0-61.495,53.832-111.525,120.001-111.525c66.08,0,119.911,49.962,119.999,111.374  c-0.043,30.149-12.798,58.237-35.917,79.147C317.07,355.89,287.209,367.106,255.506,367.106z M221.157,321.125  c9.434,4.024,20.669,5.981,34.349,5.981c44.056,0,79.943-31.73,79.999-70.731c-0.056-39.33-35.944-71.374-79.999-71.374  c-44.113,0-80.001,32.086-80.001,71.525c0,15.774,5.648,30.739,16.333,43.275c4.834,5.671,6.115,13.561,3.321,20.47l-2.652,6.562  l12.733-5.613c2.569-1.133,5.318-1.699,8.067-1.699C215.979,319.521,218.649,320.055,221.157,321.125z"/>















</svg>
