<?xml version="1.0" encoding="iso-8859-1"?>
<!-- Generator: Adobe Illustrator 19.0.0, SVG Export Plug-In . SVG Version: 6.00 Build 0)  -->
<svg xmlns="http://www.w3.org/2000/svg" xmlns:xlink="http://www.w3.org/1999/xlink" version="1.1" id="Layer_1" x="0px" y="0px" viewBox="0 0 512 512" style="enable-background:new 0 0 512 512;" xml:space="preserve" width="512" height="512">
<path d="M452.5,181L452.5,181c22.091,0,40-17.909,40-40v0c0-22.091-17.909-40-40-40l0,0c-22.091,0-40,17.909-40,40v0  c0,0.478,0.02,0.951,0.036,1.425l-41.911,25.732c-3.534-4.573-7.361-8.965-11.478-13.149c-22.53-22.898-51.364-37.31-82.647-41.629  V74.635c11.953-6.917,20-19.832,20-34.635v0c0-22.091-17.909-40-40-40l0,0c-22.091,0-40,17.909-40,40v0  c0,14.803,8.047,27.718,20,34.635v38.743c-31.284,4.319-60.117,18.731-82.647,41.629c-4.058,4.124-7.832,8.453-11.325,12.955  l-43.059-25.747c0.012-0.405,0.031-0.808,0.031-1.215v0c0-22.091-17.909-40-40-40l0,0c-22.091,0-40,17.909-40,40v0  c0,22.091,17.909,40,40,40l0,0c6.85,0,13.295-1.724,18.932-4.759l44.225,26.444c-6.836,17.169-10.332,35.677-10.149,54.724  c0.176,18.319,3.735,36.078,10.355,52.559L77.09,338.071C71.78,335.467,65.813,334,59.5,334l0,0c-22.091,0-40,17.909-40,40v0  c0,22.091,17.909,40,40,40l0,0c22.091,0,40-17.909,40-40v0c0-0.904-0.041-1.799-0.1-2.688l43.447-26.675  c3.766,4.817,7.854,9.427,12.267,13.794c22.313,22.083,50.677,35.982,81.387,40.199v38.735c-11.953,6.917-20,19.832-20,34.635v0  c0,22.091,17.909,40,40,40l0,0c22.091,0,40-17.909,40-40v0c0-14.803-8.047-27.718-20-34.635V386.5c0-1.042-0.104-2.058-0.258-3.058  c0.195-1.123,0.317-2.272,0.316-3.452c-0.005-11.043-8.958-19.991-20-19.991c-0.029,0.001-0.038,0-0.057,0  c-56.802,0-103.452-46.186-103.997-102.974c-0.268-27.855,10.337-54.123,29.859-73.964c19.515-19.832,45.571-30.861,73.376-31.06  h1.52c27.805,0.198,53.861,11.228,73.376,31.06c19.522,19.841,30.127,46.108,29.859,73.964c-0.001,0.068-0.001,0.136-0.001,0.204  l0.006,9.804c0,9.739-7.925,17.966-17.305,17.966c-9.427,0-17.695-8.396-17.695-17.966V210c0-11.046-8.954-20-20-20  c-6.092,0-11.539,2.733-15.207,7.029C280.33,191.297,268.796,188,256.5,188c-37.495,0-68,30.505-68,68s30.505,68,68,68  c17.261,0,33.03-6.476,45.034-17.111c0.293,0.308,0.575,0.624,0.875,0.927c4.212,4.253,8.944,7.765,14.039,10.488l96.071,54.933  c-0.005,0.255-0.02,0.507-0.02,0.763v0c0,22.091,17.909,40,40,40l0,0c22.091,0,40-17.909,40-40v0c0-22.091-17.909-40-40-40l0,0  c-7.008,0-13.592,1.807-19.319,4.973l-51.227-29.291c11.392-10.603,18.546-25.799,18.546-42.66l-0.006-9.718  c0.168-18.92-3.295-37.306-10.056-54.375l43.315-26.594C439.346,179.309,445.725,181,452.5,181z M256.5,284  c-15.439,0-28-12.561-28-28s12.561-28,28-28s28,12.561,28,28S271.939,284,256.5,284z"/>















</svg>
