<?xml version="1.0" encoding="iso-8859-1"?>
<!-- Generator: Adobe Illustrator 19.0.0, SVG Export Plug-In . SVG Version: 6.00 Build 0)  -->
<svg xmlns="http://www.w3.org/2000/svg" xmlns:xlink="http://www.w3.org/1999/xlink" version="1.1" id="Layer_1" x="0px" y="0px" viewBox="0 0 512 512" style="enable-background:new 0 0 512 512;" xml:space="preserve" width="512" height="512">
<path d="M322.64,472.751c4.003,10.295-1.097,21.886-11.392,25.89C288.131,507.63,264.826,512,240,512  c-30.389,0-60.113-7.155-88.347-21.267c-26.359-13.174-50.217-31.768-70.912-55.265C39.597,388.752,16,327.712,16,268V111  c0-7.881,4.628-15.026,11.819-18.25l203-91c5.181-2.323,11.106-2.333,16.295-0.03l205,91C459.342,95.928,464,103.093,464,111v157  c0,10.356-1.397,20.16-2.749,29.641l-0.446,3.142c-1.537,10.938-11.652,18.565-22.588,17.023  c-10.938-1.537-18.56-11.649-17.023-22.588l0.457-3.222C422.859,283.523,424,275.52,424,268V124.004L239.04,41.899L56,123.952V268  c0,106.767,87.701,204,184,204c19.776,0,38.34-3.48,56.751-10.641C307.044,457.355,318.637,462.456,322.64,472.751z M496,453.487  c0,15.629-6.086,30.323-17.138,41.375C467.811,505.913,453.117,512,437.487,512c-15.604,0-30.274-6.066-41.319-17.083  L294.023,394.335c-13.805,6.022-29.299,9.146-40.359,9.165c-0.054,0-0.112,0-0.167,0c-31.608,0.001-59.898-14.771-79.681-41.61  c-16.352-22.184-25.702-51.994-25.654-81.788c0.019-11.464,2.121-23.196,6.425-35.87c2.224-6.548,7.672-11.482,14.408-13.049  c6.736-1.568,13.803,0.458,18.687,5.354l48.921,49.026l25.516-5.787l6.024-25.953l-48.181-49.197  c-4.814-4.916-6.763-11.96-5.161-18.651c1.602-6.69,6.53-12.088,13.048-14.29c12.098-4.088,23.14-6.001,34.75-6.021  c0.074,0,0.153,0,0.228,0c35.887,0,71.121,13.821,94.3,37c18.931,18.932,28.915,42.618,28.873,68.501  c-0.02,12.106-3.842,27.15-9.804,40.167L478.73,411.982c0.044,0.043,0.088,0.087,0.132,0.13  C489.914,423.164,496,437.858,496,453.487z M456,453.487c0-4.919-1.906-9.545-5.368-13.035L337.241,329.143  c-7.061-6.931-7.993-17.982-2.192-25.998c6.251-8.639,10.938-24.044,10.951-32.048c0.025-15.232-5.748-28.741-17.157-40.15  c-12.65-12.65-30.935-21.223-50.776-24.161l26.328,26.883c4.779,4.881,6.737,11.862,5.193,18.517l-11.338,48.844  c-1.733,7.467-7.582,13.286-15.058,14.982l-48.516,11.005c-6.706,1.521-13.724-0.511-18.582-5.378l-26.967-27.025  c2.199,16.252,8.086,31.602,16.888,43.543c8.525,11.566,23.683,25.344,47.481,25.344c0.035,0,0.066,0,0.102,0  c8.596-0.015,23.946-4.164,32.229-10.097c3.503-2.509,7.582-3.74,11.64-3.74c5.104,0,10.177,1.947,14.039,5.749l112.782,111.057  c0.037,0.036,0.073,0.072,0.109,0.108c3.497,3.497,8.146,5.423,13.09,5.423s9.594-1.926,13.09-5.422  C454.074,463.081,456,458.432,456,453.487z"/>















</svg>
