<?xml version="1.0" encoding="iso-8859-1"?>
<!-- Generator: Adobe Illustrator 19.0.0, SVG Export Plug-In . SVG Version: 6.00 Build 0)  -->
<svg xmlns="http://www.w3.org/2000/svg" xmlns:xlink="http://www.w3.org/1999/xlink" version="1.1" id="Layer_1" x="0px" y="0px" viewBox="0 0 512 512" style="enable-background:new 0 0 512 512;" xml:space="preserve" width="512" height="512">
<path d="M492,352c11.046,0,20-8.954,20-20V192.704c0-27.406-13.779-52.591-36.86-67.371L427,94.507V20c0-11.046-8.954-20-20-20H105  C93.954,0,85,8.954,85,20v74.423l-48.108,30.773C13.792,139.973,0,165.165,0,192.588V432c0,44.112,35.888,80,80,80h352  c44.112,0,80-35.888,80-80c0-11.046-8.954-20-20-20s-20,8.954-20,20c0,22.056-17.944,40-40,40H80c-22.056,0-40-17.944-40-40V218.673  l138.419,86.298c3.292,2.053,6.949,3.031,10.562,3.031c6.675,0,13.199-3.341,16.991-9.422c5.844-9.373,2.983-21.709-6.391-27.553  L125,224.53V40h262v184.256l-75.542,46.856c-9.387,5.822-12.276,18.151-6.454,27.538c3.787,6.104,10.324,9.461,17.015,9.461  c3.598,0,7.241-0.971,10.523-3.007L472,218.603V332C472,343.046,480.954,352,492,352z M44.422,174.293  c3.174-6.175,7.946-11.514,14.023-15.401L85,141.906v57.686L44.422,174.293z M427,142.005l26.57,17.014  c6.037,3.865,10.785,9.163,13.956,15.29L427,199.445V142.005z M275,318c0,11.046-8.954,20-20,20h0c-11.046,0-20-8.954-20-20  s8.954-20,20-20h0C266.046,298,275,306.954,275,318z M275.994,254c0,11.046-8.954,20-20,20s-20-8.954-20-20v-12  c0-22.531,13.239-42.741,33.727-51.488c12.751-5.443,21.05-17.82,21.274-31.643c-0.005-0.195-0.008-0.392-0.008-0.589  c0-19.223-15.371-34.28-34.993-34.28S221,139.058,221,158.28c0,11.046-8.954,20-20,20s-20-8.954-20-20  c0-20.056,7.846-38.808,22.094-52.799C217.199,91.629,235.986,84,255.994,84s38.795,7.629,52.9,21.481  c14.044,13.793,21.869,32.211,22.088,51.944c0.012,0.281,0.018,0.565,0.018,0.85c0.007,30.108-17.882,57.201-45.574,69.023  c-5.73,2.446-9.433,8.217-9.433,14.701V254z"/>















</svg>
