<?xml version="1.0" encoding="iso-8859-1"?>
<!-- Generator: Adobe Illustrator 19.0.0, SVG Export Plug-In . SVG Version: 6.00 Build 0)  -->
<svg xmlns="http://www.w3.org/2000/svg" xmlns:xlink="http://www.w3.org/1999/xlink" version="1.1" id="Layer_1" x="0px" y="0px" viewBox="0 0 512.001 512.001" style="enable-background:new 0 0 512.001 512.001;" xml:space="preserve" width="512" height="512">
<path d="M318.693,218.873l-19.246-13.869c0.038-1.001,0.057-2.003,0.057-3.004c0-1.215-0.037-2.429-0.092-3.642  c-0.018-0.391-0.042-0.781-0.066-1.171c-0.023-0.383-0.036-0.767-0.064-1.149l19.857-15.165c7.823-5.974,10.136-16.752,5.453-25.41  l-9-16.639c-4.708-8.704-15.075-12.655-24.38-9.297l-23.643,8.532c-2.979-2.245-6.122-4.248-9.374-6.05  c-0.284-0.157-0.565-0.319-0.851-0.473c-0.814-0.438-1.638-0.856-2.467-1.265c-0.433-0.214-0.866-0.427-1.303-0.633  c-0.38-0.179-0.75-0.378-1.133-0.551l-4.253-23.629C246.473,95.931,238.183,89,228.504,89h-19c-9.974,0-18.424,7.349-19.807,17.227  l-3.204,22.88c-5.887,2.665-11.425,6.036-16.508,10.05l-23.208-7.248c-9.349-2.92-19.434,1.359-23.832,10.109l-8.815,17.537  c-4.495,8.942-1.688,19.831,6.571,25.485l18.904,12.942c-0.066,1.331-0.102,2.671-0.102,4.018c0,1.22,0.037,2.44,0.093,3.659  c0.019,0.418,0.047,0.833,0.072,1.249c0.026,0.418,0.041,0.837,0.073,1.255l-19.161,15.181c-7.852,6.221-9.89,17.291-4.769,25.9  l9.376,15.763c4.896,8.232,14.941,11.836,23.957,8.596l21.971-7.901c4.793,3.647,9.974,6.737,15.452,9.214l4.253,23.627  c1.715,9.526,10.004,16.457,19.684,16.457h18c9.826,0,18.196-7.138,19.749-16.84l3.681-23.009  c6.691-2.962,12.929-6.83,18.574-11.519l22.733,6.727c9.278,2.747,19.197-1.547,23.544-10.195l8.084-16.083  C329.283,235.303,326.665,224.618,318.693,218.873z M179.568,199.784c0.005-0.092,0.015-0.183,0.021-0.274  c0.042-0.665,0.097-1.331,0.173-1.996c0.006-0.057,0.015-0.113,0.021-0.169c0.083-0.703,0.183-1.405,0.303-2.106  c0.006-0.036,0.013-0.071,0.019-0.107c0.122-0.701,0.264-1.401,0.424-2.098c1.672-7.27,5.326-13.788,10.367-18.953  c0.149-0.153,0.296-0.308,0.447-0.458c0.395-0.392,0.796-0.776,1.207-1.151c0.103-0.094,0.208-0.184,0.312-0.276  c0.823-0.736,1.675-1.44,2.556-2.107c0.079-0.06,0.157-0.121,0.237-0.181c0.49-0.365,0.989-0.722,1.496-1.065  c0.005-0.004,0.01-0.007,0.016-0.01c0.98-0.662,1.994-1.278,3.034-1.853c0.125-0.069,0.25-0.141,0.376-0.208  c0.499-0.269,1.003-0.529,1.514-0.777c0.173-0.084,0.348-0.161,0.522-0.242c0.804-0.376,1.624-0.724,2.456-1.047  c0.346-0.134,0.691-0.268,1.041-0.392c0.397-0.142,0.797-0.278,1.2-0.407c0.558-0.178,1.12-0.344,1.687-0.497  c3.35-0.913,6.87-1.41,10.506-1.41c3.715,0,7.308,0.52,10.724,1.472c0.557,0.155,1.11,0.321,1.659,0.5  c0.323,0.105,0.644,0.213,0.963,0.327c0.486,0.172,0.967,0.358,1.446,0.549c0.443,0.177,0.883,0.361,1.319,0.553  c0.488,0.215,0.973,0.436,1.451,0.671c0.345,0.17,0.686,0.347,1.026,0.526c0.388,0.205,0.773,0.418,1.154,0.635  c0.315,0.179,0.632,0.354,0.941,0.542c0.608,0.369,1.205,0.755,1.793,1.156c0.28,0.191,0.553,0.391,0.828,0.589  c0.407,0.293,0.81,0.594,1.207,0.903c0.247,0.192,0.495,0.382,0.737,0.579c0.587,0.48,1.164,0.974,1.726,1.489  c0.174,0.159,0.341,0.326,0.512,0.489c0.444,0.421,0.88,0.852,1.306,1.295c4.88,5.066,8.437,11.41,10.117,18.477  c0.125,0.53,0.244,1.061,0.348,1.595c0.048,0.248,0.09,0.498,0.134,0.748c0.09,0.518,0.171,1.038,0.241,1.559  c0.033,0.248,0.066,0.495,0.095,0.744c0.063,0.549,0.112,1.099,0.152,1.65c0.016,0.218,0.037,0.435,0.05,0.654  c0.044,0.765,0.071,1.532,0.071,2.299c0,1.382-0.072,2.766-0.214,4.143c-0.006,0.059-0.016,0.117-0.022,0.175  c-0.067,0.618-0.145,1.235-0.24,1.849c-0.036,0.229-0.083,0.454-0.122,0.682c-0.074,0.431-0.147,0.863-0.236,1.291  c-1.428,6.881-4.636,13.115-9.111,18.212c-0.579,0.66-1.171,1.304-1.786,1.921c-0.135,0.135-0.278,0.263-0.415,0.396  c-0.481,0.469-0.975,0.921-1.476,1.364c-0.266,0.234-0.532,0.47-0.804,0.697c-0.556,0.465-1.123,0.913-1.7,1.345  c-0.358,0.267-0.726,0.522-1.093,0.778c-0.319,0.222-0.641,0.438-0.966,0.65c-0.594,0.388-1.199,0.76-1.815,1.116  c-0.371,0.215-0.741,0.431-1.119,0.633c-0.401,0.216-0.808,0.422-1.217,0.624c-0.439,0.216-0.883,0.422-1.33,0.622  c-0.468,0.21-0.94,0.412-1.418,0.605c-0.576,0.231-1.157,0.453-1.746,0.658c-0.285,0.099-0.57,0.197-0.857,0.291  c-0.818,0.264-1.643,0.51-2.481,0.721c-3.147,0.798-6.44,1.226-9.832,1.226c-3.705,0-7.289-0.517-10.696-1.464  c-0.576-0.159-1.147-0.332-1.714-0.517c-0.319-0.104-0.636-0.211-0.952-0.323c-0.504-0.178-1.001-0.372-1.497-0.57  c-0.476-0.191-0.947-0.391-1.413-0.6c-0.44-0.196-0.878-0.396-1.31-0.608c-0.37-0.182-0.735-0.371-1.098-0.563  c-0.354-0.188-0.703-0.384-1.052-0.582c-0.509-0.29-1.011-0.589-1.505-0.9c-0.421-0.265-0.841-0.532-1.252-0.813  c-0.336-0.23-0.666-0.469-0.995-0.708c-0.343-0.25-0.682-0.507-1.018-0.768c-0.296-0.23-0.594-0.456-0.883-0.694  c-0.552-0.455-1.091-0.926-1.62-1.411c-0.25-0.229-0.492-0.466-0.735-0.701c-0.37-0.357-0.734-0.722-1.091-1.094  c-4.852-5.051-8.391-11.366-10.069-18.4c-0.132-0.555-0.256-1.112-0.364-1.672c-0.044-0.229-0.083-0.46-0.124-0.69  c-0.094-0.536-0.177-1.073-0.249-1.612c-0.031-0.234-0.063-0.469-0.09-0.704c-0.064-0.558-0.114-1.118-0.155-1.679  c-0.015-0.21-0.036-0.419-0.048-0.63c-0.044-0.765-0.071-1.531-0.071-2.297C179.504,201.263,179.526,200.524,179.568,199.784z   M481.331,412.242c20.107-27.377,30.67-59.189,30.67-92.717c0-53.673-27.835-103.502-74.792-134.598  c-4.331-47.819-26.658-92.167-63.991-126.335C331.935,20.809,277.167,0,219,0S106.066,20.809,64.783,58.593  C23.007,96.828,0,147.806,0,202.136c0,41.788,13.471,81.406,39.08,115.304L1.458,410.504c-3.051,7.547-1.224,16.189,4.621,21.855  c3.809,3.693,8.829,5.642,13.926,5.642c2.723-0.001,5.469-0.557,8.063-1.7l107.301-47.3c13.47,5.149,27.348,9.001,41.547,11.551  c14.543,23.919,35.287,44.173,60.505,58.917c28.154,16.459,60.661,25.254,94.098,25.507c0.491,0.036,0.982,0.075,1.482,0.075  c23.118,0,45.515-3.993,66.703-11.88l84.229,37.13c2.594,1.144,5.339,1.7,8.063,1.7c5.096-0.001,10.117-1.948,13.925-5.642  c5.845-5.666,7.672-14.309,4.621-21.855L481.331,412.242z M439.889,416.457l15.109,37.375l-46.837-20.646  c-5.064-2.232-10.826-2.268-15.916-0.095c-18.357,7.832-38.013,11.846-58.435,11.95C333.54,445.03,333.274,445,333,445  c-39.414,0-76.649-15.402-102.664-41.023c32.984-1.58,65.313-10.003,94.136-24.641c9.849-5.002,13.777-17.041,8.775-26.889  c-5.002-9.848-17.04-13.775-26.889-8.775c-26.534,13.477-56.742,20.6-87.359,20.6c-26.604,0-52.216-5.172-76.124-15.373  c-5.09-2.172-10.852-2.138-15.917,0.095l-69.958,30.839l23.555-58.266c2.793-6.909,1.513-14.799-3.322-20.47  C52.876,272.519,40,238.299,40,202.136C40,112.734,120.3,40,219,40s179,72.734,179,162.136c0,28.876-8.49,57.225-24.551,81.979  c-6.012,9.266-3.375,21.651,5.892,27.663c9.265,6.014,21.652,3.376,27.664-5.892c14.254-21.969,23.777-46.224,28.181-71.417  C458.615,257.413,472,287.634,472,319.525c0,27.926-9.955,54.365-28.79,76.462C438.376,401.658,437.096,409.548,439.889,416.457z"/>















</svg>
