<?xml version="1.0" encoding="iso-8859-1"?>
<!-- Generator: Adobe Illustrator 19.0.0, SVG Export Plug-In . SVG Version: 6.00 Build 0)  -->
<svg xmlns="http://www.w3.org/2000/svg" xmlns:xlink="http://www.w3.org/1999/xlink" version="1.1" id="Layer_1" x="0px" y="0px" viewBox="0 0 512 512" style="enable-background:new 0 0 512 512;" xml:space="preserve" width="512" height="512">
<path d="M262,512h-12c-6.859,0-13.241-3.516-16.906-9.314c-21.922-34.682-49.371-64.744-75.918-93.815  c-27.074-29.65-52.647-57.656-72.332-89.753c-22.732-37.068-33.802-74.46-33.841-114.315c0.063-54.75,21.414-106.172,60.12-144.838  C149.833,21.296,201.284,0,256,0c54.715,0,106.167,21.296,144.877,59.964c38.706,38.666,60.058,90.088,60.12,144.795  c-0.043,44.818-13.515,85.33-42.395,127.535c-6.239,9.117-18.687,11.449-27.801,5.211c-9.115-6.238-11.448-18.684-5.211-27.8  c24.121-35.249,35.371-68.595,35.406-104.942C420.893,113.932,346.875,40,256,40S91.107,113.932,91.003,204.806  c0.07,72.354,44.392,120.892,95.711,177.093c23.604,25.849,47.892,52.447,69.286,83.037c21.396-30.591,45.685-57.19,69.29-83.041  l3.083-3.377c7.446-8.159,20.096-8.737,28.255-1.29c8.158,7.446,8.736,20.096,1.29,28.255l-3.09,3.385  c-26.548,29.072-53.999,59.135-75.922,93.819C275.241,508.484,268.859,512,262,512z M255,314L255,314c-11.046,0-20,8.954-20,20l0,0  c0,11.046,8.954,20,20,20h0c11.046,0,20-8.954,20-20l0,0C275,322.954,266.046,314,255,314z M275.993,270v-1.287  c0-6.484,3.703-12.254,9.434-14.701c27.691-11.822,45.58-38.915,45.573-69.023c0-0.28-0.006-0.559-0.018-0.836  C330.531,143.187,297.064,110,255.993,110C214.642,110,181,143.642,181,184.994c0,11.046,8.954,20,20,20s20-8.954,20-20  C221,165.698,236.698,150,255.993,150c19.296,0,34.994,15.698,34.994,34.994c0,0.193,0.003,0.386,0.008,0.578  c-0.221,13.827-8.521,26.208-21.273,31.652c-20.489,8.748-33.729,28.958-33.729,51.489V270c0,11.046,8.954,20,20,20  S275.993,281.046,275.993,270z"/>















</svg>
