<svg height="512pt" viewBox="0 -16 512 512" width="512pt" xmlns="http://www.w3.org/2000/svg"><path d="m121 210h-121v210h61v60l80-60h160v-150h68.785156l81.214844 81.214844v-81.214844h61v-270h-391zm91.796875 60-61.832031 54.964844-96.292969-84.964844h66.328125v30zm58.203125 120h-140l-40 30v-30h-61v-131.761719l64.5 56.914063-37.839844 33.636718 19.929688 22.421876 40.574218-36.0625 33.875 29.886718 33.710938-29.96875 40.660156 36.144532 19.933594-22.421876-38.015625-33.789062 50.625-45h13.046875zm150-150v38.785156l-38.785156-38.785156h-231.214844v-192.976562l105.570312 87.976562-58.171874 48.476562 19.203124 23.046876 62.398438-52 35.972656 29.980468 36.101563-29.917968 62.324219 51.9375 19.203124-23.046876-58.03125-48.363281 106.429688-88.203125v193.089844zm-104.972656-94.503906-138.597656-115.496094h277.964843zm0 0"/></svg>