<svg height="512pt" viewBox="0 0 512 512" width="512pt" xmlns="http://www.w3.org/2000/svg"><path d="m211 60c0-33.085938-26.914062-60-60-60-32.894531 0-61 26.585938-61 60 0 33.425781 28.113281 60 61 60 33.085938 0 60-26.914062 60-60zm-60 30c-16.804688 0-31-13.738281-31-30s14.195312-30 31-30c16.542969 0 30 13.457031 30 30s-13.457031 30-30 30zm0 0"/><path d="m481 331c0-33.085938-26.914062-60-60-60s-60 26.914062-60 60 26.914062 60 60 60 60-26.914062 60-60zm-60 30c-16.542969 0-30-13.457031-30-30s13.457031-30 30-30 30 13.457031 30 30-13.457031 30-30 30zm0 0"/><path d="m421 391c-31.101562 0-58.621094 16.050781-75 40.882812-16.378906-24.832031-43.890625-40.882812-75-40.882812-49.519531 0-90 41.03125-90 91h-121v-181.011719h159.070312c-5.121093 8.84375-8.070312 19.085938-8.070312 30.011719 0 33.085938 26.914062 60 60 60s60-26.914062 60-60c0-22.160156-12.085938-41.535156-30-51.929688 0-30.820312 0-120.777343 0-153.339843l-68.292969-34.148438-13.414062 26.832031 51.707031 25.855469v66.730469h-30c0-49.914062-40.421875-91-90-91-49.675781 0-91 41.171875-91 91h-30v-66.730469l51.707031-25.851562-13.414062-26.835938-68.292969 34.148438v175.269531h30v211h482v-30c0-49.660156-41.152344-91-91-91zm-150-30c-16.542969 0-30-13.457031-30-30s13.457031-30 30-30 30 13.457031 30 30-13.457031 30-30 30zm0-120v30h-241v-30zm-120-91c33.085938 0 60 27.363281 60 61h-121c0-33.066406 27.933594-61 61-61zm60 332c0-33.636719 26.914062-61 60-61s60 27.363281 60 61zm150 0c0-33.636719 26.914062-61 60-61 33.066406 0 61 27.933594 61 61zm0 0"/></svg>