<svg height="512pt" viewBox="0 -49 512 512" width="512pt" xmlns="http://www.w3.org/2000/svg"><path d="m436.398438 300-18 24 24 18h-51.398438v-30h-270v30h-31c-33.085938 0-60-26.914062-60-60s26.914062-60 60-60h31v30h270v-30h31c49.625 0 90-40.375 90-90s-40.375-90-90-90h-31v-30h-270v30h-10l-56-42-18 24 24 18h-61v30h61l-24 18 18 24 56-42h10v30h270v-30h31c33.085938 0 60 26.914062 60 60s-26.914062 60-60 60h-31v-30h-270v30h-31c-49.625 0-90 40.375-90 90s40.375 90 90 90h31v30h270v-30h51.398438l-24 18 18 24 75.601562-57zm-75.398438-228h-210v-30h210zm-210 120h210v30h-210zm210 180h-210v-30h210zm0 0"/></svg>