<svg height="512pt" viewBox="0 -16 512 512" width="512pt" xmlns="http://www.w3.org/2000/svg"><path d="m512 180v-105c0-41.355469-33.644531-75-75-75h-362c-41.355469 0-75 33.644531-75 75v105h151v-75c0-8.269531 6.730469-15 15-15h45v90h-30v30h-52.214844l-98.785156 98.785156v171.214844h452v-171.214844l-98.785156-98.785156h-52.214844v-30h-30v-90h45c8.269531 0 15 6.730469 15 15v75zm-121-30v-30h91v30zm-361 0v-30h91v30zm340.785156 90 81.214844 81.214844v128.785156h-392v-128.785156l81.214844-81.214844h69.785156v-30h90v30zm-99.785156-60h-30v-90h30zm75-120h-180c-19.554688 0-36.226562 12.542969-42.421875 30h-93.578125v-15c0-24.8125 20.1875-45 45-45h362c24.8125 0 45 20.1875 45 45v15h-93.578125c-6.195313-17.457031-22.867187-30-42.421875-30zm0 0"/><path d="m233.792969 257.691406c-31.816407 7.730469-57.371094 33.285156-65.101563 65.101563-14.210937 58.5 29.769532 112.1875 87.378906 112.1875 43.597657-.003907 78.070313-30.035157 87.238282-67.773438 7.601562-31.296875-1.253906-63.378906-23.695313-85.820312-22.4375-22.441407-54.515625-31.296875-85.820312-23.695313zm80.363281 102.433594c-10.796875 44.453125-67.65625 60.171875-100.554688 27.273438-14.980468-14.976563-20.871093-36.480469-15.757812-57.523438 5.03125-20.707031 22.324219-38.003906 43.03125-43.03125 20.738281-5.039062 42.335938.566406 57.523438 15.753906 14.980468 14.980469 20.871093 36.484375 15.757812 57.527344zm0 0"/><path d="m241 330h30v30h-30zm0 0"/></svg>