<svg height="512pt" viewBox="-16 0 512 512" width="512pt" xmlns="http://www.w3.org/2000/svg"><path d="m480 0h-270v61.503906c-54.453125 3.5625-105.15625 26.457032-144.097656 65.398438-42.5 42.496094-65.902344 98.996094-65.902344 159.097656 0 124.617188 100.933594 226 225 226s225-101.382812 225-226c0-25.898438-4.3125-51.03125-12.808594-75h42.808594zm-154.601562 229.449219c2.261718 13.503906 3.699218 27.386719 4.289062 41.550781h-89.6875v-60h30v60zm94.03125 71.550781c-2.03125 26.863281-9.476563 52.230469-21.238282 75h-49.15625c6.035156-23.5625 9.660156-48.871094 10.667969-75zm-101.589844 75h-77.839844v-75.199219h89.679688c-1.144532 26.714844-5.3125 52.316407-11.839844 75.199219zm-287.269532-75h59.726563c1.007813 26.128906 4.632813 51.4375 10.667969 75h-49.15625c-11.761719-22.769531-19.207032-48.136719-21.238282-75zm179.429688-30h-89.6875c1.097656-26.46875 5.113281-51.855469 11.757812-75h77.929688zm-119.703125 0h-59.722656c2.058593-26.878906 9.582031-52.449219 21.464843-75.199219h48.972657c-6.058594 23.53125-9.703125 49.042969-10.714844 75.199219zm30.023437 30h89.679688v75h-77.839844c-6.527344-22.882812-10.695312-48.285156-11.839844-75zm89.679688-207.925781v72.925781h-67.277344c3.175782-7.378906 6.65625-14.417969 10.449219-21.050781 16.085937-28.152344 35.859375-46.0625 56.828125-51.875zm-70.273438 17.578125c-4.414062 5.96875-8.621093 12.445312-12.605468 19.414062-6.335938 11.089844-11.914063 23.136719-16.699219 35.933594h-39.015625c18.199219-23.246094 41.550781-42.277344 68.320312-55.347656zm-68.800781 295.347656h39.378907c4.808593 12.953125 10.417968 25.15625 16.796874 36.398438 4.082032 7.191406 8.40625 13.867187 12.9375 20.003906-27.136718-13.257813-50.769531-32.667969-69.113281-56.402344zm71.734375 0h67.339844v73.894531c-26.9375-7.558593-50.917969-35.046875-67.339844-73.894531zm97.339844 73.894531v-74.09375h67.339844c-16.421875 38.847657-40.402344 66.535157-67.339844 74.09375zm69.960938-17.492187c4.53125-6.136719 8.855468-12.8125 12.9375-20.003906 6.382812-11.242188 11.988281-23.644532 16.796874-36.597657h39.378907c-18.34375 23.734375-41.976563 43.34375-69.113281 56.601563zm109.464843-191.402344h-59.722656c-.792969-20.585938-3.21875-40.675781-7.25-60h52.59375c8.003906 19.148438 12.816406 39.246094 14.378906 60zm30.574219-90h-110l-40 30v-30h-60v-151h210zm0 0"/><path d="m270 121h120v30h-120zm0 0"/><path d="m270 61h150v30h-150zm0 0"/></svg>