<svg height="512pt" viewBox="0 -76 512 512" width="512pt" xmlns="http://www.w3.org/2000/svg"><path d="m331 105c0-41.355469-33.644531-75-75-75s-75 33.644531-75 75 33.644531 75 75 75 75-33.644531 75-75zm-75 45c-24.8125 0-45-20.1875-45-45s20.1875-45 45-45 45 20.1875 45 45-20.1875 45-45 45zm0 0"/><path d="m512 255c0-57.898438-47.550781-105-106-105-36.515625 0-70.179688 19.257812-89.117188 49.5-17.183593-12.269531-38.203124-19.5-60.882812-19.5s-43.699219 7.230469-60.882812 19.5c-18.9375-30.242188-52.601563-49.5-89.117188-49.5-58.449219 0-106 47.101562-106 105v75h151v30h210v-30h151zm-482 45v-45c0-41.355469 34.09375-75 76-75 28.277344 0 54.167969 16.160156 66.847656 40.964844-13.691406 17.734375-21.847656 39.949218-21.847656 64.035156v15zm301 30h-150v-45c0-41.355469 33.644531-75 75-75s75 33.644531 75 75zm151-30h-121v-15c0-24.085938-8.15625-46.300781-21.847656-64.035156 12.679687-24.804688 38.570312-40.964844 66.847656-40.964844 41.90625 0 76 33.644531 76 75zm0 0"/><path d="m481 75c0-41.355469-33.644531-75-75-75s-75 33.644531-75 75 33.644531 75 75 75 75-33.644531 75-75zm-75 45c-24.8125 0-45-20.1875-45-45s20.1875-45 45-45 45 20.1875 45 45-20.1875 45-45 45zm0 0"/><path d="m181 75c0-41.355469-33.644531-75-75-75s-75 33.644531-75 75 33.644531 75 75 75 75-33.644531 75-75zm-75 45c-24.8125 0-45-20.1875-45-45s20.1875-45 45-45 45 20.1875 45 45-20.1875 45-45 45zm0 0"/></svg>