<svg height="511.99997pt" viewBox="1 1 511.99997 511.99997" width="511.99997pt" xmlns="http://www.w3.org/2000/svg"><path d="m317.160156 0c-107.433594 0-194.835937 87.40625-194.835937 194.839844 0 37.460937 10.636719 72.484375 29.035156 102.21875l-151.359375 151.359375 63.582031 63.582031 151.359375-151.359375c29.734375 18.398437 64.757813 29.035156 102.21875 29.035156 107.433594 0 194.839844-87.402343 194.839844-194.835937s-87.40625-194.839844-194.839844-194.839844zm-274.769531 448.417969 88.714844-88.714844 21.191406 21.191406-88.714844 88.714844zm131.101563-88.71875-21.191407-21.191407 16.96875-16.96875c6.511719 7.59375 13.597657 14.679688 21.191407 21.191407zm143.667968.003906c-90.90625 0-164.863281-73.957031-164.863281-164.863281s73.957031-164.863282 164.863281-164.863282 164.863282 73.957032 164.863282 164.863282-73.957032 164.863281-164.863282 164.863281zm0 0"/><path d="m212.25 209.828125h29.972656v59.949219h-29.972656zm0 0"/><path d="m392.097656 149.875h29.976563v119.902344h-29.976563zm0 0"/><path d="m332.148438 89.925781h29.976562v179.851563h-29.976562zm0 0"/><path d="m272.199219 149.875h29.972656v119.902344h-29.972656zm0 0"/></svg>