<svg height="512pt" viewBox="0 -31 512 512" width="512pt" xmlns="http://www.w3.org/2000/svg"><path d="m0 0v450h512c0-12.105469 0-437.902344 0-450zm482 241.507812c-29.34375 5.980469-52.511719 29.148438-58.492188 58.492188h-106.53125c31.09375-34.628906 44.023438-87.8125 44.023438-135 0-47.253906-12.96875-100.414062-44.023438-135h106.53125c5.980469 29.34375 29.148438 52.511719 58.492188 58.492188zm0 31.070313v27.421875h-27.421875c4.527344-12.765625 14.65625-22.894531 27.421875-27.421875zm-211 147.421875h-30v-90h30zm-241-147.421875c12.765625 4.527344 22.894531 14.65625 27.421875 27.421875h-27.421875zm58.492188 27.421875c-5.980469-29.34375-29.148438-52.511719-58.492188-58.492188v-153.015624c29.34375-5.980469 52.511719-29.148438 58.492188-58.492188h106.53125c-31.09375 34.628906-44.023438 87.8125-44.023438 135 0 47.253906 12.96875 100.414062 44.023438 135zm242.507812-135c0 73.175781-34.347656 135-75 135s-75-61.824219-75-135 34.347656-135 75-135 75 61.824219 75 135zm151-107.578125c-12.765625-4.527344-22.894531-14.65625-27.421875-27.421875h27.421875zm-424.578125-27.421875c-4.527344 12.765625-14.65625 22.894531-27.421875 27.421875v-27.421875zm153.578125 300v30h-181v-30zm-181 60h181v30h-181zm452 30h-181v-30h181zm0-60h-181v-30h181zm0 0"/><path d="m392 150h30v30h-30zm0 0"/><path d="m90 150h30v30h-30zm0 0"/><path d="m211 135c0 24.8125 20.1875 45 45 45 8.269531 0 15 6.730469 15 15s-6.730469 15-15 15c-6.046875 0-11.472656-3.597656-13.828125-9.164062l-27.628906 11.683593c5.03125 11.894531 14.738281 20.785157 26.457031 24.917969v32.5625h30v-32.578125c17.460938-6.195313 30-22.867187 30-42.421875 0-24.8125-20.1875-45-45-45-8.269531 0-15-6.730469-15-15s6.730469-15 15-15c6.046875 0 11.472656 3.597656 13.828125 9.164062l27.628906-11.683593c-5.027343-11.894531-14.738281-20.785157-26.457031-24.917969v-32.5625h-30v32.578125c-17.460938 6.195313-30 22.867187-30 42.421875zm0 0"/></svg>