<svg height="512pt" viewBox="-91 0 512 512" width="512pt" xmlns="http://www.w3.org/2000/svg"><path d="m165 0c-90.980469 0-165 74.019531-165 165 0 32.765625 9.585938 64.429688 27.679688 91.507812l75.078124 113.550782c-44.847656 12.394531-72.757812 37.46875-72.757812 66.941406 0 53.53125 80.78125 75 135 75 55.148438 0 135-21.878906 135-75 0-29.472656-27.910156-54.546875-72.757812-66.941406l75.0625-113.53125c18.121093-27.128906 27.695312-58.777344 27.695312-91.527344 0-90.980469-74.019531-165-165-165zm105 437c0 21.242188-44.902344 45-105 45s-105-23.757812-105-45c0-13.769531 21.074219-31.855469 60.320312-40.375l44.679688 67.570312 44.679688-67.570312c39.246093 8.515625 60.320312 26.605469 60.320312 40.375zm7.335938-197.097656-112.335938 169.902344-112.335938-169.902344c-14.824218-22.191406-22.664062-48.09375-22.664062-74.902344 0-74.4375 60.5625-135 135-135s135 60.5625 135 135c0 26.8125-7.839844 52.710938-22.664062 74.902344zm0 0"/><path d="m165 60c-57.898438 0-105 47.101562-105 105 0 20.855469 6.09375 40.992188 17.613281 58.222656 14.320313 21.453125 35.851563 36.492188 61.1875 42.921875l26.199219 52.398438 26.199219-52.398438c25.335937-6.425781 46.863281-21.460937 61.1875-42.90625 11.523437-17.25 17.613281-37.390625 17.613281-58.238281 0-57.898438-47.101562-105-105-105zm62.4375 146.574219c-20.726562 31.027343-53.195312 31.832031-56.507812 33.023437l-5.929688 11.859375-5.929688-11.859375c-3.132812-1.125-35.8125-2.035156-56.515624-33.042968-8.210938-12.285157-12.554688-26.65625-12.554688-41.554688 0-41.355469 33.644531-75 75-75s75 33.644531 75 75c0 14.898438-4.34375 29.273438-12.5625 41.574219zm0 0"/><path d="m180 150h30v30h-30zm0 0"/><path d="m120 150h30v30h-30zm0 0"/></svg>