<svg height="512pt" viewBox="0 0 512 512" width="512pt" xmlns="http://www.w3.org/2000/svg"><path d="m194.027344 362-88.027344-132.042969-88.027344 132.042969h43.027344v45c0 41.355469 33.644531 75 75 75h45v-30h-15c-8.269531 0-15-6.730469-15-15v-75zm-73.027344-30v105c0 4.542969.675781 8.929688 1.933594 13.066406-18.460938-5.613281-31.933594-22.796875-31.933594-43.066406v-75h-16.972656l31.972656-47.957031 31.972656 47.957031zm0 0"/><path d="m318.308594 150 87.691406 134.460938 87.691406-134.460938h-42.691406v-45c0-41.355469-33.644531-75-75-75h-45v30h15c8.269531 0 15 6.730469 15 15v75zm72.691406 30v-105c0-4.542969-.675781-8.929688-1.933594-13.066406 18.460938 5.613281 31.933594 22.796875 31.933594 43.066406v75h17.308594l-32.308594 49.539062-32.308594-49.539062zm0 0"/><path d="m241 512h271v-210h-271zm30-180h211v150h-211zm0 0"/><path d="m271 0h-271v210h271zm-30 180h-211v-150h211zm0 0"/><path d="m60 60h151v30h-151zm0 0"/><path d="m60 120h151v30h-151zm0 0"/><path d="m301 362h151v30h-151zm0 0"/><path d="m301 422h151v30h-151zm0 0"/></svg>