<svg height="512pt" viewBox="0 -16 512 512" width="512pt" xmlns="http://www.w3.org/2000/svg"><path d="m361 90v-90h-210v90h-151v390h512v-390zm-240 210h-30v-30h30zm0-60h-30v-120h30zm-30 90h30v120h-30zm60-210h210v330h-210zm270 180h-30v-30h30zm-30 30h30v120h-30zm30-90h-30v-120h30zm-240-210h150v60h-150zm-151 90h31v330h-31zm452 330h-31v-330h31zm0 0"/><path d="m301 315c0-24.8125-20.1875-45-45-45-8.269531 0-15-6.730469-15-15s6.730469-15 15-15c6.046875 0 11.472656 3.597656 13.828125 9.164062l27.628906-11.683593c-5.027343-11.894531-14.738281-20.785157-26.457031-24.917969v-32.5625h-30v32.578125c-17.460938 6.195313-30 22.867187-30 42.421875 0 24.8125 20.1875 45 45 45 8.269531 0 15 6.730469 15 15s-6.730469 15-15 15c-6.046875 0-11.472656-3.597656-13.828125-9.164062l-27.628906 11.683593c5.027343 11.894531 14.738281 20.785157 26.457031 24.917969v32.5625h30v-32.578125c17.460938-6.195313 30-22.867187 30-42.421875zm0 0"/></svg>