<svg height="512pt" viewBox="-31 0 512 512" width="512pt" xmlns="http://www.w3.org/2000/svg"><path d="m400.035156 144.601562 41.390625-41.390624-21.210937-21.210938 19.390625-19.394531-21.210938-21.210938-19.394531 19.390625-21.210938-21.210937-47.476562 47.480469c-18.921875-10.046876-39.199219-17.308594-60.3125-21.574219v-35.480469h30v-30h-150v30h30v35.480469c-21.113281 4.265625-41.390625 11.527343-60.3125 21.574219l-47.476562-47.480469-21.210938 21.210937-19.394531-19.390625-21.210938 21.210938 19.390625 19.394531-21.210937 21.210938 41.390625 41.390624c-32.367188 39.910157-49.964844 89.300782-49.964844 141.398438 0 124.617188 100.933594 226 225 226s225-101.382812 225-226c0-52.097656-17.597656-101.488281-49.964844-141.398438zm-22.246094-62.597656 21.207032 21.207032-19.355469 19.359374c-7.355469-6.96875-15.109375-13.378906-23.195313-19.226562zm-167.789062-52.003906h30v31.503906c-4.972656-.324218-9.972656-.503906-15-.503906s-10.027344.179688-15 .503906zm-116.445312 73.34375c-8.085938 5.847656-15.839844 12.257812-23.195313 19.226562l-19.355469-19.359374 21.207032-21.207032zm131.445312 378.65625c-107.523438 0-195-87.925781-195-196 0-107.523438 87.476562-195 195-195s195 87.476562 195 195c0 108.074219-87.476562 196-195 196zm0 0"/><path d="m240 271v-150h-15c-90.980469 0-165 74.019531-165 165s74.019531 165 165 165 165-74.019531 165-165v-15zm-15 150c-74.4375 0-135-60.5625-135-135 0-69.367188 52.59375-126.6875 120-134.171875v148.972656h149.171875c-7.484375 67.402344-64.804687 120.199219-134.171875 120.199219zm0 0"/></svg>