<svg height="512pt" viewBox="0 0 512 512" width="512pt" xmlns="http://www.w3.org/2000/svg"><path d="m301 90h-90v90h90zm-30 60h-30v-30h30zm0 0"/><path d="m301 210h-90v212h90zm-30 182h-30v-152h30zm0 0"/><path d="m79.1875 441.597656-70.402344 70.402344h247.214844c140.957031 0 256-115.046875 256-256 0-140.957031-115.050781-256-256-256-140.957031 0-256 115.050781-256 256 0 70.710938 28.671875 137.464844 79.1875 185.597656zm176.8125-411.597656c124.617188 0 226 101.382812 226 226s-101.382812 226-226 226h-174.785156l41.984375-41.988281c-3.691407-4.621094-93.199219-62.183594-93.199219-184.011719 0-124.617188 101.382812-226 226-226zm0 0"/></svg>