<svg height="512pt" viewBox="0 -16 512 512" width="512pt" xmlns="http://www.w3.org/2000/svg"><path d="m350.414062 88.527344-35.15625 20.296875c-4.542968-3.140625-9.304687-5.90625-14.257812-8.277344v-40.546875h-90v40.546875c-4.953125 2.371094-9.714844 5.136719-14.257812 8.277344l-35.15625-20.296875-45 77.945312 34.8125 20.097656c-.515626 5.585938-.546876 10.914063 0 16.859376l-34.8125 20.097656 45 77.941406 35.15625-20.296875c4.542968 3.144531 9.304687 5.90625 14.257812 8.277344v40.550781h90v-40.546875c4.953125-2.371094 9.714844-5.136719 14.257812-8.277344l35.15625 20.296875 45-77.945312-34.8125-20.097656c.511719-5.570313.550782-10.898438 0-16.859376l34.8125-20.097656zm-22.746093 130.53125 26.765625 15.453125-15 25.976562-27.027344-15.601562c-19.160156 16.347656-20.566406 16.578125-41.40625 24.007812v31.105469h-30v-31.105469c-23.527344-8.386719-24.378906-9.480469-41.40625-24.007812l-27.027344 15.601562-15-25.976562 26.769532-15.453125c-4.535157-24.488282-4.457032-24.054688 0-48.117188l-26.769532-15.453125 15-25.976562 27.027344 15.601562c19.386719-16.539062 20.820312-16.667969 41.40625-24.007812v-31.105469h30v31.105469c23.25 8.289062 24.179688 9.308593 41.40625 24.007812l27.027344-15.605469 15 25.980469-26.765625 15.453125c4.5 24.308594 4.484375 23.902344 0 48.117188zm0 0"/><path d="m256 150c-24.8125 0-45 20.1875-45 45s20.1875 45 45 45 45-20.1875 45-45-20.1875-45-45-45zm0 60c-8.269531 0-15-6.730469-15-15s6.730469-15 15-15 15 6.730469 15 15-6.730469 15-15 15zm0 0"/><path d="m407 0h-302c-57.898438 0-105 47.101562-105 105v180c0 52.804688 39.183594 96.632812 90 103.933594v91.066406h28.0625l85.050781-90h203.886719c57.898438 0 105-47.101562 105-105v-180c0-57.898438-47.101562-105-105-105zm75 285c0 41.355469-33.644531 75-75 75h-216.8125l-70.1875 74.269531v-74.269531h-15c-41.355469 0-75-33.644531-75-75v-180c0-41.355469 33.644531-75 75-75h302c41.355469 0 75 33.644531 75 75zm0 0"/></svg>