<svg height="512pt" viewBox="0 -31 512 512" width="512pt" xmlns="http://www.w3.org/2000/svg"><path d="m377 0c-74.4375 0-135 60.5625-135 135s60.5625 135 135 135 135-60.5625 135-135-60.5625-135-135-135zm-105 135c0-52.804688 39.183594-96.621094 90-103.925781v31.503906c-17.460938 6.195313-30 22.867187-30 42.421875 0 24.8125 20.1875 45 45 45 8.269531 0 15 6.730469 15 15s-6.730469 15-15 15c-6.046875 0-11.472656-3.597656-13.828125-9.164062l-27.628906 11.683593c5.027343 11.894531 14.738281 20.785157 26.457031 24.917969v31.488281c-50.816406-7.304687-90-51.121093-90-103.925781zm120 103.925781v-31.503906c17.460938-6.195313 30-22.867187 30-42.421875 0-24.8125-20.1875-45-45-45-8.269531 0-15-6.730469-15-15s6.730469-15 15-15c6.046875 0 11.472656 3.597656 13.828125 9.164062l27.628906-11.683593c-5.027343-11.894531-14.738281-20.785157-26.457031-24.917969v-31.488281c50.816406 7.304687 90 51.121093 90 103.925781s-39.183594 96.621094-90 103.925781zm0 0"/><path d="m319.636719 345-135-135c-10.167969 0-174.523438 0-184.636719 0v150h99.785156l90 90h231.214844v-90h-116.363281zm-258.636719-15h-31v-90h31zm330 60v30h-188.785156l-90-90h-21.214844v-90h81.207031l105 105-21.207031 21.210938-71.859375-71.863282-21.214844 21.214844 93.074219 93.074219 18.636719-18.636719zm0 0"/></svg>