<svg height="512pt" viewBox="0 0 512 512" width="512pt" xmlns="http://www.w3.org/2000/svg"><path d="m148.101562 347h33.796876c6.675781 25.847656 30.195312 45 58.101562 45 33.082031 0 60-26.914062 60-60s-26.917969-60-60-60c-10.925781 0-21.167969 2.949219-30 8.070312v-70.070312c0-49.625-40.375-90-90-90-49.628906 0-90 40.375-90 90v122c0 33.085938 26.914062 60 60 60 27.90625 0 51.425781-19.152344 58.101562-45zm91.898438-45c16.542969 0 30 13.457031 30 30s-13.457031 30-30 30-30-13.457031-30-30 13.457031-30 30-30zm-120-152c33.085938 0 60 26.914062 60 60v107h-31.898438c-6.675781-25.847656-30.195312-45-58.101562-45-10.925781 0-21.167969 2.949219-30 8.070312v-70.070312c0-33.085938 26.914062-60 60-60zm-30 212c-16.542969 0-30-13.457031-30-30s13.457031-30 30-30 30 13.457031 30 30-13.457031 30-30 30zm0 0"/><path d="m450 332c0-33.085938-26.914062-60-60-60s-60 26.914062-60 60 26.914062 60 60 60 60-26.914062 60-60zm-60 30c-16.542969 0-30-13.457031-30-30s13.457031-30 30-30 30 13.457031 30 30-13.457031 30-30 30zm0 0"/><path d="m390 392c-31.269531 0-58.863281 16.035156-75 40.308594-16.136719-24.273438-43.730469-40.308594-75-40.308594s-58.863281 16.035156-75 40.308594c-16.136719-24.273438-43.730469-40.308594-75-40.308594-49.625 0-90 40.375-90 90v30h480v-30c0-49.625-40.375-90-90-90zm-360 90c0-33.085938 26.914062-60 60-60s60 26.914062 60 60zm150 0c0-33.085938 26.914062-60 60-60s60 26.914062 60 60zm150 0c0-33.085938 26.914062-60 60-60s60 26.914062 60 60zm0 0"/><path d="m180 60c0-33.085938-26.914062-60-60-60s-60 26.914062-60 60 26.914062 60 60 60 60-26.914062 60-60zm-60 30c-16.542969 0-30-13.457031-30-30s13.457031-30 30-30 30 13.457031 30 30-13.457031 30-30 30zm0 0"/><path d="m242 0v240h270v-240zm240 210h-210v-180h210zm0 0"/><path d="m302 120h120v30h-120zm0 0"/><path d="m302 60h150v30h-150zm0 0"/></svg>