<svg height="512pt" viewBox="0 0 512 512" width="512pt" xmlns="http://www.w3.org/2000/svg"><path d="m362 0v30h120v120h30v-150zm0 0"/><path d="m482 482h-120v30h150v-150h-30zm0 0"/><path d="m30 362h-30v150h150v-30h-120zm0 0"/><path d="m30 30h120v-30h-150v150h30zm0 0"/><path d="m420.3125 271h30.6875v-30h-30.6875c-7.160156-79.035156-70.277344-142.152344-149.3125-149.3125v-30.6875h-30v30.6875c-79.035156 7.160156-142.152344 70.277344-149.3125 149.3125h-30.6875v30h30.6875c7.160156 79.035156 70.277344 142.152344 149.3125 149.3125v30.6875h30v-30.6875c79.035156-7.160156 142.152344-70.277344 149.3125-149.3125zm-149.3125 119.160156v-30.234375c45.914062-6.597656 82.328125-43.210937 88.925781-89.125h30.234375c-6.9375 62.476563-56.679687 112.421875-119.160156 119.359375zm-15-209.160156c41.355469 0 75 33.644531 75 75s-33.644531 75-75 75-75-33.644531-75-75 33.644531-75 75-75zm134.160156 60h-30.234375c-6.597656-45.914062-43.011719-82.328125-88.925781-88.925781v-30.234375c62.480469 6.9375 112.222656 56.679687 119.160156 119.160156zm-149.160156-119.160156v30.234375c-45.914062 6.597656-82.328125 43.011719-88.925781 88.925781h-30.234375c6.9375-62.480469 56.679687-112.222656 119.160156-119.160156zm-119.160156 149.160156h30.234375c6.597656 45.914062 43.011719 82.328125 88.925781 88.925781v30.234375c-62.480469-6.9375-112.222656-56.679687-119.160156-119.160156zm0 0"/><path d="m241 241h30v30h-30zm0 0"/></svg>