<svg height="512pt" viewBox="0 -61 512 512" width="512pt" xmlns="http://www.w3.org/2000/svg"><path d="m467 150h-105v-150h-362v270c0 33.085938 26.914062 60 60 60h60v60h392v-195c0-24.8125-20.1875-45-45-45zm-42.421875 30c-1.664063 4.695312-2.578125 9.742188-2.578125 15v75c0 16.542969-13.457031 30-30 30s-30-13.457031-30-30v-90zm-394.578125 90v-240h302v240c0 10.925781 2.949219 21.167969 8.070312 30h-280.070312c-16.542969 0-30-13.457031-30-30zm452 90h-332v-30h242c33.085938 0 60-26.914062 60-60v-75c0-8.269531 6.730469-15 15-15s15 6.730469 15 15zm0 0"/><path d="m180 60h-120v90h120zm-30 60h-60v-30h60zm0 0"/><path d="m60 180h242v30h-242zm0 0"/><path d="m60 240h242v30h-242zm0 0"/><path d="m210 120h92v30h-92zm0 0"/><path d="m210 60h92v30h-92zm0 0"/></svg>