<svg height="512pt" viewBox="0 0 512 512" width="512pt" xmlns="http://www.w3.org/2000/svg"><path d="m301 377c0-24.8125-20.1875-45-45-45s-45 20.1875-45 45 20.1875 45 45 45 45-20.1875 45-45zm-45 15c-8.269531 0-15-6.730469-15-15s6.730469-15 15-15 15 6.730469 15 15-6.730469 15-15 15zm0 0"/><path d="m166 105c0-24.8125-20.1875-45-45-45s-45 20.1875-45 45 20.1875 45 45 45 45-20.1875 45-45zm-45 15c-8.269531 0-15-6.730469-15-15s6.730469-15 15-15 15 6.730469 15 15-6.730469 15-15 15zm0 0"/><path d="m436 105c0-24.8125-20.1875-45-45-45s-45 20.1875-45 45 20.1875 45 45 45 45-20.1875 45-45zm-45 15c-8.269531 0-15-6.730469-15-15s6.730469-15 15-15 15 6.730469 15 15-6.730469 15-15 15zm0 0"/><path d="m391 0c-55.8125 0-102.847656 38.300781-116.203125 90h-37.59375c-13.355469-51.699219-60.390625-90-116.203125-90-66.183594 0-121 53.71875-121 120 0 64.703125 51.835938 116.1875 113.894531 119.785156l48.273438 77.5c-16.367188 20.515625-26.167969 46.492188-26.167969 74.714844 0 66.167969 53.832031 120 120 120s120-53.832031 120-120c0-28.222656-9.800781-54.199219-26.167969-74.710938l48.277344-77.503906c62.089844-3.601562 113.890625-55.109375 113.890625-119.785156 0-66.191406-54.71875-120-121-120zm-120 120c0 57.054688 40.027344 104.933594 93.472656 117.039062l-36.667968 58.871094c-20.035157-15.011718-44.902344-23.910156-71.804688-23.910156s-51.769531 8.898438-71.804688 23.910156l-36.667968-58.871094c53.445312-12.105468 93.472656-59.984374 93.472656-117.039062zm81.6875 81.425781c8.070312-13.007812 22.546875-21.425781 38.3125-21.425781 15.828125 0 30.355469 8.480469 38.40625 21.578125-11.675781 5.398437-24.6875 8.421875-38.40625 8.421875-13.695312 0-26.679688-3.078125-38.3125-8.574219zm-231.6875 8.574219c-13.71875 0-26.730469-3.023438-38.40625-8.421875 8.050781-13.097656 22.578125-21.578125 38.40625-21.578125 15.765625 0 30.242188 8.417969 38.3125 21.425781-11.628906 5.496094-24.617188 8.574219-38.3125 8.574219zm-91-90c0-49.625 40.820312-90 91-90 49.625 0 90 40.375 90 90 0 25.148438-10.371094 47.917969-27.058594 64.261719-13.65625-21.046875-36.894531-34.261719-62.941406-34.261719-26.773438 0-49.921875 13.890625-63.214844 34.675781-17.121094-16.375-27.785156-39.316406-27.785156-64.675781zm187.6875 353.425781c8.070312-13.007812 22.546875-21.425781 38.3125-21.425781s30.242188 8.417969 38.3125 21.425781c-11.632812 5.496094-24.617188 8.574219-38.3125 8.574219s-26.683594-3.078125-38.3125-8.574219zm101.253906-17.164062c-13.65625-21.046875-36.894531-34.261719-62.941406-34.261719-26.003906 0-49.261719 13.179688-62.941406 34.261719-16.6875-16.34375-27.058594-39.113281-27.058594-64.261719 0-49.625 40.375-90 90-90s90 40.375 90 90c0 25.148438-10.371094 47.917969-27.058594 64.261719zm135.273438-271.585938c-13.296875-20.789062-36.441406-34.675781-63.214844-34.675781-26.003906 0-49.261719 13.179688-62.941406 34.261719-16.6875-16.34375-27.058594-39.113281-27.058594-64.261719 0-49.625 40.375-90 90-90 81.835938 0 121.683594 98.757812 63.214844 154.675781zm0 0"/></svg>