<svg height="512pt" viewBox="0 0 512 512" width="512pt" xmlns="http://www.w3.org/2000/svg"><path d="m0 420h31v92h150v-92h30v-90h-31.507812c-6.96875-34.191406-37.273438-60-73.492188-60s-66.523438 25.808594-73.492188 60h-32.507812zm151 62h-90v-62h90zm-45-182c19.554688 0 36.226562 12.542969 42.421875 30h-84.84375c6.195313-17.457031 22.867187-30 42.421875-30zm-76 60h151v30h-151zm0 0"/><path d="m151 225c0-24.8125-20.1875-45-45-45s-45 20.1875-45 45 20.1875 45 45 45 45-20.1875 45-45zm-45 15c-8.269531 0-15-6.730469-15-15s6.730469-15 15-15 15 6.730469 15 15-6.730469 15-15 15zm0 0"/><path d="m451 225c0-24.8125-20.1875-45-45-45s-45 20.1875-45 45 20.1875 45 45 45 45-20.1875 45-45zm-45 15c-8.269531 0-15-6.730469-15-15s6.730469-15 15-15 15 6.730469 15 15-6.730469 15-15 15zm0 0"/><path d="m406 270c-36.21875 0-66.523438 25.808594-73.492188 60h-31.507812v90h30v92h150v-92h31v-90h-32.507812c-6.96875-34.191406-37.273438-60-73.492188-60zm0 30c19.554688 0 36.226562 12.542969 42.421875 30h-84.84375c6.195313-17.457031 22.867187-30 42.421875-30zm45 182h-90v-62h90zm31-92h-151v-30h151zm0 0"/><path d="m31 201.214844 51.214844-51.214844h158.785156v-150h-210zm30-171.214844h150v90h-141.214844l-8.785156 8.785156zm0 0"/><path d="m271 150h158.785156l51.214844 51.214844v-201.214844h-210zm30-120h150v98.785156l-8.785156-8.785156h-141.214844zm0 0"/><path d="m91 60h30v30h-30zm0 0"/><path d="m151 60h30v30h-30zm0 0"/><path d="m331 60h30v30h-30zm0 0"/><path d="m391 60h30v30h-30zm0 0"/></svg>