<svg height="512pt" viewBox="-2 0 512 512" width="512pt" xmlns="http://www.w3.org/2000/svg"><path d="m379.847656 282.230469-74.246094 74.246093c-5.847656 5.847657-15.363281 5.847657-21.210937 0l-128.867187-128.550781c-5.847657-5.847656-5.847657-15.363281 0-21.210937l74.246093-74.246094-127.28125-127.28125-54.960937 54.960938c-30.648438 30.652343-47.527344 71.402343-47.527344 114.746093s16.878906 84.09375 47.539062 114.753907l175.140626 174.824218c30.648437 30.648438 71.398437 47.527344 114.742187 47.527344s84.09375-16.878906 114.742187-47.527344l54.964844-54.960937zm84.851563 127.28125-21.210938 21.210937-84.851562-84.851562 21.210937-21.214844zm-277.355469-277.042969-21.214844 21.210938-84.851562-84.851563 21.214844-21.214844zm56.539062 310.78125-175.140624-174.824219c-24.984376-24.984375-38.742188-58.199219-38.742188-93.53125 0-31.207031 10.742188-60.761719 30.464844-84.453125l84.453125 84.453125-10.609375 10.605469c-17.542969 17.546875-17.542969 46.09375.015625 63.652344l128.863281 128.550781c17.546875 17.53125 46.085938 17.527344 63.628906-.011719l10.605469-10.605468 84.453125 84.449218c-23.691406 19.722656-53.246094 30.464844-84.453125 30.464844-35.332031 0-68.546875-13.757812-93.539063-38.75zm0 0"/><path d="m294.578125 219.972656 22.132813-12.777344c4.550781 3.144532 9.320312 5.910157 14.289062 8.285157v25.519531h90v-25.519531c4.96875-2.375 9.742188-5.140625 14.292969-8.285157l22.132812 12.777344 45-77.945312-21.824219-12.597656c.523438-5.660157.542969-10.984376 0-16.859376l21.824219-12.597656-45-77.945312-22.132812 12.777344c-4.550781-3.144532-9.324219-5.910157-14.292969-8.285157v-26.519531h-90v26.519531c-4.964844 2.375-9.738281 5.140625-14.289062 8.285157l-22.132813-12.777344-45 77.945312 21.820313 12.597656c-.519532 5.660157-.542969 10.984376 0 16.859376l-21.820313 12.597656zm9.742187-123.035156-13.761718-7.945312 15-25.980469 14 8.082031c19.152344-16.339844 20.527344-16.558594 41.441406-23.992188v-17.101562h30v17.097656c23.253906 8.269532 24.191406 9.277344 41.441406 23.996094l14-8.085938 15 25.980469-13.761718 7.949219c4.496093 24.386719 4.457031 23.9375 0 48.125l13.761718 7.945312-15 25.980469-14-8.082031c-19.167968 16.355469-20.542968 16.566406-41.441406 23.996094v16.097656h-30v-16.097656c-23.328125-8.292969-24.277344-9.351563-41.441406-23.996094l-14 8.085938-15-25.980469 13.761718-7.949219c-4.496093-24.386719-4.457031-23.9375 0-48.125zm0 0"/><path d="m376 166c24.8125 0 45-20.1875 45-45s-20.1875-45-45-45-45 20.1875-45 45 20.1875 45 45 45zm0-60c8.269531 0 15 6.730469 15 15s-6.730469 15-15 15-15-6.730469-15-15 6.730469-15 15-15zm0 0"/></svg>