<svg height="512pt" viewBox="-26 0 512 512" width="512pt" xmlns="http://www.w3.org/2000/svg"><path d="m304.550781 191.191406v-161.191406h30v-30c-10.316406 0-199.355469 0-210 0v30h30v161.191406l-154.550781 216.371094 103.289062 104.4375h252.523438l103.289062-104.4375zm-120 9.617188v-170.808594h90v170.808594l50.136719 70.191406h-190.273438zm158.738281 281.191406h-227.476562l-76.710938-77.5625 73.882813-103.4375h233.132813l73.882812 103.4375zm0 0"/><path d="m334.550781 361h30v30h-30zm0 0"/><path d="m214.550781 331h30v30h-30zm0 0"/><path d="m274.550781 421h30v30h-30zm0 0"/><path d="m169.550781 361c-24.8125 0-45 20.1875-45 45s20.1875 45 45 45 45-20.1875 45-45-20.1875-45-45-45zm0 60c-8.269531 0-15-6.730469-15-15s6.730469-15 15-15 15 6.730469 15 15-6.730469 15-15 15zm0 0"/></svg>