<svg height="512pt" viewBox="0 0 512 512" width="512pt" xmlns="http://www.w3.org/2000/svg"><path d="m512 121v-90h-90v30h38.785156l-64.394531 64.398438c-5.875-2.816407-12.453125-4.398438-19.390625-4.398438-24.8125 0-45 20.1875-45 45 0 6.910156 1.570312 13.457031 4.363281 19.3125l-60.898437 60.121094c-5.894532-2.839844-12.496094-4.433594-19.464844-4.433594-6.9375 0-13.515625 1.582031-19.390625 4.398438l-60.007813-60.007813c2.816407-5.875 4.398438-12.453125 4.398438-19.390625 0-24.8125-20.1875-45-45-45-19.554688 0-36.226562 12.542969-42.421875 30h-63.578125v-151h-30v512h30v-30h31v30h30v-30h30v30h30v-30h30v30h30v-30h30v30h30v-30h30v30h30v-30h31v30h30v-30h30v30h30v-30h30v30h30v-60h-120v-243.578125c17.460938-6.195313 30-22.867187 30-42.421875 0-6.9375-1.582031-13.515625-4.398438-19.390625l64.398438-64.394531v38.785156zm-256 150c8.269531 0 15 6.730469 15 15s-6.730469 15-15 15-15-6.730469-15-15 6.730469-15 15-15zm-105-62.578125c1.5-.535156 2.96875-1.136719 4.390625-1.820313l60.007813 60.007813c-2.816407 5.875-4.398438 12.453125-4.398438 19.390625 0 19.554688 12.539062 36.226562 30 42.421875v123.578125h-90zm-15-57.421875c8.269531 0 15 6.730469 15 15s-6.730469 15-15 15-15-6.730469-15-15 6.730469-15 15-15zm-106 30h63.578125c4.527344 12.765625 14.65625 22.894531 27.421875 27.421875v243.578125h-91zm241 271v-123.578125c17.460938-6.195313 30-22.867187 30-42.421875 0-6.910156-1.570312-13.457031-4.363281-19.3125l60.894531-60.121094c1.449219.699219 2.941406 1.3125 4.46875 1.855469v243.578125zm106-271c-8.269531 0-15-6.730469-15-15s6.730469-15 15-15 15 6.730469 15 15-6.730469 15-15 15zm0 0"/></svg>