<svg height="512pt" viewBox="0 0 512 512" width="512pt" xmlns="http://www.w3.org/2000/svg"><path d="m421 330h91v-90h-30v40.203125l-66.820312-63.105469c3.699218-6.535156 5.820312-14.070312 5.820312-22.097656 0-24.8125-20.1875-45-45-45s-45 20.1875-45 45c0 4.6875.722656 9.207031 2.058594 13.457031l-52.132813 39.097657c-7.140625-4.769532-15.710937-7.554688-24.925781-7.554688-6.9375 0-13.515625 1.582031-19.390625 4.398438l-60.007813-60.007813c2.816407-5.875 4.398438-12.453125 4.398438-19.390625 0-24.8125-20.1875-45-45-45-19.554688 0-36.226562 12.542969-42.421875 30h-63.578125v-150h-30v512h30v-30h31v30h30v-30h30v30h30v-30h30v30h30v-30h30v30h30v-30h30v30h30v-30h30v30h30v-30h30v30h30v-30h31v30h30v-60h-121v-214.578125c.480469-.171875.960938-.355469 1.433594-.542969l66.835937 63.121094h-38.269531zm-45-150c8.269531 0 15 6.730469 15 15s-6.730469 15-15 15-15-6.730469-15-15 6.730469-15 15-15zm-120 90c8.269531 0 15 6.730469 15 15s-6.730469 15-15 15-15-6.730469-15-15 6.730469-15 15-15zm-105-62.578125c1.5-.535156 2.96875-1.136719 4.390625-1.820313l60.007813 60.007813c-2.816407 5.875-4.398438 12.453125-4.398438 19.390625 0 19.554688 12.539062 36.226562 30 42.421875v124.578125h-90zm-15-57.421875c8.269531 0 15 6.730469 15 15s-6.730469 15-15 15-15-6.730469-15-15 6.730469-15 15-15zm-106 30h63.578125c4.527344 12.765625 14.65625 22.894531 27.421875 27.421875v244.578125h-91zm241 272v-124.578125c17.460938-6.195313 30-22.867187 30-42.421875 0-4.6875-.722656-9.207031-2.058594-13.457031l52.132813-39.097657c3.066406 2.046876 6.394531 3.722657 9.925781 4.976563v214.578125zm0 0"/></svg>