<svg height="512pt" viewBox="0 0 512 512" width="512pt" xmlns="http://www.w3.org/2000/svg"><path d="m512 0h-512v391h101.097656l119.996094 121h191.523438l3.941406-8.960938c15.511718-35.277343 25.988281-73.296874 31.011718-112.039062h64.429688zm-241 241v-90h-90v191.230469l-31.160156-29.082031-47.847656 47.851562h-10.992188v-331h330v241h-30v-30zm-241-211h31v331h-31zm362.894531 452h-159.300781l-104.648438-105.527344 21.617188-21.617187 34.351562 32.066406 10.679688 10.050781 15.40625-14.488281v-201.484375h30v180h30v-90h30v90h30v-90h30v90h30v-60h30v37.15625c0 49.222656-9.695312 98.738281-28.105469 143.84375zm89.105469-121h-31v-331h31zm0 0"/><path d="m241 61h150v30h-150zm0 0"/><path d="m301 121h90v30h-90zm0 0"/><path d="m331 181h60v30h-60zm0 0"/></svg>