<svg height="512pt" viewBox="0 0 512 512" width="512pt" xmlns="http://www.w3.org/2000/svg"><path d="m512 298.332031v-84.667969l-69.421875-13.671874c-3.78125-12.585938-8.832031-24.738282-15.082031-36.308594l38.726562-58.085938-59.820312-59.816406-58.085938 38.722656c-11.570312-6.25-23.722656-11.300781-36.308594-15.082031l-13.675781-69.421875h-84.667969l-13.671874 69.421875c-12.585938 3.78125-24.738282 8.832031-36.308594 15.082031l-58.085938-38.722656-59.816406 59.816406 38.722656 58.085938c-6.25 11.570312-11.300781 23.722656-15.082031 36.308594l-69.421875 13.675781v84.667969l69.421875 13.671874c3.78125 12.585938 8.832031 24.738282 15.082031 36.308594l-38.722656 58.085938 59.8125 59.816406 58.089844-38.722656c11.570312 6.25 23.722656 11.300781 36.308594 15.082031l13.675781 69.421875h84.667969l13.671874-69.421875c12.585938-3.78125 24.738282-8.832031 36.308594-15.082031l58.089844 38.722656 59.8125-59.816406-38.722656-58.085938c6.25-11.570312 11.300781-23.722656 15.082031-36.308594zm-84.382812 104.25-25.035157 25.035157-53.277343-35.519532c-26.945313 16.332032-35.878907 19.476563-63.089844 26.203125l-12.546875 63.699219h-35.332031l-12.550782-63.703125c-30.746094-7.597656-39.277344-11.765625-63.089844-26.199219l-53.277343 35.519532-25.035157-25.035157 35.519532-53.28125c-16.390625-27.035156-19.503906-35.988281-26.199219-63.085937l-63.703125-12.546875v-35.332031l63.703125-12.550782c6.550781-26.523437 9.5625-35.644531 26.199219-63.089844l-35.519532-53.277343 25.035157-25.035157 53.277343 35.519532c27.039063-16.390625 35.992188-19.503906 63.089844-26.199219l12.546875-63.703125h35.332031l12.550782 63.703125c30.824218 7.613281 39.34375 11.804687 63.089844 26.199219l53.277343-35.519532 25.035157 25.035157-35.519532 53.277343c16.390625 27.039063 19.503906 35.992188 26.199219 63.089844l63.703125 12.546875v35.332031l-63.703125 12.550782c-7.613281 30.824218-11.804687 39.34375-26.199219 63.089844zm0 0"/><path d="m256 121c-74.4375 0-135 60.5625-135 135s60.5625 135 135 135 135-60.5625 135-135-60.5625-135-135-135zm-38.984375 232.492188c7.878906-13.65625 22.589844-22.492188 38.984375-22.492188s31.105469 8.835938 38.984375 22.492188c-12.058594 4.839843-25.214844 7.507812-38.984375 7.507812s-26.925781-2.667969-38.984375-7.507812zm103.925781-15.039063c-13.144531-22.742187-37.644531-37.453125-64.941406-37.453125s-51.796875 14.710938-64.941406 37.453125c-24.378906-19.246094-40.058594-49.050781-40.058594-82.453125 0-57.898438 47.101562-105 105-105s105 47.101562 105 105c0 33.402344-15.679688 63.207031-40.058594 82.453125zm0 0"/><path d="m316 241c0-33.085938-26.914062-60-60-60s-60 26.914062-60 60 26.914062 60 60 60 60-26.914062 60-60zm-60 30c-16.542969 0-30-13.457031-30-30s13.457031-30 30-30 30 13.457031 30 30-13.457031 30-30 30zm0 0"/></svg>