<svg id="Capa_1" enable-background="new 0 0 512 512" height="512" viewBox="0 0 512 512" width="512" xmlns="http://www.w3.org/2000/svg"><g><path d="m102.92 187.745 18.25-18.25 18.25 18.25 21.213-21.213-18.25-18.25 18.25-18.25-21.213-21.213-18.25 18.25-18.25-18.25-21.213 21.213 18.25 18.25-18.25 18.25z"/><path d="m110.098 277.377-12.349-12.812-21.6 20.821 34.319 35.602 55.898-59.994-21.949-20.451z"/><path d="m440.851 103.282h-236v90h236zm-30 60h-176v-30h176z"/><path d="m440.851 235.766h-236v90h236zm-30 60h-176v-30h176z"/><path d="m500.851 373.846v-342.293h-489.702v342.293h-11.149v52.899c0 29.611 24.091 53.702 53.702 53.702h404.596c29.611 0 53.702-24.091 53.702-53.702v-52.899zm-459.702-312.293h429.702v312.293h-178.339v16.856h-73.023v-16.856h-178.34zm440.851 365.192c0 13.069-10.633 23.702-23.702 23.702h-404.596c-13.069 0-23.702-10.633-23.702-23.702v-22.899h159.488v16.856h133.023v-16.856h159.489z"/></g></svg>