<svg id="Capa_1" enable-background="new 0 0 512 512" height="512" viewBox="0 0 512 512" width="512" xmlns="http://www.w3.org/2000/svg"><g><path d="m304.843 139.282 15.285-15.285 15.286 15.285 21.212-21.213-15.285-15.285 15.285-15.285-21.212-21.213-15.286 15.285-15.285-15.285-21.213 21.213 15.286 15.285-15.286 15.285z"/><path d="m424.255 206.871v-206.871h-336.51v207.809l-87.745 56.314v247.877h512v-247.798zm-283.446 192.206-110.809 72.238v-164.899zm76.819-14.268h76.744l149.085 97.191h-374.914zm153.563 14.268 110.809-92.661v164.899zm101.996-124.399-48.932 40.918v-72.889zm-78.932-244.678v310.683l-49.343 41.262-41.625-27.136h-94.574l-41.625 27.136-49.343-41.262v-310.683zm-306.51 285.597-48.809-40.816 48.809-31.325z"/><path d="m161.298 172.852h189.404v30h-189.404z"/><path d="m161.298 232.852h189.404v30h-189.404z"/><path d="m161.298 292.852h189.404v30h-189.404z"/><path d="m161.298 112.852h30v30h-30z"/></g></svg>