<svg id="Capa_1" enable-background="new 0 0 512.001 512.001" height="512" viewBox="0 0 512.001 512.001" width="512" xmlns="http://www.w3.org/2000/svg"><g><path d="m422.983 149.572c-4.554 0-9.1.352-13.6 1.049-17.342-22.844-46.683-36.61-75.358-35.185-6.39-7.664-13.944-14.34-22.329-19.729-9.775-55.175-59.613-96.422-115.702-95.698-29.934.373-58.26 12.219-79.76 33.354-25.291 24.864-38.217 61.663-33.925 96.874-10.075 10.654-17.667 23.513-22.123 37.423-34.094 5.61-60.186 35.304-60.186 70.981 0 32.08 26.086 58.179 58.149 58.179h44.501c14.385 17.543 35.314 28.354 58.001 29.875l-21.042 60.371h51.806l-40.589 124.935h47.421l144.265-168.858c21.136 13.046 44.275 13.06 56.467 13.06 40.693 0 75.652-28.479 84.474-67.475 17.581-10.355 28.547-29.201 28.547-50.087 0-49.113-39.933-89.069-89.017-89.069zm-226.144 317.893 35.867-110.399h-50.869l33.238-95.363c14.49-1.803 27.95-8.73 37.846-19.379 8.626 2.311 17.3 2.763 26.022 1.355l-20.285 71.152h68.584zm267.546-202.692-8.142 3.294c-1.772 30.974-24.496 58.136-57.264 58.136-8.821 0-23.421-.007-36.557-6.363l29.909-35.007h-93.925l17.721-62.157c9.199-10.802 14.77-24.788 14.77-40.059h-30c0 17.569-14.279 31.862-31.83 31.862-8.324 0-19.638-5.359-26.967-9.888l-7.208 12.058c-5.817 9.73-16.037 15.54-27.337 15.54-17.551 0-31.83-14.293-31.83-31.862h-30c0 26.025 16.153 48.332 38.949 57.453l-13.631 39.109c-22.03.772-42.34-10.423-52.807-30.068h-60.086c-15.522-.001-28.15-12.642-28.15-28.18 0-23.052 18.679-41.818 41.682-41.933l12.778.003c3.16-21.869 12.831-41.596 30.233-55.602-1.982-8.885-3.47-18.842-3.206-27.647 1.365-45.459 40.514-83.462 85.988-83.462 44.04 0 80.697 32.752 85.49 76.604l.861 7.875c15.103 7.095 27.668 18.682 36.288 32.956 31.73-7.386 61.8 7.904 75.33 37.655 8.471-2.823 18.939-5.52 27.538-5.52 32.542 0 59.018 26.498 59.018 59.069 0 11.546-6.914 21.803-17.615 26.134z"/></g></svg>