<svg id="Capa_1" enable-background="new 0 0 511.541 511.541" height="512" viewBox="0 0 511.541 511.541" width="512" xmlns="http://www.w3.org/2000/svg"><g><path d="m323.171 246.24c-24.593 0-44.601 20.06-44.601 44.717s20.008 44.717 44.601 44.717 44.6-20.06 44.6-44.717-20.007-44.717-44.6-44.717zm0 59.434c-8.051 0-14.601-6.602-14.601-14.717s6.55-14.717 14.601-14.717c8.05 0 14.6 6.602 14.6 14.717s-6.55 14.717-14.6 14.717z"/><path d="m258.125 372.441-60.177 24.195 11.191 27.834 60.176-24.195c7.059-2.835 14.734-3.581 22.2-2.15l28.833 5.523 5.645-29.465-28.833-5.523c-13.129-2.513-26.627-1.207-39.035 3.781z"/><path d="m480.96 133.39c.027-17.532-4.773-34.656-13.881-49.521l-10.399-16.974-10.697 11.674c-9.878-17.594-23.348-32.367-41.546-41.453-5.952-2.972-11.62-7.844-15.161-13.031l-16.442-24.085-10.031 27.381c-2.134 5.823-3.216 11.946-3.216 18.199 0 5.939.971 11.752 2.879 17.26 2.401 6.955-1.446 19.486-9.884 17.726-3.304-.69-4.855-.588-7.276-3.8-1.272-1.687-2.441-3.398-3.475-5.088l-10.396-17.005-13.463 14.697c-20.633 22.529-29.243 55.635-22.362 85.425-13.039-2.96-26.403-4.476-39.839-4.476-13.689 0-27.024 1.55-39.846 4.469 6.878-29.858-1.662-62.824-22.355-85.419l-13.463-14.697-10.397 17.006c-3.906 6.388-10.012 11.049-18.024 5.481-4.319-3.001-4.283-9.473-2.615-14.304 1.913-5.523 2.884-11.336 2.884-17.275 0-6.253-1.082-12.376-3.216-18.199l-10.032-27.381-16.441 24.084c-3.541 5.188-9.209 10.06-15.16 13.031-9.106 4.546-16.852 10.065-23.023 16.4-6.978 7.163-13.369 15.872-18.524 25.054l-10.698-11.674-10.399 16.973c-9.107 14.865-13.908 31.989-13.881 49.518.033 25.134 9.724 48.741 27.287 66.474 14.057 14.193 31.88 23.33 51.256 26.495-20.967 29.53-33.312 65.633-33.312 104.575 0 99.59 80.729 180.611 179.959 180.611s179.958-81.021 179.958-180.611c0-37.782-11.682-74.179-33.243-104.587 19.349-3.176 37.146-12.307 51.187-26.483 17.563-17.733 27.254-41.34 27.287-66.47zm-420.379-.047c-.009-5.828.761-11.587 2.269-17.132l16.035 11.014 6.201-19.104c3.797-11.694 11.646-24.597 20.487-33.673 3.415-3.505 7.615-6.588 12.794-9.381-.615 11.106 2.901 22.306 10.093 31.081l.259.319c7.696 9.245 18.991 14.375 30.967 14.089 7.82-.189 15.24-2.661 21.482-7.015 10.236 19.767 9.172 45.486-2.754 64.337-15.667 7.517-30.085 17.243-42.859 28.774-3.749.658-7.573.988-11.449.948-34.981-.197-63.478-29.021-63.525-64.257zm195.19 348.198c-82.688 0-149.959-67.563-149.959-150.611 0-19.283 3.632-37.728 10.236-54.689h30.216c-1.608 4.612-2.493 9.562-2.493 14.717 0 24.657 20.007 44.717 44.6 44.717s44.601-20.06 44.601-44.717c0-5.155-.885-10.105-2.493-14.717h16.548v-30h-115.197c27.022-39.764 72.495-65.921 123.94-65.921 3.436 0 6.865.123 10.283.356-7.553 11.109-11.979 24.521-11.979 38.953h30c0-15.483 8.951-28.899 21.921-35.304 5.917-2.922 12.567-4.288 19.158-3.955 20.363 1.041 36.822 18.013 37.095 38.727l.075 5.716c27.635 27.697 43.405 67.143 43.405 106.117.001 83.048-67.27 150.611-149.957 150.611zm-52.8-190.584c0 8.115-6.55 14.717-14.601 14.717-8.05 0-14.6-6.602-14.6-14.717s6.55-14.717 14.6-14.717c8.051 0 14.601 6.602 14.601 14.717zm185.708-93.396c-3.393-10.168-9.13-19.475-16.94-27.222-12.317-12.218-29.096-19.405-46.305-19.965-4.224-15.605-2.478-32.501 4.938-46.834 6.243 4.354 13.663 6.827 21.482 7.016 11.975.28 23.271-4.844 30.967-14.089l.188-.233c7.238-8.786 10.78-20.021 10.162-31.168 5.18 2.793 9.381 5.876 12.796 9.383 8.841 9.075 16.69 21.978 20.487 33.672l6.201 19.104 16.035-11.013c1.508 5.544 2.277 11.305 2.269 17.135-.045 34.812-27.872 63.348-62.28 64.214z"/></g></svg>