<svg id="Capa_1" enable-background="new 0 0 512 512" height="512" viewBox="0 0 512 512" width="512" xmlns="http://www.w3.org/2000/svg"><g><path d="m221.46 78.441h69.081v30h-69.081z"/><path d="m470.103 216.83c24.115-6.597 41.897-28.706 41.897-54.905 0-31.388-25.514-56.923-56.875-56.923-31.36 0-56.874 25.535-56.874 56.923 0 26.186 17.763 48.284 41.859 54.895h-169.132v-31.144c44.389-7.194 78.392-45.812 78.392-92.233 0-51.525-41.886-93.443-93.37-93.443-51.485 0-93.37 41.918-93.37 93.441 0 46.422 34.003 85.04 78.392 92.233v31.144h-169.132c24.096-6.61 41.859-28.709 41.859-54.895 0-31.388-25.514-56.923-56.874-56.923s-56.875 25.537-56.875 56.925c0 26.199 17.781 48.308 41.896 54.905v265.17h-41.523v30h113.002v-30h-41.522v-109.986h368.294v109.986h-41.522v30h113.002v-30h-41.523v-265.17zm-277.517-123.389c0-34.981 28.448-63.441 63.414-63.441s63.414 28.46 63.414 63.441-28.448 63.442-63.414 63.442-63.414-28.46-63.414-63.442zm-120.733 188.622v-35.244h62.342l-60.586 35.244zm121.982-35.244h62.638l-60.586 35.244h-62.638zm122.278 0h62.638l-60.586 35.244h-62.638zm122.278 0h1.756v35.244h-62.341zm-10.184-84.894c0-14.846 12.075-26.923 26.918-26.923s26.919 12.077 26.919 26.923-12.076 26.923-26.919 26.923c-14.842 0-26.918-12.077-26.918-26.923zm-398.251 0c0-14.846 12.076-26.923 26.918-26.923s26.918 12.077 26.918 26.923-12.076 26.923-26.918 26.923-26.918-12.077-26.918-26.923zm41.897 180.089v-29.95h368.294v29.95z"/></g></svg>