<svg id="Capa_1" enable-background="new 0 0 512 512" height="512" viewBox="0 0 512 512" width="512" xmlns="http://www.w3.org/2000/svg"><g><path d="m166.569 370.988c12.391-13.187 20.005-30.915 20.005-50.399 0-40.616-33.031-73.66-73.631-73.66-40.601 0-73.631 33.044-73.631 73.66 0 20.378 8.317 38.847 21.731 52.196-35.901 15.756-61.043 51.64-61.043 93.292v45.923h231.979v-45.923c0-43.321-27.196-80.404-65.41-95.089zm-53.625-94.059c24.058 0 43.631 19.586 43.631 43.66 0 24.075-19.573 43.661-43.631 43.661-24.059 0-43.631-19.586-43.631-43.661-.001-24.074 19.572-43.66 43.631-43.66zm89.035 205.071h-171.979v-15.923c0-39.605 32.222-71.827 71.827-71.827h28.325c39.605 0 71.827 32.222 71.827 71.827z"/><path d="m446.59 370.988c12.391-13.187 20.006-30.915 20.006-50.399 0-40.616-33.031-73.66-73.631-73.66s-73.631 33.044-73.631 73.66c0 20.378 8.317 38.847 21.73 52.196-35.901 15.756-61.043 51.641-61.043 93.293v45.922h231.979v-45.923c0-43.321-27.197-80.404-65.41-95.089zm-53.626-94.059c24.059 0 43.631 19.586 43.631 43.66 0 24.075-19.573 43.661-43.631 43.661s-43.631-19.586-43.631-43.661c0-24.074 19.573-43.66 43.631-43.66zm89.036 205.071h-171.979v-15.923c0-39.605 32.221-71.827 71.827-71.827h28.325c39.605 0 71.827 32.222 71.827 71.827z"/><path d="m255.945 117.193c-29.821 0-54.082 24.287-54.082 54.14h30c0-13.311 10.803-24.14 24.082-24.14s24.082 10.829 24.082 24.14h30c0-29.853-24.261-54.14-54.082-54.14z"/><path d="m378.408 122.653c0-67.631-54.998-122.653-122.599-122.653s-122.599 55.022-122.599 122.653 54.998 122.653 122.599 122.653c67.601.001 122.599-55.022 122.599-122.653zm-122.599 92.654c-51.059 0-92.599-41.564-92.599-92.653 0-17.531 4.892-33.94 13.381-47.933l47.685 24.523 13.72-26.68-41.25-21.214c16.041-13.327 36.633-21.35 59.063-21.35s43.022 8.023 59.063 21.35l-41.25 21.214 13.721 26.68 47.684-24.523c8.489 13.993 13.381 30.402 13.381 47.933 0 51.088-41.54 92.653-92.599 92.653z"/></g></svg>