<svg id="Capa_1" enable-background="new 0 0 512 512" height="512" viewBox="0 0 512 512" width="512" xmlns="http://www.w3.org/2000/svg"><g><path d="m461.951 395.508c8.672-10.628 13.885-24.185 13.885-38.94 0-34.02-27.678-61.697-61.699-61.697s-61.699 27.678-61.699 61.697c0 15.525 5.776 29.717 15.277 40.573-12.525 6.275-23.269 15.58-31.277 26.955-8.735-12.408-20.729-22.354-34.736-28.588 8.672-10.628 13.885-24.185 13.885-38.94 0-34.02-27.678-61.697-61.699-61.697s-61.699 27.678-61.699 61.697c0 15.525 5.776 29.717 15.277 40.573-12.687 6.356-23.55 15.819-31.589 27.394-8.76-12.614-20.876-22.719-35.049-29.027 8.672-10.628 13.885-24.185 13.885-38.94 0-34.02-27.678-61.697-61.699-61.697s-61.699 27.678-61.699 61.697c0 15.525 5.776 29.717 15.277 40.573-27.595 13.822-46.592 42.357-46.592 75.261v39.598h512v-39.598c0-34.262-20.597-63.786-50.049-76.894zm-47.814-70.638c17.479 0 31.699 14.22 31.699 31.697s-14.221 31.697-31.699 31.697-31.699-14.22-31.699-31.697 14.22-31.697 31.699-31.697zm-160.25 0c17.479 0 31.699 14.22 31.699 31.697s-14.221 31.697-31.699 31.697-31.699-14.22-31.699-31.697 14.22-31.697 31.699-31.697zm-160.875 0c17.479 0 31.699 14.22 31.699 31.697s-14.221 31.697-31.699 31.697-31.699-14.22-31.699-31.697 14.22-31.697 31.699-31.697zm67.863 157.13h-130.875v-9.598c0-29.852 24.286-54.138 54.138-54.138h22.6c29.852 0 54.138 24.286 54.138 54.138v9.598zm30 0v-9.598c0-29.852 24.286-54.138 54.138-54.138h22.6c27.743 0 50.667 20.98 53.768 47.906-.152 2.06 0 15.829 0 15.829h-130.506zm291.125 0h-130.447s.093-13.769-.059-15.829c3.102-26.926 26.025-47.906 53.768-47.906h22.6c29.852 0 54.138 24.286 54.138 54.138z"/><path d="m0 0v214.275h57.001l36.011 50.278 36.011-50.278h90.967l36.01 50.278 36.011-50.278h86.115l36.011 50.278 36.011-50.278h61.852v-214.275zm112.544 184.275-19.532 24.352-19.532-24.352h-43.48v-154.275h118.925v62.011h35.365c8.342 0 15.128 6.786 15.128 15.127s-6.786 15.126-15.128 15.126h-35.365v62.012h-36.381zm162.988 0-19.532 24.352-19.532-24.352h-57.543v-32.012h5.365c24.884 0 45.128-20.243 45.128-45.126s-20.244-45.127-45.128-45.127h-5.365v-32.01h154.15v32.011h-5.365c-24.884 0-45.128 20.244-45.128 45.127s20.244 45.126 45.128 45.126h5.365v32.012h-57.543zm206.468 0h-48.331l-19.532 24.352-19.532-24.352h-31.529v-62.012h-35.366c-8.342 0-15.128-6.785-15.128-15.126s6.786-15.127 15.128-15.127h35.365v-62.01h118.925z"/></g></svg>