<svg id="Capa_1" enable-background="new 0 0 512 512" height="512" viewBox="0 0 512 512" width="512" xmlns="http://www.w3.org/2000/svg"><g><path d="m512 .161h-69.514l-49.718 49.719-41.409-41.408-12.908 161.609c-21.433-20.538-50.493-33.176-82.451-33.176s-61.018 12.638-82.451 33.176l-12.908-161.609-41.409 41.407-49.718-49.718h-69.514v69.662l49.645 49.645-41.409 41.408 161.612 12.907c-20.496 21.426-33.104 50.456-33.104 82.377 0 31.773 12.491 60.681 32.819 82.077l-161.327 12.888 41.408 41.407-49.644 49.646v69.661h69.514l49.718-49.719 41.409 41.409 12.884-161.313c21.435 20.552 50.505 33.199 82.475 33.199s61.04-12.648 82.475-33.199l12.884 161.313 41.409-41.409 49.718 49.719h69.514v-69.661l-49.644-49.646 41.408-41.407-161.327-12.887c20.327-21.396 32.819-50.305 32.819-82.077 0-31.921-12.608-60.951-33.104-82.377l161.612-12.907-41.408-41.409 49.644-49.645zm-436.606 135.983 16.677-16.677-62.071-62.07v-27.236h27.087l62.145 62.145 16.677-16.677 5.253 65.77zm60.515 300.228-16.677-16.677-62.145 62.145h-27.087v-27.235l62.071-62.071-16.677-16.677 65.768-5.253zm300.697-60.516-16.677 16.677 62.071 62.071v27.235h-27.087l-62.145-62.145-16.677 16.677-5.253-65.769zm-180.606-30.44c-49.215 0-89.255-40.04-89.255-89.255s40.04-89.255 89.255-89.255 89.255 40.04 89.255 89.255-40.04 89.255-89.255 89.255zm226-288.019-62.07 62.07 16.677 16.677-65.769 5.254 5.253-65.77 16.677 16.677 62.145-62.145h27.087z"/><path d="m241 201.395h30v49.531h-30z"/><path d="m241 280.926h30v30h-30z"/></g></svg>