<svg id="Capa_1" enable-background="new 0 0 512 512" height="512" viewBox="0 0 512 512" width="512" xmlns="http://www.w3.org/2000/svg"><g><path d="m437.02 74.98c-48.35-48.35-112.64-74.98-181.02-74.98s-132.67 26.63-181.02 74.98-74.98 112.64-74.98 181.02 26.63 132.67 74.98 181.02 112.64 74.98 181.02 74.98 132.67-26.63 181.02-74.98 74.98-112.64 74.98-181.02-26.63-132.67-74.98-181.02zm-407.02 181.02c0-124.62 101.38-226 226-226 56.92 0 108.99 21.16 148.77 56.02l-68.99 68.98c-3.69-19.76-21.06-34.78-41.89-34.78h-75.78c-23.51 0-42.63 19.12-42.63 42.63v17.78h-61.66v196.33l-27.8 27.81c-34.86-39.78-56.02-91.85-56.02-148.77zm175.48-75.37v-17.78c0-6.97 5.67-12.63 12.63-12.63h75.78c6.96 0 12.63 5.66 12.63 12.63v17.78zm65.52 30v80.43h-30v-80.43zm-60 0v40.6h-67.18v-40.6zm0 70.6v39.83h90v-39.83h67.18v80.55h-224.36v-80.55zm90-30v-40.6h67.18v40.6zm-45 230.77c-56.92 0-108.99-21.16-148.77-56.02l34.23-34.2h256.72v-211.15h-45.6l73.4-73.4c34.86 39.78 56.02 91.85 56.02 148.77 0 124.62-101.38 226-226 226z"/></g></svg>