<svg id="Capa_1" enable-background="new 0 0 512 512" height="512" viewBox="0 0 512 512" width="512" xmlns="http://www.w3.org/2000/svg"><g><path d="m511.582 422.726-91.499-92.879 17.149-17.216c17.543-17.611 17.543-46.267 0-63.878-5.631-5.653-12.398-9.482-19.569-11.506 3.197-14.322-1.739-31.528-12.073-41.902-4.704-4.722-10.202-8.166-16.063-10.356 6.287-15.991 2.082-36.363-10.044-48.536-5.401-5.422-11.936-9.289-19.066-11.393 3.634-14.85-.315-31.205-11.849-42.784-8.877-8.912-23.679-14.27-36.357-13.002l-69.01-69.274-28.165 30.87c-8.674 11.322-11.689 24.898-10.601 38.349-10.047.963-19.831 5.298-27.508 13.005-6.29 6.315-10.324 14.047-12.102 22.184-13.446-1.82-27.57 2.446-37.886 12.802-12.976 13.038-16.343 32.127-10.107 48.304-6.018 2.23-11.53 5.761-16.191 10.448-8.503 8.529-13.186 19.872-13.186 31.941 0 6.301 1.277 12.404 3.707 18.012-5.651 2.197-10.948 5.58-15.501 10.147-17.544 17.612-17.544 46.27.001 63.883l32.315 32.441-107.977 108.059v71.555h191.16l25.945-26.907c18.538 2.043 36.628-4.061 53.897-18.228l3.947-2.881 46.779 48.016h190.272zm-116.771-152.68c7.07-5.871 14.141-5.871 21.211 0 5.847 5.871 5.847 15.422 0 21.293l-19.118 19.193c-5.848 5.87-15.363 5.87-21.21 0-5.846-5.869-5.847-15.418-.005-21.289zm-10.431-53.408c5.857 7.098 5.857 14.196 0 21.293l-29.897 30.014c-.003.003-.006.007-.009.01l-.097.097c-5.847 5.87-15.362 5.871-21.21 0-5.465-5.486-5.168-16.034.225-21.449l30.512-30.631c6.911-5.196 13.736-4.974 20.476.666zm-26.108-58.892c5.857 7.098 5.857 14.196 0 21.293l-46.316 46.426c-6.284 6.308-14.762 5.042-20.986-.155-5.848-5.871-5.848-15.423 0-21.294l46.092-46.271c7.07-5.879 14.14-5.879 21.21.001zm-30.915-54.177c5.847 5.871 5.847 15.423 0 21.293l-57.79 58.015c-6.285 6.309-14.949 4.583-21.21 0-5.847-5.871-5.847-15.423 0-21.293l57.79-58.016c7.07-5.879 14.14-5.879 21.21.001zm-88.731-53.972 5.527-6.057 39.686 39.838-21.059 21.141-21.76-21.845c-8.057-9.312-9.006-22.744-2.394-33.077zm-40.488 53.919c5.753-5.775 15.472-5.775 21.224 0l22.209 22.295-14.424 14.48c-2.329 2.338-4.339 4.875-6.05 7.551l-22.959-23.049c-5.852-7.092-5.852-14.184 0-21.277zm17.322 350.756-8.377-2.081-28.634 29.696h-148.453v-28.942l99.192-99.268c35.794 35.926 75.977 66.904 119.696 92.307-15.012 11.049-26.171 10.088-33.424 8.288zm118.888 27.615-48.67-49.955c-49.148-25.938-96.065-60.178-135.325-99.591l-53.482-53.691c-5.859-7.097-5.861-14.194-.004-21.292 5.85-5.869 15.372-5.87 21.223 0l27.969 28.079 21.21-21.293-45.427-45.604c-5.86-7.099-5.855-14.196.013-21.291 6.274-6.308 15.292-5.121 21.192.006l43.383 43.552 21.21-21.293-59.477-59.72c-5.849-5.872-5.851-15.428-.01-21.297 5.749-5.773 15.468-5.768 21.224.01l46.486 46.667c2.061 6.958 5.82 13.512 11.282 18.995 7.961 7.992 18.379 12.62 29.544 13.173.625 10.658 4.976 21.134 13.07 29.26 8.082 8.113 18.5 12.479 29.1 13.117.547 10.783 4.91 21.406 13.096 29.624 8.171 8.203 18.73 12.581 29.451 13.143.609 10.684 4.962 21.192 13.075 29.337 9.299 9.336 24.781 14.59 37.954 12.783l89.207 90.553.219 46.727h-147.513z"/></g></svg>