<svg id="Capa_1" enable-background="new 0 0 512 512" height="512" viewBox="0 0 512 512" width="512" xmlns="http://www.w3.org/2000/svg"><g><path d="m442.182 366.925-37.411-81.782 97.38-75.576-108.831-36.215 23.549-113.469-108.584 49.27-52.283-109.153-52.291 109.141-108.644-49.284 23.852 113.802-108.404 35.565 84.054 68.614c-10.815 20.7-15.087 44.512-12.26 67.678-10.071 10.646-17.664 23.496-22.12 37.394-34.095 5.606-60.189 35.283-60.189 70.941v58.149h512v-58.149c0-42.494-29.932-78.123-69.818-86.926zm-370.238-146.281 81.846-26.851-17.221-82.167 81.503 36.972 37.926-79.159 37.923 79.175 81.574-37.014-16.974 81.79 80.869 26.91-71.786 55.713 40.176 87.827c-17.465-21.645-45.956-34.491-73.759-33.119-6.389-7.656-13.941-14.326-22.322-19.711-9.704-55.042-57.521-95.645-114.231-95.645-33.88 0-64.412 14.599-85.642 37.835zm410.056 261.356h-452v-28.149c0-23.03 18.679-41.779 41.683-41.893l12.775.003c3.16-21.86 12.835-41.576 30.237-55.568-1.784-8.049-3.247-16.988-3.247-25.009 0-47.432 38.588-86.02 86.02-86.02 47.262 0 83.266 38.624 86.359 84.42 15.101 7.09 27.668 18.667 36.292 32.935 5.885-1.065 12.406-2.108 18.326-2.108 21.018 0 40.615 11.337 51.146 29.588l5.855 10.148 11.264-3.223c5.312-1.521 10.786-2.291 16.271-2.291 32.542 0 59.018 26.475 59.018 59.017v28.15z"/><path d="m0 76.762h30v30h-30z"/><path d="m30 106.762h30v30h-30z"/><path d="m482 16.893h30v30h-30z"/><path d="m452 46.893h30v30h-30z"/><path d="m163.519 18.212h28.085v30h-28.085z"/><path d="m483.915 317.34h28.085v30h-28.085z"/></g></svg>