<svg id="Capa_1" enable-background="new 0 0 512 512" height="512" viewBox="0 0 512 512" width="512" xmlns="http://www.w3.org/2000/svg"><g><path d="m512 352.454-131.645-105.29v50.244h-19.746c-17.35 0-34.057 2.802-49.708 7.961v-155.913h47.458l-102.359-149.456-102.358 149.456h47.458v85.299c-15.91-5.241-32.641-7.943-49.708-7.943h-19.746v-50.242l-131.646 105.29 131.645 105.289v-50.242h19.746c27.409 0 49.708 22.358 49.708 49.84v125.253h109.801v-54.658c0-27.483 22.298-49.84 49.708-49.84h19.746v50.242zm-301.467-233.024 45.467-66.389 45.467 66.389h-20.513v174.107c-13.202-18.42-30.319-33.944-49.91-45.321v-128.786zm-59.141 187.451h-49.692v17.91l-53.678-42.931 53.677-42.931v17.91h49.692c49.396 0 93.531 27.567 115.529 71.147-14.891 10.872-27.843 24.257-38.224 39.536-8.605-34.78-39.993-60.641-77.304-60.641zm209.216 70.595c-43.921 0-79.654 35.828-79.654 79.866v24.632h-49.91v-24.632c0-71.632 58.122-129.909 129.563-129.909h49.693v-17.91l53.677 42.931-53.677 42.932v-17.91z"/></g></svg>