<svg id="Capa_1" enable-background="new 0 0 512 512" height="512" viewBox="0 0 512 512" width="512" xmlns="http://www.w3.org/2000/svg"><g><path d="m202.542 315.027v-82.162c0-27.8-22.617-50.417-50.417-50.417-7.262 0-14.172 1.544-20.416 4.32v-100.935c0-47.329-38.504-85.833-85.833-85.833h-15v512h157.176v-65.087l12.378-27.805c10.502-23.591 13.312-49.433 8.126-74.73zm-29.519 91.88-14.971 33.629v41.464h-97.176v-449.954c23.526 6.568 40.833 28.194 40.833 53.786v235.103h30v-88.07c0-11.258 9.159-20.417 20.416-20.417 11.258 0 20.417 9.159 20.417 20.417v85.205l6.627 32.333c3.92 19.127 1.795 38.666-6.146 56.504z"/><path d="m481.124 124.67c0-31.882-25.935-57.82-57.814-57.82-31.685 0-57.487 25.626-57.8 57.242-47.286-1.791-83.916 40.075-83.916 85.791v117.643c0 19.552 12.539 36.224 29.996 42.416v142.058h125.399v-30h-32.927l39.514-160.467v-111.65c0-10.059-1.689-20.074-4.919-29.477 24.451-6.743 42.467-29.168 42.467-55.736zm-169.53 85.213c0-30.796 22.875-55.851 50.991-55.851 4.034 0 8.02.521 11.894 1.535 7.148 11.259 18.071 19.888 30.982 24.09 5.192 8.806 8.115 20.117 8.115 30.226v94.947h-41.99v-81.564h-30v49.766h-29.992zm0 117.642v-24.493h29.992v24.493c0 8.269-6.727 14.996-14.996 14.996s-14.996-6.727-14.996-14.996zm61.572 154.475h-31.576v-112.059c15.236-5.404 26.718-18.792 29.394-35.111h38.422zm50.144-329.51c-15.337 0-27.814-12.48-27.814-27.82s12.478-27.82 27.814-27.82 27.814 12.48 27.814 27.82-12.478 27.82-27.814 27.82z"/></g></svg>