<svg id="Capa_1" enable-background="new 0 0 512 512" height="512" viewBox="0 0 512 512" width="512" xmlns="http://www.w3.org/2000/svg"><g><path d="m253.821 296.925 42.555-42.554 21.137 21.137-15.812 15.812 21.213 21.213 141.089-141.089-21.213-21.213-13.067 13.067-129.019-129.018 13.067-13.067-21.213-21.213-141.089 141.089 21.213 21.213 15.812-15.812 21.159 21.159-42.555 42.555 11.542 11.542-165.459 165.458c-8.5 8.499-13.181 19.799-13.181 31.82 0 12.02 4.681 23.32 13.181 31.819 17.34 17.34 46.299 17.34 63.639 0l165.46-165.459zm-1.687-129.222 69.783-69.783 44.187 44.187-69.783 69.783zm-21.213-21.213-21.213-21.213 69.783-69.783 21.213 21.213zm107.805 107.805-21.192-21.192 69.783-69.783 21.192 21.192zm-283.119 175.335c-5.848 5.848-15.364 5.849-21.213 0-5.858-7.071-5.858-14.142 0-21.213l165.459-165.459 21.213 21.213zm175.213-240.722 44.296 44.296-21.295 21.296-44.296-44.296z"/><path d="m467.757 482v-60h-180.961v60h-44.243v30h269.447v-30zm-150.961 0v-30h120.961v30z"/></g></svg>