<svg id="Capa_1" enable-background="new 0 0 512 512" height="512" viewBox="0 0 512 512" width="512" xmlns="http://www.w3.org/2000/svg"><g><path d="m382.403 134.224 10.109 5.528c11.169 6.109 20.302 15.242 26.411 26.412l5.529 10.109c3.508 6.414 10.236 10.403 17.547 10.403s14.039-3.989 17.547-10.403l5.529-10.109c6.109-11.17 15.242-20.303 26.411-26.412l10.109-5.529c6.414-3.508 10.403-10.236 10.403-17.547s-3.988-14.039-10.402-17.547l-10.109-5.529c-.001 0-.001 0-.001 0-11.169-6.108-20.302-15.241-26.411-26.411l-5.529-10.109c-3.508-6.414-10.236-10.403-17.547-10.403s-14.039 3.989-17.547 10.403l-5.529 10.109c-6.109 11.17-15.242 20.303-26.412 26.412l-10.109 5.529c-6.414 3.508-10.402 10.236-10.402 17.547s3.989 14.039 10.403 17.547zm59.597-30.285c3.877 4.6 8.138 8.86 12.737 12.737-4.6 3.877-8.86 8.138-12.737 12.737-3.877-4.6-8.138-8.86-12.737-12.737 4.599-3.876 8.86-8.137 12.737-12.737z"/><path d="m492 425.323h-422.297v-43.604c0-102.725 83.572-186.297 186.297-186.297 90.45 0 167.584 64.517 183.406 153.406 1.936 10.875 12.325 18.124 23.195 16.186 10.875-1.936 18.121-12.32 16.186-23.195-9.194-51.655-36.434-98.864-76.699-132.93-28.026-23.712-61.316-40.097-96.762-48.018 2.183-5.849 3.378-12.186 3.378-18.799 0-29.417-23.643-53.351-52.704-53.351s-52.704 23.933-52.704 53.351c0 6.583 1.184 12.89 3.347 18.717-41.602 9.208-79.802 30.057-110.659 60.914-42.742 42.742-66.281 99.57-66.281 160.016v43.604h-9.703c-11.046 0-20 8.954-20 20s8.954 20 20 20h472c11.046 0 20-8.954 20-20s-8.954-20-20-20zm-248.704-283.252c0-7.361 5.699-13.351 12.704-13.351s12.704 5.989 12.704 13.351-5.699 13.351-12.704 13.351-12.704-5.989-12.704-13.351z"/></g></svg>