<svg id="Capa_1" enable-background="new 0 0 510.72 510.72" height="512" viewBox="0 0 510.72 510.72" width="512" xmlns="http://www.w3.org/2000/svg"><g id="XMLID_754_"><path id="XMLID_781_" d="m507.73 449.229c-7.664-34.662-28.957-57.32-61.579-65.523l-.712-.179-103.254-15.452-31.512 111.272h-25.745c-18.069 0-33.838-12.844-37.494-30.541l-14.411-64.108c-5.031-50.312-22.447-134.37-50.439-210.937-15.645-42.794-32.851-78.57-51.141-106.335-9.292-14.106-18.891-26.133-28.746-36.051h163.508v-30h-219.048l-4.491 6.213c-1.742 2.41-42.666 59.679-42.666 116.096 0 39.895 22.194 78.277 28.998 89.106l8.688 55.012c4.54 28.745 6.841 58.076 6.841 87.179v154.365h92.74v-128.93c0-33.974 3.128-67.963 9.288-101.382 4.156 4.204 8.188 8.643 12.082 13.364 21.449 26.003 36.549 57.965 43.669 92.429l15.777 70.186c6.575 31.491 34.664 54.333 66.845 54.333h222.402l2.089-12.534c.154-.93 3.733-23.06-1.689-47.583zm-400.463 30.117h-32.74v-124.365c0-30.665-2.425-61.571-7.208-91.858l-5.185-32.829 12.165 4.514.613.212c16.553 5.34 31.631 12.655 45.43 22.065-8.67 40.494-13.075 81.925-13.075 123.332zm-22.831-272.776-31.14-11.555c-6.419-10.627-23.296-41.421-23.296-71.331 0-34.073 19.558-70.69 30.227-88.132 52.918 30.994 96.638 139.599 121.709 237.95-.052-.064-.102-.13-.154-.193-26.654-32.312-58.499-54.146-97.346-66.739zm396.362 272.776h-138.945l22.003-77.695 75.653 11.322c37.104 9.76 41.635 46.65 41.289 66.373z"/><path id="XMLID_801_" d="m333.576 201.476h62.793v30h-62.793z" transform="matrix(.509 -.861 .861 .509 -7.237 420.257)"/><path id="XMLID_802_" d="m375.974 264.679h62.793v29.999h-62.793z" transform="matrix(.989 -.145 .145 .989 -36.24 62.007)"/><path id="XMLID_804_" d="m277.397 162.118h30v62.793h-30z" transform="matrix(.989 -.145 .145 .989 -24.962 44.428)"/></g></svg>