<svg id="Capa_1" enable-background="new 0 0 512 512" height="512" viewBox="0 0 512 512" width="512" xmlns="http://www.w3.org/2000/svg"><g><path d="m249.167 189.042c-11.046 0-20 8.954-20 20v46.958c0 5.304 2.107 10.392 5.858 14.142l32.724 32.724c3.905 3.905 9.023 5.858 14.142 5.858s10.237-1.953 14.142-5.858c7.811-7.811 7.811-20.474 0-28.284l-26.866-26.866v-38.673c0-11.046-8.955-20.001-20-20.001z"/><path d="m400.873 236.642c-4.743-35.398-22.31-66.928-48-90.018 8.946-1.992 15.634-9.975 15.634-19.522 0-11.046-8.954-20-20-20h-6.078v-27.102c0-44.112-35.888-80-80-80h-26.523c-44.112 0-80 35.888-80 80v27.103h-6.078c-11.046 0-20 8.954-20 20 0 9.546 6.688 17.53 15.634 19.522-30.291 27.222-49.288 66.18-49.288 109.375s18.997 82.153 49.287 109.376c-8.946 1.992-15.634 9.975-15.634 19.522 0 11.046 8.954 20 20 20h6.078v27.102c0 44.112 35.888 80 80 80h26.523c44.112 0 80-35.888 80-80v-27.103h6.078c11.046 0 20-8.954 20-20 0-10.225-7.673-18.657-17.575-19.854 3.408-6.734 2.839-15.12-2.145-21.434-6.844-8.671-19.42-10.153-28.09-3.309-20.096 15.861-45.5 24.596-71.53 24.596-62.304 0-112.993-48.851-112.993-108.897s50.688-108.897 112.993-108.897 112.993 48.851 112.993 108.897c0 11.046 8.954 20 20 20h13.667c11.046 0 20-8.954 20-20 0-9.301-6.351-17.121-14.953-19.357zm-98.445 195.358c0 22.056-17.944 40-40 40h-26.523c-22.056 0-40-17.944-40-40v-27.103h106.523zm-106.523-352c0-22.056 17.944-40 40-40h26.523c22.056 0 40 17.944 40 40v27.103h-106.523z"/></g></svg>