<svg id="Capa_1" enable-background="new 0 0 510.566 510.566" height="512" viewBox="0 0 510.566 510.566" width="512" xmlns="http://www.w3.org/2000/svg"><g id="XMLID_98_"><path id="XMLID_144_" d="m466.35 194.763v-76.371c0-29.894-24.319-54.213-54.213-54.213-15.406 0-29.334 6.461-39.213 16.814-9.88-10.354-23.808-16.814-39.214-16.814s-29.334 6.461-39.214 16.814c-9.879-10.354-23.807-16.814-39.213-16.814s-29.334 6.461-39.213 16.814c-9.88-10.354-23.808-16.814-39.214-16.814s-29.334 6.461-39.214 16.814c-9.879-10.354-23.807-16.814-39.213-16.814-29.894 0-54.213 24.319-54.213 54.213v76.371c-25.45 6.955-44.216 30.268-44.216 57.894 0 22.455 12.269 42.497 31.452 52.815v83.872h28.793l5.988 57.043h72.183l5.988-57.043h222.008l5.988 57.043h72.183l5.988-57.043h28.546v-83.872c19.184-10.318 31.452-30.36 31.452-52.815-.003-27.626-18.769-50.938-44.219-57.894zm-367.92-100.584c13.351 0 24.213 10.862 24.213 24.213h30c0-13.351 10.862-24.213 24.214-24.213s24.214 10.862 24.214 24.213h30c0-13.351 10.862-24.213 24.213-24.213s24.213 10.862 24.213 24.213h30c0-13.351 10.862-24.213 24.214-24.213s24.214 10.862 24.214 24.213h30c0-13.351 10.862-24.213 24.213-24.213s24.213 10.862 24.213 24.213v75.955c-26.265 6.396-45.825 30.105-45.825 58.311v22.521h-270.484v-22.521c0-28.205-19.561-51.915-45.825-58.311v-75.955c0-13.351 10.862-24.213 24.213-24.213zm12.969 322.209h-18.151l-2.838-27.043h23.827zm306.166 0h-18.151l-2.838-27.043h23.827zm42.033-135.099-10.483 3.31v74.623h-387.663v-74.623l-10.483-3.31c-12.542-3.96-20.969-15.467-20.969-28.632 0-16.554 13.467-30.021 30.021-30.021s30.021 13.468 30.021 30.021v52.521h330.482v-52.521c0-16.554 13.467-30.021 30.021-30.021s30.021 13.468 30.021 30.021c0 13.165-8.426 24.672-20.968 28.632z"/><path id="XMLID_202_" d="m163.447 149.679h30v29.5h-30z"/><path id="XMLID_229_" d="m240.447 149.679h30v29.5h-30z"/><path id="XMLID_236_" d="m202.033 211.179h30v29.5h-30z"/><path id="XMLID_238_" d="m278.533 211.179h30v29.5h-30z"/><path id="XMLID_246_" d="m317.447 149.679h30v29.5h-30z"/></g></svg>