<svg id="Capa_1" enable-background="new 0 0 512 512" height="512" viewBox="0 0 512 512" width="512" xmlns="http://www.w3.org/2000/svg"><path d="m512 175.303c0-39.489-32.125-71.616-71.613-71.616h-49.3c.163-1.909.252-3.833.252-5.769v-21.384c0-22.345-11.027-43.19-29.497-55.764-18.466-12.572-41.9-15.186-62.687-6.996l-43.155 17.008-43.155-17.008c-20.784-8.188-44.219-5.576-62.687 6.996-18.47 12.573-29.497 33.419-29.497 55.764v21.385c0 1.936.088 3.859.252 5.769h-49.3c-39.488-.001-71.613 32.126-71.613 71.615 0 26.811 14.817 50.214 36.684 62.487v185.076c0 44.146 35.914 80.062 80.057 80.062h278.519c44.144 0 80.057-35.916 80.057-80.062v-.396c0-11.046-8.954-20-20-20s-20 8.954-20 20v.396c0 22.091-17.97 40.062-40.057 40.062h-119.26v-216.008h159.316v75.447c0 11.046 8.954 20 20 20s20-8.954 20-20v-84.577c21.867-12.273 36.684-35.676 36.684-62.487zm-198.178-124.314c8.583-3.384 17.883-2.347 25.511 2.847 7.63 5.193 12.006 13.467 12.006 22.698v21.385c0 9.23-4.376 17.504-12.005 22.697-7.627 5.193-16.926 6.231-25.512 2.847l-37.822-14.906v-42.663zm-153.161 25.545c0-9.231 4.376-17.505 12.006-22.698 4.675-3.183 9.977-4.804 15.357-4.804 3.399 0 6.83.646 10.154 1.957l37.822 14.905v42.663l-37.822 14.905c-8.584 3.385-17.884 2.346-25.511-2.847-7.629-5.193-12.005-13.467-12.005-22.697v-21.384zm-89.048 67.153h66.954c3.436 3.718 7.31 7.081 11.591 9.994 11.362 7.735 24.6 11.7 37.948 11.7 8.348 0 16.742-1.553 24.739-4.704l23.155-9.125v55.369h-164.387c-17.431-.001-31.613-14.184-31.613-31.618s14.182-31.616 31.613-31.616zm164.387 319.242h-119.259c-22.087 0-40.057-17.972-40.057-40.062v-175.947h159.316zm40-256.009v-55.369l23.155 9.125c7.999 3.152 16.39 4.704 24.739 4.704 13.347 0 26.587-3.966 37.948-11.7 4.28-2.914 8.155-6.276 11.591-9.994h66.954c17.431 0 31.613 14.183 31.613 31.616s-14.182 31.617-31.613 31.617h-164.387z"/></svg>