<svg id="Capa_1" enable-background="new 0 0 512 512" height="512" viewBox="0 0 512 512" width="512" xmlns="http://www.w3.org/2000/svg"><g><path d="m396.505 139.919-30.261 30.261 4.444-55.765-114.639-114.415-114.638 114.416 4.452 55.872-30.369-30.369-115.494 115.493 54.252 256.588h403.495l54.253-256.588zm0 42.468 74.864 74.864-74.864 44.622-38.907-23.191 4.969-62.356zm-222.299-34.477 62.625 37.328-50.733 111.914zm151.794 149.242-50.733-111.914 62.625-37.328zm4.912-180.041-74.863 44.621-74.863-44.621 74.863-74.864zm-181.372 99.322 4.956 62.193-39.002 23.247-74.863-44.622 74.863-74.864zm-111.376 74.307 62.316 37.143v154.087h-21.883zm92.345 191.23v-154.088l26.647-15.882 13.544 169.97zm60.519-122.957 50.006-110.311v233.268h-40.208zm80.036 122.957v-233.268l50.006 110.311-9.798 122.957zm83.874-169.914 26.552 15.826v154.088h-40.092zm78.465 169.914h-21.883v-154.088l62.317-37.143z"/></g></svg>