<svg id="Capa_1" enable-background="new 0 0 512.052 512.052" height="512" viewBox="0 0 512.052 512.052" width="512" xmlns="http://www.w3.org/2000/svg"><g id="XMLID_1143_"><path id="XMLID_1168_" d="m472.492 406.071c18.621-16.856 36.342-40.91 38.473-72.359l1.086-16.015h-27.771c-4.018-22.114-13.945-68.117-34.11-118.454-16.34-40.787-36.056-75.91-58.598-104.394-26.25-33.167-56.427-57.406-89.822-72.186v-21.965h-30v15.272c-2.048 11.867-23.147 123.981-103.552 226.47l-19.031 24.259h122.583v51h-50.558l-47-28.5h-74.94l-26 58.496h-19.455l-32.25 63.467c-5.449 1.473-11.555 2.537-21.547 2.537v30c18.29 0 27.951-3.019 36.476-5.683 7.414-2.317 13.816-4.317 27.528-4.317s20.114 2 27.528 4.317c8.524 2.664 18.186 5.683 36.476 5.683s27.951-3.019 36.475-5.683c7.414-2.317 13.816-4.317 27.527-4.317 13.71 0 20.112 2 27.524 4.317 8.524 2.664 18.186 5.683 36.475 5.683 18.288 0 27.949-3.019 36.473-5.683 7.412-2.316 13.813-4.317 27.523-4.317s20.112 2 27.524 4.317c8.524 2.664 18.186 5.683 36.475 5.683s27.95-3.019 36.475-5.683c7.412-2.316 13.814-4.317 27.524-4.317s20.112 2 27.524 4.317c8.523 2.664 18.185 5.683 36.473 5.683v-30c-13.71 0-20.111-2-27.523-4.317-3.601-1.127-7.414-2.313-11.985-3.311zm-50.409-196.266c11.412 28.385 19.437 55.654 24.875 77.494-19.278-11.544-42.845-17.984-67.75-17.984-29.263 0-56.68 8.888-77.459 24.505v-237.752c61.186 33.104 98.906 100.441 120.334 153.737zm16.48 107.893h-118.709c15.568-11.709 36.61-18.382 59.355-18.382 22.745-.001 43.786 6.672 59.354 18.382zm-228.851-81c28.791-41.436 48.716-82.661 62.038-115.987v115.987zm-90.964 82.5h47.06l27.067 16.413-12.083 12.083h-74.709zm265.256 94.5c-13.711 0-20.113-2-27.526-4.317-8.523-2.664-18.184-5.683-36.473-5.683-18.288 0-27.949 3.019-36.473 5.683-7.412 2.316-13.813 4.317-27.523 4.317-13.711 0-20.113-2-27.526-4.317-8.523-2.664-18.184-5.683-36.473-5.683-18.29 0-27.951 3.019-36.475 5.683-7.414 2.317-13.816 4.317-27.527 4.317-13.712 0-20.114-2-27.528-4.317-8.524-2.664-18.186-5.683-36.476-5.683-1.773 0-3.442.036-5.06.09l13.259-26.094h121.014l29.996-29.996h254.541c-12.544 36.298-55.637 57.459-61.829 60.338-1.518.448-2.975.901-4.395 1.344-7.413 2.317-13.815 4.318-27.526 4.318z"/><path id="XMLID_1173_" d="m320.005 471.354c-18.288 0-27.949 3.019-36.473 5.683-7.412 2.317-13.813 4.317-27.523 4.317-13.711 0-20.113-2-27.525-4.317-8.524-2.664-18.185-5.683-36.474-5.683-18.29 0-27.951 3.019-36.475 5.683-7.414 2.317-13.816 4.317-27.527 4.317v30c18.29 0 27.951-3.019 36.475-5.683 7.414-2.317 13.816-4.317 27.527-4.317 13.71 0 20.112 2 27.524 4.317 8.524 2.664 18.186 5.683 36.475 5.683 18.288 0 27.949-3.019 36.473-5.683 7.412-2.317 13.813-4.317 27.523-4.317s20.112 2 27.524 4.317c8.524 2.664 18.186 5.683 36.475 5.683v-30c-13.711 0-20.113-2-27.526-4.317-8.524-2.664-18.184-5.683-36.473-5.683z"/></g></svg>