<svg id="Capa_1" enable-background="new 0 0 512 512" height="512" viewBox="0 0 512 512" width="512" xmlns="http://www.w3.org/2000/svg"><g><path d="m453.691 0h-395.382c-32.152 0-58.309 26.18-58.309 58.361v453.639h512v-453.639c0-32.181-26.157-58.361-58.309-58.361zm-364.257 337.97h107.08v14.819l35.623 35.623h47.727l35.623-35.623v-14.819h107.08v61.727l-20.174 20.174h-292.785l-20.174-20.174zm196.052-30v32.393l-18.049 18.049h-22.873l-18.049-18.049v-32.393h-196.515v-28.805h452v28.805zm-120.576-95.249 37.189 36.445h-142.785l47.666-36.445zm182.18 0h57.821l47.728 36.445h-142.738zm-80.052 36.445h-22.077l-45.956-45.036 11.208-34.369h91.573l11.208 34.369zm148.018-66.445h-77.488l-14.01-42.96h-135.116l-14.01 42.96h-77.606l-66.826 51.094v-138.029h452v138.053zm-356.747-152.694h395.383c15.609 0 28.309 12.71 28.309 28.334v7.425h-452.001v-7.425c0-15.624 12.699-28.334 28.309-28.334zm-28.309 451.946v-144.003h29.434v74.153l37.748 37.747h317.637l37.748-37.747v-74.153h29.433v144.003z"/></g></svg>