<svg id="Capa_1" enable-background="new 0 0 512 512" height="512" viewBox="0 0 512 512" width="512" xmlns="http://www.w3.org/2000/svg"><g><path d="m470.322 411.682c-.063 0-.125-.001-.187-.001-10.959 0-19.895 8.834-19.995 19.817-.204 22.333-18.093 40.502-39.876 40.502h-308.528c-21.989 0-39.878-17.889-39.878-39.878v-80.441h408.284c11.046 0 20-8.954 20-20s-8.954-20-20-20h-3.801v-231.803c0-44.045-35.833-79.878-79.878-79.878h-260.926c-44.045 0-79.878 35.833-79.878 79.878v231.802h-3.801c-11.046 0-20 8.954-20 20v100.441c0 44.045 35.833 79.878 79.878 79.878h308.527c43.639 0 79.47-35.949 79.875-80.136.101-11.045-8.771-20.08-19.816-20.181zm-267.46-100.001c-6.832-10.349-10.524-22.533-10.524-35.077 0-35.112 28.559-63.678 63.663-63.678s63.663 28.566 63.663 63.678c0 12.544-3.693 24.729-10.524 35.077zm20.997-158.517c-3.254-5.261-1.272-10.016-.27-11.816 1.003-1.8 4.004-5.987 10.191-5.987h44.438c6.187 0 9.188 4.187 10.191 5.987s2.985 6.555-.27 11.816l-13.287 21.48c-6.115-1.128-12.417-1.718-18.853-1.718s-12.738.59-18.853 1.718zm-138.2-73.286c0-21.988 17.889-39.878 39.878-39.878h260.926c21.989 0 39.878 17.89 39.878 39.878v231.802h-72.786c4.01-11.159 6.108-23.016 6.108-35.077 0-36.319-18.769-68.336-47.116-86.859l9.611-15.538c9.999-16.165 10.445-35.728 1.192-52.331-9.252-16.604-26.124-26.516-45.131-26.516h-44.438c-19.007 0-35.879 9.912-45.131 26.516-9.252 16.603-8.807 36.166 1.192 52.331l9.612 15.538c-28.347 18.523-47.116 50.54-47.116 86.859 0 12.061 2.098 23.918 6.108 35.077h-72.787z"/><path d="m216.988 391.84c-11.046 0-20 8.954-20 20s8.954 20 20 20h78.024c11.046 0 20-8.954 20-20s-8.954-20-20-20z"/></g></svg>