<svg id="Capa_1" enable-background="new 0 0 512.619 512.619" height="512" viewBox="0 0 512.619 512.619" width="512" xmlns="http://www.w3.org/2000/svg"><g id="XMLID_348_"><path id="XMLID_458_" d="m356.951 262.708c54.752-15.818 100.842-51.345 130.092-100.417l6.934-11.629-31.752-31.752 50.252-50.252-68.372-68.371-50.252 50.252-31.803-31.804-12.607 7.606c-48.488 29.252-83.679 75.143-99.385 129.454l-94.406 94.406c-54.308 15.704-100.201 50.895-129.454 99.385l-7.605 12.606 31.803 31.803-50.253 50.254 68.372 68.37 50.252-50.251 31.748 31.748 11.632-6.928c49.074-29.251 84.602-75.343 100.418-130.093zm-288.437 207.485-25.944-25.944 29.039-29.039 25.945 25.944zm346.552-398.441 29.039-29.039 25.945 25.945-29.038 29.039zm-57.485-15.059 98.491 98.491c-24.501 36.834-60.438 63.893-102.644 77.26l-25.952-25.952 36.935-36.936-21.213-21.213-36.935 36.935-25.949-25.949c13.369-42.168 40.461-78.145 77.267-102.636zm-94.162 128.168 64.476 64.476-78.701 78.702-64.476-64.476zm-108.377 271.356-98.492-98.492c24.49-36.806 60.466-63.896 102.638-77.266l25.948 25.948-36.936 36.937 21.213 21.213 36.936-36.937 25.952 25.952c-13.369 42.208-40.424 78.144-77.259 102.645z"/><path id="XMLID_494_" d="m473.674 283.238h30v31.042h-30z"/><path id="XMLID_501_" d="m346.027 306.407h30v31.042h-30z"/><path id="XMLID_502_" d="m258.763 437.991h30v31.042h-30z"/><path id="XMLID_503_" d="m22.501 195.991h30v31.042h-30z"/><path id="XMLID_504_" d="m161.763 148.127h30v31.042h-30z"/><path id="XMLID_506_" d="m218.763 15.127h30v31.042h-30z"/><path id="XMLID_510_" d="m63.279 148.019h30c0-32.538 26.472-59.01 59.009-59.01h1.359v-30h-1.359c-32.538 0-59.009-26.472-59.009-59.009h-30c0 32.537-26.472 59.009-59.009 59.009h-1.36v30h1.359c32.538 0 59.01 26.471 59.01 59.01zm15-98.618c6.512 9.725 14.883 18.096 24.608 24.607-9.725 6.513-18.096 14.883-24.608 24.608-6.512-9.726-14.883-18.096-24.608-24.608 9.725-6.511 18.095-14.882 24.608-24.607z"/><path id="XMLID_513_" d="m451.395 363.981h-30c0 32.538-26.472 59.01-59.009 59.01h-1.359v30h1.359c32.538 0 59.009 26.472 59.009 59.009h30c0-32.537 26.472-59.009 59.009-59.009h1.359v-30h-1.359c-32.538 0-59.009-26.471-59.009-59.01zm-15 98.618c-6.512-9.725-14.883-18.096-24.608-24.607 9.725-6.513 18.096-14.883 24.608-24.608 6.512 9.726 14.883 18.096 24.608 24.608-9.725 6.511-18.096 14.882-24.608 24.607z"/></g></svg>