<svg id="Capa_1" enable-background="new 0 0 512 512" height="512" viewBox="0 0 512 512" width="512" xmlns="http://www.w3.org/2000/svg"><path d="m456.167 450.828c-3.525-10.468-14.872-16.096-25.338-12.569l-29.459 9.924c-93.711 31.569-196.93 31.569-290.641 0l-14.669-4.941 11.499-133.142c5.732-47.486 34.391-89.578 75.937-112.662 4.638 3.64 9.489 6.881 14.505 9.725l-18.429 30.944c-5.651 9.49-2.54 21.765 6.95 27.417 3.208 1.911 6.733 2.819 10.215 2.819 6.816 0 13.461-3.487 17.202-9.769l22.508-37.792c6.485 1.087 13.044 1.631 19.603 1.631s13.118-.544 19.603-1.631l22.508 37.792c3.742 6.282 10.386 9.769 17.202 9.769 3.481 0 7.008-.909 10.215-2.819 9.49-5.652 12.602-17.927 6.95-27.417l-18.429-30.944c5.017-2.844 9.868-6.086 14.506-9.725 41.545 23.084 70.204 65.177 75.937 112.664l4.218 48.833c.951 11.004 10.643 19.152 21.646 18.205 11.005-.951 19.155-10.642 18.205-21.647l-4.246-49.162c-.019-.211-.04-.423-.065-.634-3.909-32.961-16.459-64.396-36.293-90.907-16.777-22.423-38.412-40.911-63.084-54.008l-.104-4.889c.043-12.727 4.312-18.979 13.605-32.597.932-1.365 1.89-2.769 2.911-4.28l.216-.323c6.855-10.327 15.823-26.739 14.567-49.928-.99-18.316-8.808-35.502-22.014-48.392-13.46-13.138-31.068-20.373-49.581-20.373-13.697 0-27.36 4.851-40.61 14.418-4.553 3.287-10.694 3.265-15.278-.057-13.151-9.529-26.965-14.361-41.062-14.361-18.512 0-36.12 7.235-49.579 20.373-13.206 12.89-21.023 30.075-22.014 48.395-1.253 23.24 7.723 39.634 14.583 49.944.016.024.057.084.072.108l.086.126c1.049 1.56 2.072 3.063 3.066 4.523 9.217 13.542 13.45 19.761 13.494 32.415l-.104 4.896c-24.672 13.097-46.308 31.585-63.084 54.008-19.833 26.511-32.383 57.947-36.293 90.908-.024.211-.046.423-.064.635l-12.88 149.126c-.794 9.189 4.8 17.73 13.541 20.675l29.562 9.959c51.037 17.192 104.226 25.909 158.09 25.909s107.054-8.717 158.09-25.91l29.459-9.924c10.468-3.526 16.095-14.87 12.569-25.338zm-280.245-379.905c.921-17.051 15.12-30.923 31.651-30.923 5.49 0 11.408 2.271 17.591 6.751 3.438 2.491 7.093 4.522 10.886 6.094v20.367c0 11.046 8.954 20 20 20s20-8.954 20-20v-20.141c3.935-1.582 7.725-3.657 11.28-6.224 4.326-3.123 10.82-6.847 17.193-6.847 16.532 0 30.731 13.872 31.653 30.925.486 8.974-1.818 16.405-7.898 25.566l-.124.185c-.946 1.4-1.869 2.752-2.768 4.068-10.577 15.497-20.568 30.134-20.568 55.342 0 .14.002.281.005.421l.181 8.587c-28.414 23.119-69.495 23.118-97.907 0l.181-8.59c.003-.14.005-.281.005-.421 0-25.109-9.923-39.688-20.428-55.121-.955-1.403-1.938-2.848-2.947-4.347-.029-.043-.059-.088-.089-.132-6.093-9.175-8.381-16.586-7.897-25.56z"/></svg>