<svg id="Capa_1" enable-background="new 0 0 511 511" height="512" viewBox="0 0 511 511" width="512" xmlns="http://www.w3.org/2000/svg"><g id="XMLID_45_"><path id="XMLID_84_" d="m510.5 0h-510v455.667h47.629v55.333h93.152v-55.333h227.771v55.333h93.152v-55.333h48.296zm-442.674 329.333h-37.326v-192h37.326zm43.455 151.667h-33.152v-25.333h33.152zm320.923 0h-33.152v-25.333h33.152zm48.296-55.333h-450v-66.334h37.326v33.834h375.348v-330.667h-375.348v44.833h-37.326v-77.333h450zm-382.674-62.5v-270.667h315.348v270.667z"/><path id="XMLID_89_" d="m240.5 212.321h30v29.694h-30z"/><path id="XMLID_90_" d="m352.276 304.478h30v29.693h-30z"/><path id="XMLID_91_" d="m352.276 121.609h30v29.694h-30z"/><path id="XMLID_92_" d="m128.609 304.478h30v29.693h-30z"/><path id="XMLID_93_" d="m128.609 121.609h30v29.694h-30z"/><path id="XMLID_97_" d="m318.31 143.811-18.869 18.869c-12.62-8.49-27.467-13.056-43.017-13.056-16.001 0-31.249 4.85-44.101 13.821l-19.634-19.634-21.213 21.213 20.004 20.004c-16.627 25.773-16.385 59.336.732 84.88l-20.735 20.736 21.213 21.213 20.735-20.735c12.957 8.683 27.976 13.035 43 13.035 14.594 0 29.182-4.111 41.881-12.304l20.003 20.004 21.213-21.213-19.645-19.645c18.11-26.041 18.37-60.809.759-87.09l18.885-18.885zm-95.32 116.533c-18.436-18.437-18.436-48.435 0-66.87 8.931-8.931 20.805-13.85 33.435-13.85s24.504 4.919 33.436 13.85c18.436 18.436 18.436 48.434 0 66.87-18.436 18.434-48.434 18.436-66.871 0z"/></g></svg>