<svg id="Capa_1" enable-background="new 0 0 510 510" height="512" viewBox="0 0 510 510" width="512" xmlns="http://www.w3.org/2000/svg"><g id="XMLID_107_"><path id="XMLID_114_" d="m116.119 60.5h30v30h-30z"/><path id="XMLID_462_" d="m177.934 60.5h30v30h-30z"/><path id="XMLID_463_" d="m239.748 60.5h30v30h-30z"/><path id="XMLID_478_" d="m301.562 60.5h30v30h-30z"/><path id="XMLID_480_" d="m363.376 60.5h30v30h-30z"/><path id="XMLID_483_" d="m416.748 193v-42h36.372v-151h-396.744v151h36.371v42h-92.406v317h509.317v-317zm-330.372-72v-91h336.743v91zm6.372 359h-62.407v-65h29.456v-30h-29.456v-35h29.456v-30h-29.456v-35h29.456v-30h-29.456v-32h62.406v257zm143 0v-49c0-10.477 8.523-19 19-19s19 8.523 19 19v49zm151 0h-26.75v-40.5h-30v40.5h-26.25v-49c0-27.019-21.981-49-49-49s-49 21.981-49 49v49h-26.25v-40.5h-30v40.5h-26.75v-329h264zm30 0v-257h62.911v32h-29.456v30h29.456v35h-29.456v30h29.456v35h-29.456v30h29.456v65z"/><path id="XMLID_532_" d="m156.934 322h30v32h-30z"/><path id="XMLID_539_" d="m239.748 322h30v32h-30z"/><path id="XMLID_540_" d="m322.562 322h30v32h-30z"/><path id="XMLID_541_" d="m155.938 258h196.814v30h-196.814z"/><path id="XMLID_542_" d="m155.938 193h196.814v30h-196.814z"/></g></svg>