<svg id="Capa_1" enable-background="new 0 0 512 512" height="512" viewBox="0 0 512 512" width="512" xmlns="http://www.w3.org/2000/svg"><g id="XMLID_616_"><path id="XMLID_1414_" d="m0 8.493v495.014h512v-367.429-2.918-124.667zm377.222 112.585-84.517-82.585h189.295v82.585zm41.942 230.287h-32.836v-32.539h32.836zm-263.492-62.539v-146.432l100.219-97.929 100.218 97.929v208.972h-49.836v-53.708c0-27.66-22.504-50.164-50.164-50.164-27.66 0-50.164 22.504-50.164 50.164v53.708h-50.273zm120.601 62.539h-40.328v-53.708c0-11.118 9.045-20.164 20.164-20.164 11.118 0 20.164 9.046 20.164 20.164zm-150.601 0h-32.836v-32.539h32.836zm30 30h200.656v31.07h-200.656zm-125.672-342.872h189.078l-84.518 82.585h-104.56zm0 112.585h95.672v137.748h-62.836v62.539h-32.836zm95.672 322.429h-95.672v-92.142h95.672zm230.656 0h-200.656v-31.071h200.656zm125.672 0h-95.672v-92.142h95.672zm0-122.142h-32.836v-62.539h-63.055v-137.748h95.891z"/><path id="XMLID_1428_" d="m255.891 195.918c27.232 0 49.386-22.155 49.386-49.387s-22.154-49.387-49.386-49.387-49.387 22.155-49.387 49.387 22.155 49.387 49.387 49.387zm0-68.773c10.69 0 19.386 8.697 19.386 19.387s-8.696 19.387-19.386 19.387-19.387-8.697-19.387-19.387 8.697-19.387 19.387-19.387z"/><path id="XMLID_1429_" d="m62.836 194.929h30v53.869h-30z"/><path id="XMLID_1430_" d="m419.164 194.929h30v53.869h-30z"/><path id="XMLID_1431_" d="m186.391 205.993h30v30h-30z"/><path id="XMLID_1432_" d="m295.391 205.993h30v30h-30z"/></g></svg>