<svg id="Capa_1" enable-background="new 0 0 512 512" height="512" viewBox="0 0 512 512" width="512" xmlns="http://www.w3.org/2000/svg"><path d="m466.865 351.341c11.046 0 20-8.954 20-20v-83.888c0-44.112-35.888-80-80-80h-6.905v-23.514c0-79.368-64.571-143.939-143.981-143.939-79.369 0-143.94 64.571-143.94 143.939v23.514h-6.905c-44.112 0-80 35.888-80 80v184.547c0 44.112 35.888 80 80 80h301.73c44.112 0 80-35.888 80-80v-.659c0-11.046-8.954-20-20-20s-20 8.954-20 20v.659c0 22.056-17.944 40-40 40h-301.73c-22.056 0-40-17.944-40-40v-184.547c0-22.056 17.944-40 40-40h6.905v122.239c0 11.046 8.954 20 20 20h67.397c-2.213 6.249-3.419 12.97-3.419 19.968 0 33.066 26.908 59.969 59.982 59.969s59.982-26.902 59.982-59.969c0-6.998-1.205-13.719-3.419-19.968h67.397c11.046 0 20-8.954 20-20v-122.239h6.905c22.056 0 40 17.944 40 40v83.888c.001 11.046 8.955 20 20.001 20zm-314.825-207.402c0-57.312 46.627-103.939 103.981-103.939 57.312 0 103.94 46.627 103.94 103.939v23.514h-207.921zm123.942 225.721c0 11.011-8.964 19.969-19.982 19.969s-19.982-8.958-19.982-19.969 8.964-19.968 19.982-19.968 19.982 8.957 19.982 19.968zm83.978-59.968h-207.92v-102.239h207.92z"/></svg>