<svg id="Capa_1" enable-background="new 0 0 512 512" height="512" viewBox="0 0 512 512" width="512" xmlns="http://www.w3.org/2000/svg"><path d="m498.863 425.838c-.979-11.003-10.711-19.128-21.694-18.147-11.003.979-19.127 10.692-18.147 21.694.985 11.067-2.606 21.681-10.114 29.887-7.51 8.208-17.774 12.729-28.903 12.729h-328.009c-11.196 0-21.502-4.566-29.021-12.858-7.515-8.286-11.053-18.981-9.963-30.113l10.785-110.117h120.724v7.221c0 39.414 32.065 71.479 71.479 71.479s71.479-32.065 71.479-71.479v-7.221h120.723l1.043 10.649c1.078 10.993 10.857 19.023 21.854 17.956 10.993-1.077 19.032-10.861 17.955-21.854l-11.44-116.813c-3.988-40.729-37.862-71.442-78.793-71.442h-19.072v-13.67c0-68.231-55.508-123.739-123.762-123.739-68.229 0-123.736 55.508-123.736 123.736v13.67h-19.073c-40.931 0-74.805 30.714-78.793 71.442l-21.183 216.282c-2.172 22.181 5.169 44.371 20.142 60.883 14.977 16.515 36.355 25.987 58.652 25.987h328.007c22.164 0 43.456-9.377 58.415-25.728 14.958-16.348 22.41-38.376 20.445-60.434zm-211.384-99.706c0 17.357-14.122 31.479-31.479 31.479s-31.479-14.122-31.479-31.479v-7.221h62.958zm-115.228-202.396c0-46.172 37.564-83.736 83.761-83.736 46.173 0 83.736 37.564 83.736 83.736v13.67h-167.497zm-59.073 53.67h285.643c20.251 0 37.011 15.193 38.984 35.341l6.479 66.164h-376.57l6.48-66.164c1.974-20.147 18.733-35.341 38.984-35.341z"/></svg>