<svg id="Capa_1" enable-background="new 0 0 510.842 510.842" height="512" viewBox="0 0 510.842 510.842" width="512" xmlns="http://www.w3.org/2000/svg"><g id="XMLID_452_"><path id="XMLID_453_" d="m86.587 192.821c0-1.377 0-1.377 1.885-3.819 3.043-3.943 8.136-10.542 8.136-22.149s-5.093-18.206-8.135-22.148c-1.886-2.443-1.886-2.443-1.886-3.821 0-1.379 0-1.379 1.886-3.822 3.043-3.943 8.135-10.543 8.135-22.15v-15h-30v15c0 1.379 0 1.379-1.886 3.822-3.043 3.943-8.135 10.543-8.135 22.15s5.093 18.207 8.136 22.149c1.885 2.443 1.885 2.443 1.885 3.82s0 1.377-1.885 3.819c-3.043 3.943-8.136 10.542-8.136 22.149v15h30z"/><path id="XMLID_527_" d="m437.992 327.389c5.027-8.951 8.931-18.494 11.633-28.381l27.886-18.049c20.565-12.636 33.332-35.451 33.332-59.596 0-9.505-1.894-18.754-5.629-27.49l-7.78-18.2c-4.279-10.011-12.25-17.631-22.443-21.456-10.194-3.825-21.209-3.331-31.02 1.396l-23.644 11.938c-9.444-28.206-36.098-48.596-67.441-48.596h-10.052v-25.085h-30v25.083h-10.052c-37.36 0-68.062 28.964-70.883 65.613l-3.475 4.401c-.341.432-.679.866-1.014 1.304l-6.384-7.941h-91.065v30h22.577l13.56 26.616c1.407 2.762 1.916 5.843 1.472 8.911-3.862 26.675 11.769 52.586 37.166 61.61l5.344 1.899c2.145 5.536 4.679 10.88 7.57 16.022h-91.361l1.011-2.048c6.473-13.106 9.894-27.761 9.894-42.38v-46.763h-124.198v46.763c0 14.619 3.421 29.273 9.894 42.38l1.011 2.048h-23.901v30h26.996l31.188 59.583h392.631l31.188-59.583h26.997v-30h-71.008zm19.096-144.796c2.334-1.094 4.945-1.196 7.363-.289 2.451.919 4.368 2.752 5.397 5.159l7.78 18.201c2.133 4.989 3.214 10.271 3.214 15.698 0 13.828-7.333 26.894-19.137 34.096l-7.784 5.037c-1.087-23.296-8.781-46.003-22.024-65.181zm-154.307-33.64h50.104c17.382 0 32.279 10.841 38.285 26.117h-126.674c6.006-15.276 20.903-26.117 38.285-26.117zm-50.812 175.949c-7.034-8.909-12.366-18.95-15.85-29.846l-2.263-7.078-19.078-6.778c-11.973-4.255-19.341-16.47-17.521-29.043 1.337-9.236-.195-18.514-4.432-26.83l-6.622-12.997h20.445l24.932 31.013 10.571-20.501c2.811-5.45 6.114-10.593 9.817-15.284l1.963-2.486h147.801l1.962 2.486c13.135 16.638 20.369 37.476 20.369 58.673 0 19.397-6.073 38.481-17.167 54.333l-55.672-48.959-11.957-39.98-28.742 8.596 7.419 24.807h-30.564l-20.98-20.979-21.213 21.213 29.766 29.767h57.479l36.8 32.363h-115.299zm-202.18-12.844c-4.444-8.998-6.792-19.06-6.792-29.097v-16.763h64.196v16.763c0 10.037-2.349 20.099-6.793 29.097l-7.57 15.331h-35.47zm382.868 74.914h-356.314l-15.485-29.583h387.285z"/><path id="XMLID_535_" d="m368.167 230.921h30v29h-30z"/></g></svg>