<svg id="Capa_1" enable-background="new 0 0 509.31 509.31" height="512" viewBox="0 0 509.31 509.31" width="512" xmlns="http://www.w3.org/2000/svg"><g id="XMLID_1076_"><path id="XMLID_1123_" d="m449.674 106.024c-11.848 0-21.487-9.639-21.487-21.487v-5.872c0-34.066-27.715-61.782-61.782-61.782h-69.645l-42.388 32.862-41.837-32.329h-69.631c-34.067 0-61.782 27.715-61.782 61.782 0 11.848-9.639 21.487-21.487 21.487-32.883.002-59.635 26.754-59.635 59.637v303.433h44.835v28.67h30v-28.67h359.64v28.67h30v-28.67h44.835v-298.095c0-32.883-26.753-59.636-59.636-59.636zm-390.039 24.663c28.39 0 51.487-23.097 51.487-51.487 0-17.525 14.257-31.782 31.782-31.782h59.391l52.107 40.265 52.625-40.799h59.377c17.525 0 31.782 14.257 31.782 31.782v5.872c0 28.39 23.097 51.487 51.487 51.487 16.341 0 29.635 13.294 29.635 29.636v100.346c-6.409-2.908-13.514-4.542-20.998-4.542h-32.866v-61.651h-341.58v61.651h-32.866c-7.484 0-14.589 1.634-20.998 4.542v-105.685c0-16.341 13.294-29.635 29.635-29.635zm180.02 130.777h-125.791v-31.651h125.791zm155.791 0h-125.791v-31.651h125.791zm83.864 172.291h-449.31v-47.817h449.31zm0-77.817h-449.31v-43.476c0-11.579 9.42-20.999 20.998-20.999h407.313c11.578 0 20.998 9.42 20.998 20.999v43.476z"/><path id="XMLID_1730_" d="m125.58 121.024h30v31.027h-30z"/><path id="XMLID_1731_" d="m194.513 121.024h30v31.027h-30z"/><path id="XMLID_1732_" d="m284.797 121.024h30v31.027h-30z"/><path id="XMLID_1733_" d="m353.729 121.024h30v31.027h-30z"/></g></svg>