<svg id="Capa_1" enable-background="new 0 0 512 512" height="512" viewBox="0 0 512 512" width="512" xmlns="http://www.w3.org/2000/svg"><g><path d="m437.02 74.98c-48.353-48.351-112.64-74.98-181.02-74.98s-132.667 26.629-181.02 74.98c-48.351 48.353-74.98 112.64-74.98 181.02s26.629 132.667 74.98 181.02c48.353 48.351 112.64 74.98 181.02 74.98s132.667-26.629 181.02-74.98c48.351-48.353 74.98-112.64 74.98-181.02s-26.629-132.667-74.98-181.02zm-22.708 106.939 44.566-25.73c15.12 30.664 23.122 64.62 23.122 99.811s-8.002 69.147-23.122 99.811l-44.566-25.73zm29.532-51.691-44.533 25.711-128.311-74.081v-51.356c54.721 3.562 105.675 26.561 144.806 65.693 10.538 10.538 19.903 21.937 28.038 34.033zm-187.844 273.934-128.312-74.081v-148.162l128.312-74.081 128.312 74.081v148.162zm-159.806-307.968c39.13-39.131 90.085-62.13 144.806-65.693v51.356l-128.312 74.081-44.533-25.711c8.136-12.095 17.501-23.494 28.039-34.033zm-43.072 59.995 44.566 25.73v148.162l-44.566 25.73c-15.119-30.664-23.122-64.62-23.122-99.811s8.003-69.147 23.122-99.811zm15.034 225.583 44.533-25.711 128.311 74.082v51.355c-54.721-3.562-105.675-26.561-144.806-65.692-10.538-10.539-19.903-21.938-28.038-34.034zm347.65 34.034c-39.13 39.131-90.085 62.13-144.806 65.692v-51.355l128.312-74.081 44.533 25.711c-8.136 12.095-17.501 23.494-28.039 34.033z"/></g></svg>