<svg id="Capa_1" enable-background="new 0 0 512 512" height="512" viewBox="0 0 512 512" width="512" xmlns="http://www.w3.org/2000/svg"><path d="m467.86 302.631c-6.001-14.662-17.091-26.678-31.227-33.833l-34.403-17.415v-95.565c0-35.96-28.951-65.285-64.77-65.891v-8.467c.001-44.917-36.542-81.46-81.46-81.46s-81.461 36.543-81.461 81.461v8.467c-35.818.606-64.77 29.93-64.77 65.891v95.564l-34.404 17.415c-14.135 7.155-25.225 19.171-31.226 33.833-6.002 14.662-6.52 31.006-1.458 46.018l39.953 118.506c9.044 26.823 34.14 44.845 62.448 44.845h221.837c28.308 0 53.403-18.022 62.446-44.846l.62-1.839c3.53-10.466-2.094-21.812-12.561-25.342-10.466-3.53-21.812 2.094-25.342 12.561l-.621 1.84c-3.553 10.543-13.416 17.626-24.542 17.626h-90.919v-91.724c0-11.046-8.954-20-20-20s-20 8.954-20 20v91.724h-90.918c-11.126 0-20.989-7.084-24.544-17.626l-39.953-118.506c-4.085-12.115 1.438-25.607 12.846-31.383l162.569-82.291 162.568 82.291c11.409 5.775 16.932 19.268 12.847 31.383l-7.289 21.62c-3.529 10.467 2.094 21.813 12.561 25.343 10.469 3.526 21.813-2.095 25.342-12.562l7.291-21.621c5.061-15.012 4.542-31.355-1.46-46.017zm-253.321-221.17c0-22.861 18.599-41.461 41.461-41.461s41.461 18.6 41.461 41.461v8.457h-82.922zm32.428 100.474-97.198 49.201v-75.317c0-14.281 11.619-25.9 25.9-25.9h160.66c14.281 0 25.9 11.619 25.9 25.9v75.317l-97.198-49.201c-5.677-2.875-12.386-2.875-18.064 0z"/></svg>