<svg id="Capa_1" enable-background="new 0 0 511.333 511.333" height="512" viewBox="0 0 511.333 511.333" width="512" xmlns="http://www.w3.org/2000/svg"><g id="XMLID_951_"><path id="XMLID_1717_" d="m221.867 303.131h-1.118c-10.381 0-18.826-8.446-18.826-18.827s8.445-18.827 18.826-18.827c8.902 0 16.712 7.36 16.712 15.751h30c0-12.284-5.01-23.852-14.106-32.573-5.104-4.892-11.11-8.511-17.605-10.708v-23.534h-30v23.43c-19.605 6.345-33.826 24.768-33.826 46.459 0 26.923 21.903 48.827 48.826 48.827h1.118c10.381 0 18.826 8.445 18.826 18.826v.547c0 10.381-8.445 18.827-18.826 18.827-8.686 0-15.751-7.066-15.751-15.751v-1.678h-30v1.678c0 19.974 12.871 36.988 30.751 43.213v23.601h30v-23.43c19.605-6.345 33.826-24.768 33.826-46.459v-.547c-.001-26.922-21.904-48.825-48.827-48.825z"/><path id="XMLID_1720_" d="m399.292 311.345c-4.01-31.182-16.119-60.724-35.228-85.775l-73.986-109.038 42.19-116.532h-224.157l42.191 116.532-73.986 109.038c-20.234 26.527-32.634 58.09-35.864 91.304l-9.365 96.306c-2.438 25.071 5.873 50.148 22.801 68.802 16.928 18.653 41.082 29.351 66.271 29.351h360.506v-199.988zm-194.103-281.345v38.356h30v-38.356h54.312l-26.655 73.621h-85.312l-26.655-73.621zm-85.031 451.333c-16.991 0-32.637-6.929-44.055-19.512-11.419-12.583-16.802-28.826-15.157-45.738l9.365-96.306c2.701-27.775 13.104-54.162 30.083-76.308l.264-.345 74.303-109.504h90.458l74.059 109.145.508.704c15.25 19.892 25.174 43.208 28.998 67.875h-49.319v169.988h-199.507zm330.506 0h-101v-26.663h101zm0-56.663h-101v-26.663h101zm-101-56.662v-26.663h101v26.663z"/></g></svg>