<svg id="Capa_1" enable-background="new 0 0 512 512" height="512" viewBox="0 0 512 512" width="512" xmlns="http://www.w3.org/2000/svg"><path d="m375.957 182.837v-80.651c0-10.758-8.494-19.532-19.142-19.982v-62.204c0-11.046-8.954-20-20-20h-95.816c-11.046 0-20 8.954-20 20v62.186h-118.228c-36.308 0-65.846 29.538-65.846 65.846v.589c0 36.308 29.538 65.846 65.846 65.846h.178c36.308 0 65.846-29.539 65.846-65.846v-26.435h33.062v60.651c-58.909 31.186-99.117 92.984-99.117 163.965 0 67.759 37.062 130.12 96.725 162.746 2.942 1.609 6.242 2.452 9.596 2.452h159.693c11.046 0 20-8.954 20-20s-8.954-20-20-20h-154.408c-44.293-26.196-71.605-73.718-71.605-125.198 0-80.243 65.57-145.525 146.167-145.525s146.167 65.282 146.167 145.525c0 13.47-1.869 27.622-5.262 39.851-2.953 10.644 3.281 21.666 13.925 24.619 10.642 2.951 21.666-3.281 24.619-13.925 4.395-15.839 6.718-33.317 6.718-50.545-.001-70.981-40.208-132.779-99.118-163.965zm-114.958-142.837h55.816v42.186h-55.816zm-132.204 108.621c0 14.251-11.595 25.846-25.846 25.846h-.178c-14.251 0-25.846-11.595-25.846-25.846v-.589c0-14.251 11.594-25.846 25.846-25.846h26.024zm113.062 18.658v-45.092h94.1v45.092c-15.034-3.916-30.802-6.002-47.05-6.002s-32.016 2.086-47.05 6.002z"/></svg>