<svg id="Capa_1" enable-background="new 0 0 510.201 510.201" height="512" viewBox="0 0 510.201 510.201" width="512" xmlns="http://www.w3.org/2000/svg"><path id="XMLID_388_" d="m479.182 111.112h-40.823c-52.996 0-96.112-43.116-96.112-96.112v-15h-174.292v15c0 52.996-43.116 96.112-96.112 96.112h-40.824v74.829c0 132.506 33.381 190.026 93.983 294.26h-49.455v30h359.107v-30h-49.455c60.602-104.233 93.982-161.754 93.982-294.26v-74.829zm-166.049-81.112c1.747 14.671 6.023 28.578 12.379 41.27-45.511 15.94-95.311 15.94-140.822 0 6.355-12.693 10.632-26.599 12.379-41.27zm-145.504 66.945c10.903 4.208 22.046 7.593 33.336 10.168v35.075h30v-30.174c8.024.799 16.08 1.208 24.136 1.208s16.112-.41 24.137-1.208v30.174h30v-35.075c11.29-2.575 22.432-5.96 33.335-10.168 8.503 9.925 18.518 18.516 29.684 25.417-16.811 49.942-63.492 83.935-117.156 83.935s-100.345-33.993-117.156-83.935c11.166-6.901 21.181-15.493 29.684-25.417zm87.472 184.505c7.788 0 16.466 11.07 16.466 26.955s-8.678 26.954-16.466 26.954-16.466-11.069-16.466-26.954 8.678-26.955 16.466-26.955zm194.081-95.509c0 124.526-30.099 176.295-90.064 279.433-2.809 4.831-5.68 9.77-8.613 14.827h-190.808c-2.933-5.059-5.805-9.996-8.614-14.829-59.965-103.137-90.064-154.905-90.064-279.431v-44.829h10.824c13.524 0 26.555-2.147 38.777-6.107 9.558 26.263 26.299 49.776 48.257 67.434v49.433h30v-30.6c16.07 7.659 33.432 12.516 51.223 14.274v18.934c-7.321 3.025-13.977 8.226-19.25 15.257-7.878 10.504-12.216 24.236-12.216 38.667s4.338 28.162 12.216 38.666c8.717 11.622 21.2 18.288 34.25 18.288 13.049 0 25.533-6.666 34.25-18.288 7.877-10.504 12.216-24.235 12.216-38.666s-4.339-28.163-12.216-38.667c-5.273-7.03-11.929-12.232-19.25-15.257v-18.934c17.791-1.758 35.154-6.615 51.224-14.274v30.6h30v-49.434c21.958-17.657 38.699-41.17 48.256-67.434 12.223 3.959 25.253 6.107 38.778 6.107h10.823v44.83z"/></svg>