<svg id="Capa_1" enable-background="new 0 0 511.972 511.972" height="512" viewBox="0 0 511.972 511.972" width="512" xmlns="http://www.w3.org/2000/svg"><path d="m441.323 235.699-107.62-86.653 3.346-64.056c1.069-22.369-6.854-43.618-22.31-59.831-15.466-16.224-36.332-25.159-58.753-25.159s-43.287 8.935-58.754 25.159c-15.456 16.213-23.379 37.462-22.305 59.919l3.341 63.969-107.62 86.653c-19.194 15.456-26.055 42.167-16.684 64.955 5.755 13.992 16.641 24.85 30.652 30.572 6.855 2.799 14.035 4.196 21.211 4.196 7.499 0 14.995-1.527 22.105-4.577l58.52-25.107 5.267 100.836-27.022 54.937c-6.854 13.935-3.829 30.415 7.527 41.009 6.686 6.236 15.204 9.451 23.821 9.451 6.028 0 12.104-1.574 17.634-4.788l45.11-26.225 41.577 24.17c13.732 7.985 30.609 5.906 41.993-5.176 11.378-11.074 13.911-27.878 6.306-41.813l-30.987-56.776c-5.292-9.696-17.443-13.265-27.137-7.975-9.696 5.292-13.266 17.441-7.975 27.137l22.374 40.995-36.1-20.986c-6.215-3.611-13.889-3.611-20.104 0l-40.817 23.729 21.989-44.704c1.507-3.062 2.204-6.461 2.026-9.87l-17.057-326.61c-.542-11.335 3.474-22.104 11.307-30.32 7.844-8.229 18.428-12.76 29.802-12.76s21.958 4.531 29.802 12.76c7.833 8.217 11.849 18.985 11.312 30.232l-11.854 226.944c-.576 11.03 7.898 20.439 18.93 21.016 11.036.578 20.439-7.899 21.016-18.93l.328-6.283 58.521 25.107c7.111 3.051 14.604 4.578 22.104 4.577 7.176 0 14.357-1.397 21.212-4.197 14.012-5.721 24.897-16.578 30.652-30.571 9.369-22.788 2.509-49.499-16.686-64.956zm-329.16 58.388c-3.991 1.712-8.402 1.75-12.424.108-4.015-1.639-7.133-4.748-8.78-8.755-2.682-6.519-.717-14.162 4.776-18.585l85.108-68.526 3.387 64.838zm308.85-8.647c-1.647 4.007-4.766 7.116-8.78 8.755-4.021 1.644-8.434 1.604-12.423-.108l-72.068-30.92 3.387-64.839 85.107 68.526c5.494 4.424 7.459 12.068 4.777 18.586z"/></svg>