<svg id="Capa_1" enable-background="new 0 0 510.201 510.201" height="512" viewBox="0 0 510.201 510.201" width="512" xmlns="http://www.w3.org/2000/svg"><g id="XMLID_318_"><path id="XMLID_362_" d="m456.885 50.748c-38.645 0-77.515-8.778-112.408-25.386l-29.295-13.942-1.06-.455c-18.907-7.276-38.765-10.965-59.021-10.965s-40.114 3.689-59.021 10.965l-.539.207-29.815 14.19c-34.895 16.608-73.765 25.386-112.41 25.386h-19.363v459.453h442.295v-459.453zm-360.572 77.178v300.593l-32.36 31.303v-360.667zm30 153.184 35.75-23.933 65.03 43.924h-17.993c-24.262 0-44 19.738-44 44s19.738 44 44 44h36.611c8.485 0 15.389 6.903 15.389 15.389s-6.903 15.389-15.389 15.389h-119.398zm257.575 19.991h-103.196l-38.467-25.982 73.285-34.784 68.378 38.532zm-138.176 58h-36.611c-7.72 0-14-6.28-14-14s6.28-14 14-14h174.787v40.826c-8.176-7.93-19.311-12.826-31.573-12.826h-22.214v30h22.214c8.485 0 15.389 6.903 15.389 15.389s-6.903 15.389-15.389 15.389h-63.905c1.738-4.808 2.69-9.989 2.69-15.389.001-25.028-20.361-45.389-45.388-45.389zm138.176-114.671-67.196-37.865-103.34 49.052-51.214-34.592-35.824 23.983v-108.818h257.574zm-266.507 205.448h275.439l31.347 30.323h-338.133zm296.507-21.359v-300.593l32.36-28.771v360.667zm-235.271-376.069 28.76-13.688c15.299-5.814 31.352-8.762 47.724-8.762s32.425 2.948 47.724 8.763l28.76 13.688c28.97 13.788 60.398 22.734 92.349 26.402l-30.749 27.338h-276.168l-30.749-27.338c31.952-3.669 63.379-12.615 92.349-26.403z"/><path id="XMLID_385_" d="m197.458 184.101h30v30h-30z"/><path id="XMLID_390_" d="m261.101 166.101h30v30h-30z"/></g></svg>