<svg id="Capa_1" enable-background="new 0 0 510.002 510.002" height="512" viewBox="0 0 510.002 510.002" width="512" xmlns="http://www.w3.org/2000/svg"><path id="XMLID_1005_" d="m494.876 336.99v-165.046c7.477-9.668 11.941-21.777 11.941-34.916 0-31.537-25.657-57.194-57.194-57.194s-57.194 25.657-57.194 57.194c0 10.015 2.595 19.432 7.137 27.628-13.262 10.774-29.945 16.787-47.253 16.787-17.309 0-33.992-6.013-47.254-16.787 4.542-8.196 7.137-17.613 7.137-27.628 0-31.537-25.657-57.194-57.194-57.194s-57.194 25.657-57.194 57.194c0 10.015 2.595 19.433 7.137 27.628-13.262 10.773-29.945 16.787-47.253 16.787s-33.992-6.013-47.254-16.786c4.542-8.196 7.137-17.613 7.137-27.629 0-31.537-25.657-57.194-57.194-57.194s-57.196 25.658-57.196 57.194c0 13.139 4.465 25.248 11.941 34.916v165.046h-15.126v93.178h120.758v-93.178h-15.127v-76.314c15.7 8.969 33.625 13.845 52.059 13.845s36.359-4.876 52.059-13.845v76.313h-15.126v93.178h120.757v-93.177h-15.126v-76.313c15.7 8.969 33.625 13.845 52.059 13.845s36.359-4.876 52.059-13.845v76.314h-15.127v93.178h120.758v-93.179zm-45.253-227.156c14.995 0 27.194 12.199 27.194 27.194s-12.199 27.194-27.194 27.194-27.194-12.199-27.194-27.194c0-14.994 12.199-27.194 27.194-27.194zm-194.622 0c14.995 0 27.194 12.199 27.194 27.194s-12.199 27.194-27.194 27.194-27.194-12.199-27.194-27.194c0-14.994 12.199-27.194 27.194-27.194zm-194.622 0c14.995 0 27.194 12.199 27.194 27.194s-12.199 27.194-27.194 27.194-27.194-12.199-27.194-27.194c0-14.994 12.199-27.194 27.194-27.194zm30.379 290.333h-60.758v-33.177h60.758zm-45.632-63.177v-144.849c4.859 1.347 9.971 2.082 15.253 2.082s10.393-.735 15.252-2.081v144.848zm112.564-92.469c-19.477 0-38.149-7.633-52.06-21.078v-25.845c15.7 8.969 33.625 13.845 52.059 13.845s36.359-4.876 52.059-13.845v25.844c-13.909 13.445-32.58 21.079-52.058 21.079zm127.69 155.646h-60.758v-33.177h60.758zm-45.632-63.177v-144.849c4.859 1.347 9.971 2.082 15.253 2.082s10.393-.735 15.253-2.082v144.849zm112.564-92.469c-19.478 0-38.15-7.634-52.059-21.079v-25.844c15.7 8.969 33.625 13.845 52.059 13.845s36.359-4.876 52.059-13.845v25.843c-13.91 13.446-32.58 21.08-52.059 21.08zm82.059-52.38c4.859 1.346 9.97 2.081 15.252 2.081s10.394-.735 15.253-2.082v144.85h-30.505zm45.631 208.026h-60.758v-33.177h60.758z"/></svg>