<svg id="Capa_1" enable-background="new 0 0 511.186 511.186" height="512" viewBox="0 0 511.186 511.186" width="512" xmlns="http://www.w3.org/2000/svg"><g id="XMLID_768_"><path id="XMLID_1274_" d="m433.988 414.39c-13.797-16.587-35.978-23.007-56.496-16.354l-85.294 27.639-20.53-53.267 86.137-223.485 29.263 9.483 42.348-130.684-85.55-27.722-42.348 130.683 27.705 8.978-73.632 191.038-73.631-191.038 27.705-8.978-42.346-130.683-85.549 27.722 42.348 130.684 29.263-9.483 86.137 223.484-20.531 53.267-85.292-27.639c-20.523-6.65-42.699-.231-56.498 16.354-8.653 10.402-12.919 23.565-12.011 37.064 1.447 21.525 15.644 39.731 36.167 46.383l27.542 8.925c9.177 2.974 18.49 4.387 27.654 4.387 37.724 0 72.886-23.955 85.38-61.58l13.664-35.453 13.69 35.518c7.498 22.529 23.237 40.866 44.41 51.675 12.848 6.56 26.767 9.877 40.786 9.877 9.321 0 18.688-1.467 27.812-4.424l27.542-8.925c20.522-6.651 34.719-24.856 36.167-46.384.907-13.5-3.358-26.663-12.012-37.062zm-70.831-376.603 28.472 9.226-23.852 73.605-28.472-9.227zm-243.6 9.226 28.472-9.226 23.852 73.604-28.472 9.227zm64.296 427.576c-14.253 7.277-30.486 8.565-45.71 3.634l-27.542-8.925c-8.786-2.847-14.864-10.641-15.483-19.856-.389-5.778 1.437-11.413 5.142-15.866 4.359-5.239 10.67-8.109 17.21-8.109 2.322 0 4.673.362 6.976 1.108l82.745 26.813c-5.671 8.951-13.653 16.257-23.338 21.201zm232.215-25.148c-.62 9.215-6.698 17.01-15.483 19.856l-27.542 8.925c-15.224 4.936-31.458 3.643-45.71-3.634-9.686-4.944-17.668-12.25-23.338-21.201l82.745-26.813c8.786-2.847 18.279-.1 24.186 7.002 3.704 4.452 5.53 10.087 5.142 15.865z"/><path id="XMLID_1294_" d="m256.375 100.293c24.488 0 44.41-19.922 44.41-44.41s-19.922-44.41-44.41-44.41-44.411 19.922-44.411 44.41 19.923 44.41 44.411 44.41zm0-58.82c7.945 0 14.41 6.465 14.41 14.41s-6.465 14.41-14.41 14.41c-7.946 0-14.411-6.465-14.411-14.41s6.465-14.41 14.411-14.41z"/></g></svg>