<?xml version="1.0" encoding="UTF-8" standalone="no"?><!DOCTYPE svg PUBLIC "-//W3C//DTD SVG 1.1//EN" "http://www.w3.org/Graphics/SVG/1.1/DTD/svg11.dtd"><svg width="100%" height="100%" viewBox="0 0 2084 2084" version="1.1" xmlns="http://www.w3.org/2000/svg" xmlns:xlink="http://www.w3.org/1999/xlink" xml:space="preserve" xmlns:serif="http://www.serif.com/" style="fill-rule:evenodd;clip-rule:evenodd;stroke-linejoin:round;stroke-miterlimit:2;"><rect id="画板1" x="0" y="0" width="2083.33" height="2083.33" style="fill:none;"/><clipPath id="_clip1"><rect id="画板11" serif:id="画板1" x="0" y="0" width="2083.33" height="2083.33"/></clipPath><g clip-path="url(#_clip1)"><g><path d="M718.579,2026.85l6.731,-28.055c5.252,8.311 11.745,15.94 19.478,22.887c12.111,10.739 25.203,17.798 39.277,21.175c21.666,5.198 42.475,0.497 62.429,-14.103c9.955,-7.207 18.119,-15.726 24.492,-25.555c6.373,-9.83 11.026,-20.855 13.959,-33.077c5.998,-24.999 3.375,-48.346 -7.87,-70.04c-11.06,-21.65 -27.608,-35.119 -49.644,-40.407c-10.37,-2.488 -21.471,-2.948 -33.304,-1.381c-11.833,1.567 -24.441,5.347 -37.825,11.34l6.465,-26.943c28.013,-7.379 52.111,-8.647 72.296,-3.804c26.11,6.265 46.558,21.845 61.343,46.739c15.912,26.731 19.958,56.392 12.138,88.983c-7.598,31.666 -23.833,56.069 -48.705,73.21c-25.287,17.237 -52.652,22.324 -82.095,15.259c-11.481,-2.755 -22.077,-7.158 -31.788,-13.209c-9.711,-6.051 -18.837,-13.724 -27.377,-23.019Z" style="fill-rule:nonzero;"/><path d="M669.601,1775.06c23.01,11.887 38.512,31.255 46.505,58.104c8.899,29.246 5.395,59.265 -10.512,90.059c-15.207,29.439 -36.938,49.722 -65.191,60.848c-27.134,10.204 -52.544,9.188 -76.231,-3.048c-24.026,-12.411 -39.817,-32.464 -47.373,-60.159c-7.539,-28.972 -3.53,-58.517 12.027,-88.633c16.169,-31.301 38.923,-51.698 68.262,-61.192c26.178,-8.768 50.349,-7.428 72.513,4.021Zm-8.179,19.567c-18.78,-9.701 -38.833,-10.093 -60.158,-1.175c-21.669,9.169 -38.709,25.766 -51.12,49.791c-6.031,11.675 -10.017,23.333 -11.959,34.976c-1.942,11.643 -1.796,23.186 0.439,34.628c4.38,23.054 16.046,39.476 34.995,49.265c18.781,9.701 38.924,9.711 60.429,0.029c21.162,-9.431 37.948,-26.159 50.359,-50.185c12.935,-25.04 16.699,-48.924 11.292,-71.651c-5.086,-21.275 -16.511,-36.501 -34.277,-45.678Z" style="fill-rule:nonzero;"/><path d="M569.819,1728.59l-153.091,163.452l-21.474,-20.112l63.35,-194.669l-192.194,73.992l-20.223,-18.941l153.092,-163.452l14.802,13.864l-132.979,141.978l200.32,-78.906l7.088,6.639l-66.485,203.865l132.783,-141.769l15.011,14.059Z" style="fill-rule:nonzero;"/><path d="M390.651,1557.98l-194.368,111.242l-14.615,-25.536l117.765,-167.454l-205.453,14.241l-13.763,-24.048l194.368,-111.242l10.074,17.602l-168.832,96.627l214.662,-16.549l4.825,8.429l-123.464,175.323l168.585,-96.485l10.216,17.85Z" style="fill-rule:nonzero;"/><path d="M64.157,1408.82l-7.448,-20.999l211.065,-74.867l7.449,20.999l-211.066,74.867Z" style="fill-rule:nonzero;"/><path d="M40.28,1347.99l-35.405,-169.153l19.292,-4.038l15.391,73.533l199.908,-41.842l4.565,21.808l-199.909,41.842l15.449,73.812l-19.291,4.038Z" style="fill-rule:nonzero;"/><path d="M0,1130l0.681,-172.817l19.71,0.077l-0.296,75.126l204.238,0.805l-0.088,22.28l-204.238,-0.805l-0.297,75.412l-19.71,-0.078Z" style="fill-rule:nonzero;"/><path d="M7.155,906.393l27.813,-136.595l19.313,3.933l-23.31,114.482l75.855,15.445l22.455,-110.283l19.314,3.933l-22.456,110.283l85.932,17.497l23.481,-115.322l19.314,3.933l-27.984,137.434l-219.727,-44.74Z" style="fill-rule:nonzero;"/><path d="M51.716,711.564l21.127,-49.372c7.792,-18.209 16.585,-32.466 26.382,-42.774c4.098,-4.253 8.566,-8.038 13.402,-11.354c4.837,-3.315 10.13,-6.125 15.88,-8.429c13.75,-5.509 28.452,-7.917 44.105,-7.226c15.654,0.691 30.834,4.184 45.541,10.477c32.739,14.009 54.468,34.389 65.185,61.139c10.292,26.774 8.395,56.619 -5.689,89.534l-19.778,46.22l-206.155,-88.215Zm35.764,-33.477l-8.765,20.484l169.913,72.708l14.496,-33.878c8.466,-19.784 8.793,-39.426 0.98,-58.925c-9.114,-22.75 -27.853,-40.193 -56.216,-52.33c-5.602,-2.397 -10.985,-4.338 -16.15,-5.823c-5.164,-1.485 -10.285,-2.589 -15.361,-3.311c-14.954,-1.842 -29.256,0.116 -42.906,5.875c-9.899,4.257 -18.36,10.475 -25.382,18.656c-6.697,7.905 -13.567,20.086 -20.609,36.544Z" style="fill-rule:nonzero;"/><path d="M198.216,428.709l112.963,-130.788l14.917,12.884l-49.107,56.854l154.567,133.503l-14.564,16.862l-154.567,-133.503l-49.293,57.071l-14.916,-12.883Z" style="fill-rule:nonzero;"/><path d="M567.207,383.535c-20.982,15.183 -45.258,20.291 -72.828,15.326c-30.118,-5.239 -55.336,-21.897 -75.654,-49.975c-19.426,-26.844 -27.738,-55.384 -24.935,-85.619c3.12,-28.821 15.48,-51.046 37.079,-66.676c21.907,-15.853 46.925,-20.911 75.053,-15.174c29.261,6.329 53.828,23.223 73.7,50.684c20.654,28.542 28.606,58.047 23.857,88.515c-3.971,27.321 -16.062,48.294 -36.272,62.919Zm-13.781,-16.12c17.125,-12.392 26.513,-30.116 28.164,-53.172c1.582,-23.476 -5.554,-46.168 -21.407,-68.075c-7.703,-10.645 -16.314,-19.458 -25.832,-26.439c-9.518,-6.981 -19.888,-12.053 -31.109,-15.216c-22.554,-6.48 -42.471,-3.469 -59.75,9.035c-17.124,12.392 -26.212,30.369 -27.262,53.93c-1.119,23.141 6.248,45.665 22.101,67.573c16.523,22.833 36.147,36.957 58.871,42.374c21.284,5.049 40.025,1.712 56.224,-10.01Z" style="fill-rule:nonzero;"/><path d="M796.048,46.056l8.623,27.532c-5.977,-2.518 -11.857,-4.568 -17.64,-6.149c-5.784,-1.581 -11.351,-2.631 -16.702,-3.15c-12.498,-1.674 -24.38,-0.746 -35.647,2.783c-14.175,4.44 -24.786,11.654 -31.835,21.645c-7.173,10.229 -9.194,20.34 -6.064,30.336c4.553,14.538 18.691,22.083 42.411,22.636c11.077,0.323 22.065,0.523 32.965,0.601c10.901,0.079 21.952,0.159 33.153,0.243c24.87,3.586 40.521,15.646 46.952,36.181c6.261,19.99 3.575,38.492 -8.058,55.506c-11.135,16.059 -27.605,27.504 -49.413,34.334c-14.538,4.554 -29.413,6.12 -44.626,4.698c-8.782,-0.642 -19.644,-2.828 -32.585,-6.557l-8.709,-27.804c17.921,8.156 34.856,12.53 50.806,13.122c5.294,0.338 10.327,0.159 15.098,-0.538c4.771,-0.696 9.428,-1.755 13.971,-3.178c14.538,-4.553 25.667,-12.03 33.385,-22.43c8.581,-11.468 10.851,-23.653 6.81,-36.556c-4.895,-15.628 -19.164,-24.23 -42.805,-25.806c-11.145,0.098 -22.136,0.048 -32.974,-0.149c-10.838,-0.198 -21.647,-0.304 -32.428,-0.32c-24.336,-3.154 -39.691,-14.908 -46.066,-35.262c-5.35,-17.082 -2.98,-33.09 7.109,-48.024c10.34,-15.411 25.868,-26.361 46.585,-32.85c12.721,-3.984 26.182,-5.606 40.383,-4.865c7.225,0.131 16.326,1.472 27.301,4.021Z" style="fill-rule:nonzero;"/><path d="M860.288,15.806l138.617,-14.738l2.083,19.6l-116.176,12.351l8.184,76.978l111.916,-11.899l2.084,19.6l-111.916,11.898l9.271,87.204l117.029,-12.443l2.084,19.6l-139.469,14.828l-23.707,-222.979Z" style="fill-rule:nonzero;"/><path d="M1056.64,-0l73.679,6.71c19.723,1.796 35.739,6.506 48.048,14.128c17.188,10.744 24.814,26.736 22.88,47.977c-1.33,14.603 -6.496,26.18 -15.497,34.73c-9.001,8.55 -22.76,14.754 -41.278,18.613c3.103,1.622 5.831,3.161 8.185,4.618c2.353,1.457 4.219,3.014 5.598,4.669c6.119,6.294 10.575,15.113 13.366,26.458l21.452,79.399l-25.318,-2.306l-10.544,-48.001c-5.651,-24.035 -12.415,-40.044 -20.293,-48.028c-6.775,-7.501 -18.696,-12.028 -35.765,-13.583l-32.998,-3.005l-9.353,102.695l-22.473,-2.047l20.311,-223.027Zm76.158,26.727l-55.472,-5.052l-7.565,83.067l34.137,3.108c13.654,1.244 25.292,1.013 34.913,-0.692c9.621,-1.706 17.63,-5.135 24.027,-10.289c4.311,-3.241 7.988,-7.4 11.032,-12.477c3.044,-5.077 4.816,-10.365 5.317,-15.865c0.95,-10.431 -2.531,-19.448 -10.444,-27.053c-8.602,-8.432 -20.583,-13.348 -35.945,-14.747Z" style="fill-rule:nonzero;"/><path d="M1264.32,22.475l24.201,7.787l9.055,209.664l128.265,-165.479l24.744,7.962l-150.172,186.937l-21.21,-6.824l-14.883,-240.047Z" style="fill-rule:nonzero;"/><path d="M1485.27,103.14l20.009,9.801l-98.509,201.121l-20.009,-9.801l98.509,-201.121Z" style="fill-rule:nonzero;"/><path d="M1681.65,243.339l-16.159,23.901c-1.998,-9.626 -5.396,-19.049 -10.196,-28.271c-7.565,-14.31 -17.343,-25.518 -29.333,-33.624c-18.458,-12.479 -39.593,-15.389 -63.404,-8.73c-11.852,3.25 -22.489,8.358 -31.909,15.321c-9.42,6.964 -17.65,15.652 -24.69,26.064c-14.399,21.298 -20.146,44.078 -17.24,68.34c2.749,24.156 13.51,42.58 32.283,55.272c8.835,5.973 19.067,10.305 30.695,12.995c11.629,2.69 24.762,3.58 39.398,2.672l-15.519,22.954c-28.819,-2.933 -51.827,-10.213 -69.023,-21.839c-22.244,-15.039 -35.915,-36.81 -41.012,-65.312c-5.505,-30.617 1.128,-59.809 19.9,-87.575c18.239,-26.977 42.013,-44.12 71.321,-51.43c29.731,-7.255 57.138,-2.402 82.222,14.557c9.782,6.613 18.155,14.457 25.121,23.535c6.966,9.077 12.814,19.467 17.545,31.17Z" style="fill-rule:nonzero;"/><path d="M1733.87,265.791l97.383,99.74l-14.102,13.769l-81.619,-83.593l-55.388,54.079l78.625,80.528l-14.103,13.77l-78.625,-80.528l-62.746,61.263l82.217,84.207l-14.103,13.77l-97.982,-100.354l160.443,-156.651Z" style="fill-rule:nonzero;"/><path d="M1920.72,486.635l66.489,122.518l-17.323,9.402l-55.725,-102.685l-68.038,36.923l53.681,98.919l-17.323,9.401l-53.682,-98.919l-77.076,41.828l56.134,103.438l-17.323,9.401l-66.898,-123.272l197.084,-106.954Z" style="fill-rule:nonzero;"/><path d="M2011.34,663.048l7.781,25.998l-67.166,82.422l101.405,31.965l8.109,27.092l-120.907,-41.335l-90.28,116.773l-8.436,-28.187l79.186,-97.052l-119.486,-37.586l-8.11,-27.091l139.427,47.42l78.477,-100.419Z" style="fill-rule:nonzero;"/><path d="M2066.02,1065.75l-28.789,1.885c6.381,-7.479 11.743,-15.941 16.087,-25.386c6.668,-14.749 9.529,-29.345 8.584,-43.787c-1.455,-22.233 -12.112,-40.715 -31.969,-55.446c-9.834,-7.372 -20.389,-12.645 -31.665,-15.819c-11.277,-3.174 -23.186,-4.351 -35.728,-3.53c-25.654,1.68 -47.174,11.104 -64.562,28.272c-17.4,16.979 -25.36,36.775 -23.88,59.388c0.696,10.642 3.546,21.381 8.55,32.218c5.003,10.836 12.349,21.758 22.039,32.765l-27.649,1.81c-15.348,-24.568 -23.7,-47.208 -25.056,-67.921c-1.754,-26.794 7.066,-50.94 26.461,-72.439c20.815,-23.118 47.945,-35.772 81.39,-37.961c32.494,-2.127 60.612,6.147 84.354,24.822c23.957,19.043 36.924,43.671 38.901,73.885c0.772,11.782 -0.294,23.207 -3.195,34.275c-2.902,11.068 -7.526,22.057 -13.873,32.969Z" style="fill-rule:nonzero;"/><path d="M2080.5,1119.91l-18.687,138.139l-19.532,-2.642l15.662,-115.776l-76.713,-10.378l-15.087,111.531l-19.532,-2.642l15.087,-111.531l-86.903,-11.756l-15.776,116.626l-19.532,-2.642l18.801,-138.989l222.212,30.06Z" style="fill-rule:nonzero;"/><path d="M2048.99,1311.6l-7.035,21.442l-194.061,-63.672l-34.463,105.037l-18.728,-6.145l41.498,-126.479l212.789,69.817Z" style="fill-rule:nonzero;"/><path d="M1988.14,1483.29l-10.652,19.894l-180.058,-96.399l-52.177,97.458l-17.377,-9.303l62.829,-117.353l197.435,105.703Z" style="fill-rule:nonzero;"/><path d="M1899.89,1640.56l-86.232,109.526l-15.486,-12.193l72.272,-91.795l-60.823,-47.886l-69.621,88.428l-15.486,-12.192l69.621,-88.429l-68.902,-54.248l-72.802,92.469l-15.486,-12.193l86.761,-110.199l176.184,138.712Z" style="fill-rule:nonzero;"/><path d="M1629.35,1622.76l143.459,171.968l-15.793,13.175l-227.226,-57.449l121.501,145.647l-15.793,13.175l-143.459,-171.968l15.793,-13.175l227.043,57.229l-121.318,-145.427l15.793,-13.175Z" style="fill-rule:nonzero;"/><path d="M1421.61,2004.99l-13.006,-25.753c9.38,2.943 19.266,4.564 29.657,4.863c16.183,0.361 30.734,-2.721 43.653,-9.246c19.888,-10.044 32.722,-27.086 38.502,-51.126c2.933,-11.935 3.652,-23.712 2.157,-35.331c-1.494,-11.619 -5.075,-23.038 -10.741,-34.257c-11.589,-22.948 -28.687,-39.061 -51.293,-48.338c-22.436,-9.363 -43.768,-8.937 -63.997,1.279c-9.519,4.808 -18.285,11.635 -26.297,20.482c-8.013,8.847 -15.186,19.883 -21.52,33.109l-12.491,-24.733c16.597,-23.742 34.159,-40.292 52.688,-49.65c23.968,-12.105 49.64,-13.443 77.016,-4.014c29.422,10.101 51.688,30.111 66.797,60.028c14.681,29.068 18.076,58.18 10.188,87.339c-8.142,29.5 -25.727,51.075 -52.755,64.724c-10.539,5.323 -21.469,8.816 -32.789,10.48c-11.32,1.663 -23.243,1.711 -35.769,0.144Z" style="fill-rule:nonzero;"/><path d="M1375.96,2039.81l-134.664,36.02l-5.093,-19.041l112.864,-30.188l-20.003,-74.783l-108.724,29.082l-5.093,-19.04l108.724,-29.082l-22.66,-84.717l-113.691,30.411l-5.093,-19.041l135.491,-36.241l57.942,216.62Z" style="fill-rule:nonzero;"/><path d="M1044.42,678.08c-26.277,4.593 -69.912,17.253 -86.062,24.973c-10.071,4.812 -33.967,16.194 -53.101,25.291c-40.365,19.193 -44.848,21.731 -92.482,52.354c-19.644,12.628 -36.654,22.962 -37.801,22.962c-6.577,0 -54.625,44.305 -60.558,55.841c-11.056,21.497 -1.677,45.349 24.087,61.272c10.752,6.644 18.428,7.797 53.226,7.984l40.661,0.223l-34.066,22.292c-18.732,12.261 -41.478,26.284 -50.541,31.162c-9.064,4.878 -21.725,12.795 -28.137,17.589c-6.412,4.797 -12.704,8.72 -13.979,8.72c-1.274,-0 -8.163,4.533 -15.3,10.071c-7.141,5.537 -25.994,19.135 -41.896,30.213c-120.962,84.263 -166.182,136.145 -157.356,180.542c12.649,63.66 73.972,83.238 185.255,59.144c58.804,-12.73 91.317,-20.508 94.858,-22.694c2.139,-1.326 6.394,-2.776 9.448,-3.231c9.939,-1.472 78.8,-26.854 102.347,-37.727c18.447,-8.519 77.796,-40.046 102.069,-54.223l15.751,-9.195l-2.424,9.657c-3.01,11.99 3.497,20.552 15.612,20.552c8.881,-0 87.698,-66.685 88.735,-75.075c0.249,-2.014 5.185,-8.302 10.971,-13.978c12.562,-12.316 17.751,-7.625 9.409,8.507c-8.694,16.809 -6.197,43.02 5.31,55.837c20.292,22.592 73.566,9.035 122.119,-31.073l17.553,-14.503l-2.857,10.423c-5.39,19.644 -2.973,48.304 4.97,59.005c23.54,31.722 80.063,10.822 154.475,-57.123c17.435,-15.919 37.467,-33.989 44.517,-40.152c11.115,-9.723 11.957,-11.547 6.325,-13.726c-4.644,-1.802 -11.441,2.036 -23.874,13.47c-9.562,8.793 -25.35,22.581 -35.087,30.638l-29.225,24.185c-6.339,5.244 -18.75,14.308 -27.58,20.142c-8.557,5.648 -17.102,11.315 -25.635,16.999c-32.762,21.864 -64.161,3.849 -57.273,-32.86c8.009,-42.709 15.455,-53.78 56.848,-84.527c15.107,-11.221 32.301,-25.859 38.211,-32.528c5.911,-6.665 11.87,-12.122 13.247,-12.122c1.377,0 13.846,-10.583 27.708,-23.522c36.797,-34.336 37.533,-35.069 65.491,-65.117c86.456,-92.924 116.845,-144.254 97.091,-164.007c-11.418,-11.419 -28.755,-8.599 -71.932,11.704c-20.421,9.602 -86.384,79.524 -114.608,121.486c-2.871,4.266 -12.097,16.824 -20.501,27.902c-26.353,34.739 -96.964,156.247 -96.964,166.856c0,14.301 -91.108,63.861 -117.395,63.861c-18.223,0 -21.149,-34.56 -5.695,-67.23c11.771,-24.877 13.646,-32.363 9.712,-38.731c-6.09,-9.851 -20.405,1.384 -108.975,85.523c-17.831,16.937 -26.676,23.251 -26.676,19.043c0,-8.489 10.291,-27.902 14.788,-27.902c1.989,-0 7.508,-8.654 12.269,-19.226c4.757,-10.573 17.095,-29.635 27.418,-42.357c10.324,-12.723 18.769,-24.401 18.769,-25.951c0,-2.578 34.568,-47.363 39.848,-51.629c1.249,-1.007 10.452,-11.719 20.457,-23.804c10.002,-12.085 21.538,-25.463 25.636,-29.734c13.956,-14.542 31.249,-37.515 31.249,-41.51c0,-6.537 -19.212,-13.946 -21.142,-8.156c-0.871,2.611 -7.591,11.88 -14.941,20.6c-44.789,53.156 -81.107,99.095 -81.107,102.596c0,1.358 -3.911,7.716 -8.69,14.129c-4.783,6.412 -13.041,19.578 -18.355,29.257c-14.865,27.082 -24.932,39.163 -32.63,39.163c-4.776,0 -6.347,1.78 -4.896,5.556c4.361,11.367 -17.495,36.416 -45.027,51.607c-41.775,23.046 -56.68,31.129 -85.831,46.536c-17.856,9.433 -35.241,17.153 -38.636,17.153c-3.395,0 -7.742,1.472 -9.653,3.274c-10.925,10.276 -90.943,34.187 -173.771,51.923c-117.278,25.115 -173.287,5.57 -170.698,-59.566c1.11,-27.836 38.753,-73.8 93.792,-114.516c7.05,-5.215 27.756,-20.563 46.012,-34.106c46.081,-34.183 55.91,-41.105 58.368,-41.105c1.175,0 11.071,-6.599 21.991,-14.667c10.921,-8.067 24.445,-16.626 30.056,-19.021c5.61,-2.391 12.675,-6.336 15.696,-8.764c6.486,-5.211 33.132,-20.482 82.399,-47.227c15.725,-8.537 38.691,-17.11 62.257,-23.237c35.11,-9.133 51.516,-13.213 54.933,-13.663c2.014,-0.264 5.775,-0.733 8.357,-1.04c6.665,-0.791 11.77,-16.008 7.251,-21.615c-5.694,-7.071 -15.469,-5.544 -42.236,6.592c-35.256,15.986 -122.456,33.594 -161.436,32.594c-59.43,-1.524 -77.368,-34.992 -38.285,-71.424c45.184,-42.115 196.444,-127.664 240.434,-135.984c6.354,-1.201 13.612,-3.801 16.128,-5.779c2.52,-1.978 4.578,-2.721 4.578,-1.648c-0,1.073 8.653,-0.355 19.226,-3.171c41.225,-10.972 80.685,-4.142 85.435,14.791c3.461,13.781 -14.279,42.273 -44.66,71.731c-28.777,27.902 -32.575,34.941 -22.383,41.456c5.456,3.49 8.082,2.106 16.48,-8.664c5.496,-7.05 20.028,-23.786 32.296,-37.194c38.318,-41.873 43.394,-62.762 21.215,-87.313c-13.052,-14.444 -13.601,-14.653 -37.537,-14.162c-13.363,0.275 -28.415,1.219 -33.45,2.098Zm509.043,102.314c-41.705,13.594 -107.642,66.432 -139.481,111.774c-4.714,6.713 -10.467,13.85 -12.789,15.865c-6.8,5.896 -60.254,85.889 -64.026,95.81c-1.893,4.984 -7.445,14.308 -12.334,20.717c-4.889,6.412 -12.327,19.673 -16.527,29.473l-7.636,17.816l12.997,-11.411c7.149,-6.277 14.543,-11.411 16.436,-11.411c1.893,-0 14.608,-9.581 28.254,-21.292c13.649,-11.708 28.638,-24.482 33.315,-28.382c29.33,-24.471 100.604,-94.148 119.676,-116.996c10.071,-12.063 19.329,-22.757 20.571,-23.764c14.366,-11.642 40.335,-65.502 35.732,-74.108c-3.586,-6.694 -4.97,-7.094 -14.188,-4.091Z"/></g></g></svg>