<?xml version="1.0" encoding="UTF-8" standalone="no"?><!DOCTYPE svg PUBLIC "-//W3C//DTD SVG 1.1//EN" "http://www.w3.org/Graphics/SVG/1.1/DTD/svg11.dtd"><svg width="100%" height="100%" viewBox="0 0 2084 2084" version="1.1" xmlns="http://www.w3.org/2000/svg" xmlns:xlink="http://www.w3.org/1999/xlink" xml:space="preserve" xmlns:serif="http://www.serif.com/" style="fill-rule:evenodd;clip-rule:evenodd;stroke-linejoin:round;stroke-miterlimit:2;"><rect id="画板1" x="0" y="0" width="2083.33" height="2083.33" style="fill:none;"/><clipPath id="_clip1"><rect id="画板11" serif:id="画板1" x="0" y="0" width="2083.33" height="2083.33"/></clipPath><g clip-path="url(#_clip1)"><g><path d="M307.054,685.095l38.897,-3.598c-1.963,-12.043 -6.763,-22.95 -14.4,-32.719c-7.637,-9.769 -17.414,-17.504 -29.331,-23.206c-17.809,-8.521 -35.574,-10.744 -53.295,-6.67c-8.86,2.037 -16.368,5.285 -22.524,9.742c-6.156,4.458 -10.988,10.353 -14.497,17.687c-6.766,14.143 -6.111,29.423 1.967,45.84c7.94,16.029 21.208,28.493 39.804,37.39c18.857,9.022 37.106,11.074 54.747,6.157c15.705,-4.234 26.658,-12.833 32.861,-25.797c0.94,-1.965 1.673,-3.666 2.2,-5.103c0.527,-1.438 1.027,-3.492 1.5,-6.162l-46.293,3.922l8.364,-17.483Zm74.408,10.978l-19.456,1.313c-1.146,5.084 -2.165,8.982 -3.06,11.692c-0.894,2.71 -1.811,5.047 -2.751,7.012c-8.521,17.809 -22.564,29.839 -42.13,36.088c-21.951,7.199 -44.975,5.035 -69.07,-6.493c-22.786,-10.902 -38.645,-26.697 -47.575,-47.384c-8.931,-20.688 -8.854,-40.526 0.23,-59.514c8.647,-18.072 23.302,-30.372 43.967,-36.9c22.213,-7.074 45.171,-4.941 68.874,6.399c15.845,7.581 28.057,17.206 36.637,28.874c8.579,11.669 13.664,25.93 15.256,42.785l27.434,-1.841l-8.356,17.969Z" style="fill-rule:nonzero;"/><path d="M287.949,488.363l11.03,-12.916l84.121,71.834c11.592,9.899 24.077,13.497 37.456,10.796c12.057,-2.495 22.893,-9.372 32.509,-20.632c8.767,-10.267 13.399,-21.392 13.897,-33.376c0.446,-13.936 -5.071,-25.806 -16.552,-35.61l-84.122,-71.835l11.737,-13.744l82.466,70.42c15.234,13.01 22.869,28.883 22.904,47.621c-0.079,17.305 -5.962,32.802 -17.652,46.491c-13.481,15.786 -28.564,24.955 -45.25,27.505c-17.489,2.819 -34.016,-2.417 -49.582,-15.709l-82.962,-70.845Z" style="fill-rule:nonzero;"/><path d="M500.725,282.099l13.744,-9.605l149.914,103.508l-16.42,11.476l-50.208,-36.108l-53.189,37.173l15.94,60.058l-15.529,10.853l-44.252,-177.355Zm84.496,59.7l-65.631,-47.912l20.653,79.346l44.978,-31.434Z" style="fill-rule:nonzero;"/><path d="M648.77,194.676l15.98,-6.369l57.643,144.631l78.283,-31.2l5.563,13.958l-94.263,37.568l-63.206,-158.588Z" style="fill-rule:nonzero;"/><path d="M822.159,135.616l16.543,-3.852l38.711,166.273l-16.543,3.851l-38.711,-166.272Z" style="fill-rule:nonzero;"/><path d="M920.58,114.961l131.502,-7.944l0.906,14.998l-57.166,3.453l9.389,155.412l-16.954,1.024l-9.389,-155.411l-57.382,3.466l-0.906,-14.998Z" style="fill-rule:nonzero;"/><path d="M1138.24,111.35l20.135,3.683l37.266,86.729l64.694,-68.082l20.992,3.839l-80.249,80.511l-13.869,75.828l-16.707,-3.056l13.868,-75.828l-46.13,-103.624Z" style="fill-rule:nonzero;"/><path d="M740.054,1741.1l15.465,6.478l-7.317,182.029l-18.478,-7.74l3.669,-61.735l-59.851,-25.073l-42.231,45.581l-17.474,-7.32l126.217,-132.22Zm-5.274,103.323l5.399,-81.079l-56.011,59.876l50.612,21.203Z" style="fill-rule:nonzero;"/><path d="M958.733,1812.06l-3.682,21.683c-3.187,-3.781 -6.47,-7.21 -9.849,-10.287c-3.38,-3.077 -6.796,-5.719 -10.25,-7.925c-7.907,-5.466 -16.297,-8.952 -25.17,-10.459c-11.164,-1.896 -20.869,-0.673 -29.116,3.669c-8.414,4.461 -13.29,10.628 -14.627,18.499c-1.944,11.45 5.041,21.471 20.957,30.064c7.41,4.056 14.803,7.999 22.177,11.828c7.375,3.83 14.851,7.713 22.428,11.65c15.646,11.05 22.096,24.662 19.349,40.834c-2.673,15.744 -10.907,27.377 -24.701,34.9c-13.124,7.048 -28.273,9.113 -45.448,6.197c-11.449,-1.945 -22.093,-6.035 -31.93,-12.27c-5.741,-3.478 -12.36,-8.725 -19.856,-15.741l3.719,-21.898c9.343,11.747 19.328,20.585 29.953,26.512c3.479,2.063 6.958,3.685 10.439,4.865c3.481,1.18 7.01,2.074 10.588,2.682c11.45,1.944 21.596,0.722 30.44,-3.666c9.8,-4.814 15.563,-12.302 17.289,-22.464c2.09,-12.308 -4.619,-23.092 -20.127,-32.352c-7.602,-3.794 -15.048,-7.636 -22.339,-11.525c-7.291,-3.888 -14.594,-7.705 -21.91,-11.451c-15.432,-10.572 -21.787,-23.873 -19.065,-39.903c2.285,-13.453 9.439,-23.502 21.464,-30.148c12.36,-6.883 26.698,-8.939 43.014,-6.168c10.018,1.701 19.721,5.263 29.107,10.686c4.861,2.592 10.576,6.655 17.146,12.188Z" style="fill-rule:nonzero;"/><path d="M1127.07,1811.73l1.054,21.968c-3.923,-3.009 -7.865,-5.654 -11.826,-7.935c-3.96,-2.28 -7.864,-4.128 -11.711,-5.542c-8.895,-3.643 -17.837,-5.248 -26.827,-4.817c-11.311,0.543 -20.528,3.819 -27.652,9.829c-7.261,6.162 -10.701,13.23 -10.318,21.205c0.556,11.601 9.529,19.89 26.917,24.87c8.108,2.372 16.174,4.637 24.198,6.796c8.024,2.158 16.159,4.348 24.405,6.568c17.652,7.437 26.871,19.349 27.657,35.734c0.765,15.95 -4.782,29.079 -16.641,39.385c-11.307,9.699 -25.661,14.966 -43.061,15.801c-11.6,0.556 -22.873,-1.156 -33.819,-5.136c-6.354,-2.166 -13.944,-5.871 -22.77,-11.116l-1.065,-22.185c11.646,9.469 23.293,15.959 34.943,19.47c3.84,1.269 7.586,2.107 11.239,2.513c3.653,0.406 7.292,0.522 10.917,0.348c11.6,-0.557 21.249,-3.926 28.946,-10.109c8.539,-6.804 12.562,-15.354 12.068,-25.65c-0.599,-12.47 -9.465,-21.564 -26.598,-27.282c-8.238,-2.076 -16.335,-4.231 -24.291,-6.465c-7.955,-2.234 -15.907,-4.396 -23.855,-6.486c-17.341,-7.016 -26.402,-18.644 -27.181,-34.884c-0.654,-13.631 4.179,-24.981 14.499,-34.051c10.596,-9.374 24.159,-14.457 40.689,-15.25c10.15,-0.487 20.391,0.911 30.722,4.194c5.304,1.489 11.758,4.232 19.361,8.227Z" style="fill-rule:nonzero;"/><path d="M1184.36,1792.74l16.337,-4.646l30.259,106.4c4.17,14.662 12.572,24.573 25.208,29.733c11.421,4.6 24.252,4.875 38.495,0.825c12.986,-3.693 23.004,-10.391 30.055,-20.093c8.09,-11.356 10.07,-24.296 5.94,-38.817l-30.259,-106.401l17.385,-4.944l29.663,104.306c5.48,19.27 3.045,36.715 -7.303,52.335c-9.649,14.366 -23.131,24.01 -40.445,28.934c-19.968,5.679 -37.604,4.959 -52.91,-2.158c-16.123,-7.338 -26.984,-20.852 -32.583,-40.54l-29.842,-104.934Z" style="fill-rule:nonzero;"/><path d="M1360.88,1735.79l49.237,-27.504c13.181,-7.362 25.284,-11.296 36.309,-11.801c15.439,-0.642 27.122,6.134 35.051,20.329c5.451,9.759 7.186,19.265 5.206,28.52c-1.981,9.254 -7.965,19.082 -17.952,29.482c2.65,-0.316 5.029,-0.522 7.136,-0.619c2.108,-0.096 3.952,0.079 5.532,0.527c6.56,1.324 13.16,4.954 19.801,10.889l47.682,40.709l-16.919,9.451l-27.301,-25.655c-13.904,-12.686 -25.053,-19.845 -33.446,-21.475c-7.491,-1.802 -16.94,0.483 -28.347,6.855l-22.052,12.318l38.335,68.629l-15.018,8.389l-83.254,-149.044Zm59.416,-15.979l-37.071,20.707l31.008,55.511l22.813,-12.743c9.125,-5.097 16.347,-10.253 21.664,-15.468c5.318,-5.216 8.88,-10.822 10.685,-16.818c1.316,-3.895 1.839,-8.094 1.567,-12.599c-0.271,-4.504 -1.433,-8.594 -3.486,-12.27c-3.894,-6.97 -9.966,-11.144 -18.218,-12.521c-9.042,-1.6 -18.696,0.467 -28.962,6.201Z" style="fill-rule:nonzero;"/><path d="M1547.82,1610.7l12.404,-11.282l161.906,83.515l-14.82,13.48l-54.409,-29.401l-48.006,43.661l23.479,57.531l-14.015,12.747l-66.539,-170.251Zm91.428,48.42l-71.212,-39.138l30.616,76.059l40.596,-36.921Z" style="fill-rule:nonzero;"/><path d="M1776.05,1619.94l-141.379,-95.694l8.788,-12.983l178.571,-5.873l-119.739,-81.047l8.788,-12.983l141.379,95.693l-8.788,12.984l-178.391,5.995l119.559,80.924l-8.788,12.984Z" style="fill-rule:nonzero;"/><path d="M1790.08,1253.67l20.585,7.744c-6.783,3.187 -13.167,7.378 -19.153,12.571c-9.269,8.146 -15.845,17.382 -19.73,27.708c-5.98,15.897 -4.391,32.083 4.767,48.556c4.511,8.212 10.183,15.192 17.016,20.942c6.833,5.75 14.733,10.312 23.701,13.685c18.343,6.901 36.251,7.123 53.724,0.668c17.422,-6.32 29.174,-17.564 35.257,-33.733c2.862,-7.609 4.26,-15.963 4.193,-25.062c-0.067,-9.098 -1.735,-18.993 -5.003,-29.683l19.77,7.436c2.933,21.888 1.615,40.236 -3.957,55.047c-7.207,19.158 -20.924,33.153 -41.152,41.984c-21.725,9.509 -44.544,9.766 -68.457,0.77c-23.235,-8.74 -40.16,-23.327 -50.775,-43.761c-10.649,-20.757 -11.909,-41.937 -3.782,-63.541c3.169,-8.425 7.501,-16.024 12.996,-22.797c5.495,-6.774 12.161,-12.952 20,-18.534Z" style="fill-rule:nonzero;"/><path d="M1787.54,1203.03l14.994,-105.201l14.875,2.12l-12.567,88.171l58.421,8.326l12.106,-84.937l14.875,2.121l-12.106,84.937l66.181,9.433l12.66,-88.818l14.874,2.12l-15.086,105.848l-169.227,-24.12Z" style="fill-rule:nonzero;"/><path d="M1041.67,0c574.911,0 1041.67,466.755 1041.67,1041.67c0,574.911 -466.755,1041.67 -1041.67,1041.67c-574.912,0 -1041.67,-466.755 -1041.67,-1041.67c0,-574.912 466.755,-1041.67 1041.67,-1041.67Zm-0,19.796c-563.986,-0 -1021.87,457.885 -1021.87,1021.87c-0,563.986 457.885,1021.87 1021.87,1021.87c563.986,0 1021.87,-457.884 1021.87,-1021.87c0,-563.986 -457.884,-1021.87 -1021.87,-1021.87Z"/><path d="M889.384,516.908c-302.035,84.727 -413.249,433.164 -216.428,678.079c44.135,54.923 131.623,111.421 203.977,131.721l59.922,16.817l6.117,46.748c13.906,106.274 10.828,132.326 -18.638,157.684c-44.402,38.186 -26.22,33.426 68.741,-18.014l89.082,-48.253l-92.447,12.254l-5.375,-43.303c-14.421,-116.262 -18.954,-104.503 42.799,-111.006c30.268,-3.187 81.747,-15.272 114.41,-26.843c38.147,-13.521 101.87,-24.141 178.163,-29.704c133.969,-9.769 234.116,-31.129 281.755,-60.11c44.481,-27.041 30.901,-34.128 -26.348,-13.748c-49.44,17.598 -290.05,34.286 -290.05,20.112c0,-4.097 14.026,-23.428 31.169,-42.947c256.208,-291.811 -51.687,-774.732 -426.849,-669.487m-5.186,38.305c-110.115,27.289 -186.755,85.499 -232.137,176.312c-86.755,173.62 19.856,440.776 211.935,531.065c76.996,36.186 73.037,62.139 40.532,-265.691c-27.348,-275.766 -26.229,-273.015 -106.937,-263.909c-25.864,2.92 -47.015,3.346 -47.015,0.96c-0,-11.066 120.962,-63.841 131.543,-57.398c6.582,4.019 113.579,89.27 237.769,189.447c124.189,100.177 228.266,179.657 231.285,176.639c12.828,-12.818 14.51,-97.832 2.92,-146.668c-41.977,-176.807 -180.955,-318.912 -336.57,-344.162c-75.007,-12.174 -69.939,-12.303 -133.325,3.405m28.654,260.722c3.118,20.419 14.679,121.745 25.695,225.178c27.408,257.277 26.081,251.091 55.439,258.465c33.098,8.305 137.393,-12.926 186.903,-38.047c69.275,-35.148 148.38,-114.589 141.57,-142.165c-2.732,-11.095 -399.105,-340.548 -409.716,-340.548c-3.048,-0 -2.999,16.707 0.109,37.117"/></g></g></svg>