<?xml version="1.0" encoding="UTF-8" standalone="no"?><!DOCTYPE svg PUBLIC "-//W3C//DTD SVG 1.1//EN" "http://www.w3.org/Graphics/SVG/1.1/DTD/svg11.dtd"><svg width="100%" height="100%" viewBox="0 0 2667 2667" version="1.1" xmlns="http://www.w3.org/2000/svg" xmlns:xlink="http://www.w3.org/1999/xlink" xml:space="preserve" xmlns:serif="http://www.serif.com/" style="fill-rule:evenodd;clip-rule:evenodd;stroke-linejoin:round;stroke-miterlimit:2;"><rect id="canvas" x="0" y="0" width="2666.67" height="2666.67" style="fill:none;"/><g id="canvas1" serif:id="canvas"><path id="sound" d="M732.186,2099.62c-106.411,82.764 -203.955,147.794 -298.543,200.999c-97.544,50.25 -165.529,91.633 -195.088,118.235c-23.647,29.559 -53.205,23.647 -85.72,-23.647c-32.515,-41.382 -50.25,-65.029 -47.294,-79.808c-0,-11.824 14.779,-20.691 38.426,-26.603c76.853,-29.559 153.706,-65.029 236.47,-106.412c5.912,-11.823 8.868,-56.161 14.78,-133.014c-50.25,20.691 -76.853,35.471 -76.853,41.382c-29.559,23.647 -56.162,11.824 -79.809,-32.514c-29.558,-47.294 -23.647,-67.985 17.736,-67.985c5.911,-2.956 53.205,-14.78 141.881,-44.339l0,-97.543c-5.911,2.955 -11.823,2.955 -17.735,2.955c-73.897,11.824 -121.191,29.559 -135.97,47.294c-23.647,17.736 -41.382,2.956 -53.206,-47.294c-17.735,-53.205 -14.779,-79.808 5.912,-82.764c127.103,-20.691 263.073,-62.073 407.911,-127.103c26.603,-17.735 59.117,5.912 100.499,65.03c35.471,59.117 32.515,85.72 -11.823,73.896c-29.559,-5.911 -73.897,2.956 -124.147,23.647l-5.912,0c-5.911,17.736 -5.911,47.294 -5.911,94.588c-0,0 5.911,0 17.735,-2.955c79.809,-35.471 121.191,-38.427 121.191,-11.824c-5.912,29.559 -2.956,53.206 5.912,70.941c-0,17.735 -29.559,23.647 -85.721,20.691c-23.647,5.912 -44.338,11.824 -62.073,17.735c-5.912,41.383 -5.912,76.853 -0,103.456c91.632,-47.294 153.705,-76.853 186.22,-88.676c11.823,-2.956 17.735,8.867 20.691,32.514c0,23.647 -11.823,44.339 -29.559,59.118Z"/><path id="ten" d="M1400.21,979.348c23.647,-47.293 47.294,-106.411 70.941,-180.308c-133.014,26.603 -218.735,59.118 -248.294,91.632c-23.647,29.559 -50.249,-5.911 -85.72,-103.455c-32.515,-94.588 -38.426,-138.926 -11.823,-130.059c17.735,5.912 147.793,-17.735 396.087,-67.985c-0,-23.647 5.912,-47.294 11.823,-70.941c35.471,-227.602 47.294,-375.396 38.427,-440.425c-5.912,-35.471 32.514,-44.338 118.235,-29.559c85.72,17.735 118.235,44.338 97.544,76.853c-23.647,35.47 -38.427,91.632 -44.339,165.529c-5.911,70.941 -14.779,156.661 -29.558,257.161c67.985,-17.735 144.838,-35.471 239.425,-53.206c97.544,-26.603 147.794,-29.559 150.75,-5.912c0,20.691 0,53.206 5.912,94.588c-0,38.427 -23.647,67.985 -73.897,79.809c-109.367,41.382 -230.558,76.853 -369.484,100.5c-11.824,29.558 -17.736,56.161 -23.647,73.897c-17.736,29.558 -26.603,59.117 -23.647,88.676l-218.735,53.205Z"/><path id="eye" d="M1618.95,926.143c236.47,-67.985 428.601,-67.985 567.528,-0c62.073,29.559 106.411,62.073 130.058,91.632c17.735,32.514 11.824,53.206 -20.691,59.117c-29.559,11.824 -62.073,53.206 -94.588,130.059c-41.382,73.897 -70.941,133.014 -94.588,165.529c-14.779,32.514 -26.603,62.073 -29.559,91.632c-5.912,26.603 -44.338,32.515 -106.411,14.779c-112.323,-29.558 -236.47,-29.558 -372.44,-2.956c-138.927,23.647 -224.647,41.383 -245.338,53.206c-23.647,5.912 -44.338,17.735 -56.162,32.515c-17.735,17.735 -53.205,-11.824 -103.455,-85.721c-115.279,-186.22 -162.573,-316.278 -138.926,-396.087c5.911,-17.735 26.603,-26.603 65.029,-26.603c35.47,-2.956 106.411,-20.691 209.867,-53.205c23.647,-8.868 44.338,-14.78 70.941,-20.692l218.735,-53.205Zm-233.514,467.028c-0,-32.515 2.955,-79.809 8.867,-150.75c0,-53.205 -2.956,-97.544 -8.867,-127.102c-50.25,17.735 -82.765,38.426 -91.633,56.161c-29.558,41.383 -38.426,88.677 -23.647,147.794c11.824,56.162 38.427,85.72 85.721,79.809c2.956,-0 11.823,-0 29.559,-5.912Zm248.293,-44.338c5.912,-32.515 14.779,-91.632 29.559,-174.397c5.912,-59.117 5.912,-100.5 5.912,-135.97c-23.647,5.912 -41.383,11.823 -56.162,17.735c-38.426,5.912 -70.941,14.78 -97.544,23.647l0,162.573c-5.912,59.118 -5.912,103.456 0,127.103c29.559,-8.868 70.941,-14.779 118.235,-20.691Zm165.529,-339.926c-5.912,20.691 -14.779,82.765 -20.691,180.309c-11.824,73.896 -17.735,127.102 -14.779,150.749c29.558,-2.956 67.985,-5.912 109.367,-5.912c59.117,-14.779 100.5,-65.029 127.102,-147.793c23.647,-79.809 5.912,-138.926 -44.338,-177.353c-17.735,-14.779 -70.941,-14.779 -156.661,0Z" style="fill:#003fff;"/><path id="one" d="M1143.05,1741.96c-38.427,-62.073 -20.691,-82.764 62.073,-65.029c127.103,-29.559 283.764,-59.118 469.984,-91.632c79.809,-11.824 162.573,-20.691 242.382,-26.603c73.897,-5.912 121.191,-11.824 138.926,-17.735c5.912,-2.956 17.735,5.911 29.559,23.647c5.912,20.691 11.823,35.47 29.559,41.382c11.823,5.912 17.735,29.559 20.691,70.941c-5.912,41.382 -17.736,53.206 -38.427,41.382c-121.191,-23.647 -263.072,-23.647 -425.646,0c-192.131,26.603 -336.969,62.073 -437.469,100.5c-23.647,14.779 -53.206,-11.824 -91.632,-76.853Z"/><path id="ear" d="M522.319,1130.1c41.382,-8.868 88.676,-17.735 135.97,-29.559c23.647,-5.911 35.471,11.824 41.383,53.206c-0,41.382 -2.956,65.029 -14.78,67.985c-41.382,11.824 -82.764,23.647 -130.058,38.427c-23.647,5.911 -41.382,11.823 -53.206,17.735c-5.912,70.941 -2.956,118.235 5.912,141.882c17.735,-8.868 41.382,-17.735 67.985,-29.559c79.809,-35.47 144.838,-65.029 195.088,-85.72c-0,-251.25 2.956,-467.028 11.823,-653.249c-67.985,17.736 -138.926,35.471 -209.867,53.206c-11.823,0 -20.691,2.956 -23.647,2.956c-23.647,35.471 -32.515,62.073 -29.559,82.765c-5.911,11.823 -5.911,32.514 -2.956,62.073c5.912,2.956 11.824,2.956 23.647,-0c35.471,-5.912 73.897,-11.824 112.324,-20.691c23.647,-2.956 35.47,17.735 38.426,56.161c0,41.383 -8.868,65.03 -20.691,67.986c-35.471,5.911 -70.941,14.779 -106.412,26.602c-23.647,5.912 -41.382,8.868 -53.205,11.824c-5.912,35.47 -5.912,76.853 -2.956,121.191c-5.912,5.911 -5.912,11.823 -2.956,17.735c-0,-0 5.912,-0 17.735,-2.956Zm390.176,1143.92l-0,195.087c5.911,112.323 -2.956,168.485 -26.603,168.485c-67.985,-17.735 -121.191,-38.426 -159.617,-62.073c-35.471,-17.736 -35.471,-35.471 2.955,-56.162c32.515,-17.735 50.25,-41.382 50.25,-73.897c-11.823,-384.263 -14.779,-724.189 -8.867,-1019.78c-103.456,67.985 -203.956,127.102 -295.588,168.484c-121.191,50.25 -200.999,91.633 -236.47,121.191c-29.558,26.603 -62.073,14.78 -97.544,-35.47c-38.426,-50.25 -53.205,-79.809 -47.294,-91.632c0,-11.824 17.736,-20.691 47.294,-29.559c47.294,-17.735 97.544,-35.471 153.706,-56.162c5.912,-8.867 14.779,-20.691 23.647,-29.558c11.823,-23.647 23.647,-150.75 38.426,-384.264c5.912,-165.529 0,-271.941 -20.691,-322.19c-41.382,17.735 -65.029,35.47 -76.853,50.249c-14.779,29.559 -41.382,0 -76.852,-88.676c-41.383,-88.676 -50.25,-124.147 -20.691,-118.235c23.647,5.912 274.896,-59.117 753.748,-195.088c91.632,-35.47 141.882,-41.382 147.793,-20.691c0,23.647 2.956,56.162 8.868,94.588c-0,29.559 -17.735,53.206 -47.294,70.941c5.912,2.956 -0,11.824 -14.779,29.559c-26.603,26.603 -44.339,67.985 -44.339,127.103c-29.558,387.219 -47.294,904.497 -53.205,1557.75Z" style="fill:#ffae00;"/><path id="heart" d="M912.495,2274.02c11.823,-5.912 20.691,-14.78 26.603,-26.603c50.249,-88.677 118.235,-186.22 198.043,-295.588c5.912,-8.867 14.779,-11.823 26.603,-8.867c5.912,5.911 5.912,14.779 5.912,23.647c-29.559,144.837 -38.427,260.117 -20.691,345.837c17.735,62.073 8.867,94.588 -29.559,91.632c-38.426,0 -88.676,-17.735 -141.882,-59.117c-35.471,-17.736 -59.118,-35.471 -65.029,-47.294l-0,-23.647Zm1321.28,328.102c-189.176,17.735 -336.97,14.779 -440.426,-11.824c-103.455,-20.691 -186.22,-32.515 -236.47,-35.47c-41.382,-2.956 -100.499,-56.162 -177.352,-165.529c-73.897,-82.765 -109.368,-174.397 -103.456,-277.853c0,-97.543 -5.912,-159.617 -14.779,-192.131c-23.647,-41.383 2.956,-56.162 76.853,-44.339c62.073,14.78 85.72,35.471 67.985,62.074c-29.559,26.603 -32.515,85.72 -8.868,183.264c23.647,100.5 62.073,156.661 112.323,171.441c23.647,20.691 85.721,41.382 189.176,56.161c97.544,20.692 180.309,23.647 254.205,5.912c44.339,-20.691 38.427,-94.588 -20.691,-215.779c-23.647,-38.426 -56.161,-73.897 -91.632,-115.279c-17.735,35.471 -29.558,76.853 -41.382,118.235c-23.647,53.206 -56.162,73.897 -88.676,56.162c-70.941,-0 -141.882,-50.25 -215.779,-153.706c-5.912,-2.956 -5.912,-8.867 -5.912,-17.735c-38.426,-47.294 -29.559,-103.456 32.515,-174.397c17.735,-20.691 67.985,-26.602 144.838,-14.779c23.647,0 47.294,8.868 73.897,23.647c11.823,8.868 29.558,20.691 56.161,35.471c23.647,-20.692 56.162,-41.383 97.544,-59.118c35.47,-20.691 47.294,-11.823 38.426,23.647c-11.823,32.515 -29.558,65.029 -50.25,94.588c109.368,97.544 195.088,195.088 251.25,289.676c59.117,97.544 106.411,174.396 150.749,233.514c41.383,62.073 26.603,106.411 -50.249,124.147Zm-564.572,-691.675c-65.03,-17.735 -109.368,-8.868 -133.015,23.647c-17.735,29.559 -11.823,53.206 20.691,76.853c50.25,17.735 94.588,11.823 130.059,-17.736c11.823,-17.735 29.559,-32.514 50.25,-50.249c-26.603,-14.78 -50.25,-26.603 -67.985,-32.515Zm478.851,-183.264c29.559,-20.691 56.162,-11.824 73.897,26.603c73.897,100.499 159.617,189.176 257.161,263.072c41.382,29.559 50.25,62.074 29.559,94.588c-23.647,35.471 -47.294,50.25 -82.765,44.339c-29.558,-11.824 -79.808,-23.647 -147.793,-38.427c-73.897,-11.823 -133.015,-38.426 -177.353,-91.632c-20.691,0 -26.603,-44.338 -14.779,-133.014c11.823,-85.721 29.559,-141.882 62.073,-165.529Z" style="fill:#f00;"/></g></svg>