<?xml version="1.0" encoding="UTF-8" standalone="no"?><!DOCTYPE svg PUBLIC "-//W3C//DTD SVG 1.1//EN" "http://www.w3.org/Graphics/SVG/1.1/DTD/svg11.dtd"><svg width="100%" height="100%" viewBox="0 0 3792 834" version="1.1" xmlns="http://www.w3.org/2000/svg" xmlns:xlink="http://www.w3.org/1999/xlink" xml:space="preserve" xmlns:serif="http://www.serif.com/" style="fill-rule:evenodd;clip-rule:evenodd;stroke-linejoin:round;stroke-miterlimit:2;"><rect id="画板1" x="0" y="0" width="3791.67" height="833.333" style="fill:none;"/><g id="画板11" serif:id="画板1"><g><path d="M1069.91,666.62l-166.478,166.478l214.312,-0l166.478,-166.478l-214.312,-0Z" style="fill:#827345;fill-rule:nonzero;"/><path d="M513.101,833.098l214.313,-0l367.006,-367.006l-214.313,-0l-367.006,367.006Z" style="fill:#827345;fill-rule:nonzero;"/><path d="M698.902,263.679l-569.419,569.419l214.313,-0l569.419,-569.419l-214.313,-0Z" style="fill:#827345;fill-rule:nonzero;"/><path d="M708.445,25.92c283.001,2.003 517.814,196.876 575.664,438.169l129.247,-0c-109.572,-263.09 -381.969,-464.089 -705.029,-464.089c-323.059,0 -598.755,200.999 -708.327,464.089l128.305,-0c57.849,-241.293 297.021,-436.166 579.905,-438.169l0.235,0Z" style="fill:#827345;fill-rule:nonzero;"/><path d="M3071.19,120.175l-208.775,0c40.176,23.093 40.176,68.689 40.176,93.902l0,227.037l-383.029,0l-0,-227.037c-0,-25.213 -0,-70.809 40.176,-93.902l-208.657,0c40.176,23.093 40.176,68.689 40.176,93.902l0,525.237c0,25.213 0,70.809 -40.176,93.902l208.657,-0c-40.176,-23.093 -40.176,-68.689 -40.176,-93.902l-0,-245.064l383.029,0l0,245.064c0,25.213 0,70.809 -40.176,93.902l208.775,-0c-40.176,-23.093 -40.176,-68.689 -40.176,-93.902l-0,-525.237c-0,-25.213 -0,-70.809 40.176,-93.902" style="fill:#827345;fill-rule:nonzero;"/><path d="M1803.1,494.25l273.458,0l-0,-53.136l-273.458,0l-0,-266.86l368.891,0l0,-53.961l-537.843,0c40.294,23.093 40.294,68.689 40.294,93.902l-0,525.237c-0,25.213 -0,70.809 -40.294,93.901l537.843,0l0,-53.136l-368.891,-0l-0,-285.947Z" style="fill:#827345;fill-rule:nonzero;"/><path d="M3788.11,782.318l-368.773,-0l0,-568.83c0,-25.213 0,-70.809 40.294,-93.902l-209.482,0c40.294,23.093 40.294,68.689 40.294,93.902l0,525.237c0,25.213 0,70.809 -40.294,93.901l537.844,0l-0,-50.19l0.117,-0.118Z" style="fill:#827345;fill-rule:nonzero;"/></g></g></svg>