<?xml version="1.0" encoding="UTF-8" standalone="no"?><!DOCTYPE svg PUBLIC "-//W3C//DTD SVG 1.1//EN" "http://www.w3.org/Graphics/SVG/1.1/DTD/svg11.dtd"><svg width="100%" height="100%" viewBox="0 0 4267 3200" version="1.1" xmlns="http://www.w3.org/2000/svg" xmlns:xlink="http://www.w3.org/1999/xlink" xml:space="preserve" xmlns:serif="http://www.serif.com/" style="fill-rule:evenodd;clip-rule:evenodd;stroke-linejoin:round;stroke-miterlimit:2;"><rect id="画板1" x="0" y="0" width="4266.67" height="3200" style="fill:#fafafa;"/><g id="画板11" serif:id="画板1"><g><path d="M894.457,1414.99l96.907,-0c26.207,-0 46.358,2.057 60.452,6.171c14.095,4.114 24.684,10.056 31.769,17.827c7.086,7.771 11.885,17.179 14.399,28.226c2.514,11.047 3.771,28.15 3.771,51.311l0,32.226c0,23.617 -2.438,40.835 -7.313,51.653c-4.876,10.818 -13.828,19.122 -26.855,24.912c-13.028,5.79 -30.055,8.685 -51.082,8.685l-25.827,0l0,149.017l-96.221,0l0,-370.028Zm96.221,63.309l0,94.164c2.743,0.153 5.105,0.229 7.085,0.229c8.838,-0 14.971,-2.171 18.399,-6.514c3.428,-4.342 5.142,-13.37 5.142,-27.084l0,-30.397c0,-12.647 -1.98,-20.875 -5.942,-24.684c-3.962,-3.809 -12.19,-5.714 -24.684,-5.714Z" style="fill:#f0f0f0;fill-rule:nonzero;"/><path d="M1225.63,1414.99l-0,295.977l58.509,-0l0,74.051l-154.731,0l0,-370.028l96.222,-0Z" style="fill:#f0f0f0;fill-rule:nonzero;"/><path d="M1485.27,1414.99l55.081,370.028l-98.506,0l-4.8,-66.509l-34.512,0l-5.714,66.509l-99.649,0l48.91,-370.028l139.19,-0Zm-50.968,237.924c-4.876,-41.901 -9.751,-93.631 -14.627,-155.188c-9.752,70.699 -15.847,122.429 -18.284,155.188l32.911,0Z" style="fill:#f0f0f0;fill-rule:nonzero;"/><path d="M1781.48,1576.35l-96.222,-0l0,-64.453c0,-18.741 -1.028,-30.435 -3.085,-35.083c-2.057,-4.647 -6.59,-6.97 -13.599,-6.97c-7.923,-0 -12.951,2.818 -15.085,8.456c-2.133,5.638 -3.199,17.827 -3.199,36.569l-0,171.872c-0,17.98 1.066,29.712 3.199,35.197c2.134,5.486 6.933,8.228 14.399,8.228c7.162,0 11.847,-2.742 14.056,-8.228c2.21,-5.485 3.314,-18.36 3.314,-38.625l0,-46.397l96.222,0l-0,14.399c-0,38.245 -2.705,65.367 -8.114,81.366c-5.409,15.998 -17.37,30.016 -35.883,42.053c-18.513,12.038 -41.33,18.056 -68.452,18.056c-28.188,0 -51.425,-5.104 -69.709,-15.313c-18.284,-10.209 -30.397,-24.341 -36.34,-42.397c-5.942,-18.055 -8.913,-45.215 -8.913,-81.479l-0,-108.106c-0,-26.665 0.914,-46.663 2.742,-59.995c1.829,-13.333 7.276,-26.17 16.342,-38.512c9.066,-12.342 21.636,-22.055 37.711,-29.14c16.075,-7.086 34.55,-10.628 55.424,-10.628c28.341,-0 51.73,5.485 70.167,16.456c18.436,10.97 30.55,24.645 36.34,41.025c5.79,16.38 8.685,41.864 8.685,76.451l-0,35.198Z" style="fill:#f0f0f0;fill-rule:nonzero;"/><path d="M1815.99,1414.99l160.445,-0l0,74.051l-64.224,0l0,70.166l60.11,0l0,70.395l-60.11,-0l0,81.365l70.624,-0l-0,74.051l-166.845,0l0,-370.028Z" style="fill:#f0f0f0;fill-rule:nonzero;"/><path d="M2231.73,1414.99l-0,370.028l-96.221,0l-0,-155.416l-28.798,-0l-0,155.416l-96.221,0l-0,-370.028l96.221,-0l-0,132.332l28.798,0l-0,-132.332l96.221,-0Z" style="fill:#f0f0f0;fill-rule:nonzero;"/><path d="M2490.22,1631.65c0,37.178 -0.876,63.5 -2.628,78.965c-1.752,15.466 -7.238,29.598 -16.456,42.397c-9.218,12.799 -21.675,22.627 -37.369,29.483c-15.694,6.857 -33.978,10.285 -54.853,10.285c-19.808,0 -37.597,-3.238 -53.367,-9.713c-15.77,-6.476 -28.455,-16.19 -38.054,-29.141c-9.599,-12.951 -15.313,-27.046 -17.142,-42.282c-1.828,-15.237 -2.742,-41.902 -2.742,-79.994l-0,-63.31c-0,-37.178 0.876,-63.5 2.628,-78.965c1.752,-15.466 7.238,-29.598 16.456,-42.397c9.218,-12.799 21.675,-22.627 37.369,-29.483c15.694,-6.857 33.978,-10.285 54.852,-10.285c19.808,-0 37.598,3.238 53.368,9.713c15.77,6.476 28.455,16.19 38.054,29.141c9.599,12.951 15.313,27.046 17.142,42.282c1.828,15.237 2.742,41.902 2.742,79.994l0,63.31Zm-96.221,-121.591c0,-17.218 -0.952,-28.226 -2.857,-33.026c-1.905,-4.8 -5.828,-7.199 -11.77,-7.199c-5.029,-0 -8.876,1.942 -11.542,5.828c-2.667,3.885 -4,15.351 -4,34.397l-0,172.787c-0,21.484 0.876,34.74 2.628,39.768c1.753,5.028 5.828,7.542 12.228,7.542c6.552,0 10.742,-2.895 12.57,-8.685c1.829,-5.79 2.743,-19.579 2.743,-41.368l0,-170.044Z" style="fill:#f0f0f0;fill-rule:nonzero;"/><path d="M2622.32,1414.99l0,295.977l58.51,-0l0,74.051l-154.731,0l0,-370.028l96.221,-0Z" style="fill:#f0f0f0;fill-rule:nonzero;"/><path d="M2704.15,1414.99l71.994,-0c46.473,-0 77.899,2.133 94.279,6.399c16.379,4.266 28.835,11.275 37.368,21.027c8.533,9.752 13.866,20.608 15.999,32.569c2.133,11.961 3.2,35.464 3.2,70.509l-0,129.59c-0,33.216 -1.562,55.424 -4.686,66.623c-3.123,11.2 -8.57,19.961 -16.341,26.284c-7.771,6.323 -17.37,10.742 -28.798,13.256c-11.428,2.514 -28.645,3.771 -51.653,3.771l-121.362,0l-0,-370.028Zm96.221,63.309l-0,243.41c13.865,-0 22.398,-2.781 25.598,-8.342c3.2,-5.562 4.8,-20.684 4.8,-45.368l-0,-143.761c-0,-16.76 -0.534,-27.502 -1.6,-32.226c-1.067,-4.723 -3.505,-8.19 -7.314,-10.399c-3.809,-2.209 -10.971,-3.314 -21.484,-3.314Z" style="fill:#f0f0f0;fill-rule:nonzero;"/><path d="M2962.87,1414.99l160.444,-0l0,74.051l-64.223,0l-0,70.166l60.11,0l-0,70.395l-60.11,-0l-0,81.365l70.623,-0l-0,74.051l-166.844,0l-0,-370.028Z" style="fill:#f0f0f0;fill-rule:nonzero;"/><path d="M3157.37,1414.99l68.109,-0c45.406,-0 76.147,1.752 92.222,5.256c16.075,3.505 29.178,12.457 39.311,26.855c10.132,14.399 15.199,37.369 15.199,68.909c-0,28.798 -3.581,48.149 -10.742,58.053c-7.162,9.904 -21.256,15.847 -42.283,17.827c19.046,4.724 31.845,11.047 38.397,18.97c6.552,7.924 10.628,15.199 12.228,21.827c1.6,6.628 2.4,24.874 2.4,54.739l-0,97.592l-89.365,0l0,-122.962c0,-19.808 -1.562,-32.073 -4.685,-36.797c-3.124,-4.723 -11.314,-7.085 -24.57,-7.085l0,166.844l-96.221,0l-0,-370.028Zm96.221,63.309l0,82.279c10.818,0 18.399,-1.485 22.741,-4.456c4.343,-2.972 6.514,-12.609 6.514,-28.912l0,-20.342c0,-11.732 -2.095,-19.427 -6.285,-23.084c-4.19,-3.657 -11.847,-5.485 -22.97,-5.485Z" style="fill:#f0f0f0;fill-rule:nonzero;"/></g></g></svg>