<?xml version="1.0" encoding="UTF-8"?>
<svg id="_图层_1" data-name="图层 1" xmlns="http://www.w3.org/2000/svg" viewBox="0 0 468.72 475.36">
  <path d="m148.92,452.32c-16,.52-29.9-3.98-40.93-16.17-1.5-1.66-3.91-2.66-6.08-3.51-10.36-4.09-19.1-10.16-23.83-20.57-4.78-10.52-8.83-21.37-13.59-31.9-1.3-2.86-3.64-5.61-6.19-7.47-8.54-6.22-17.58-11.75-26.07-18.02-8.66-6.41-13.86-15.09-15.81-25.91-.82-4.54-2.57-9.21-5.04-13.1-9.39-14.82-8.5-30.87-2.65-45.62,6.4-16.13,3.8-29.85-2.98-44.63-7.01-15.28-8.7-31.12,1.05-46.44,1.19-1.88,1.61-4.57,1.57-6.86-.24-12.64,4.91-23.03,13.66-31.51,6.86-6.64,14.32-12.73,21.96-18.47,4.96-3.73,7.57-8.15,9.01-14.14,3.16-13.14,5.16-26.86,13.86-37.94,2.8-3.56,5.93-7.38,9.78-9.47,7.68-4.17,13.43-10.31,19.88-15.88,5.21-4.5,12.06-7.97,18.75-9.67,8.39-2.13,17.43-3.14,26.04-2.52,11.56.83,19.56-4.12,27.64-11.33,6.78-6.05,14.59-11.06,22.38-15.81,3.62-2.21,8.37-3.99,12.47-3.73C217.32,2.48,230.64,0,244,0c14.2,0,25.78,8.5,36.24,16.99,8.53,6.93,17.07,7.92,27.14,6.55,13.98-1.9,27.89-1.62,40.94,4.97.89.45,1.96.75,2.61,1.44,7.95,8.32,18.3,12.92,27.95,18.69,11.6,6.93,16.53,19.25,19.73,31.23,4.07,15.21,13.12,24.46,26.35,31.73,10.84,5.95,21.13,13.66,25.24,26.15,3.35,10.16,6.59,20.13,11.39,29.86,5.93,12,2.79,25.14-.79,37.52-7.81,27.05-7.53,16.93,2.34,42.77,6.29,16.47,8.71,32.32-.63,48.38-1.03,1.78-1.2,4.22-1.28,6.37-.63,15.9-8.1,28.09-20.22,37.79-6.38,5.11-12.91,10.04-19.11,15.36-1.83,1.57-3.28,4.04-4.01,6.37-3.1,9.91-5.59,20-8.8,29.87-3.94,12.11-11.36,21.38-23.34,26.6-2.13.93-4.47,2.31-5.72,4.15-10.04,14.76-24.9,20.18-41.5,19.4-17.17-.8-31.42,3.16-43.61,15.8-4.97,5.16-12.03,8.37-18.32,12.17-7.25,4.38-15.24,3.91-23.28,3.11-3.51-.35-7.3-.75-10.6.19-13.53,3.83-26.17,1.75-38.02-5.2-7.9-4.64-15.3-10.14-23.13-14.91-2.36-1.44-5.44-2.44-8.17-2.39-8.16.13-16.31.87-24.47,1.37ZM20.67,312.79c-1.48,6.34,2.06,10.38,6.74,14.5,10.01,8.8,21.23,16.95,28.81,27.61,8.41,11.82,17.97,22.44,26.95,33.65,8.65,10.79,14.76,23.64,21.74,35.73,2.68,4.64,6.46,6.83,11.58,7.22,5.96.46,11.96.65,17.86,1.48,9.26,1.3,19.03,1.59,27.53,4.96,10.95,4.33,21.73,7.53,33.41,9.55,11.54,1.99,23.13,6.77,33.33,12.7,12.54,7.29,22.53,6.02,34-1.96,13.76-9.57,28.54-17.64,45.87-19.25,2.22-.21,4.32-1.8,6.48-2.75,8.53-3.75,16.82-8.28,25.66-11.03,9.67-3,19.8-4.67,29.82-6.31,5.94-.98,10.18-3.41,11.89-9.27,8.05-27.71,29.05-48.14,41.15-73.58.93-1.95,2.34-3.74,3.78-5.38,8.65-9.91,17.51-19.65,25.96-29.73,1.53-1.83,2.42-5.09,2.06-7.47-1.2-8.08-3.08-16.05-4.73-24.07-2.29-11.15-5.27-22.34-2.52-33.75,1.67-6.94.25-13.27-1.13-19.95-1.24-5.96-1.69-12.26-1.33-18.35.61-10.34,1.94-20.66,3.3-30.94.93-6.99-.08-12.83-5.98-17.62-7.42-6.03-14.25-12.78-21.54-18.97-13.45-11.41-19.38-28.63-32.81-40.6-9.68-8.63-15.27-22.2-21.65-34.12-4.4-8.22-10.23-11.57-19.35-12.21-18.83-1.33-38.02-1.73-54.87-12.35-1.56-.98-3.85-1.06-5.81-1.11-14.73-.35-28.11-5.19-41-11.93-4.94-2.58-10.3-4.35-15.27-6.89-5.2-2.66-9.67-1.91-14.64.92-12.1,6.9-24.04,14.4-36.87,19.64-12.37,5.06-26.32,6.15-37.42,14.68-.61.47-1.45.71-2.22.88-12.21,2.82-24.34,6.16-36.67,8.25-10.06,1.7-15.39,7.04-19.09,16.34-4.86,12.19-9.85,24.81-17.49,35.26-7.29,9.98-13.49,20.37-19.98,30.78-7.08,11.37-16.87,21.12-25.98,31.12-5.41,5.93-7.6,11.55-5.69,19.92,3.25,14.32,6.18,28.97,6.73,43.57.42,11.01-1.65,22.05,2.48,32.82.74,1.94.46,4.37.29,6.55-1.08,13.72-2.26,27.44-3.43,41.44Zm431.47-95.81c5.23-17.31,12.87-34.6,2.03-52.66-1.72,17.47-8.11,34.7-2.03,52.66Zm3.25,90.46c-12.23,12.55-26.43,23.53-32.57,40.96,14.25-10.94,30.87-19.98,32.57-40.96ZM282.11,23.86c-14.86-9.96-28.51-23.27-49.05-17.98,15.84,7.3,30.44,17.87,49.05,17.98Zm170.98,213.2c-3.33,17.91,3.47,34.42,7.28,51.34,9.76-18.79-.93-34.77-7.28-51.34ZM300.7,29.71c17.1,8.43,34.95,6.86,52.91,9.47-7.14-12.23-36.49-14.16-52.91-9.47ZM14.15,167.68c12.47-8.83,30.78-32.26,31.66-40.23-16.36,8.95-34.34,27.33-31.66,40.23Zm152.93,278.41c-7.7-6.24-35.99-10.93-52.22-9.22,15.9,14.28,34.38,9.92,52.22,9.22Zm21.19,5.41c14.75,10.52,28.75,23,49.01,17.79-16.01-6.88-30.65-17.5-49.01-17.79ZM167.68,30.14c18.41-3.72,31.89-15.12,47.54-23.47-15.39-2.57-39.53,9.17-47.54,23.47Zm218.24,382.34c14.04-3.18,23.54-27.59,25.19-47.38-12.94,13.76-17.06,31.07-25.19,47.38ZM14.91,310.71c2.7-17.3,7.27-34.46,2.22-51.95-6.08,17.11-11.7,34.25-2.22,51.95Zm432.26-163.73c1-13.95-18.48-30.9-36.99-38.67,8.17,16.84,24.19,25.38,36.99,38.67ZM8.85,185.63c-8.66,10.58-1.57,37.16,7.38,52.12,2.9-8.83.04-29.03-7.38-52.12ZM82.56,63.14c-12.79,4.34-26.44,31.29-23.77,45.78,12.46-12.94,16.56-29.69,23.77-45.78Zm172.22,404.77c13.75,3.62,40.01-9.47,47.02-23.19-17.91,3.47-31.12,14.69-47.02,23.19Zm117.19-43.6c-17.15,3.2-35.17,3.13-50.19,13.84,17.69-1.08,36.4,1.63,50.19-13.84Zm-2.94-376.32c7.29,19.22,22.09,41.25,29.65,43.76-6.82-16.7-10.19-34.98-29.65-43.76ZM71.34,381.66c3.6,19.25,16.98,44.67,29.01,43.53-9.05-14.55-14.81-30.9-29.01-43.53Zm-13.85-14.96c-1.5-8.17-22.17-29.34-36.34-37.87,4.19,20.46,20.89,27.95,36.34,37.87ZM97.78,50.59c16.37-3.07,33.47-3.31,48.02-12.77-17.29-.48-34.86-2.07-48.02,12.77Z"/>
  <path d="m178.26,300.41c-2.99,8.58-5.43,15.43-7.77,22.32-1.16,3.4-2.22,6.85-3.17,10.31-1.4,5.08-3.71,4.62-7.19,1.71-7.64-6.41-15.48-12.58-23.25-18.83-.75-.6-1.61-1.05-4.08-2.64,1.94,6.98,3.4,12.39,4.94,17.78,1.87,6.53,3.77,13.05,5.73,19.56.81,2.68,1.46,5.06-2.24,6.15-4.21,1.25-5.75-.94-6.78-4.52-4.85-16.9-9.81-33.77-14.72-50.66-.93-3.2-1.8-6.41-2.7-9.62.45-.41.89-.82,1.34-1.22,13.96,11.09,27.92,22.19,42.67,33.91,6.22-17.82,12.08-34.59,17.94-51.35.55.03,1.09.05,1.64.08,2.17,7.15,4.39,14.29,6.5,21.47,3.78,12.84,7.5,25.7,11.21,38.57.89,3.1,2.13,6.22-2.8,7.44-4.77,1.18-5.3-1.95-6.2-5.13-2.8-9.8-5.65-19.58-8.53-29.35-.42-1.43-1.15-2.77-2.52-5.98Z"/>
  <path d="m313.94,171.79c-.15,21.03-16.52,34.77-36.25,35.38-19.23.6-36.2-17.15-35.45-36.95.77-20.41,16.16-34.87,36.75-34.82,19.53.05,34.99,16.18,34.95,36.39Zm-62.3-1.24c-.02,15.84,11.17,27.67,26.03,27.56,15.02-.12,27.08-10.97,27.3-24.55.26-16.27-11.29-29.58-25.74-29.65-16.21-.08-27.57,10.89-27.59,26.64Z"/>
  <path d="m328.24,277.15c.07,13.7-8.36,25.97-21.67,30.77-6.93,2.5-14.15,4.18-21.19,6.41-3.46,1.1-5.34-.08-6.29-3.37-5.52-18.99-11.12-37.96-16.4-57.01-.36-1.31,1.3-4.33,2.61-4.76,7.95-2.61,15.93-5.54,24.15-6.8,24.02-3.67,37.22,14.79,38.8,34.76Zm-9.59,1.33c-.09-17.72-11.62-29.46-27.71-27.67-5.08.57-10.13,2.24-14.93,4.09-1.23.48-2.42,3.81-2,5.4,2.67,10.23,5.74,20.36,8.79,30.49,4.87,16.21,1.15,15.64,20.14,9.36,10.46-3.46,15.76-11.74,15.71-21.67Z"/>
  <path d="m378.78,175.73c-5.52,4.38-9.28,4.51-13.19.19-4.28-4.73-8.92-9.14-13.54-13.56-3.55-3.39-12.44-3.04-15.08.74-.83,1.18-.69,3.41-.31,4.99,1.2,5.05,2.72,10.02,4.11,15.02.89,3.19.2,5.41-3.35,6.39-3.55.99-4.63-1.1-5.43-3.83-5.52-18.98-11.1-37.95-16.45-56.97-.4-1.44.49-4.59,1.37-4.83,8.59-2.42,17.21-5.11,26.01-6.27,7.99-1.05,14.47,3.2,18.02,10.42,3.6,7.33,4.21,15.05-1.17,22.03-2.62,3.4-2.33,5.81.87,8.65,6.04,5.35,11.79,11.03,18.13,17.02Zm-24.29-35.99c.11-9.19-7.04-15.41-14.78-13.31-16.71,4.53-14.41,2.68-10.93,15.58,3.38,12.54,4.51,12.98,16.89,8.17,5.31-2.07,8.5-5.74,8.82-10.44Z"/>
  <path d="m221.69,260.5c15.93,19.01,31.86,38.02,48.05,57.33-5.34,3.66-9.24,4.38-12.48-.86-4.78-7.73-11.15-9.86-19.43-5.62-1.39.71-3,1.17-4.56,1.37-8.65,1.15-13.59,5.14-13.12,14.78.24,4.98-2.83,8.1-9.87,7.67,3.09-24.7,6.15-49.19,9.21-73.68.73-.33,1.46-.66,2.2-.99Zm4.32,18.8c-1.18,9.97-2.12,18-3.23,27.34,7.51-2.3,13.41-4.11,20.34-6.24-5.92-7.3-10.96-13.52-17.11-21.1Z"/>
  <path d="m328.64,232.18c1.12-.85,2.49-2.52,4.21-3.07,9.5-3.03,19.05-5.95,28.69-8.45,1.54-.4,3.68,1.47,5.54,2.29-1.11,1.94-1.79,5.01-3.41,5.63-6.31,2.43-12.87,4.29-19.44,5.93-3.9.98-4.54,2.89-3.7,6.5,3.28,14.12,3.2,14.13,17.22,9.88,3.63-1.1,7.22-2.54,10.93-3,1.49-.18,4.18,1.57,4.63,2.98.42,1.34-.97,4.44-2.26,4.93-5.95,2.26-12.09,4.11-18.27,5.66-4.34,1.09-5.17,3.17-4.13,7.36,4.22,17,4.11,17.03,20.74,12.14,3.25-.96,6.47-2.33,9.79-2.64,1.77-.17,3.71,1.53,5.58,2.38-.99,1.77-1.6,4.67-3.02,5.14-10.03,3.34-20.18,6.31-30.4,9.01-1.39.37-4.52-1.09-4.89-2.31-5.95-19.27-11.59-38.65-17.29-58-.11-.38-.17-.78-.52-2.37Z"/>
  <path d="m120.5,251.79c3.14-24.98,6.24-49.64,9.55-75.99,3.61,3.82,6.24,6.35,8.58,9.12,12.72,15.04,25.42,30.1,37.95,45.3,1.12,1.36,1.04,3.71,1.52,5.6-2.76.19-6.23,1.5-8.11.3-3.04-1.94-4.75-5.85-7.57-8.3-1.6-1.39-4.43-2.41-6.45-2.07-4.88.81-9.62,2.5-14.4,3.88-9.9,2.84-9.94,2.85-10.91,13.35-.49,5.28-2.01,9.37-10.17,8.82Zm33.26-34.56c-6.19-7.47-11.52-13.9-17.66-21.3-1.04,8.34-1.98,15.34-2.78,22.36-.41,3.61,1.44,4.68,4.72,3.7,4.72-1.41,9.44-2.85,15.71-4.75Z"/>
  <path d="m105.72,255.42c-1.36,1.02-2.96,3.1-4.78,3.31-1.33.15-3.8-1.88-4.28-3.41-4.78-15.24-9.47-30.52-13.71-45.92-1.51-5.49-3.78-7.4-9.16-4.91-1.96.91-4.26,1.81-6.31,1.63-1.87-.17-4.67-1.49-5.09-2.9-.42-1.43,1.18-4.76,2.57-5.21,11.37-3.72,22.89-6.97,34.37-10.33,2.98-.87,5.57-.72,6.69,2.89,1.19,3.84-1.29,4.86-4.19,5.79-12.23,3.92-12.11,3.91-8.34,16.34,3.82,12.61,7.39,25.31,11.06,37.97.33,1.15.57,2.32,1.17,4.76Z"/>
  <path d="m217.71,224.74c-1.01-1.22-2.82-2.5-3.33-4.18-5.67-18.92-11.1-37.91-16.68-56.86-.92-3.12-.14-5.61,3.07-5.63,1.91-.01,5.03,1.69,5.56,3.29,3.8,11.56,7.07,23.29,10.5,34.96,1.35,4.59,2.8,9.16,4.02,13.79.84,3.22,2.62,4.17,5.73,3.22,5.52-1.7,11.09-3.24,16.61-4.95,3.03-.94,5.51-1.01,6.58,2.73,1.02,3.59-1.29,4.51-3.99,5.3-8.98,2.64-17.95,5.32-28.08,8.33Z"/>
  <path d="m178.8,164.72c.61.8,2.03,1.9,2.45,3.3,5.75,19.08,11.37,38.2,17.03,57.3,1.05,3.53-.71,5.2-3.82,6.14-3.64,1.1-4.42-1.3-5.21-3.98-5.48-18.74-10.91-37.5-16.57-56.19-1.52-5.03,1.29-5.92,6.12-6.57Z"/>
</svg>