<svg id="Capa_1" enable-background="new 0 0 512 512" height="512" viewBox="0 0 512 512" width="512" xmlns="http://www.w3.org/2000/svg"><path d="m283.704 218.868-27.704-55.409-27.704 55.409-61.258 9.226 44.136 43.47-10.157 61.112 54.983-28.543 54.983 28.543-10.157-61.112 44.136-43.47zm-12.152 59.537-15.552-8.073-15.552 8.074 2.872-17.286-12.483-12.295 17.326-2.61 7.837-15.674 7.837 15.673 17.326 2.61-12.483 12.295z"/><path d="m339.027 62h-68.027v-62h-30v62h-68.027l-66.973 100.458v349.542h300v-349.542zm36.973 420h-240v-310.458l53.027-79.542h51.973v30h-30v30h90v-30h-30v-30h51.973l53.027 79.542z"/><path d="m166 362h180v30h-180z"/><path d="m166 422h180v30h-180z"/></svg>