<svg id="Capa_1" enable-background="new 0 0 512 512" height="512" viewBox="0 0 512 512" width="512" xmlns="http://www.w3.org/2000/svg"><path d="m391 62v303.359l45.365 96.221 44.635-96.049v-303.531zm60 30v30h-30v-30zm-30 240v-120h30v120zm0-150v-30h30v30zm14.548 207.498-12.964-27.498h26.657c-5.631 11.299-10.118 20.311-13.693 27.498z"/><path d="m271 0h-150v30h-90v482h330v-482h-90zm-120 30h90v30h-90zm180 30v422h-270v-422h60v30h150v-30z"/><path d="m91 302h30v30h-30z"/><path d="m91 362h30v30h-30z"/><path d="m151 302h150v30h-150z"/><path d="m91 422h30v30h-30z"/><path d="m151 422h150v30h-150z"/><path d="m151 362h150v30h-150z"/><path d="m223.705 158.868-27.705-55.409-27.705 55.408-61.258 9.226 44.136 43.47-10.157 61.113 54.984-28.543 54.984 28.544-10.157-61.113 44.136-43.47zm-12.153 59.537-15.552-8.073-15.552 8.074 2.873-17.286-12.484-12.296 17.327-2.61 7.836-15.673 7.836 15.673 17.327 2.61-12.484 12.296z"/></svg>