<svg id="Capa_1" enable-background="new 0 0 512 512" height="512" viewBox="0 0 512 512" width="512" xmlns="http://www.w3.org/2000/svg"><path d="m91 0v242h-60v180h90v-30h38.787l21.213 21.213v98.787h15c41.355 0 75-33.645 75-75v-15h90c0-25.22 0-111.976 0-150h40l80 60v-332zm0 392h-30v-120h30zm150 45c0 19.556-12.539 36.239-30 42.43v-78.643l-38.787-38.787h-51.213v-90h51.213l30-30h38.787zm90-165h-60v-30h60zm0 120h-60v-30h60zm-60-60v-30h60v30zm180-60-40-30h-50v-30c-20.748 0-153.942 0-171.213 0l-30 30h-38.787v-212h330z"/><path d="m151 60h210v30h-210z"/><path d="m391 60h30v30h-30z"/><path d="m151 120h30v30h-30z"/><path d="m211 120h210v30h-210z"/></svg>