<svg id="Capa_1" enable-background="new 0 0 512 512" height="512" viewBox="0 0 512 512" width="512" xmlns="http://www.w3.org/2000/svg"><path d="m242 0v122h-242v330l80-60h162v120h270v-512zm-172 362-40 30v-240h392v210zm382 30v-270h-180v-92h210v392h-210v-30zm-180 90v-30h210v30z"/><path d="m332 62h90v30h-90z"/><path d="m186.363 181.866c-17.232 0-29.19 7.986-37.212 17.062-8.022-9.075-19.979-17.062-37.211-17.062-29.277 0-52.21 24.333-52.21 55.395 0 32.605 25.35 54.002 60.437 83.616 19.273 16.268 19.461 16.644 28.984 24.838 9.755-8.392 9.73-8.587 28.993-24.844 32.536-27.46 60.431-49.807 60.431-83.61-.001-31.062-22.935-55.395-52.212-55.395zm-27.57 116.08c-3.149 2.658-6.353 5.362-9.643 8.159-3.287-2.795-6.488-5.497-9.635-8.153-33.624-28.38-49.787-42.815-49.787-60.69 0-12.62 7.629-25.395 22.21-25.395 13.737 0 20.207 14.085 22.352 20.141l3.54 9.992h22.642l3.539-9.993c2.145-6.056 8.615-20.141 22.353-20.141 14.582 0 22.211 12.775 22.211 25.395-.001 18.741-19.243 34.91-49.782 60.685z"/><path d="m272 182h120v30h-120z"/><path d="m272 242h120v30h-120z"/><path d="m272 302h120v30h-120z"/></svg>