<svg id="Capa_1" enable-background="new 0 0 511.943 511.943" height="512" viewBox="0 0 511.943 511.943" width="512" xmlns="http://www.w3.org/2000/svg"><path d="m281.097 357.41c-4.955 4.954-12.528 5.872-18.418 2.233-41.63-25.722-78.549-63.073-109.733-111.017-4.089-6.287-3.425-14.198 1.615-19.238l56.941-56.942-127.278-127.279-53.337 53.332c-31.001 31-39.632 78.204-21.475 117.463 57.897 125.178 155.923 227.878 287.267 287.234 38.354 17.334 84.788 8.401 115.52-22.33l53.863-53.862-127.28-127.278zm109.889 102.243c-21.933 21.933-54.868 28.446-81.952 16.205-152.936-69.114-232.543-186.329-272.393-272.49-12.9-27.892-6.688-61.511 15.458-83.655l32.124-32.12 84.853 84.853-35.728 35.729c-14.921 14.921-17.255 38.813-5.55 56.809 33.615 51.68 73.69 92.115 119.113 120.181 17.78 10.985 40.562 8.296 55.4-6.542l36.472-36.471 84.853 84.853z"/><path d="m376.941 0c-61.248 0-114.779 40.527-130.177 98.555-8.409 31.689-5.845 63.709 7.416 92.597 8.676 18.901 5.802 39.593-7.321 52.717l-26.131 26.131h150.517c74.552 0 138.64-57.554 140.645-131.267 2.065-75.934-58.912-138.733-134.949-138.733zm104.96 137.917c-1.531 56.289-51.17 102.083-110.656 102.083h-86.931c7.221-18.939 6.504-40.942-2.87-61.363-10.319-22.48-12.285-47.511-5.684-72.387 11.914-44.896 53.52-76.25 101.181-76.25 59.063 0 106.568 48.804 104.96 107.917z"/><path d="m301.941 119.999h150v30h-150z"/><path d="m331.941 59.999h90v30h-90z"/><path d="m331.941 179.999h90v30h-90z"/></svg>