<svg id="Capa_1" enable-background="new 0 0 512 512" height="512" viewBox="0 0 512 512" width="512" xmlns="http://www.w3.org/2000/svg"><path d="m392 271c66.168 0 120-53.832 120-120s-53.832-120-120-120-120 53.832-120 120 53.832 120 120 120zm0-210c49.626 0 90 40.374 90 90s-40.374 90-90 90-90-40.374-90-90 40.374-90 90-90z"/><path d="m437 361h-47.509c-6.968-34.192-37.271-60-73.491-60h-54.451c-26.058-20.038-91.284-38.987-139.017-31.241-24.687 4.006-43.5 14.74-55.013 31.241h-67.519v180h91v-30h421v-15c0-41.355-33.645-75-75-75zm-376 90h-31v-120h31zm30-30v-101.1c6.661-10.785 18.856-17.692 36.338-20.529 43.583-7.073 104.647 13.828 118.056 27.235l4.394 4.394h66.212c19.557 0 36.239 12.539 42.43 30h-117.43v30h196c19.557 0 36.239 12.539 42.43 30z"/><path d="m370.801 206.606c5.676-5.675 13.204-8.801 21.198-8.801 7.995 0 15.524 3.126 21.2 8.802l21.213-21.214c-11.342-11.341-26.404-17.587-42.412-17.588-16.008 0-31.07 6.246-42.412 17.588z"/><path d="m407 106h30v30h-30z"/><path d="m347 106h30v30h-30z"/></svg>