<svg id="Capa_1" enable-background="new 0 0 512 512" height="512" viewBox="0 0 512 512" width="512" xmlns="http://www.w3.org/2000/svg"><path d="m512 216.661-61-30v-125.661h-30v36.424c-94.059 54.695-201.026 83.576-309.928 83.576h-50.072v30h-61v90h61v30s56.693.031 60 .084v44.585l-.669 15.205 14.991.655c39.39 1.72 78.712 7.665 116.874 17.67l18.804 4.93v-61.998c52.327 14.055 102.79 34.993 150 62.446v36.423h30v-125.661l61-30zm-482 54.339v-30h31v30zm61 30v-90h20.072c86.108 0 171.058-17.233 249.928-50.287v190.575c-78.87-33.055-163.82-50.288-249.928-50.288zm150 74.582c-29.593-6.72-59.742-11.148-90-13.219v-30.055c30.339 1.97 60.417 6.186 90 12.564zm150-10.814v-217.536c10.119-4.86 20.123-9.988 30-15.383v248.302c-9.877-5.395-19.881-10.523-30-15.383zm91-88.107-31 15.246v-71.814l31 15.246z"/></svg>