<svg id="Capa_1" enable-background="new 0 0 512 512" height="512" viewBox="0 0 512 512" width="512" xmlns="http://www.w3.org/2000/svg"><path d="m512 347c0-90.981-74.019-165-165-165-6.016 0-12.023.335-17.984.982.644-5.908.984-11.906.984-17.982 0-90.981-74.019-165-165-165s-165 74.019-165 165c0 44.862 18.435 87.261 51.045 118.433l-37.254 46.567h151.209c6.076 0 12.074-.34 17.982-.984-.647 5.961-.982 11.967-.982 17.984 0 90.981 74.019 165 165 165h151.209l-37.254-46.567c32.61-31.172 51.045-73.571 51.045-118.433zm-435.791-47 16.581-20.725-11.697-9.372c-32.47-26.017-51.093-64.252-51.093-104.903 0-74.439 60.561-135 135-135s135 60.561 135 135-60.561 135-135 135zm359.582 182h-88.791c-74.439 0-135-60.561-135-135 0-8.243.757-16.457 2.229-24.501 51.458-16.119 92.151-56.811 108.269-108.269 8.045-1.472 16.258-2.23 24.501-2.23 74.439 0 135 60.561 135 135 0 40.651-18.623 78.886-51.093 104.903l-11.697 9.372z"/><path d="m332 332h30v30h-30z"/><path d="m272 332h30v30h-30z"/><path d="m392 332h30v30h-30z"/><path d="m201.363 89.866c-17.232 0-29.19 7.987-37.212 17.062-8.022-9.075-19.979-17.062-37.211-17.062-29.277 0-52.21 24.332-52.21 55.395 0 32.605 25.351 54.002 60.437 83.616 19.351 16.333 19.46 16.643 28.984 24.838 9.837-8.463 9.815-8.658 28.989-24.84 33.255-28.068 60.435-50.071 60.435-83.614-.001-31.063-22.935-55.395-52.212-55.395zm-27.574 116.083c-3.148 2.657-6.35 5.359-9.639 8.155-3.287-2.795-6.488-5.497-9.635-8.153-33.624-28.38-49.787-42.815-49.787-60.69 0-12.62 7.629-25.395 22.21-25.395 13.736 0 20.207 14.085 22.352 20.141l3.54 9.993h22.642l3.539-9.993c2.145-6.056 8.615-20.141 22.353-20.141 14.582 0 22.211 12.775 22.211 25.395-.001 18.629-18.913 34.631-49.786 60.688z"/></svg>