<svg id="Capa_1" enable-background="new 0 0 512 512" height="512" viewBox="0 0 512 512" width="512" xmlns="http://www.w3.org/2000/svg"><path d="m209.042 158.019 46.993-24.313 46.887 24.34-8.604-52.205 37.637-37.068-52.307-7.951-23.624-47.25-23.727 47.29-52.237 7.868 37.644 37.177zm43.097-69.807 3.838-7.649 3.791 7.582 8.459 1.286-6.039 5.947 1.392 8.444-7.522-3.905-7.6 3.932 1.39-8.361-6.089-6.014z"/><path d="m29.042 218.019 46.993-24.313 46.887 24.34-8.604-52.205 37.637-37.068-52.307-7.951-23.624-47.25-23.727 47.29-52.237 7.868 37.644 37.177zm43.097-69.807 3.838-7.649 3.791 7.582 8.459 1.286-6.039 5.947 1.392 8.444-7.522-3.905-7.6 3.932 1.39-8.361-6.089-6.014z"/><path d="m389.042 218.019 46.993-24.313 46.887 24.34-8.604-52.205 37.637-37.068-52.307-7.951-23.624-47.25-23.727 47.29-52.237 7.868 37.644 37.177zm43.097-69.807 3.838-7.649 3.791 7.582 8.459 1.286-6.039 5.947 1.392 8.444-7.522-3.905-7.6 3.932 1.39-8.361-6.089-6.014z"/><path d="m482 363.469v-105.041h-90v105.041c-14.386 10.824-24.768 26.694-28.491 44.959h-34.018c-3.723-18.265-14.105-34.135-28.491-44.959v-165.041h-90v165.041c-14.386 10.824-24.768 26.694-28.491 44.959h-34.018c-3.723-18.265-14.105-34.135-28.491-44.959v-105.041h-90v105.041c-18.204 13.697-30 35.475-30 59.959 0 41.355 33.645 75 75 75 36.219 0 66.522-25.808 73.491-60h34.018c6.968 34.192 37.272 60 73.491 60s66.522-25.808 73.491-60h34.018c6.968 34.192 37.272 60 73.491 60 41.355 0 75-33.645 75-75 0-24.484-11.796-46.262-30-59.959zm-422-75.041h30v61.509c-4.848-.988-9.864-1.509-15-1.509s-10.152.521-15 1.509zm15 180c-24.813 0-45-20.187-45-45s20.187-45 45-45 45 20.187 45 45-20.187 45-45 45zm166-240h30v121.509c-4.848-.988-9.864-1.509-15-1.509s-10.152.521-15 1.509zm15 240c-24.813 0-45-20.187-45-45s20.187-45 45-45 45 20.187 45 45-20.187 45-45 45zm166-180h30v61.509c-4.848-.988-9.864-1.509-15-1.509s-10.152.521-15 1.509zm15 180c-24.813 0-45-20.187-45-45s20.187-45 45-45 45 20.187 45 45-20.187 45-45 45z"/><path d="m60 408.428h30v30h-30z"/><path d="m241 408.428h30v30h-30z"/><path d="m422 408.428h30v30h-30z"/></svg>