<svg id="Capa_1" enable-background="new 0 0 512 512" height="512" viewBox="0 0 512 512" width="512" xmlns="http://www.w3.org/2000/svg"><g><path d="m512 472h-216v-151.254c0-35.701 29.045-64.746 64.746-64.746h86.509c35.7 0 64.745 29.045 64.745 64.746zm-176-40h136v-111.254c0-13.645-11.101-24.746-24.746-24.746h-86.509c-13.644 0-24.745 11.101-24.745 24.746zm-80 40h-256v-181.085c0-41.308 33.607-74.915 74.915-74.915h106.17c41.308 0 74.915 33.607 74.915 74.915zm-216-40h176v-141.085c0-19.252-15.663-34.915-34.915-34.915h-106.17c-19.252 0-34.915 15.663-34.915 34.915zm364-176c-37.495 0-68-30.505-68-68s30.505-68 68-68 68 30.505 68 68-30.505 68-68 68zm0-96c-15.439 0-28 12.561-28 28s12.561 28 28 28 28-12.561 28-28-12.561-28-28-28zm-276 56c-48.523 0-88-39.477-88-88s39.477-88 88-88 88 39.477 88 88-39.477 88-88 88zm0-136c-26.467 0-48 21.533-48 48s21.533 48 48 48 48-21.533 48-48-21.533-48-48-48z"/></g></svg>