<svg id="Capa_1" enable-background="new 0 0 512 512" height="512" viewBox="0 0 512 512" width="512" xmlns="http://www.w3.org/2000/svg"><g><path d="m256 432h-80v-40h80zm-20-352h-40v40h40zm140 372v-73.889l-40 26.666v47.223c0 11.028-8.972 20-20 20h-200c-11.028 0-20-8.972-20-20v-392c0-11.028 8.972-20 20-20h200c11.028 0 20 8.972 20 20v46h40v-46c0-30.503-22.886-55.745-52.386-59.5-2.496-.318-5.033-.5-7.614-.5h-200c-2.581 0-5.118.182-7.614.5-29.5 3.755-52.386 28.997-52.386 59.5v392c0 30.503 22.886 55.745 52.386 59.5 2.496.318 5.033.5 7.614.5h200c2.581 0 5.118-.182 7.614-.5 29.5-3.755 52.386-28.997 52.386-59.5zm80-68.63-80-53.333-80 53.333v-237.37h160zm-40-197.37h-80v122.63l40-26.667 40 26.667z"/></g></svg>