<svg id="Capa_1" enable-background="new 0 0 512 512" height="512" viewBox="0 0 512 512" width="512" xmlns="http://www.w3.org/2000/svg"><g><path d="m256 512c-68.38 0-132.667-26.629-181.02-74.98-48.351-48.353-74.98-112.64-74.98-181.02s26.629-132.667 74.98-181.02c48.353-48.351 112.64-74.98 181.02-74.98s132.667 26.629 181.02 74.98c48.351 48.353 74.98 112.64 74.98 181.02s-26.629 132.667-74.98 181.02c-48.353 48.351-112.64 74.98-181.02 74.98zm0-472c-57.696 0-111.938 22.468-152.735 63.265-40.797 40.797-63.265 95.04-63.265 152.735s22.468 111.938 63.265 152.735 95.039 63.265 152.735 63.265 111.938-22.468 152.735-63.265 63.265-95.04 63.265-152.735-22.468-111.938-63.265-152.735c-40.797-40.797-95.039-63.265-152.735-63.265zm0 393.333c-97.782 0-177.333-79.551-177.333-177.333s79.551-177.333 177.333-177.333 177.333 79.551 177.333 177.333-79.551 177.333-177.333 177.333zm-95.434-78.666c24.727 23.922 58.394 38.666 95.434 38.666 6.79 0 13.472-.496 20-1.452v-17.214c0-11.028-8.972-20-20-20zm-28.729-40h124.163c33.084 0 60 26.916 60 60v4.854c40.015-19.517 69.2-57.911 75.881-103.521h-135.771c-16.094 0-31.815-6.617-43.134-18.153-11.243-11.461-17.268-26.493-16.965-42.33.298-15.609 6.602-30.234 17.748-41.183 11.163-10.963 25.927-17.001 41.574-17.001h30c11.028 0 20-8.972 20-20v-9.505c-15.317-5.916-31.955-9.161-49.333-9.161-75.726 0-137.333 61.607-137.333 137.333 0 20.975 4.727 40.868 13.17 58.667zm123.496-117.334c-10.458 0-19.129 8.5-19.329 18.949-.096 5.009 1.866 9.821 5.526 13.552 3.844 3.919 9.159 6.166 14.58 6.166h135.771c-5.006-34.175-22.647-64.298-48.011-85.466-6.029 26.756-29.986 46.799-58.537 46.799z"/></g></svg>