<svg id="Capa_1" enable-background="new 0 0 512 512" height="512" viewBox="0 0 512 512" width="512" xmlns="http://www.w3.org/2000/svg"><g><path d="m256 512c-68.38 0-132.667-26.629-181.02-74.98-48.351-48.353-74.98-112.64-74.98-181.02v-20h40v20c0 57.695 22.468 111.938 63.265 152.735s95.04 63.265 152.735 63.265 111.938-22.468 152.735-63.265 63.265-95.04 63.265-152.735-22.468-111.938-63.265-152.735c-40.797-40.797-95.04-63.265-152.735-63.265h-20v-40h20c68.38 0 132.667 26.629 181.02 74.98 48.351 48.353 74.98 112.64 74.98 181.02s-26.629 132.667-74.98 181.02c-48.353 48.351-112.64 74.98-181.02 74.98zm20-136h-40v-100h-100v-40h100v-100h40v100h100v40h-100zm-227.211-184.182-36.956-15.308 15.309-36.955 36.954 15.308zm40.333-74.411-28.284-28.284 28.285-28.285 28.284 28.284zm65.741-53.311-15.308-36.954 36.955-15.309 15.308 36.956z"/></g></svg>