<svg id="Capa_1" enable-background="new 0 0 512 512" height="512" viewBox="0 0 512 512" width="512" xmlns="http://www.w3.org/2000/svg"><g><path d="m0 0v432h78.026c-1.319-6.466-2.026-13.151-2.026-20s.701-13.536 2.02-20h-38.02v-232h432v232h-58.622l-7.143 40h105.765v-432zm472 120h-432v-80h40v40h40v-40h40v40h40v-40h40v40h40v-40h192zm-116 392h-40v-40h-100v40h-40v-40c-33.084 0-60-26.916-60-60 0-26.075 16.719-48.318 40-56.573v-115.427h-40v-40h80v40h203.888l-27.143 152h-196.745c-11.028 0-20 8.972-20 20s8.972 20 20 20h180zm-160-160h143.255l12.857-72h-156.112z"/></g></svg>