<?xml version="1.0" encoding="iso-8859-1"?>
<!-- Generator: Adobe Illustrator 19.0.0, SVG Export Plug-In . SVG Version: 6.00 Build 0)  -->
<svg version="1.1" id="Capa_1" xmlns="http://www.w3.org/2000/svg" xmlns:xlink="http://www.w3.org/1999/xlink" x="0px" y="0px"
	 viewBox="0 0 512 512" style="enable-background:new 0 0 512 512;" xml:space="preserve">
<g>
	<g>
		<path d="M248.079,147.112c-82.962,0-150.456,67.495-150.456,150.457s67.494,150.456,150.456,150.456
			s150.457-67.494,150.457-150.456S331.04,147.112,248.079,147.112z M248.079,418.034c-66.425,0-120.465-54.04-120.465-120.465
			s54.04-120.466,120.465-120.466s120.466,54.041,120.466,120.466S314.504,418.034,248.079,418.034z"/>
	</g>
</g>
<g>
	<g>
		<path d="M263.074,256.224v-55.129h-29.991v55.129c-16.889,6.145-28.984,22.358-28.984,41.344
			c0,24.251,19.729,43.979,43.979,43.979c24.251,0,43.98-19.729,43.98-43.979C292.058,278.583,279.963,262.37,263.074,256.224z
			 M248.079,311.557c-7.714,0-13.989-6.275-13.989-13.989s6.275-13.989,13.989-13.989c7.714,0,13.989,6.275,13.989,13.989
			S255.793,311.557,248.079,311.557z"/>
	</g>
</g>
<g>
	<g>
		<path d="M478.353,135.649L410.964,68.26l-48.1,48.1c-18.311-11.649-38.217-20.375-59.135-25.957V0h-111.3v90.403
			c-35.97,9.599-68.948,28.51-95.977,55.539c-40.502,40.502-62.806,94.35-62.806,151.627s22.305,111.125,62.806,151.625
			C136.953,489.696,190.801,512,248.078,512s111.125-22.305,151.627-62.806c40.501-40.501,62.805-94.349,62.805-151.626
			c0-40.802-11.328-79.859-32.48-113.596L478.353,135.649z M410.964,110.673l24.976,24.976l-23.819,23.819
			c-3.93-4.652-8.06-9.17-12.416-13.526c-4.029-4.029-8.194-7.869-12.478-11.533L410.964,110.673z M273.738,29.991v54.664
			c-8.453-1.002-17.016-1.518-25.659-1.518c-8.643,0-17.206,0.517-25.659,1.518V29.991H273.738z M432.519,297.569
			c0,101.702-82.74,184.44-184.44,184.44s-184.44-82.74-184.44-184.44s82.74-184.441,184.44-184.441
			S432.519,195.868,432.519,297.569z"/>
	</g>
</g>
<g>
</g>
<g>
</g>
<g>
</g>
<g>
</g>
<g>
</g>
<g>
</g>
<g>
</g>
<g>
</g>
<g>
</g>
<g>
</g>
<g>
</g>
<g>
</g>
<g>
</g>
<g>
</g>
<g>
</g>
</svg>
