<svg id="Capa_1" enable-background="new 0 0 512 512" height="512" viewBox="0 0 512 512" width="512" xmlns="http://www.w3.org/2000/svg"><g><path d="m256 511.99-69.147-79.98h-186.853v-432h512v432h-186.853zm-216-119.98h165.147l50.853 58.82 50.853-58.82h165.147v-352h-432zm352-76h-272v-40h58.067c-11.365-15.772-18.067-35.119-18.067-56v-104h212c33.084 0 60 26.916 60 60s-26.916 60-60 60h-21.333c-2.482 14.735-8.335 28.345-16.734 40h58.067zm-192-160v64c0 30.879 25.122 56 56 56s56-25.121 56-56v-64zm152 40h20c11.028 0 20-8.972 20-20s-8.972-20-20-20h-20z"/></g></svg>