<svg id="Capa_1" enable-background="new 0 0 512 512" height="512" viewBox="0 0 512 512" width="512" xmlns="http://www.w3.org/2000/svg"><g><path d="m401.403 186.729-9.542 9.542 64.498 43.729-200.359 135.837-200.359-135.837 64.499-43.728-9.543-9.542c-6.469-6.469-12.128-13.446-16.981-20.802l-93.616 63.468v282.604h512v-282.604l-93.616-63.469c-4.853 7.356-10.512 14.333-16.981 20.802zm70.597 285.271h-432v-194.277l216 146.44 216-146.44zm-216-196.437-117.119-117.118c-36.188-36.188-36.188-95.072 0-131.26 31.779-31.778 81.058-35.649 117.102-11.618 15.121-10.127 32.896-15.567 51.505-15.567 24.792 0 48.1 9.655 65.63 27.185h.001c36.188 36.188 36.188 95.072 0 131.26zm-51.488-235.538c-13.525 0-27.05 5.148-37.347 15.444-20.592 20.593-20.592 54.099.001 74.692l88.834 88.834 88.835-88.834c20.592-20.593 20.592-54.099-.001-74.692-9.976-9.975-23.238-15.469-37.346-15.469s-27.371 5.494-37.346 15.469l-14.142 14.142-14.142-14.142c-10.296-10.296-23.821-15.444-37.346-15.444z"/></g></svg>