<svg id="Capa_1" enable-background="new 0 0 512 512" height="512" viewBox="0 0 512 512" width="512" xmlns="http://www.w3.org/2000/svg"><g><path d="m410.645 40h101.355v472h-512v-472h101.356c-13.576 19.035-20.02 34.927-21.473 38.766l-.467 1.234h-39.416v40h39.416l.467 1.235c1.453 3.838 7.897 19.73 21.472 38.765h-61.355v312h432v-312h-61.356c13.576-19.035 20.02-34.927 21.472-38.766l.467-1.234h39.417v-40h-39.416l-.467-1.235c-1.453-3.839-7.897-19.73-21.472-38.765zm-234.645 320c-33.084 0-60-26.916-60-60s26.916-60 60-60 60 26.916 60 60-26.916 60-60 60zm20-60c0-11.028-8.972-20-20-20s-20 8.972-20 20 8.972 20 20 20 20-8.972 20-20zm236 92h-120v40h120zm-160 40v-12c0-33.084-26.916-60-60-60h-36-36c-33.084 0-60 26.916-60 60v12h40v-12c0-11.028 8.972-20 20-20h72c11.028 0 20 8.972 20 20v12zm160-120h-120v40h120zm0-80h-120v40h120zm-67.773-78.308c21.26-22.637 30.112-45.646 30.479-46.614l2.678-7.078-2.678-7.078c-.366-.969-9.219-23.978-30.479-46.614-28.453-30.295-65.877-46.308-108.227-46.308s-79.774 16.013-108.227 46.308c-21.26 22.637-30.112 45.646-30.479 46.614l-2.678 7.078 2.678 7.078c.366.969 9.219 23.978 30.479 46.614 28.453 30.295 65.877 46.308 108.227 46.308s79.774-16.013 108.227-46.308zm-168.171-96.301c-.037.865-.056 1.735-.056 2.609 0 33.084 26.916 60 60 60s60-26.916 60-60c0-.874-.019-1.744-.056-2.609 20.886 13.833 32.734 32.49 38.028 42.609-9.099 17.391-37.56 60-97.972 60-60.462 0-88.92-42.68-97.976-59.993 5.293-10.118 17.141-28.779 38.032-42.616zm79.944 2.609c0 11.028-8.972 20-20 20s-20-8.972-20-20 8.972-20 20-20 20 8.972 20 20z"/></g></svg>