<?xml version="1.0" encoding="iso-8859-1"?>
<!-- Generator: Adobe Illustrator 19.0.0, SVG Export Plug-In . SVG Version: 6.00 Build 0)  -->
<svg version="1.1" id="Capa_1" xmlns="http://www.w3.org/2000/svg" xmlns:xlink="http://www.w3.org/1999/xlink" x="0px" y="0px"
	 viewBox="0 0 512 512" style="enable-background:new 0 0 512 512;" xml:space="preserve">
<g>
	<g>
		<path d="M441.5,50.67V0h-85.75v50.67h-56.87V0h-85.76v50.67h-56.87V0H70.5v50.67H0V512h512V50.67H441.5z M385.75,30h25.75v71.67
			h-25.75V30z M243.12,30h25.76v71.67h-25.76V30z M100.5,30h25.75v71.67H100.5V30z M482,482H30V195.46h452V482z M482,165.46H30
			V80.67h40.5v51h85.75v-51h56.87v51h85.76v-51h56.87v51h85.75v-51H482V165.46z"/>
	</g>
</g>
<g>
	<g>
		<path d="M77.75,238v202.33h356.5V238H77.75z M160,410.33h-52.25v-56.167H160V410.33z M160,324.163h-52.25V268H160V324.163z
			 M240.833,410.33H190v-56.167h50.833V410.33z M240.833,324.163H190V268h50.833V324.163z M321.667,410.33h-50.834v-56.167h50.834
			V410.33z M321.667,324.163h-50.834V268h50.834V324.163z M404.25,410.33h-52.583v-56.167h52.583V410.33z M404.25,324.163h-52.583
			V268h52.583V324.163z"/>
	</g>
</g>
<g>
</g>
<g>
</g>
<g>
</g>
<g>
</g>
<g>
</g>
<g>
</g>
<g>
</g>
<g>
</g>
<g>
</g>
<g>
</g>
<g>
</g>
<g>
</g>
<g>
</g>
<g>
</g>
<g>
</g>
</svg>
