<svg id="Capa_1" enable-background="new 0 0 512.084 512.084" height="512" viewBox="0 0 512.084 512.084" width="512" xmlns="http://www.w3.org/2000/svg"><g><path d="m413.031 512.084-28.284-28.283 50.711-50.712h-255.416c-77.196 0-140-62.804-140-140v-37.047h40v37.047c0 55.141 44.86 100 100 100h255.416l-50.711-50.71 28.284-28.285 98.995 98.995zm59.011-256.042h-40v-37.047c0-55.141-44.86-100-100-100h-255.416l50.711 50.71-28.284 28.285-98.995-98.995 98.995-98.995 28.284 28.283-50.711 50.712h255.416c77.196 0 140 62.804 140 140z"/></g></svg>