<?xml version="1.0" encoding="iso-8859-1"?>
<!-- Generator: Adobe Illustrator 19.0.0, SVG Export Plug-In . SVG Version: 6.00 Build 0)  -->
<svg version="1.1" id="Capa_1" xmlns="http://www.w3.org/2000/svg" xmlns:xlink="http://www.w3.org/1999/xlink" x="0px" y="0px"
	 viewBox="0 0 511.999 511.999" style="enable-background:new 0 0 511.999 511.999;" xml:space="preserve">
<g>
	<g>
		<path d="M388.145,299.86c29.16-31.868,46.979-74.279,46.979-120.778C435.124,80.336,354.789,0,256.043,0
			S76.961,80.336,76.961,179.082c0,46.692,17.969,89.261,47.346,121.173L51.619,454.712l73.892,0.966l47.84,56.321l72.535-154.131
			c3.363,0.189,6.747,0.294,10.157,0.294c3.409,0,6.794-0.105,10.157-0.294l72.535,154.131l47.84-56.321l73.805-0.965
			L388.145,299.86z M166.05,457.077l-26.51-31.211l-40.947-0.536l48.904-103.917c19.664,15.032,42.517,26.091,67.356,31.96
			L166.05,457.077z M256.043,328.17c-82.208,0-149.09-66.881-149.09-149.089c0-82.208,66.881-149.09,149.09-149.09
			c82.207,0,149.089,66.881,149.089,149.09S338.25,328.17,256.043,328.17z M372.545,425.867l-26.51,31.211l-48.803-103.704
			c25-5.907,47.987-17.07,67.737-32.252l48.609,104.208L372.545,425.867z"/>
	</g>
</g>
<g>
	<g>
		<path d="M372.816,142.657l-80.689-11.724l-36.086-73.117l-36.085,73.117l-80.689,11.724l58.387,56.913l-13.783,80.363
			l72.17-37.942l72.17,37.942l-13.783-80.363L372.816,142.657z M288.379,225.108l-32.337-17.001l-32.338,17.001l6.176-36.008
			l-26.161-25.5l36.153-5.254l16.169-32.761l16.169,32.761l36.153,5.254l-26.161,25.5L288.379,225.108z"/>
	</g>
</g>
<g>
</g>
<g>
</g>
<g>
</g>
<g>
</g>
<g>
</g>
<g>
</g>
<g>
</g>
<g>
</g>
<g>
</g>
<g>
</g>
<g>
</g>
<g>
</g>
<g>
</g>
<g>
</g>
<g>
</g>
</svg>
