<?xml version="1.0" encoding="iso-8859-1"?>
<!-- Generator: Adobe Illustrator 19.0.0, SVG Export Plug-In . SVG Version: 6.00 Build 0)  -->
<svg version="1.1" id="Capa_1" xmlns="http://www.w3.org/2000/svg" xmlns:xlink="http://www.w3.org/1999/xlink" x="0px" y="0px"
	 viewBox="0 0 512 512" style="enable-background:new 0 0 512 512;" xml:space="preserve">
<g>
	<g>
		<path d="M437.02,74.981C388.667,26.629,324.38,0,256,0S123.332,26.629,74.98,74.981C26.629,123.333,0,187.62,0,256
			s26.629,132.668,74.98,181.02C123.332,485.371,187.62,512,256,512s132.667-26.629,181.02-74.98
			C485.371,388.668,512,324.38,512,256S485.371,123.333,437.02,74.981z M256,482C131.383,482,30,380.617,30,256S131.383,30,256,30
			s226,101.383,226,226S380.617,482,256,482z"/>
	</g>
</g>
<g>
	<g>
		<path d="M256,67C151.785,67,67,151.785,67,256s84.785,189,189,189s189-84.785,189-189S360.215,67,256,67z M256,415
			c-87.673,0-159-71.327-159-159S168.327,97,256,97s159,71.327,159,159S343.673,415,256,415z"/>
	</g>
</g>
<g>
	<g>
		<path d="M352.998,240.48c-6.684-41.931-39.994-75.101-81.998-81.565V127h-30v31.915c-42.004,6.464-75.314,39.634-81.999,81.565
			H127.52v30h31.32c6.295,42.422,39.809,76.088,82.16,82.605v30.875h30v-30.875c42.35-6.517,75.864-40.183,82.159-82.605h31.321v-30
			H352.998z M241,322.547c-25.77-5.806-46.059-26.224-51.668-52.067H241V322.547z M241,240.48h-51.427
			c5.922-25.349,26.004-45.299,51.427-51.027V240.48z M271,189.453c25.422,5.728,45.504,25.678,51.427,51.027H271V189.453z
			 M271,322.547V270.48h51.667C317.059,296.323,296.77,316.741,271,322.547z"/>
	</g>
</g>
<g>
</g>
<g>
</g>
<g>
</g>
<g>
</g>
<g>
</g>
<g>
</g>
<g>
</g>
<g>
</g>
<g>
</g>
<g>
</g>
<g>
</g>
<g>
</g>
<g>
</g>
<g>
</g>
<g>
</g>
</svg>
