<?xml version="1.0" encoding="iso-8859-1"?>
<!-- Generator: Adobe Illustrator 19.0.0, SVG Export Plug-In . SVG Version: 6.00 Build 0)  -->
<svg version="1.1" id="Capa_1" xmlns="http://www.w3.org/2000/svg" xmlns:xlink="http://www.w3.org/1999/xlink" x="0px" y="0px"
	 viewBox="0 0 512 512" style="enable-background:new 0 0 512 512;" xml:space="preserve">
<g>
	<g>
		<path d="M427.689,343.67c-25.652,0-48.645,11.549-64.095,29.704l-155.629-71.797c6.419-13.874,10.009-29.313,10.009-45.578
			c0-16.775-3.815-32.675-10.618-46.882l155.268-71.63c15.448,18.816,38.877,30.842,65.066,30.842
			c46.409,0,84.165-37.756,84.165-84.165C511.853,37.756,474.098,0,427.689,0s-84.165,37.756-84.165,84.165
			c0,9.455,1.59,18.54,4.478,27.03l-157.447,72.636c-19.968-22.523-49.1-36.745-81.496-36.745
			C49.004,147.086,0.145,195.944,0.145,256c0,60.056,48.858,108.914,108.914,108.914c32.935,0,62.5-14.696,82.488-37.872
			l156.92,72.392c-3.193,8.878-4.943,18.438-4.943,28.401c0,46.409,37.756,84.165,84.165,84.165s84.165-37.756,84.165-84.165
			C511.853,381.426,474.098,343.67,427.689,343.67z M427.689,30c29.867,0,54.165,24.298,54.165,54.165s-24.298,54.165-54.165,54.165
			s-54.165-24.298-54.165-54.165S397.822,30,427.689,30z M109.059,334.914c-43.513,0-78.914-35.4-78.914-78.914
			c0-43.514,35.4-78.914,78.914-78.914c43.514,0,78.914,35.4,78.914,78.914C187.973,299.514,152.572,334.914,109.059,334.914z
			 M427.689,482c-29.867,0-54.165-24.298-54.165-54.165s24.298-54.165,54.165-54.165s54.165,24.298,54.165,54.165
			S457.556,482,427.689,482z"/>
	</g>
</g>
<g>
</g>
<g>
</g>
<g>
</g>
<g>
</g>
<g>
</g>
<g>
</g>
<g>
</g>
<g>
</g>
<g>
</g>
<g>
</g>
<g>
</g>
<g>
</g>
<g>
</g>
<g>
</g>
<g>
</g>
</svg>
