<?xml version="1.0" encoding="iso-8859-1"?>
<!-- Generator: Adobe Illustrator 19.0.0, SVG Export Plug-In . SVG Version: 6.00 Build 0)  -->
<svg version="1.1" id="Capa_1" xmlns="http://www.w3.org/2000/svg" xmlns:xlink="http://www.w3.org/1999/xlink" x="0px" y="0px"
	 viewBox="0 0 512 512" style="enable-background:new 0 0 512 512;" xml:space="preserve">
<g>
	<g>
		<rect x="240.83" y="178.28" width="30.333" height="30.333"/>
	</g>
</g>
<g>
	<g>
		
			<rect x="325.666" y="201.703" transform="matrix(0.5294 -0.8484 0.8484 0.5294 -23.588 391.2175)" width="30.334" height="30.334"/>
	</g>
</g>
<g>
	<g>
		
			<rect x="378.709" y="262.452" transform="matrix(0.8982 -0.4395 0.4395 0.8982 -81.9347 201.3672)" width="30.332" height="30.332"/>
	</g>
</g>
<g>
	<g>
		
			<rect x="391.596" y="342.077" transform="matrix(0.1026 -0.9947 0.9947 0.1026 9.6686 725.2045)" width="30.332" height="30.332"/>
	</g>
</g>
<g>
	<g>
		
			<rect x="156.004" y="201.716" transform="matrix(0.8484 -0.5294 0.5294 0.8484 -88.862 123.4993)" width="30.334" height="30.334"/>
	</g>
</g>
<g>
	<g>
		
			<rect x="102.933" y="262.471" transform="matrix(0.4395 -0.8982 0.8982 0.4395 -183.1905 261.6917)" width="30.332" height="30.332"/>
	</g>
</g>
<g>
	<g>
		
			<rect x="90.069" y="342.073" transform="matrix(0.9947 -0.1026 0.1026 0.9947 -36.0983 12.6828)" width="30.332" height="30.332"/>
	</g>
</g>
<g>
	<g>
		<path d="M0,0v512h512V0H0z M482,482H30V138h452V482z M482,108H30V30h452V108z"/>
	</g>
</g>
<g>
	<g>
		<rect x="318.33" y="52.667" width="30.333" height="30.333"/>
	</g>
</g>
<g>
	<g>
		<rect x="372" y="52.667" width="30.333" height="30.333"/>
	</g>
</g>
<g>
	<g>
		<rect x="425.67" y="52.667" width="30.333" height="30.333"/>
	</g>
</g>
<g>
	<g>
		<path d="M271,359.46V256h-30v103.46c-18.674,6.283-32.167,23.943-32.167,44.707c0,26.008,21.159,47.166,47.167,47.166
			s47.166-21.158,47.166-47.166C303.166,383.403,289.674,365.742,271,359.46z M256,421.333c-9.466,0-17.167-7.7-17.167-17.166
			S246.534,387,256,387s17.167,7.701,17.167,17.167S265.466,421.333,256,421.333z"/>
	</g>
</g>
<g>
</g>
<g>
</g>
<g>
</g>
<g>
</g>
<g>
</g>
<g>
</g>
<g>
</g>
<g>
</g>
<g>
</g>
<g>
</g>
<g>
</g>
<g>
</g>
<g>
</g>
<g>
</g>
<g>
</g>
</svg>
