<?xml version="1.0" encoding="iso-8859-1"?>
<!-- Generator: Adobe Illustrator 19.0.0, SVG Export Plug-In . SVG Version: 6.00 Build 0)  -->
<svg version="1.1" id="Capa_1" xmlns="http://www.w3.org/2000/svg" xmlns:xlink="http://www.w3.org/1999/xlink" x="0px" y="0px"
	 viewBox="0 0 512 512" style="enable-background:new 0 0 512 512;" xml:space="preserve">
<g>
	<g>
		<path d="M383.716,221.521V150.29l-24.156-3.697c-0.782-2.065-1.627-4.107-2.532-6.119l14.465-19.693l-50.367-50.368
			l-19.692,14.466c-2.014-0.905-4.055-1.749-6.121-2.533l-3.697-24.156h-71.23l-3.697,24.156c-2.066,0.784-4.107,1.628-6.121,2.533
			l-19.692-14.466l-50.367,50.368l14.464,19.693c-0.905,2.013-1.749,4.055-2.532,6.119l-24.156,3.697v71.231l24.156,3.697
			c0.783,2.065,1.627,4.107,2.532,6.119l-14.464,19.692l50.367,50.367l19.693-14.464c2.013,0.904,4.054,1.749,6.12,2.532
			l3.697,24.156h71.23l3.697-24.156c2.066-0.783,4.107-1.628,6.12-2.532l19.693,14.464l50.367-50.367l-14.465-19.692
			c0.905-2.013,1.749-4.055,2.532-6.119L383.716,221.521z M336.232,198.277l-2.617,9.38c-1.731,6.201-4.203,12.178-7.349,17.763
			l-4.777,8.482l10.367,14.113l-13.746,13.747l-14.113-10.367l-8.481,4.776c-5.584,3.145-11.561,5.617-17.766,7.35l-9.378,2.618
			l-2.652,17.323h-19.44l-2.652-17.323l-9.378-2.618c-6.204-1.733-12.182-4.205-17.766-7.35l-8.481-4.776l-14.113,10.367
			l-13.746-13.747l10.367-14.113l-4.777-8.482c-3.146-5.585-5.618-11.562-7.349-17.763l-2.617-9.38l-17.324-2.651v-19.44
			l17.324-2.651l2.617-9.38c1.731-6.201,4.203-12.177,7.349-17.763l4.777-8.482l-10.367-14.113l13.746-13.746l14.113,10.367
			l8.482-4.777c5.582-3.145,11.56-5.617,17.764-7.35l9.378-2.618l2.652-17.322h19.439l2.652,17.322l9.378,2.618
			c6.205,1.733,12.182,4.205,17.764,7.35l8.482,4.777l14.114-10.367l13.746,13.746l-10.367,14.113l4.777,8.482
			c3.146,5.586,5.618,11.562,7.349,17.763l2.617,9.38l17.324,2.651v19.44h0.002L336.232,198.277z"/>
	</g>
</g>
<g>
	<g>
		<path d="M293.763,148.142c-20.822-20.824-54.704-20.823-75.526,0c-20.823,20.823-20.823,54.705,0,75.527
			c10.411,10.412,24.087,15.617,37.763,15.617c13.676,0,27.352-5.205,37.763-15.617
			C314.586,202.846,314.586,168.964,293.763,148.142z M272.437,202.343c-9.063,9.064-23.81,9.064-32.874,0
			c-9.063-9.064-9.063-23.811,0-32.875c4.532-4.532,10.483-6.797,16.437-6.797c5.952,0,11.905,2.266,16.437,6.797
			C281.5,178.532,281.5,193.279,272.437,202.343z"/>
	</g>
</g>
<g>
	<g>
		<path d="M256,0C152.768,0,68.784,83.985,68.784,187.217c0,58.611,29.927,129.515,88.949,210.743
			c43.26,59.536,85.874,101.852,87.667,103.624L255.937,512l10.6-10.354c1.794-1.753,44.433-43.599,87.712-102.907
			c59.034-80.9,88.967-152.066,88.967-211.523C443.216,83.985,359.232,0,256,0z M256.057,469.203
			C219.27,430.137,98.944,294.161,98.944,187.217C98.944,100.616,169.399,30.16,256,30.16s157.056,70.455,157.056,157.056
			C413.056,295.748,292.894,430.462,256.057,469.203z"/>
	</g>
</g>
<g>
</g>
<g>
</g>
<g>
</g>
<g>
</g>
<g>
</g>
<g>
</g>
<g>
</g>
<g>
</g>
<g>
</g>
<g>
</g>
<g>
</g>
<g>
</g>
<g>
</g>
<g>
</g>
<g>
</g>
</svg>
