<?xml version="1.0" encoding="iso-8859-1"?>
<!-- Generator: Adobe Illustrator 19.0.0, SVG Export Plug-In . SVG Version: 6.00 Build 0)  -->
<svg version="1.1" id="Capa_1" xmlns="http://www.w3.org/2000/svg" xmlns:xlink="http://www.w3.org/1999/xlink" x="0px" y="0px"
	 viewBox="0 0 512 512" style="enable-background:new 0 0 512 512;" xml:space="preserve">
<g>
	<g>
		<path d="M455.708,56.337C419.38,20.008,371.076,0,319.7,0c-51.377,0-99.68,20.008-136.008,56.337
			c-36.33,36.329-56.337,84.631-56.337,136.008c0,36.32,10.01,71.097,28.707,101.2L23.163,401.166
			C9.448,412.271,1.054,428.747,0.13,446.369c-0.924,17.623,5.702,34.886,18.181,47.364C30.021,505.443,45.943,512,62.424,512
			c1.081,0,2.165-0.028,3.25-0.085c17.623-0.924,34.099-9.318,45.206-23.032l107.647-132.932
			c30.876,19.096,66.019,28.65,101.172,28.65c49.249,0,98.516-18.753,136.008-56.246
			C530.704,253.358,530.704,131.332,455.708,56.337z M87.575,470.011c-5.851,7.226-14.185,11.472-23.47,11.958
			c-9.286,0.483-18.017-2.867-24.591-9.44c-6.573-6.574-9.926-15.307-9.439-24.592c0.486-9.284,4.733-17.618,11.958-23.468
			l77.995-63.161l30.707,30.707L87.575,470.011z M169.711,368.584l-26.25-26.25l30.371-24.595c3.139,3.64,6.426,7.182,9.859,10.615
			c3.443,3.443,6.987,6.725,10.619,9.852L169.711,368.584z M434.505,307.151c-63.305,63.304-166.308,63.303-229.611,0
			c-30.666-30.666-47.554-71.438-47.554-114.805s16.888-84.14,47.554-114.805C235.56,46.876,276.332,29.986,319.7,29.986
			s84.139,16.888,114.805,47.554C497.809,140.844,497.809,243.847,434.505,307.151z"/>
	</g>
</g>
<g>
	<g>
		<path d="M411.442,100.603c-24.506-24.506-57.086-38.001-91.742-38.001s-67.238,13.496-91.743,38.001
			c-50.586,50.587-50.586,132.898,0,183.484c24.506,24.506,57.087,38.002,91.743,38.002s67.237-13.496,91.742-38.002
			C462.027,233.5,462.027,151.189,411.442,100.603z M390.238,262.884c-18.842,18.841-43.893,29.217-70.538,29.217
			c-26.646,0-51.698-10.376-70.539-29.217c-38.894-38.895-38.894-102.183,0-141.078c18.842-18.841,43.894-29.218,70.539-29.218
			c26.646,0,51.697,10.376,70.538,29.218C429.134,160.701,429.134,223.989,390.238,262.884z"/>
	</g>
</g>
<g>
</g>
<g>
</g>
<g>
</g>
<g>
</g>
<g>
</g>
<g>
</g>
<g>
</g>
<g>
</g>
<g>
</g>
<g>
</g>
<g>
</g>
<g>
</g>
<g>
</g>
<g>
</g>
<g>
</g>
</svg>
