<svg id="Capa_1" enable-background="new 0 0 512 512" height="512" viewBox="0 0 512 512" width="512" xmlns="http://www.w3.org/2000/svg"><g><path d="m512 512h-512v-512h512zm-472-40h432v-352h-248.361l-40-80h-143.639zm208.361-392h223.639v-40h-243.639zm87.639 345.282c-26.075 0-48.318-16.719-56.573-40h-46.854c-8.254 23.281-30.498 40-56.573 40-33.084 0-60-26.916-60-60s26.916-60 60-60c3.744 0 7.411.345 10.967 1.004l23.442-40.603c-8.98-10.491-14.409-24.105-14.409-38.965 0-33.084 26.916-60 60-60s60 26.916 60 60-26.916 60-60 60c-3.744 0-7.411-.345-10.967-1.004l-23.442 40.603c4.745 5.543 8.497 11.956 10.982 18.966h46.854c8.254-23.281 30.498-40 56.573-40 33.084 0 60 26.916 60 60s-26.916 59.999-60 59.999zm0-80c-11.028 0-20 8.972-20 20s8.972 20 20 20 20-8.972 20-20-8.972-20-20-20zm-160 0c-11.028 0-20 8.972-20 20s8.972 20 20 20 20-8.972 20-20-8.972-20-20-20zm80-138.564c-11.028 0-20 8.972-20 20s8.972 20 20 20 20-8.972 20-20-8.972-20-20-20z"/></g></svg>