<?xml version="1.0" encoding="iso-8859-1"?>
<!-- Generator: Adobe Illustrator 19.0.0, SVG Export Plug-In . SVG Version: 6.00 Build 0)  -->
<svg version="1.1" id="Capa_1" xmlns="http://www.w3.org/2000/svg" xmlns:xlink="http://www.w3.org/1999/xlink" x="0px" y="0px"
	 viewBox="0 0 511.998 511.998" style="enable-background:new 0 0 511.998 511.998;" xml:space="preserve">
<g>
	<g>
		<path d="M382.583,51.904C347.948,17.755,302.082-0.647,253.392,0.017c-46.809,0.663-91.001,19.348-124.434,52.614
			C95.523,85.9,76.62,129.998,75.73,176.802c-0.483,25.396,4.213,50.04,13.958,73.247c9.396,22.377,23.009,42.349,40.462,59.361
			c20.407,19.892,34.953,44.54,42.185,71.369v105.413h68.671v25.806h30v-25.806h68.659V380.814
			c7.175-26.993,21.496-51.436,41.528-70.766c35.538-34.294,55.11-80.371,55.11-129.745
			C436.304,131.658,417.226,86.059,382.583,51.904z M309.665,456.193h-107.33v-62.394h107.33V456.193z M360.362,288.46
			c-21.646,20.889-37.737,46.75-46.973,75.339H271v-97.056h19.773v-30H241v127.056h-42.41c-9.3-28.455-25.571-54.496-47.499-75.871
			c-30.053-29.295-46.165-68.558-45.367-110.556c1.522-80.119,67.957-146.223,148.093-147.357
			c40.602-0.57,78.832,14.786,107.704,43.252c28.879,28.473,44.783,66.486,44.783,107.036
			C406.304,221.46,389.988,259.871,360.362,288.46z"/>
	</g>
</g>
<g>
</g>
<g>
</g>
<g>
</g>
<g>
</g>
<g>
</g>
<g>
</g>
<g>
</g>
<g>
</g>
<g>
</g>
<g>
</g>
<g>
</g>
<g>
</g>
<g>
</g>
<g>
</g>
<g>
</g>
</svg>
