<svg id="Capa_1" enable-background="new 0 0 511.912 511.912" height="512" viewBox="0 0 511.912 511.912" width="512" xmlns="http://www.w3.org/2000/svg"><g><path d="m255.956 511.912-67.282-48.884h-83.165l-25.699-79.094-67.282-48.883 25.699-79.095-25.699-79.095 67.282-48.883 25.699-79.095h83.165l67.282-48.883 67.282 48.884h83.165l25.699 79.095 67.282 48.883-25.699 79.095 25.699 79.095-67.282 48.883-25.699 79.095h-83.165zm-121.385-88.884h67.1l54.285 39.44 54.285-39.44h67.1l20.736-63.815 54.284-39.441-20.734-63.815 20.734-63.815-54.284-39.441-20.736-63.815h-67.1l-54.285-39.44-54.285 39.44h-67.1l-20.736 63.815-54.284 39.441 20.734 63.815-20.734 63.815 54.284 39.441zm96.636-82.219-77.782-77.781 28.285-28.285 49.497 49.498 98.995-98.995 28.285 28.285z"/></g></svg>