<svg id="Capa_1" enable-background="new 0 0 512 512" height="512" viewBox="0 0 512 512" width="512" xmlns="http://www.w3.org/2000/svg"><g><path d="m252 452h-252v-140c0-44.112 35.888-80 80-80h92c44.112 0 80 35.888 80 80zm-212-40h172v-100c0-22.056-17.944-40-40-40h-92c-22.056 0-40 17.944-40 40zm362-46c-60.654 0-110-49.346-110-110s49.346-110 110-110 110 49.346 110 110-49.346 110-110 110zm-33.284-48.432c9.905 5.377 21.243 8.432 33.284 8.432 38.598 0 70-31.402 70-70 0-12.041-3.055-23.379-8.432-33.284zm33.284-131.568c-38.598 0-70 31.402-70 70 0 12.041 3.055 23.379 8.432 33.284l94.853-94.853c-9.906-5.376-21.244-8.431-33.285-8.431zm-276 46c-47.42 0-86-38.579-86-86s38.58-86 86-86 86 38.579 86 86-38.58 86-86 86zm0-132c-25.364 0-46 20.636-46 46s20.636 46 46 46 46-20.636 46-46-20.636-46-46-46z"/></g></svg>