<svg id="Capa_1" enable-background="new 0 0 511.999 511.999" height="512" viewBox="0 0 511.999 511.999" width="512" xmlns="http://www.w3.org/2000/svg"><g><path d="m256 511.999c-60.438 0-117.26-23.536-159.997-66.273-42.737-42.737-66.273-99.558-66.273-159.997 0-38.911 10.214-77.453 29.537-111.459l7.652-13.467 14.952 4.04c5.074 1.369 10.042.449 14.771-2.737 7.268-4.897 12.39-14.249 13.699-25.015 7.145-58.71 39.311-91.92 65.036-109.442 27.609-18.804 53.897-23.826 55.003-24.031l19.548-3.618 3.736 19.525c3.763 19.663 10.584 40.18 20.274 60.981 3.866 8.301 10.099 13.884 17.1 15.319 5.801 1.188 11.546-.585 16.618-5.127l26.296-23.552 11.678 4.93c1.893.799 11.864 5.347 22.373 16.46 9.488 10.035 21.543 27.871 25.083 55.853.564 4.465 2.145 12.303 6.376 14.642 6.073 3.354 18.562-.438 22.184-2.122l15.887-7.389 9.415 14.776c23.107 36.268 35.321 78.259 35.321 121.433 0 60.438-23.536 117.26-66.272 159.996-42.738 42.738-99.559 66.274-159.997 66.274zm-167.925-306.56c-12.033 25.062-18.345 52.567-18.345 80.29 0 102.709 83.561 186.27 186.27 186.27s186.27-83.561 186.27-186.27c0-30.488-7.391-60.249-21.489-86.928-11.515 2.315-26.822 2.889-40.663-4.76-10.333-5.71-23.356-18.088-26.714-44.632-2.112-16.698-8.614-27.101-14.276-33.198l-4.782 4.283c-14.458 12.949-33.17 18.242-51.339 14.516-19.535-4.005-36.056-17.714-45.326-37.613-7.6-16.315-13.676-32.575-18.156-48.569-23.556 9.912-62.389 34.876-69.474 93.096-2.731 22.45-14.051 41.897-31.055 53.354-9.504 6.404-20.111 9.842-30.921 10.161zm167.925 206.56c-53.249 0-96.57-43.321-96.57-96.57 0-35.544 13.32-66.901 38.521-90.682 18.509-17.466 36.889-24.692 38.923-25.459l19.711-7.426 6.264 19.665c1.141 3.102 6.565 14.226 13.792 15.536 7.955 1.44 17.803-2.252 19.812-3.244l13.787-6.803 10.12 11.573c1.314 1.505 32.21 37.407 32.21 86.839 0 53.25-43.321 96.571-96.57 96.571zm-19.812-167.002c-15.277 10.625-36.759 32.339-36.759 70.432 0 31.193 25.377 56.57 56.57 56.57s56.57-25.377 56.57-56.57c0-21.146-8.536-39.282-15.052-50.042-7.871 1.808-17.76 2.896-28.015 1.034-15.509-2.813-26.257-12.2-33.314-21.424z"/></g></svg>