<svg id="Capa_1" enable-background="new 0 0 512 512" height="512" viewBox="0 0 512 512" width="512" xmlns="http://www.w3.org/2000/svg"><g><path d="m425.797 79.976h86.203v352h-186.853l-69.147 79.981-69.147-79.98h-186.853v-352h86.203c-4.531 12.851-7.588 26.253-9.098 40h-37.105v272h165.147l50.853 58.82 50.853-58.82h165.147v-272h-37.105c-1.51-13.747-4.567-27.15-9.098-40.001zm-70.802 158.995c26.442-26.442 41.005-61.6 41.005-98.995s-14.562-72.553-41.005-98.995c-54.586-54.584-143.404-54.584-197.99 0-26.443 26.443-41.005 61.6-41.005 98.995s14.562 72.553 41.005 98.995l98.995 98.996zm-28.284-169.705c18.887 18.887 29.289 43.999 29.289 70.71s-10.402 51.823-29.289 70.711l-70.711 70.711-70.711-70.712c-18.887-18.886-29.289-43.999-29.289-70.71s10.402-51.823 29.289-70.71c18.888-18.888 44-29.29 70.711-29.29s51.823 10.403 70.711 29.29zm-10.711 70.71c0-33.084-26.916-60-60-60s-60 26.916-60 60 26.916 60 60 60 60-26.916 60-60zm-40 0c0 11.028-8.972 20-20 20s-20-8.972-20-20 8.972-20 20-20 20 8.972 20 20z"/></g></svg>