<svg id="Capa_1" enable-background="new 0 0 512 512" height="512" viewBox="0 0 512 512" width="512" xmlns="http://www.w3.org/2000/svg"><g><path d="m437.02 74.98c-48.353-48.351-112.64-74.98-181.02-74.98s-132.667 26.629-181.02 74.98c-48.351 48.353-74.98 112.64-74.98 181.02s26.629 132.667 74.98 181.02c48.353 48.351 112.64 74.98 181.02 74.98 52.438 0 102.849-15.747 145.781-45.538 9.075-6.297 11.327-18.758 5.03-27.833-6.296-9.075-18.76-11.326-27.833-5.03-36.205 25.122-78.73 38.401-122.978 38.401-52.365 0-100.438-18.731-137.871-49.845l50.219-50.219c3.989 1.45 8.128 2.583 12.387 3.367.901 11.687 7.346 21.993 17.625 27.952 5.573 3.231 11.694 4.847 17.817 4.847 6.061 0 12.124-1.583 17.657-4.752l46.739-26.762h36.569c42.953 0 77.898-34.998 77.898-78.017v-96.625c0-16.078-4.882-31.036-13.238-43.464l40.353-40.353c31.114 37.433 49.845 85.506 49.845 137.871 0 39.067-10.534 77.336-30.464 110.669-5.668 9.48-2.578 21.761 6.902 27.429 9.48 5.669 21.76 2.579 27.43-6.902 23.638-39.536 36.132-84.903 36.132-131.196 0-68.38-26.629-132.667-74.98-181.02zm-181.02-34.98c52.365 0 100.438 18.731 137.871 49.845l-42.184 42.184c-10.416-5.183-22.146-8.099-34.544-8.099h-122.286c-42.954 0-77.899 34.998-77.899 78.016v96.625c0 19.019 6.831 36.47 18.164 50.022l-45.278 45.278c-31.113-37.433-49.844-85.506-49.844-137.871 0-119.103 96.897-216 216-216zm-92.372 280.087c-4.205-6.122-6.67-13.536-6.67-21.517v-96.625c0-20.962 17.001-38.016 37.899-38.016h122.285c.859 0 1.712.029 2.557.086zm191.413-118.141v96.625c0 20.962-17.001 38.017-37.898 38.017h-41.89c-3.486 0-6.912.912-9.938 2.644l-44.688 25.588v-8.232c0-10.073-7.446-18.406-17.134-19.796l148.874-148.874c1.725 4.342 2.674 9.076 2.674 14.028z"/></g></svg>