<svg id="Capa_1" enable-background="new 0 0 512 512" height="512" viewBox="0 0 512 512" width="512" xmlns="http://www.w3.org/2000/svg"><g><g><path d="m256 0c-143.551 0-256 112.449-256 256s112.449 256 256 256 256-112.449 256-256-112.449-256-256-256zm0 40c53.206 0 101.344 18.313 138.604 49.112l-305.492 305.492c-30.799-37.26-49.112-85.398-49.112-138.604 0-121.122 94.878-216 216-216zm100 144.284v116.916c0 8.161-6.639 14.8-14.8 14.8h-54.568l-30.632 36.759-30.632-36.759h-1.083zm-100 287.716c-53.206 0-101.344-18.313-138.604-49.112l66.888-66.888h22.348l49.368 59.241 49.368-59.241h35.832c30.217 0 54.8-24.583 54.8-54.8v-130.4c0-7.681-1.584-15.113-4.571-21.945l31.459-31.459c30.799 37.26 49.112 85.398 49.112 138.604 0 121.122-94.878 216-216 216z"/><path d="m156 170.8c0-8.161 6.639-14.8 14.8-14.8h92.075v-40h-92.075c-30.217 0-54.8 24.583-54.8 54.8v92.075h40z"/></g></g></svg>