<svg id="Capa_1" enable-background="new 0 0 512 512" height="512" viewBox="0 0 512 512" width="512" xmlns="http://www.w3.org/2000/svg"><g><path d="m411.746 76.082h-98.955c.071-1.302.107-2.614.107-3.933-.001-39.783-32.366-72.149-72.149-72.149s-72.149 32.366-72.149 72.149c0 16.572 5.646 31.854 15.121 44.032-49.278 21.925-83.723 71.354-83.723 128.676v44.772c0 45.232-10.774 90.484-31.159 130.863l-11.148 22.083h-5.325c-11.046 0-20 8.954-20 20s8.954 20 20 20h168.383v9.425c0 11.046 8.954 20 20 20s20-8.954 20-20v-9.426h168.383c11.046 0 20-8.954 20-20s-8.954-20-20-20h-326.633l2.048-4.056c23.192-45.941 35.451-97.426 35.451-148.889v-44.772c0-55.554 45.196-100.75 100.75-100.75.655 0 1.311.006 1.966.019v79.861c0 32.39 22.738 59.562 53.066 66.354 1.522 9.714 7.259 18.164 15.986 23.223 5.152 2.986 10.811 4.48 16.471 4.48 4.845 0 9.692-1.095 14.222-3.285 1.351 17.69 4.124 35.271 8.294 52.517 2.214 9.157 10.401 15.304 19.424 15.304 1.556 0 3.137-.183 4.717-.564 10.736-2.596 17.335-13.404 14.739-24.141-5.173-21.393-7.901-43.374-8.119-65.382l.906-.519h29.326c37.434 0 67.888-30.499 67.888-67.986v-79.918c0-37.489-30.454-67.988-67.888-67.988zm-203.146-3.933c0-17.727 14.421-32.149 32.149-32.149s32.149 14.422 32.149 32.149c0 17.622-14.422 31.958-32.149 31.958s-32.149-14.336-32.149-31.958zm231.034 151.837c0 15.432-12.511 27.986-27.888 27.986h-34.647c-3.486 0-6.913.912-9.938 2.644l-31.786 18.2v-.844c0-11.046-8.954-20-20-20h-4.772c-15.378 0-27.889-12.554-27.889-27.986v-79.918c0-15.432 12.511-27.986 27.889-27.986h101.143c15.377 0 27.888 12.554 27.888 27.986z"/></g></svg>