<svg id="Capa_1" enable-background="new 0 0 512 512" height="512" viewBox="0 0 512 512" width="512" xmlns="http://www.w3.org/2000/svg"><g><g><path d="m432 68.696c4.142 0 7.5-3.358 7.5-7.5v-21.656c0-21.803-17.76-39.54-39.59-39.54h-287.82c-21.83 0-39.59 17.737-39.59 39.54v167.665c0 21.802 17.76 39.54 39.59 39.54h114.303l18.363 32.429c2.29 4.045 6.599 6.558 11.244 6.558s8.954-2.513 11.244-6.558l18.363-32.429h114.303c21.83 0 39.59-17.738 39.59-39.54v-109.544c0-4.142-3.358-7.5-7.5-7.5s-7.5 3.358-7.5 7.5v109.543c0 13.531-11.031 24.54-24.59 24.54h-115.615c-4.584 0-8.836 2.479-11.096 6.47l-17.199 30.374-17.199-30.373c-2.26-3.991-6.512-6.471-11.096-6.471h-115.615c-13.559 0-24.59-11.009-24.59-24.54v-167.664c0-13.532 11.031-24.54 24.59-24.54h287.82c13.559 0 24.59 11.008 24.59 24.54v21.656c0 4.142 3.358 7.5 7.5 7.5z"/><path d="m295 410h-4.348c4.917-6.422 7.848-14.442 7.848-23.137v-27.78c0-19.896-16.187-36.083-36.083-36.083h-12.833c-19.896 0-36.083 16.187-36.083 36.083v27.78c0 8.695 2.931 16.715 7.848 23.137h-4.349c-22.883 0-41.5 18.617-41.5 41.5v45.411c0 8.32 6.769 15.089 15.089 15.089h42.093c4.142 0 7.5-3.358 7.5-7.5s-3.358-7.5-7.5-7.5h-6.182v-45.667c0-4.142-3.358-7.5-7.5-7.5s-7.5 3.358-7.5 7.5v10.459h-21v-10.292c0-14.612 11.888-26.5 26.5-26.5h78c14.612 0 26.5 11.888 26.5 26.5v10.292h-21v-10.459c0-4.142-3.358-7.5-7.5-7.5s-7.5 3.358-7.5 7.5v45.667h-16.958c-4.142 0-7.5 3.358-7.5 7.5s3.358 7.5 7.5 7.5h52.868c8.32 0 15.089-6.769 15.089-15.089v-45.411c.001-22.883-18.616-41.5-41.499-41.5zm-83.5 66.792v20.208h-20.911c-.049 0-.089-.04-.089-.089v-20.118h21zm38.083-138.792h12.833c11.625 0 21.083 9.458 21.083 21.083v1.917h-55v-1.917c.001-11.625 9.459-21.083 21.084-21.083zm2.054 72c-12.758 0-23.137-10.379-23.137-23.137v-10.863h55v10.863c0 12.758-10.379 23.137-23.137 23.137zm69.774 87h-20.911v-20.208h21v20.118c0 .05-.04.09-.089.09z"/><path d="m367.907 83.097c-1.453-3.531-4.856-5.811-8.683-5.811-3.821.003-7.225 2.291-8.671 5.828-.023.057-.046.113-.067.17l-31.131 81.739c-1.475 3.871.468 8.204 4.339 9.678 3.87 1.475 8.204-.469 9.678-4.339l5.914-15.527h39.666s5.846 15.491 5.852 15.505c1.439 3.814 5.858 5.807 9.665 4.369 3.875-1.462 5.832-5.79 4.369-9.665l-30.848-81.742c-.028-.069-.055-.137-.083-.205zm-22.909 56.738 14.211-37.312 14.081 37.312z"/><path d="m161.634 77.286c-26.993 0-48.953 21.96-48.953 48.953s21.96 48.953 48.953 48.953c10.964 0 21.097-3.623 29.266-9.735 0 0 7.189 7.189 7.203 7.203 2.775 2.775 7.765 2.841 10.606 0 2.929-2.929 2.929-7.678 0-10.606l-7.314-7.313c5.775-8.034 9.19-17.874 9.19-28.501.002-26.993-21.958-48.954-48.951-48.954zm0 82.906c-18.722 0-33.953-15.231-33.953-33.953s15.231-33.953 33.953-33.953 33.953 15.231 33.953 33.953c0 6.481-1.828 12.543-4.992 17.7l-8.408-8.408c-2.929-2.929-7.678-2.929-10.606 0-2.929 2.929-2.929 7.678 0 10.606l8.551 8.551c-5.326 3.476-11.678 5.504-18.498 5.504z"/><path d="m227.533 140.689c-1.243 9.976 2.226 19.464 9.767 26.719 5.468 5.26 12.991 8.129 20.579 7.747 11.592-.579 21.816-7.721 27.728-14.414l9.145 10.647c2.7 3.143 7.436 3.501 10.576.803 3.142-2.699 3.501-7.434.803-10.576l-11.033-12.845c5.813-7.875 9.783-14.21 10.021-14.592 2.193-3.513 1.123-8.138-2.39-10.332-3.513-2.193-8.139-1.124-10.333 2.388-.048.077-2.949 4.702-7.345 10.839l-16.17-18.826c2.051-1.377 3.88-2.729 5.553-4.138 11.254-9.484 10.312-20.889 6.087-27.774-5.864-9.556-18.386-13.331-29.128-8.781-6.812 2.886-11.448 8.162-13.054 14.856-1.542 6.429.006 13.203 4.192 18.18l3.371 3.925c-.259.147-.521.297-.784.447-9.693 5.525-16.266 15.143-17.585 25.727zm25.391-44.78c.814-3.395 4.67-5.287 7.923-5.287 3.003 0 5.637 1.519 6.889 3.559 1.991 3.245-.515 6.39-2.968 8.458-1.566 1.319-3.48 2.675-5.747 4.131l-5.062-5.893c-1.052-1.252-1.458-3.202-1.035-4.968zm-.378 32.084c1.146-.653 2.249-1.282 3.31-1.889l19.855 23.117c-.346.415-.694.829-1.044 1.241-4.696 5.52-11.743 9.423-17.536 9.712-3.664.18-6.741-.988-9.431-3.576-5.191-4.993-5.738-10.398-5.282-14.054.737-5.916 4.523-11.356 10.128-14.551z"/></g></g></svg>