<svg id="Capa_1" enable-background="new 0 0 512 512" height="512" viewBox="0 0 512 512" width="512" xmlns="http://www.w3.org/2000/svg"><g><g><path d="m452 0h-280c-33.084 0-60 26.916-60 60v160c0 33.084 26.916 60 60 60h20v87.268l107.116-87.268h152.884c33.084 0 60-26.916 60-60v-160c0-33.084-26.916-60-60-60zm20 220c0 11.028-8.972 20-20 20h-167.116l-52.884 43.085v-43.085h-60c-11.028 0-20-8.972-20-20v-160c0-11.028 8.972-20 20-20h280c11.028 0 20 8.972 20 20z"/><path d="m160 332c0-33.084-26.916-60-60-60s-60 26.916-60 60 26.916 60 60 60 60-26.916 60-60zm-60 20c-11.028 0-20-8.972-20-20s8.972-20 20-20 20 8.972 20 20-8.972 20-20 20z"/><path d="m140 392h-40-40c-33.084 0-60 26.916-60 60v60h200v-60c0-33.084-26.916-60-60-60zm20 80h-120v-20c0-11.028 8.972-20 20-20h80c11.028 0 20 8.972 20 20z"/><path d="m232 80h160v40h-160z"/><path d="m232 160h160v40h-160z"/></g></g></svg>