<svg id="Capa_1" enable-background="new 0 0 512 512" height="512" viewBox="0 0 512 512" width="512" xmlns="http://www.w3.org/2000/svg"><g><path d="m460.966 371.007v-43.31c0-11.046-8.954-20-20-20h-164.966v-39.208h72.292c11.046 0 20-8.954 20-20s-8.954-20-20-20h-162.302c7.979-30.046 36.013-51.653 70.308-51.653.09 0 .181-.001.271-.002 47.894-.309 86.762-39.594 86.762-87.84 0-48.437-39.177-87.842-87.331-87.842s-87.331 39.405-87.331 87.842c0 25.298 10.687 48.131 27.758 64.174-6.922 4.161-13.401 9.078-19.32 14.707-21.538 20.48-33.399 48.273-33.399 78.26v2.354c0 11.046 8.954 20 20 20h72.292v39.208h-164.966c-11.046 0-20 8.954-20 20v43.31c-29.462 8.698-51.034 36.106-51.034 68.481 0 39.348 31.866 71.359 71.034 71.359s71.034-32.012 71.034-71.359c0-32.375-21.572-59.783-51.034-68.481v-23.31h144.966v23.31c-29.462 8.698-51.034 36.106-51.034 68.481 0 39.348 31.866 71.359 71.034 71.359s71.034-32.012 71.034-71.359c0-32.375-21.572-59.783-51.034-68.481v-23.31h144.966v23.31c-29.462 8.698-51.034 36.106-51.034 68.481 0 39.348 31.866 71.359 71.034 71.359s71.034-32.011 71.034-71.359c0-32.375-21.572-59.783-51.034-68.481zm-204.966-329.855c26.099 0 47.331 21.462 47.331 47.842s-21.232 47.842-47.331 47.842-47.331-21.462-47.331-47.842 21.232-47.842 47.331-47.842zm-153.932 398.336c0 17.292-13.922 31.359-31.034 31.359s-31.034-14.067-31.034-31.359 13.922-31.36 31.034-31.36 31.034 14.068 31.034 31.36zm184.966 0c0 17.292-13.922 31.359-31.034 31.359s-31.034-14.067-31.034-31.359 13.922-31.36 31.034-31.36 31.034 14.068 31.034 31.36zm153.932 31.36c-17.112 0-31.034-14.067-31.034-31.359s13.922-31.36 31.034-31.36 31.034 14.067 31.034 31.359-13.922 31.36-31.034 31.36z"/></g></svg>