<svg id="Capa_1" enable-background="new 0 0 512 512" height="512" viewBox="0 0 512 512" width="512" xmlns="http://www.w3.org/2000/svg"><g><g><path d="m452 76h-20v40h20c11.028 0 20 8.972 20 20v240c0 11.028-8.972 20-20 20h-166.688l-29.312 43.853-29.312-43.853h-166.688c-11.028 0-20-8.972-20-20v-240c0-11.028 8.972-20 20-20h176v-40h-176c-33.084 0-60 26.916-60 60v240c0 33.084 26.916 60 60 60h145.312l50.688 76 50.688-76h145.312c33.084 0 60-26.916 60-60v-240c0-33.084-26.916-60-60-60z"/><path d="m116 156h120v40h-120z"/><path d="m116 236h120v40h-120z"/><path d="m316 316h-200v40h240v-53.945l40-60.013v-242.042h-120v242.042l40 60.013zm0-276h40v189.933l-20 30.006-20-30.006z"/></g></g></svg>