<svg id="Capa_1" enable-background="new 0 0 512 512" height="512" viewBox="0 0 512 512" width="512" xmlns="http://www.w3.org/2000/svg"><g><g><path d="m0 452v60h120v-60c0-33.084-26.916-60-60-60s-60 26.916-60 60zm40 0c0-11.028 8.972-20 20-20s20 8.972 20 20v20h-40z"/><path d="m120 332c0-33.084-26.916-60-60-60s-60 26.916-60 60 26.916 60 60 60 60-26.916 60-60zm-60 20c-11.028 0-20-8.972-20-20s8.972-20 20-20 20 8.972 20 20-8.972 20-20 20z"/><path d="m0 180v60h120v-60c0-33.084-26.916-60-60-60s-60 26.916-60 60zm40 0c0-11.028 8.972-20 20-20s20 8.972 20 20v20h-40z"/><path d="m120 60c0-33.084-26.916-60-60-60s-60 26.916-60 60 26.916 60 60 60 60-26.916 60-60zm-60 20c-11.028 0-20-8.972-20-20s8.972-20 20-20 20 8.972 20 20-8.972 20-20 20z"/><path d="m452 120c-33.084 0-60 26.916-60 60v60h120v-60c0-33.084-26.916-60-60-60zm20 80h-40v-20c0-11.028 8.972-20 20-20s20 8.972 20 20z"/><path d="m512 60c0-33.084-26.916-60-60-60s-60 26.916-60 60 26.916 60 60 60 60-26.916 60-60zm-60 20c-11.028 0-20-8.972-20-20s8.972-20 20-20 20 8.972 20 20-8.972 20-20 20z"/><path d="m392 452v60h120v-60c0-33.084-26.916-60-60-60s-60 26.916-60 60zm40 0c0-11.028 8.972-20 20-20s20 8.972 20 20v20h-40z"/><path d="m512 332c0-33.084-26.916-60-60-60s-60 26.916-60 60 26.916 60 60 60 60-26.916 60-60zm-60 20c-11.028 0-20-8.972-20-20s8.972-20 20-20 20 8.972 20 20-8.972 20-20 20z"/><path d="m156 512h200v-512h-200zm40-472h120v432h-120z"/></g></g></svg>