<svg id="Capa_1" enable-background="new 0 0 512 512" height="512" viewBox="0 0 512 512" width="512" xmlns="http://www.w3.org/2000/svg"><g><g><path d="m248.769 312h-52.209c2.22-6.26 3.44-12.989 3.44-20v-80h-40v80c0 11.028-8.972 20-20 20-15.751 0-126.074 0-140 0v200h228.769c27.583 0 51.519-18.689 58.208-45.448l20-80c4.512-18.05.534-36.812-10.916-51.477-11.449-14.664-28.687-23.075-47.292-23.075zm-168.769 160h-40v-120h40zm188.172-95.149-20 80c-2.23 8.92-10.208 15.149-19.403 15.149h-108.769v-120h128.769c6.202 0 11.948 2.803 15.764 7.692s5.143 11.142 3.639 17.159z"/><path d="m283.231 0c-27.583 0-51.519 18.689-58.208 45.448l-20 80c-4.512 18.05-.534 36.812 10.916 51.477 11.449 14.664 28.687 23.075 47.292 23.075h52.209c-2.22 6.26-3.44 12.989-3.44 20v80h40v-80c0-11.028 8.972-20 20-20h140v-200c-28.271 0-200.764 0-228.769 0zm-20 160c-6.202 0-11.948-2.803-15.764-7.692s-5.143-11.143-3.639-17.159l20-80c2.23-8.919 10.209-15.149 19.403-15.149h108.769v120c-19.162 0-112.531 0-128.769 0zm208.769 0h-40v-120h40z"/></g></g></svg>