<svg id="Capa_1" enable-background="new 0 0 512 512" height="512" viewBox="0 0 512 512" width="512" xmlns="http://www.w3.org/2000/svg"><g><path d="m447.417 307.712c-.006-7.233-3.917-13.899-10.227-17.434-6.311-3.536-14.038-3.386-20.208.388-6.046 3.697-12.66 5.572-19.658 5.572-7.712 0-15.161-2.321-21.541-6.713-9.099-6.261-21.55-3.965-27.814 5.135-6.263 9.099-3.964 21.552 5.135 27.814 13.082 9.004 28.373 13.764 44.22 13.764 3.397 0 6.78-.225 10.127-.668.019 9.567.04 13.771.061 15.719-1.476 17.157-16.228 30.501-33.875 30.501h-66.527c-7.194 0-13.833 3.863-17.388 10.118s-3.476 13.937.206 20.116c3.704 6.219 5.582 13.034 5.582 20.258 0 21.9-17.698 39.718-39.452 39.718s-39.452-17.817-39.452-39.718c0-7.224 1.878-14.039 5.582-20.258 3.682-6.18 3.76-13.861.206-20.116s-10.194-10.118-17.388-10.118h-66.526c-18.746 0-33.997-14.967-33.997-33.363v-13.277c2.125.169 4.265.253 6.423.253 43.584 0 79.225-35.574 79.449-79.301 0-.068 0-.137 0-.205-.224-43.727-35.865-79.301-79.449-79.301-2.158 0-4.298.084-6.423.253v-13.276c0-18.396 15.251-33.363 33.997-33.363h66.526c7.194 0 13.833-3.863 17.388-10.118s3.476-13.937-.206-20.116c-3.704-6.219-5.582-13.034-5.582-20.258 0-21.9 17.698-39.718 39.452-39.718s39.452 17.817 39.452 39.718c0 7.224-1.878 14.039-5.582 20.258-3.682 6.18-3.76 13.861-.206 20.116s10.194 10.118 17.388 10.118h66.526c17.647 0 32.399 13.344 33.875 30.501-.021 1.947-.042 6.151-.061 15.719-3.348-.443-6.73-.668-10.127-.668-15.847 0-31.138 4.76-44.22 13.764-9.099 6.263-11.398 18.715-5.135 27.814 6.262 9.097 18.715 11.398 27.814 5.135 6.381-4.392 13.83-6.713 21.542-6.713 6.998 0 13.612 1.875 19.658 5.572 6.171 3.775 13.898 3.922 20.208.388 6.311-3.534 10.221-10.2 10.227-17.434.012-15.554.048-40.939.091-43.591.021-.654.01-1.309-.033-1.962-2.534-38.426-34.967-68.525-73.838-68.525h-38.823c.462-3.468.696-6.973.696-10.492 0-43.957-35.642-79.718-79.452-79.718s-79.452 35.761-79.452 79.718c0 3.52.234 7.024.696 10.492h-38.823c-40.802 0-73.997 32.91-73.997 73.363v39.23c0 6.93 3.587 13.365 9.48 17.01 5.894 3.645 13.253 3.979 19.453.885 5.451-2.722 11.335-4.102 17.49-4.102 21.607 0 39.282 17.667 39.449 39.403-.167 21.736-17.842 39.403-39.449 39.403-6.154 0-12.039-1.38-17.49-4.102-6.201-3.095-13.56-2.761-19.453.885-5.893 3.645-9.48 10.08-9.48 17.01v39.23c0 40.453 33.195 73.363 73.997 73.363h38.823c-.462 3.468-.696 6.973-.696 10.492 0 43.957 35.642 79.718 79.452 79.718s79.452-35.761 79.452-79.718c0-3.52-.234-7.024-.696-10.492h38.823c38.871 0 71.304-30.1 73.838-68.525.043-.653.054-1.308.033-1.962-.044-2.65-.079-28.035-.091-43.589zm.088-146.961c-.007.232-.018.395-.023.482.01-.16.018-.321.023-.482zm-.023 190.016c.005.088.016.25.023.482-.005-.161-.013-.322-.023-.482z"/></g></svg>