<svg id="Capa_1" enable-background="new 0 0 512 512" height="512" viewBox="0 0 512 512" width="512" xmlns="http://www.w3.org/2000/svg"><g><g><path d="m256 0c-143.3 0-256 115.953-256 260v120c0 33.084 26.916 60 60 60s60-26.916 60-60v-120c0-33.084-26.916-60-60-60-4.291 0-8.475.462-12.514 1.322 24.622-93.994 107.42-161.322 208.514-161.322s183.892 67.328 208.514 161.322c-4.039-.86-8.223-1.322-12.514-1.322-33.084 0-60 26.916-60 60v120c0 26.073 16.722 48.304 40 56.56v15.44c0 11.028-8.972 20-20 20h-160.001v40h160.001c33.084 0 60-26.916 60-60v-15.44c23.278-8.256 40-30.487 40-56.56 0-7.085 0-113.405 0-120 0-143.886-112.528-260-256-260zm-196 240c11.028 0 20 8.972 20 20v120c0 11.028-8.972 20-20 20s-20-8.972-20-20c0-7.085 0-113.405 0-120 0-11.028 8.972-20 20-20zm412 140c0 11.028-8.972 20-20 20s-20-8.972-20-20v-120c0-11.028 8.972-20 20-20s20 8.972 20 20z"/><path d="m307.432 358.907c27.636-5.351 48.568-29.73 48.568-58.907v-40c0-33.084-26.916-60-60-60h-80c-33.084 0-60 26.916-60 60v40c0 29.177 20.932 53.556 48.568 58.907l51.432 77.149zm-91.432-38.907c-11.028 0-20-8.972-20-20v-40c0-11.028 8.972-20 20-20h80c11.028 0 20 8.972 20 20v40c0 11.028-8.972 20-20 20h-10.704l-29.296 43.944-29.296-43.944z"/></g></g></svg>