<svg id="Capa_1" enable-background="new 0 0 512 512" height="512" viewBox="0 0 512 512" width="512" xmlns="http://www.w3.org/2000/svg"><g><g><path d="m452 0h-392c-33.084 0-60 26.916-60 60v226c0 33.084 26.916 60 60 60h99.058l-6.667 40h38.967l-26.451 126 217.838-166h69.255c33.084 0 60-26.916 60-60v-226c0-33.084-26.916-60-60-60zm20 286c0 11.028-8.972 20-20 20h-176v40h40.705l-90.554 68.93 14.491-68.93h-41.032l6.667-40h-146.277c-11.028 0-20-8.972-20-20v-226c0-11.028 8.972-20 20-20h392c11.028 0 20 8.972 20 20z"/><circle cx="376" cy="256" r="20"/><path d="m356 76h40v120h-40z"/><path d="m300.254 81.448-38.806-9.701-11.063 44.253h-38.769l8.638-34.552-38.806-9.701-11.063 44.253h-54.385v40h44.385l-10 40h-34.385v40h24.385l-8.638 34.552 38.806 9.701 11.062-44.253h38.769l-8.638 34.552 38.806 9.701 11.064-44.253h54.384v-40h-44.384l10-40h34.384v-40h-24.384zm-69.869 114.552h-38.769l10-40h38.769z"/></g></g></svg>