<svg id="Capa_1" enable-background="new 0 0 512.009 512.009" height="512" viewBox="0 0 512.009 512.009" width="512" xmlns="http://www.w3.org/2000/svg"><g><path d="m226.272 96.279c-32.136-.635-59.718 22.845-64.154 54.648-.405 2.908-.611 5.878-.611 8.827 0 11.046 8.954 20 20 20s20-8.954 20-20c0-1.108.077-2.22.228-3.303 1.638-11.744 11.823-20.419 23.731-20.18 12.229.246 22.305 10 22.938 22.206.339 6.532-1.943 12.729-6.424 17.449-4.48 4.718-10.52 7.316-17.008 7.316-11.046 0-20 8.954-20 20v27.312c0 11.046 8.954 20 20 20s20-8.954 20-20v-10.573c9.808-3.271 18.797-8.912 26.015-16.514 12.11-12.753 18.276-29.468 17.363-47.062-1.715-33.049-28.983-59.459-62.078-60.126z"/><path d="m244.58 298.995c-1.655-7.994-8.034-14.308-16.085-15.774-8.324-1.516-16.898 2.612-20.998 9.979-4.064 7.302-3.054 16.598 2.435 22.888 5.488 6.289 14.634 8.481 22.386 5.409 8.854-3.508 14.163-13.133 12.262-22.502z"/><path d="m510.447 443.399-9.863-34.721c-3.018-10.626-14.082-16.793-24.704-13.774-10.625 3.018-16.792 14.078-13.774 24.704l9.863 34.721c.019.067.026.11.031.119-.035.077-.142.192-.159.211.002-.005-.046 0-.143-.02l-31.849-6.845c-4.864-1.046-9.94-.241-14.243 2.256-13.287 7.712-28.509 11.589-43.997 11.189-44.465-1.124-80.949-38.267-81.328-82.8-.39-45.786 36.493-83.595 82.218-84.281 26.001-.388 50.296 11.196 66.666 31.789 6.874 8.647 19.456 10.084 28.102 3.21s10.083-19.455 3.21-28.102c-11.276-14.184-25.119-25.474-40.593-33.421v-141.846c0-63.435-51.5-115.043-114.801-115.043h-210.282c-63.301-.001-114.801 51.607-114.801 115.043v158.291c0 63.435 51.5 115.043 114.801 115.043h19.624v6.006c0 16.44 8.483 31.172 22.692 39.408 7.124 4.129 14.945 6.194 22.771 6.193 7.75 0 15.504-2.026 22.579-6.08l61.883-35.452c5.422 20.54 16.142 39.463 31.443 55.039 22.634 23.042 52.752 36.178 84.807 36.988 1.054.026 2.103.04 3.155.04 19.111-.001 37.876-4.396 54.867-12.823l24.673 5.303c13.93 2.995 28.064-1.428 37.808-11.827 9.746-10.402 13.24-24.802 9.344-38.518zm-214.964-152.081c-19.757 20.21-31.768 46.005-34.57 73.749l-78.33 44.875c-2.238 1.282-4.177.701-5.409-.013-1.255-.728-2.75-2.15-2.75-4.8v-26.006c0-11.046-8.954-20-20-20h-39.624c-41.244-.001-74.8-33.666-74.8-75.044v-158.291c0-41.379 33.556-75.043 74.801-75.043h210.283c41.245 0 74.801 33.665 74.801 75.043v129.396c-5.907-.769-11.914-1.116-17.985-1.022-32.784.491-63.474 13.687-86.417 37.156z"/></g></svg>