<svg id="Capa_1" enable-background="new 0 0 512 512" height="512" viewBox="0 0 512 512" width="512" xmlns="http://www.w3.org/2000/svg"><g><path d="m452.44 153.841c-7.812-7.811-20.475-7.81-28.285.002-7.81 7.811-7.809 20.474.003 28.284 19.697 19.695 30.545 45.93 30.545 73.873s-10.848 54.178-30.545 73.873c-7.812 7.81-7.812 20.473-.003 28.284 3.906 3.906 9.024 5.859 14.144 5.859 5.118 0 10.236-1.952 14.142-5.857 27.253-27.25 42.263-63.531 42.263-102.159s-15.011-74.909-42.264-102.159z"/><path d="m366.073 211.917c-7.811 7.811-7.81 20.474.001 28.284 4.221 4.22 6.545 9.831 6.545 15.798s-2.324 11.579-6.545 15.798c-7.811 7.81-7.812 20.474-.001 28.284 3.905 3.906 9.023 5.859 14.143 5.859 5.118 0 10.236-1.953 14.142-5.857 11.776-11.775 18.262-27.432 18.262-44.084s-6.485-32.309-18.262-44.084c-7.813-7.809-20.476-7.809-28.285.002z"/><path d="m236.929 327.5c-.747-8.081-6.64-15.021-14.401-17.253-8.039-2.311-16.889.794-21.752 7.58-5.007 6.987-4.907 16.642.193 23.544 4.982 6.743 14.013 9.721 22.025 7.18 8.869-2.813 14.945-11.717 13.935-21.051z"/><path d="m237.032 169.15c0-11.046-8.954-20-20-20h-97.594c-11.046 0-20 8.954-20 20v83.259c0 11.046 8.954 20 20 20h97.594c11.046 0 20-8.954 20-20zm-40 63.259h-57.594v-43.259h57.594z"/><path d="m139.34 327.5c-.746-8.069-6.64-15.041-14.406-17.253-8.027-2.286-16.9.771-21.754 7.576-4.916 6.893-4.922 16.391 0 23.283 4.855 6.798 13.724 9.883 21.754 7.586 9.117-2.606 15.425-11.706 14.406-21.192z"/><path d="m139.05 400.93c-1.64-7.955-8.005-14.294-16.022-15.761-8.385-1.534-17.086 2.611-21.142 10.109-3.983 7.364-2.929 16.596 2.622 22.868 5.529 6.247 14.714 8.358 22.431 5.226 8.768-3.56 13.999-13.134 12.111-22.442z"/><path d="m236.639 400.93c-1.62-7.857-7.82-14.106-15.7-15.7-8.368-1.693-17.113 2.351-21.303 9.763-4.169 7.374-3.173 16.82 2.465 23.153 5.667 6.366 15.059 8.431 22.878 5.037 8.513-3.696 13.519-13.126 11.66-22.253z"/><path d="m269.353 72.964v-52.964c0-11.046-8.954-20-20-20s-20 8.954-20 20v47.021h-131.952c-44.169 0-80.104 35.93-80.104 80.095v284.79c0 44.164 35.934 80.094 80.104 80.094h141.669c21.19 0 41.168-8.194 56.253-23.073 15.069-14.864 23.537-34.699 23.842-55.849.159-11.044-8.665-20.127-19.71-20.286-.099-.001-.196-.002-.294-.002-10.911 0-19.834 8.766-19.992 19.712-.314 21.779-18.302 39.498-40.099 39.498h-141.669c-22.113 0-40.104-17.986-40.104-40.095v-284.79c0-22.108 17.99-40.095 40.104-40.095h141.669c22.113 0 40.104 17.986 40.104 40.095v185.516c0 11.046 8.954 20 20 20s20-8.954 20-20v-185.516c0-33.455-20.621-62.185-49.821-74.151z"/></g></svg>