<svg id="Capa_1" enable-background="new 0 0 512 512" height="512" viewBox="0 0 512 512" width="512" xmlns="http://www.w3.org/2000/svg"><g><g><path d="m512 116h-89.719l-166.281-116-166.281 116h-89.719v40h36v296c0 33.084 26.916 60 60 60h320c33.084 0 60-26.916 60-60v-296h36zm-256-67.123 96.32 67.123h-192.64zm180 403.123c0 11.028-8.972 20-20 20h-320c-11.028 0-20-8.972-20-20v-296h360z"/><path d="m396 432v-240h-120v80h-80v40h-80v120zm-80-200h40v160h-40c0-59.144 0-101.522 0-160zm-40 80v80h-40c0-6.791 0-69.231 0-80zm-80 80h-40v-40h40z"/></g></g></svg>