<svg id="Capa_1" enable-background="new 0 0 512 512" height="512" viewBox="0 0 512 512" width="512" xmlns="http://www.w3.org/2000/svg"><g><g><path d="m452 0h-392c-33.084 0-60 26.916-60 60v392c0 33.084 26.916 60 60 60h392c33.084 0 60-26.916 60-60v-392c0-33.084-26.916-60-60-60zm20 60v20h-151.278c-7.625 0-14.479-4.236-17.889-11.056l-14.472-28.944h163.639c11.028 0 20 8.972 20 20zm-20 412h-392c-11.028 0-20-8.972-20-20v-392c0-11.028 8.972-20 20-20h183.639l23.417 46.833c10.228 20.458 30.792 33.167 53.666 33.167h151.278v332c0 11.028-8.972 20-20 20z"/><path d="m356 216c0-33.084-26.916-60-60-60h-160c-33.084 0-60 26.916-60 60v60h220c33.084 0 60-26.916 60-60zm-240 0c0-11.028 8.972-20 20-20h160c11.028 0 20 8.972 20 20s-8.972 20-20 20h-180z"/><path d="m376 316h-120c-33.084 0-60 26.916-60 60s26.916 60 60 60h180v-60c0-33.084-26.916-60-60-60zm20 80h-140c-11.028 0-20-8.972-20-20s8.972-20 20-20h120c11.028 0 20 8.972 20 20z"/><circle cx="96" cy="100" r="20"/><circle cx="176" cy="100" r="20"/></g></g></svg>