<svg id="Capa_1" enable-background="new 0 0 512.019 512.019" height="512" viewBox="0 0 512.019 512.019" width="512" xmlns="http://www.w3.org/2000/svg"><g><path d="m506.361 202.444c-10.292-48.309-34.271-92.382-69.342-127.454-48.352-48.352-112.639-74.98-181.019-74.98s-132.667 26.628-181.02 74.98c-48.351 48.352-74.98 112.64-74.98 181.02s26.629 132.667 74.98 181.02c48.353 48.352 112.64 74.98 181.02 74.98s132.667-26.628 181.02-74.98c7.81-7.811 7.81-20.474 0-28.284l-152.736-152.736 46.443-46.443c38.659 32.193 86.947 49.637 137.193 49.637 1.325 0 2.651-.012 3.978-.037-.294 23.723-4.484 47.566-12.794 70.524-3.76 10.386 1.612 21.854 11.999 25.613 10.384 3.758 21.854-1.612 25.612-11.999 16.332-45.118 19.667-93.827 9.646-140.861zm-175.462-49.618c-24.819-31.224-38.112-69.709-37.859-109.672 37.118 6.378 71.74 22.325 100.911 46.62zm-241.128-34.76 137.944 137.944-46.442 46.442c-39.671-33.035-89.487-50.541-141.145-49.6.696-47.994 17.244-95.799 49.643-134.786zm129.189 350.799c-37.118-6.378-71.74-22.325-100.911-46.62l63.052-63.052c24.819 31.224 38.112 69.709 37.859 109.672zm-175.722-176.043c39.954-.175 78.427 13.192 109.603 38.062l-63.069 63.069c-24.795-29.836-40.307-64.835-46.534-101.131zm350.713 129.423c-37.952 31.607-85.129 49.086-135.026 49.744 1.025-51.675-16.401-101.505-49.388-141.233l46.463-46.462zm-275.902-332.471c37.951-31.607 85.129-49.086 135.025-49.744-1.025 51.675 16.401 101.505 49.388 141.233l-46.462 46.462zm241.109 91.362 63.056-63.056c24.309 29.35 40.097 64.376 46.482 101.119-39.93.162-78.378-13.206-109.538-38.063z"/></g></svg>