<svg id="Capa_1" enable-background="new 0 0 512 512" height="512" viewBox="0 0 512 512" width="512" xmlns="http://www.w3.org/2000/svg"><g><g><path d="m512 312v-112h-47.369c-4.854-18.062-12.089-35.41-21.612-51.823l33.601-33.598-79.198-79.198-33.6 33.601c-16.412-9.523-33.759-16.758-51.822-21.612v-47.37h-112v47.37c-18.062 4.854-35.411 12.089-51.82 21.612l-33.601-33.601-79.196 79.199 33.599 33.598c-9.521 16.41-16.757 33.758-21.61 51.823h-47.372v112h47.371c4.854 18.063 12.088 35.411 21.611 51.821l-33.6 33.601 79.196 79.194 33.598-33.598c16.41 9.523 33.759 16.757 51.823 21.612v47.369h112v-47.37c18.063-4.854 35.413-12.089 51.823-21.612l33.598 33.598 79.197-79.194-33.6-33.601c9.522-16.411 16.758-33.758 21.611-51.821zm-79.648-40-3.902 19.225c-4.438 21.862-13.092 42.619-25.721 61.693l-10.83 16.353 28.151 28.15-22.629 22.627-28.146-28.146-16.354 10.825c-19.076 12.63-39.833 21.285-61.696 25.723l-19.225 3.902v39.648h-32v-39.648l-19.225-3.902c-21.864-4.439-42.622-13.093-61.699-25.724l-16.352-10.824-28.146 28.146-22.627-22.628 28.148-28.149-10.827-16.352c-12.629-19.075-21.283-39.832-25.721-61.693l-3.903-19.226h-39.648v-32h39.648l3.903-19.225c4.438-21.865 13.093-42.623 25.721-61.696l10.828-16.353-28.149-28.147 22.628-22.628 28.148 28.148 16.354-10.825c19.076-12.63 39.832-21.284 61.693-25.723l19.226-3.903v-39.648h32v39.648l19.226 3.902c21.861 4.438 42.618 13.093 61.696 25.724l16.352 10.824 28.147-28.148 22.628 22.628-28.15 28.148 10.828 16.351c12.631 19.078 21.285 39.836 25.723 61.697l3.902 19.226h39.648v32z"/><path d="m316 176c0-33.084-26.916-60-60-60s-60 26.916-60 60 26.916 60 60 60 60-26.916 60-60zm-60 20c-11.028 0-20-8.972-20-20s8.972-20 20-20 20 8.972 20 20-8.972 20-20 20z"/><path d="m296 236h-40-40c-33.084 0-60 26.916-60 60v60h200v-60c0-33.084-26.916-60-60-60zm20 80h-120v-20c0-11.028 8.972-20 20-20h80c11.028 0 20 8.972 20 20z"/></g></g></svg>