<svg id="Capa_1" enable-background="new 0 0 512 512" height="512" viewBox="0 0 512 512" width="512" xmlns="http://www.w3.org/2000/svg"><g><g><path d="m360 180c0-99.252-80.748-180-180-180s-180 80.748-180 180 80.748 180 180 180 180-80.748 180-180zm-318.565 20h38.565v-40h-38.565c8.796-61.221 57.344-109.769 118.565-118.565v38.565h40v-38.565c61.221 8.796 109.769 57.344 118.565 118.565h-38.565v40h38.565c-8.796 61.221-57.344 109.77-118.565 118.565v-38.565h-40v38.565c-61.221-8.795-109.769-57.344-118.565-118.565z"/><path d="m452 152h-60v40h60c11.028 0 20 8.972 20 20v180c0 11.028-8.972 20-20 20h-89.409l-30.591 36.967-30.591-36.967h-89.409c-11.028 0-20-8.972-20-20h-40c0 33.084 26.916 60 60 60h70.591l49.409 60 49.409-60h70.591c33.084 0 60-26.916 60-60v-180c0-33.084-26.916-60-60-60z"/><path d="m250.711 222.426-50.711-50.71v-51.716h-40v68.284l62.426 62.426z"/></g></g></svg>