<svg id="Capa_1" enable-background="new 0 0 512 512" height="512" viewBox="0 0 512 512" width="512" xmlns="http://www.w3.org/2000/svg"><g><g><path d="m396 356c0-55.14-44.859-100-100-100s-100 44.86-100 100 44.859 100 100 100 100-44.86 100-100zm-100 60c-33.084 0-60-26.916-60-60s26.916-60 60-60 60 26.916 60 60-26.916 60-60 60z"/><circle cx="296" cy="356" r="20"/><path d="m452 216h-16v-20c0-33.084-26.916-60-60-60h-100v-80h40v-40h-120v40h40v80h-100c-33.084 0-60 26.916-60 60v20h-16c-33.084 0-60 26.916-60 60v160c0 33.084 26.916 60 60 60h392c33.084 0 60-26.916 60-60v-160c0-33.084-26.916-60-60-60zm-336-20c0-11.028 8.972-20 20-20h240c11.028 0 20 8.972 20 20v20h-280zm356 240c0 11.028-8.972 20-20 20h-156-236c-11.028 0-20-8.972-20-20v-160c0-11.028 8.972-20 20-20h236 156c11.028 0 20 8.972 20 20z"/><path d="m76 336h80v40h-80z"/></g></g></svg>