<svg id="Capa_1" enable-background="new 0 0 512.002 512.002" height="512" viewBox="0 0 512.002 512.002" width="512" xmlns="http://www.w3.org/2000/svg"><g><g><path d="m452 392.001c-26.073 0-48.303 16.722-56.56 40h-82.88c-8.256-23.278-30.487-40-56.56-40s-48.303 16.722-56.56 40h-82.88c-8.256-23.278-30.487-40-56.56-40-33.084 0-60 26.916-60 60s26.916 60 60 60c26.073 0 48.303-16.722 56.56-40h82.881c8.256 23.278 30.487 40 56.56 40s48.303-16.722 56.56-40h82.881c8.256 23.278 30.487 40 56.56 40 33.084 0 60-26.916 60-60s-26.918-60-60.002-60zm-392 80c-11.028 0-20-8.972-20-20s8.972-20 20-20 20 8.972 20 20-8.972 20-20 20zm196 0c-11.028 0-20-8.972-20-20s8.972-20 20-20 20 8.972 20 20-8.972 20-20 20zm196 0c-11.028 0-20-8.972-20-20s8.972-20 20-20 20 8.972 20 20-8.972 20-20 20z"/><path d="m156 80.001h200v40h-200z"/><path d="m156 160.001h200v40h-200z"/><path d="m96 280.001h108.809l51.191 83.413 51.191-83.413h108.809c33.084 0 60-26.916 60-60v-160c0-33.084-26.916-60-60-60h-320c-33.084 0-60 26.916-60 60v160c0 33.084 26.916 60 60 60zm-20-220c0-11.028 8.972-20 20-20h320c11.028 0 20 8.972 20 20v160c0 11.028-8.972 20-20 20h-131.191l-28.809 46.94-28.809-46.94h-131.191c-11.028 0-20-8.972-20-20z"/></g></g></svg>