<svg id="Capa_1" enable-background="new 0 0 512 512" height="512" viewBox="0 0 512 512" width="512" xmlns="http://www.w3.org/2000/svg"><g><g><path d="m384.284 190.98-13.949-13.949c-16.842-16.842-39.235-26.118-63.053-26.118-.157 0-155.707.066-155.813.066l-43.294 40h-108.175v240h148.197l63.461 63.461c11.697 11.697 27.062 17.546 42.427 17.546s30.729-5.849 42.426-17.546l63.461-63.461h152.028v-240h-127.716zm-31.204 190.324-84.853 84.853c-7.798 7.798-20.487 7.797-28.285 0l-75.177-75.177h-124.765v-160h83.825l43.294-40h63.162l-118.395 118.394 14.142 14.142c39.04 39.041 102.336 39.085 141.421 0l28.064-28.064 57.567 57.567c7.816 7.817 7.818 20.468 0 28.285zm118.92 9.676h-77.957c9.318-21.545 5.504-48.061-12.679-66.244l-85.852-85.852-56.348 56.348c-18.8 18.8-46.453 22.202-68.308 11.739l101.656-101.656c9.287-9.287 21.635-14.402 34.769-14.402s25.482 5.115 34.769 14.402l25.665 25.664h104.285z"/><path d="m236 .015h40v80h-40z"/><path d="m80.436 60.451h40v79.999h-40z" transform="matrix(.707 -.707 .707 .707 -41.612 100.44)"/><path d="m371.561 80.453h79.999v40h-79.999z" transform="matrix(.707 -.707 .707 .707 49.512 320.439)"/></g></g></svg>