<svg id="Capa_1" enable-background="new 0 0 512 512" height="512" viewBox="0 0 512 512" width="512" xmlns="http://www.w3.org/2000/svg"><g><g><path d="m280 160v-80c0-44.112-35.888-80-80-80h-120c-44.112 0-80 35.888-80 80s35.888 80 80 80zm-240-80c0-22.056 17.944-40 40-40h120c22.056 0 40 17.944 40 40v40h-160c-22.056 0-40-17.944-40-40z"/><path d="m432 352h-120c-44.112 0-80 35.888-80 80v80h200c44.112 0 80-35.888 80-80s-35.888-80-80-80zm0 120h-160v-40c0-22.056 17.944-40 40-40h120c22.056 0 40 17.944 40 40s-17.944 40-40 40z"/><path d="m176 316c33.084 0 60-26.916 60-60 0-7.011-1.22-13.74-3.44-20h43.44v-40h-100-20v40h20c11.028 0 20 8.972 20 20s-8.972 20-20 20h-98.898c1.972-17.95 6.605-35.371 13.868-51.993l8.007-18.327-36.654-16.015-8.008 18.327c-12.153 27.815-18.315 57.425-18.315 88.008 0 87.486 51.81 166.652 131.993 201.685l18.327 8.007 16.015-36.654-18.327-8.007c-32.274-14.101-58.924-36.943-77.68-65.031h89.672v-40h-109.71c-4.531-12.815-7.644-26.222-9.179-40z"/><path d="m369.611 156.344c-30.091 3.2-53.611 28.73-53.611 59.656 0 33.084 26.916 60 60 60h58.889c.735 6.59 1.111 13.265 1.111 20v20h40v-20c0-87.486-51.81-166.652-131.993-201.685l-18.327-8.007-16.015 36.654 18.327 8.007c15.2 6.641 29.15 15.223 41.619 25.375zm6.389 79.656c-11.028 0-20-8.972-20-20s8.972-20 20-20h29.673c8.287 12.409 15.031 25.842 20.037 40z"/><circle cx="296" cy="296" r="20"/></g></g></svg>