<svg id="Capa_1" enable-background="new 0 0 510.025 510.025" height="512" viewBox="0 0 510.025 510.025" width="512" xmlns="http://www.w3.org/2000/svg"><g><path d="m510.013 190.471-36.973-55.458h-128.027v229.387c-5.672-2.384 20.007 8.408-52.777-22.182-12.665-4.605-21.174-16.755-21.174-30.232v-15.846c27.183-18.996 45-50.512 45-86.117 0-21.898 0-82.477 0-105 0-34.872-8.969-61.487-26.657-79.104-26.268-26.161-64.08-26.005-89.098-25.907-1.457.006-2.874.012-4.245.012h-25.364-49.636-45v24.893c0 35.687 10.361 70.055 30 99.715v85.392c0 35.605 17.817 67.121 45 86.117v15.846c0 13.477-8.51 25.626-21.175 30.232-96.32 40.497-88.933 37.391-89.324 37.556-24.272 9.002-40.55 32.375-40.55 58.288v71.963h422.097v-71.963c0-11.944-3.465-23.344-9.57-33.05h97.474v-214.542zm-208.952 187.987v20.352l-45 45v36.216h-30v-68.787l45.673-45.673c3.115 1.837 6.412 3.425 9.878 4.711zm-32.828-331.282c11.83 11.782 17.828 31.245 17.828 57.848h-45.964c-4.065-31.813-20.412-57.387-35.784-75.023 20.805-.026 47.523.844 63.92 17.175zm-107.148-17.152c10.57 8.309 41.895 35.873 48.658 75h-80.613c-14.2-22.594-22.094-48.278-22.983-75zm-25.024 180v-75h150v75c0 41.355-33.645 75-75 75s-75-33.645-75-75zm105 100.626c.123.893-1.239 16.845 9.268 33.895l-39.268 39.268-39.268-39.268c5.915-9.599 9.268-20.814 9.268-32.558v-1.337c18.949 5.659 39.889 6.006 60 0zm-100.551 59.626c3.466-1.286 6.763-2.874 9.879-4.711l45.673 45.673v68.787h-30v-36.215l-45-45v-20.353zm-110.497 67.786c0-13.477 8.51-25.626 21.175-30.231 55.459-23.303 35.308-14.835 39.874-16.754v20.158l45 45v23.79h-106.049zm362.096 41.963h-106.048v-23.79l45-45v-20.158c4.199 1.765-14.974-6.292 39.874 16.754 12.665 4.605 21.174 16.755 21.174 30.231zm87.904-105.012h-105v-210h81.973l23.027 34.541z"/><path d="m405.013 195.012h45v30h-45z"/><path d="m405.013 255.012h45v30h-45z"/><path d="m405.013 315.013h45v30h-45z"/></g></svg>