<svg id="Capa_1" enable-background="new 0 0 510 510" height="512" viewBox="0 0 510 510" width="512" xmlns="http://www.w3.org/2000/svg"><g><path d="m420 301.076v-92.152c50.816-7.301 90-51.119 90-103.924 0-57.897-47.103-105-105-105-52.805 0-96.623 39.184-103.924 90h-92.152c-7.301-50.816-51.12-90-103.924-90-57.897 0-105 47.103-105 105 0 51.742 37.623 94.858 86.947 103.442l-16.956 83.073-39.238 39.238c-40.938 40.939-40.938 107.553 0 148.492 40.939 40.94 107.552 40.94 148.492 0l39.238-39.238 83.075-16.955c8.584 49.326 51.699 86.948 103.442 86.948 57.897 0 105-47.103 105-105 0-52.805-39.184-96.623-90-103.924zm-119.265 91.526-84.767 17.301-47.329-47.328-53.033 53.032c-5.849 5.85-15.365 5.85-21.213 0-5.848-5.849-5.848-15.364-.001-21.213l53.034-53.033-47.33-47.33 17.301-84.766c47.137-5.57 84.805-42.484 91.526-89.265h92.152c6.597 45.916 43.008 82.327 88.924 88.924v92.152c-46.779 6.721-83.693 44.389-89.264 91.526zm-195.735-51.242-20.147 20.147-21.214-21.214 20.147-20.147zm-15-236.36c0-8.271 6.729-15 15-15s15 6.729 15 15-6.729 15-15 15-15-6.729-15-15zm15 45c14.485 0 26.605 10.319 29.395 23.993-9.032 3.862-18.967 6.007-29.395 6.007s-20.363-2.145-29.395-6.007c2.79-13.674 14.91-23.993 29.395-23.993zm285-45c0-8.271 6.728-15 15-15 8.271 0 15 6.729 15 15s-6.729 15-15 15c-8.272 0-15-6.729-15-15zm15 45c14.485 0 26.605 10.32 29.395 23.993-9.032 3.862-18.967 6.007-29.395 6.007s-20.363-2.145-29.395-6.007c2.79-13.673 14.91-23.993 29.395-23.993zm0-120c41.355 0 75 33.645 75 75 0 19.664-7.617 37.574-20.042 50.963-4.184-9.528-10.765-17.774-18.989-23.954 5.667-7.529 9.031-16.882 9.031-27.009 0-24.813-20.187-45-45-45-24.814 0-45 20.187-45 45 0 10.127 3.364 19.48 9.031 27.009-8.225 6.18-14.806 14.426-18.989 23.954-12.425-13.389-20.042-31.299-20.042-50.963 0-41.355 33.645-75 75-75zm-375 75c0-41.355 33.645-75 75-75s75 33.645 75 75c0 19.664-7.617 37.574-20.042 50.963-4.184-9.529-10.765-17.774-18.99-23.955 5.668-7.528 9.032-16.881 9.032-27.008 0-24.813-20.187-45-45-45s-45 20.187-45 45c0 10.127 3.364 19.48 9.031 27.008-8.225 6.181-14.806 14.427-18.99 23.955-12.424-13.389-20.041-31.299-20.041-50.963zm21.967 353.033c-25.984-25.984-28.857-66.439-8.664-95.65l21.8 21.801c-8.836 16.961-6.145 38.413 8.077 52.636 14.593 14.594 36.126 16.733 52.646 8.087l21.791 21.791c-29.212 20.193-69.666 17.319-95.65-8.665zm117.739-11.673-21.213-21.213 20.147-20.147 21.213 21.213zm220.294-41.36c0-8.271 6.728-15 15-15 8.271 0 15 6.729 15 15 0 8.272-6.729 15-15 15-8.272 0-15-6.728-15-15zm-14.395 68.993c2.79-13.673 14.91-23.993 29.395-23.993s26.605 10.32 29.395 23.993c-9.032 3.862-18.967 6.007-29.395 6.007s-20.363-2.145-29.395-6.007zm84.353-18.03c-4.184-9.528-10.765-17.774-18.989-23.955 5.667-7.528 9.031-16.881 9.031-27.008 0-24.813-20.187-45-45-45-24.814 0-45 20.187-45 45 0 10.127 3.364 19.48 9.031 27.008-8.225 6.181-14.806 14.427-18.989 23.955-12.425-13.389-20.042-31.299-20.042-50.963 0-41.355 33.645-75 75-75s75 33.645 75 75c0 19.664-7.617 37.574-20.042 50.963z"/></g></svg>