<svg id="Capa_1" enable-background="new 0 0 510 510" height="512" viewBox="0 0 510 510" width="512" xmlns="http://www.w3.org/2000/svg"><g fill="rgb(0,0,0)"><path d="m90 285h30v-32.58c17.459-6.191 30-22.865 30-42.42 0-24.813-20.187-45-45-45-8.272 0-15-6.729-15-15s6.728-15 15-15h45v-30h-30v-30h-30v32.58c-17.459 6.191-30 22.865-30 42.42 0 24.813 20.186 45 45 45 8.271 0 15 6.729 15 15s-6.729 15-15 15h-45v30h30z"/><path d="m195 75h240v30h-240z"/><path d="m195 135h240v30h-240z"/><path d="m195 195h240v30h-240z"/><path d="m195 255h240v30h-240z"/><path d="m0 0v420h195v15c0 24.813-20.187 45-45 45h-30v30h270v-30h-30c-24.814 0-45-20.187-45-45v-15h195c0-15.715 0-391.291 0-420zm209.959 480c9.438-12.544 15.041-28.129 15.041-45v-15h60v15c0 16.871 5.602 32.456 15.041 45zm270.041-90c-18.777 0-407.134 0-450 0v-30h450zm0-60h-450v-300h450z"/></g></svg>