<svg id="Capa_1" enable-background="new 0 0 510 510" height="512" viewBox="0 0 510 510" width="512" xmlns="http://www.w3.org/2000/svg"><g><path d="m60 97.5h75v30h-75z"/><path d="m60 157.5h75v30h-75z"/><path d="m225 67.5h60v30h-60z"/><path d="m225 127.5h60v30h-60z"/><path d="m375 97.5h75v30h-75z"/><path d="m375 157.5h75v30h-75z"/><path d="m345 37.5v-30h-180v30h-165v210h69.912l35.088 26.901 35.088-26.901h54.912v-30h23.787l36.213 36.213 36.213-36.213h23.787v30h54.911l35.089 26.901 35.089-26.901h69.911v-210zm-215.088 180-24.912 19.099-24.912-19.099h-50.088v-150h135v150zm148.875-30-23.787 23.787-23.787-23.787h-36.213v-150h120v150zm201.213 30h-50.088l-24.912 19.099-24.912-19.099h-35.088v-150h135z"/><path d="m452.025 404.698c8.113-10.233 12.975-23.155 12.975-37.198 0-33.084-26.916-60-60-60s-60 26.916-60 60c0 14.043 4.862 26.965 12.975 37.198-8.483 4.022-16.086 9.597-22.463 16.347-7.609-13.619-19.333-24.635-33.486-31.347 8.112-10.233 12.974-23.155 12.974-37.198 0-33.084-26.916-60-60-60s-60 26.916-60 60c0 14.043 4.862 26.965 12.975 37.198-14.154 6.712-25.877 17.728-33.486 31.347-6.377-6.75-13.98-12.324-22.464-16.347 8.113-10.233 12.975-23.155 12.975-37.198 0-33.084-26.916-60-60-60s-60 26.916-60 60c0 14.043 4.862 26.965 12.975 37.198-25.378 12.035-42.975 37.898-42.975 67.802v30h480v-30c0-29.904-17.597-55.767-42.975-67.802zm-47.025-67.198c16.542 0 30 13.458 30 30s-13.458 30-30 30-30-13.458-30-30 13.458-30 30-30zm-150-15c16.542 0 30 13.458 30 30s-13.458 30-30 30-30-13.458-30-30 13.458-30 30-30zm-150 15c16.542 0 30 13.458 30 30s-13.458 30-30 30-30-13.458-30-30 13.458-30 30-30zm-60 135c0-24.813 20.187-45 45-45h30c24.813 0 45 20.187 45 45zm150 0v-15c0-24.813 20.187-45 45-45h30c24.814 0 45 20.187 45 45v15zm150 0c0-24.813 20.186-45 45-45h30c24.813 0 45 20.187 45 45z"/></g></svg>