<svg id="Capa_1" enable-background="new 0 0 510.006 510.006" height="512" viewBox="0 0 510.006 510.006" width="512" xmlns="http://www.w3.org/2000/svg"><g><path d="m509.216 352.287c-2.591-13.816-11.214-25.489-23.659-32.026-12.444-6.534-26.948-7.012-39.796-1.302l-.523.232-100.282 54.072c-.918-24.01-20.725-43.261-44.955-43.261-18.011 0-36.175-1.794-53.987-5.332-32.301-6.415-54.51-9.668-66.013-9.668-14.444 0-39.24 2.281-60 7.081v-37.081h-120.001v225h120v-28.97c23.229 3.157 37.587 12.342 41.459 13.971 19.628 9.812 41.6 14.999 63.541 14.999 70.569 0 140.32-21.959 198.962-64.204l63.215-45.541c16.787-9.694 25.626-28.84 22.039-47.97zm-479.216 127.716v-165h60v165zm441.862-105.55-.805.442-64.631 46.561c-53.165 38.302-115.902 58.547-181.426 58.547-32.074 0-53.081-13.707-56.459-15.001-15.149-7.573-31.691-12.391-48.541-14.195v-97.764c16.928-4.759 43.116-8.04 60-8.04 5.372 0 20.332 1.182 60.169 9.094 19.731 3.919 39.862 5.906 59.831 5.906 8.272 0 15 6.729 15 15 0 8.272-6.728 15-15 15h-90v30h90c12.021 0 23.705-2.424 34.73-7.205l.588-.255 123.066-66.357c9.151-3.744 19.505 1.831 21.345 11.631 1.253 6.68-1.908 13.366-7.867 16.636z"/><path d="m290.577 230.782 54.423-25.54 54.422 25.539-7.472-59.649 41.105-43.865-59.039-11.328-29.016-52.649-29.017 52.648-59.039 11.328 41.105 43.865zm44.885-88.033 9.538-17.306 9.538 17.307 19.406 3.723-13.512 14.42 2.456 19.606-17.888-8.395-17.89 8.395 2.457-19.606-13.512-14.42z"/><path d="m345 300.003c82.71 0 150-67.29 150-150s-67.29-150-150-150-150 67.29-150 150 67.29 150 150 150zm0-270c66.168 0 120 53.832 120 120s-53.832 120-120 120-120-53.832-120-120 53.832-120 120-120z"/></g></svg>