<svg id="Capa_1" enable-background="new 0 0 510 510" height="512" viewBox="0 0 510 510" width="512" xmlns="http://www.w3.org/2000/svg"><g><path d="m429.188 292.082c3.693-6.528 5.814-14.06 5.814-22.082 0-24.814-20.187-45-45-45h-67.278v-30c0-41.355-33.645-75-75-75h-15v75c0 24.813-20.187 45-45 45h-37.724v-30h-150v285h150v-29.484c43.378 2.955 71.31 17.717 79.546 20.458 14.974 5.989 30.742 9.026 46.869 9.026h98.586c24.813 0 45-20.187 45-45 0-8.022-2.12-15.553-5.814-22.082 20.385-13.049 26.637-39.429 15-60 12.502-8.003 20.814-22.004 20.814-37.918s-8.312-29.915-20.813-37.918zm-399.188 172.918v-225h90v225zm345.001 0h-98.586c-12.293 0-24.314-2.315-35.728-6.88-8.343-2.743-40.784-19.688-90.688-22.673v-165.447h37.722c41.355 0 75-33.645 75-75v-42.43c17.461 6.19 30 22.873 30 42.43v60h97.278c8.271 0 15 6.728 15 15s-6.729 15-15 15h-75v30h90c8.271 0 15 6.728 15 15s-6.729 15-15 15c-13.864 0-79.049 0-90 0v30h75c8.271 0 15 6.728 15 15s-6.729 15-15 15c-7.424 0-66.539 0-75 0v30h60c8.271 0 15 6.728 15 15s-6.727 15-14.998 15z"/><path d="m60 270h30v30h-30z"/><path d="m510 78.977-59.039-11.328-29.017-52.649-29.017 52.648-59.039 11.328 41.106 43.865-7.472 59.649 54.421-25.539 54.422 25.539-7.472-59.649zm-70.167 53.231-17.889-8.395-17.888 8.395 2.456-19.606-13.512-14.42 19.406-3.723 9.538-17.307 9.538 17.307 19.406 3.723-13.512 14.42z"/></g></svg>