<svg id="Capa_1" enable-background="new 0 0 510 510" height="512" viewBox="0 0 510 510" width="512" xmlns="http://www.w3.org/2000/svg"><g><path d="m60 419.688h240v30h-240z"/><path d="m360 173.475v-83.787h-60v-89.376l-300 93.333v416.043h360v-53.788l36.213-36.213h113.787v-30h-126.213l-23.787 23.788v-197.575l36.213-36.213h113.787v-30h-126.213zm-90-132.411v48.623h-156.292zm60 78.624v101.76c-18.469-8.817-130.872-62.479-150-71.611-19.131 9.134-131.531 62.794-150 71.611v-101.76zm-60 106.359v133.641h-45v-90h-90v90h-45v-133.641l90-42.966zm-75 133.641h-30v-60h30zm-165 120v-224.999l30-14.321v149.319h240v-149.319l30 14.321v224.998h-300z"/><path d="m450 89.688h60v30h-60z"/><path d="m390 89.688h30v30h-30z"/><path d="m450 329.688h60v30h-60z"/><path d="m390 329.688h30v30h-30z"/></g></svg>