<svg id="Capa_1" enable-background="new 0 0 510 510" height="512" viewBox="0 0 510 510" width="512" xmlns="http://www.w3.org/2000/svg"><g><g><path d="m407.025 412.198c8.113-10.233 12.975-23.155 12.975-37.198 0-33.084-26.916-60-60-60s-60 26.916-60 60c0 14.043 4.862 26.965 12.975 37.198-9.725 4.611-18.298 11.257-25.184 19.38l-17.791-17.791v-142.945c8.197 4.816 18.241 14.158 39.994 14.158 18.223 0 28.333-6.617 35.716-11.449 6.241-4.085 10.009-6.551 19.287-6.551s13.046 2.466 19.287 6.551c7.383 4.832 17.493 11.449 35.716 11.449h15v-15c0-40.643-19.117-78.668-53.829-107.068-69.905-57.194-182.321-57.29-252.342 0-34.712 28.4-53.829 66.425-53.829 107.068v15h15c18.223 0 28.332-6.617 35.714-11.449 6.241-4.085 10.008-6.551 19.284-6.551s13.043 2.466 19.283 6.55c7.381 4.832 17.491 11.45 35.713 11.45 21.673 0 31.712-9.296 40.006-14.166v155.379l32.964 32.963c-1.916 6.617-2.964 13.598-2.964 20.824v30h180v-30c0-29.904-17.597-55.767-42.975-67.802zm-4.137-162.337c-.698-.446-1.418-.917-2.174-1.412-7.383-4.832-17.493-11.449-35.717-11.449s-28.334 6.617-35.717 11.449c-.003.002-.005.003-.008.005-2.05-30.258-8.998-64.888-23.865-91.478 50.341 14.414 88.335 49.771 97.481 92.885zm-257.89-12.861c-18.223 0-28.332 6.617-35.714 11.449-.756.495-1.475.965-2.171 1.411 9.144-43.11 47.13-78.464 97.463-92.88-14.859 26.581-21.811 61.2-23.861 91.473-.002-.002-.003-.002-.003-.002-7.382-4.833-17.492-11.451-35.714-11.451zm65.473 16.367c1.57-27.631 7.033-53.015 15.799-72.734 8.398-18.893 19.403-30.631 28.722-30.633h.003c9.319.001 20.324 11.739 28.724 30.633 8.766 19.721 14.228 45.104 15.798 72.733-10.037-3.768-19.107-16.366-44.524-16.366-25.398 0-34.508 12.607-44.522 16.367zm149.529 91.633c16.542 0 30 13.458 30 30s-13.458 30-30 30-30-13.458-30-30 13.458-30 30-30zm-60 135c0-24.814 20.186-45 45-45h30c24.814 0 45 20.186 45 45z"/><path d="m110.273 130.389-27.095-83.868-43.135 28.756-10.376-48.42-29.334 6.286 19.624 91.58 46.865-31.244 14.905 46.132z"/><path d="m480.333 26.857-10.376 48.42-43.135-28.756-27.095 83.868 28.546 9.222 14.905-46.132 46.865 31.244 19.624-91.58z"/><path d="m180 0h30v30h-30z"/><path d="m180 60h30v30h-30z"/><path d="m240 30h30v30h-30z"/><path d="m120 30h30v30h-30z"/><path d="m360 30h30v30h-30z"/><path d="m300 0h30v30h-30z"/><path d="m300 60h30v30h-30z"/></g></g></svg>