<svg id="Capa_1" enable-background="new 0 0 510 510" height="512" viewBox="0 0 510 510" width="512" xmlns="http://www.w3.org/2000/svg"><g><path d="m0 0v420h195v15c0 24.813-20.187 45-45 45h-30v30h270v-30h-30c-24.813 0-45-20.187-45-45v-15h195c0-22.24 0-401.316 0-420zm209.959 480c9.438-12.544 15.041-28.129 15.041-45v-15h60v15c0 16.871 5.603 32.456 15.041 45zm270.041-90c-10.587 0-439.211 0-450 0v-30h450zm-90-180v30h-270v-30zm-158.787-30 76.787-76.787 38.787 38.787-38 38zm128.787 90v60h-210v-60zm120 60h-90v-60h30v-90h-68.787l38-38-81.213-81.213-119.213 119.213h-98.787v90h30v60h-90v-300h450z" fill="rgb(0,0,0)"/></g></svg>