<svg id="Capa_1" enable-background="new 0 0 509.264 509.264" height="512" viewBox="0 0 509.264 509.264" width="512" xmlns="http://www.w3.org/2000/svg"><g><path d="m447.904 52.734-132.824-52.734-5.191 1.73c-26.136 8.712-84.407 8.701-110.514 0l-5.191-1.73c-12.035 4.778-115.97 46.043-132.825 52.734-.099.102-46.727 27.005-46.727 81.309v135.221h75v240h330v-240h75v-135.221c0-56.696-46.631-81.208-46.728-81.309zm-151.875-17.292c-7.864 24.48-27.03 54.314-41.425 74.151-14.411-19.787-33.588-49.583-41.415-74.157 24.923 3.71 57.118 3.831 82.84.006zm-251.397 203.822v-30h45v30zm345 240h-270v-30h270zm0-60h-270c0-40.436 0-244.665 0-285h-30v45h-45v-45.221c0-21.997 11.515-42.714 30.129-54.352l107.748-42.778c4.518 17.892 14.352 38.992 29.41 63.036 15.328 24.474 30.469 43.037 31.105 43.815l11.634 14.213 11.602-14.238c.637-.782 15.769-19.419 31.09-43.925 15.029-24.04 24.854-45.098 29.381-62.91l107.772 42.787c18.614 11.638 30.129 32.354 30.129 54.352v45.221h-45v-45h-30zm30-180v-30h45v30z"/><path d="m284.632 209.264c-11.515 0-22.033 4.347-30 11.486-7.967-7.14-18.485-11.486-30-11.486-24.814 0-45 20.186-45 45 0 16.871 11.253 36.31 34.4 59.426 15.581 15.559 30.974 27.106 31.621 27.59l8.979 6.71 8.979-6.71c.647-.483 16.04-12.03 31.621-27.59 23.147-23.116 34.4-42.555 34.4-59.426 0-24.814-20.187-45-45-45zm-29.982 100.91c-21.126-17.517-45.019-43.008-45.019-55.91 0-8.271 6.729-15 15-15s15 6.729 15 15h30c0-8.271 6.729-15 15-15 8.272 0 15 6.729 15 15 .001 12.339-21.943 36.945-44.981 55.91z"/></g></svg>