<svg id="Capa_1" enable-background="new 0 0 510 510" height="512" viewBox="0 0 510 510" width="512" xmlns="http://www.w3.org/2000/svg"><g><path d="m510 390v-330h-90v-30h30v-30h-90v30h30v30h-120v-30h30v-30h-90v30h30v30h-120v-30h30v-30h-90v30h30v30h-90v330h195v30h-30v30h30v60h120v-60h30v-30h-30v-30zm-135-105c0-8.272 6.728-15 15-15s15 6.728 15 15-6.728 15-15 15-15-6.728-15-15zm15 45c16.542 0 30 13.458 30 30h-60c0-16.542 13.458-30 30-30zm-285-45c0-8.272 6.729-15 15-15s15 6.728 15 15-6.729 15-15 15-15-6.728-15-15zm15 45c16.542 0 30 13.458 30 30h-60c0-16.542 13.458-30 30-30zm35.969-17.991c5.667-7.529 9.031-16.882 9.031-27.009 0-24.814-20.186-45-45-45s-45 20.186-45 45c0 10.127 3.364 19.48 9.031 27.009-14.582 10.956-24.031 28.389-24.031 47.991h-30v-270h450v270h-30c0-19.602-9.449-37.035-24.031-47.991 5.667-7.529 9.031-16.882 9.031-27.009 0-24.814-20.186-45-45-45s-45 20.186-45 45c0 10.127 3.364 19.48 9.031 27.009-14.582 10.956-24.031 28.389-24.031 47.991h-150c0-19.602-9.449-37.035-24.031-47.991zm129.031 167.991h-60v-30h60zm0-60h-60v-30h60z"/><path d="m290.969 192.009c5.667-7.529 9.031-16.882 9.031-27.009 0-24.814-20.186-45-45-45s-45 20.186-45 45c0 10.127 3.364 19.48 9.031 27.009-14.582 10.956-24.031 28.389-24.031 47.991v30h120v-30c0-19.602-9.449-37.035-24.031-47.991zm-50.969-27.009c0-8.271 6.729-15 15-15 8.272 0 15 6.729 15 15s-6.728 15-15 15c-8.271 0-15-6.729-15-15zm-15 75c0-16.542 13.458-30 30-30s30 13.458 30 30z"/><path d="m60 180h105v30h-105z"/><path d="m345 180h105v30h-105z"/><path d="m60 120h105v30h-105z"/><path d="m345 120h105v30h-105z"/><path d="m195 300h120v30h-120z"/></g></svg>