<svg id="Capa_1" enable-background="new 0 0 510.006 510.006" height="512" viewBox="0 0 510.006 510.006" width="512" xmlns="http://www.w3.org/2000/svg"><g><path d="m509.216 329.787c-5.433-28.971-36.478-45.316-63.455-33.327l-.523.233-100.281 54.07c-.919-24.009-20.727-43.26-44.956-43.26-18.011 0-36.175-1.794-53.987-5.332-32.301-6.415-54.51-9.668-66.013-9.668-14.444 0-39.24 2.281-60 7.082v-37.082h-120.001v225h120v-28.971c23.275 3.166 37.595 12.346 41.459 13.972 19.628 9.812 41.6 14.999 63.541 14.999 70.569 0 140.32-21.959 198.962-64.204l63.215-45.541c16.787-9.695 25.626-28.841 22.039-47.971zm-479.216 127.716v-165h60v165zm441.862-105.55-.805.442-64.631 46.561c-53.165 38.302-115.902 58.547-181.426 58.547-17.309 0-34.642-4.092-50.124-11.832-3.676-1.504-23.547-14.009-54.876-17.364v-97.764c16.928-4.759 43.116-8.04 60-8.04 5.372 0 20.332 1.182 60.169 9.094 19.731 3.919 39.862 5.906 59.831 5.906 8.272 0 15 6.729 15 15 0 8.272-6.728 15-15 15h-90v30h90c12.021 0 23.704-2.424 34.729-7.205l.589-.255 123.067-66.357c9.16-3.746 19.506 1.839 21.344 11.631 1.253 6.68-1.908 13.366-7.867 16.636z"/><path d="m510 232.503v-30c0-29.904-17.597-55.767-42.976-67.802 8.113-10.233 12.976-23.155 12.976-37.198 0-33.084-26.916-60-60-60s-60 26.916-60 60c0 14.043 4.862 26.965 12.975 37.198-8.483 4.023-16.087 9.597-22.464 16.347-7.608-13.619-19.332-24.635-33.486-31.347 8.112-10.233 12.975-23.155 12.975-37.198 0-33.084-26.916-60-60-60s-60 26.916-60 60c0 14.043 4.862 26.965 12.975 37.198-14.153 6.712-25.878 17.728-33.486 31.347-6.377-6.75-13.98-12.324-22.464-16.347 8.112-10.233 12.975-23.155 12.975-37.198 0-33.084-26.916-60-60-60s-60 26.916-60 60c0 14.043 4.862 26.965 12.975 37.198-25.378 12.036-42.975 37.898-42.975 67.802v30zm-150-30c0-24.814 20.186-45 45-45h30c24.813 0 45 20.186 45 45zm60-135c16.542 0 30 13.458 30 30s-13.458 30-30 30-30-13.458-30-30 13.458-30 30-30zm-150-15c16.542 0 30 13.458 30 30s-13.458 30-30 30-30-13.458-30-30 13.458-30 30-30zm-60 135c0-24.814 20.186-45 45-45h30c24.813 0 45 20.186 45 45v15h-120zm-90-120c16.542 0 30 13.458 30 30s-13.458 30-30 30-30-13.458-30-30 13.458-30 30-30zm-60 135c0-24.814 20.187-45 45-45h30c24.813 0 45 20.186 45 45z"/></g></svg>