<svg height="511pt" viewBox="1 0 511.999 511" width="511pt" xmlns="http://www.w3.org/2000/svg"><path d="m149.964844 270.425781c-16.542969 0-30-13.460937-30-30.003906s13.457031-30 30-30c16.542968 0 30.003906 13.457031 30.003906 30s-13.460938 30.003906-30.003906 30.003906zm0-30.019531v.015625c0-.011719 0-.015625 0-.015625zm0 0"/><path d="m254.972656 270.425781c-16.542968 0-30.003906-13.460937-30.003906-30.003906s13.460938-30 30.003906-30c16.542969 0 30 13.457031 30 30s-13.457031 30.003906-30 30.003906zm-.003906-30.019531.003906.015625c0-.011719-.003906-.015625-.003906-.015625zm0 0"/><path d="m359.976562 270.425781c-16.542968 0-30-13.460937-30-30.003906s13.457032-30 30-30c16.542969 0 30 13.457031 30 30s-13.457031 30.003906-30 30.003906zm0-30.019531v.015625c0-.011719 0-.015625 0-.015625zm0 0"/><path d="m0 511.445312 78.601562-165.003906-78.5781245-33.792968 44.7382815-74.21875-44.7382815-74.222657 85.4921875-36.765625 12.765625-82.175781 92.199219 14.652344 64.304687-59.417969 64.304688 59.417969 92.203125-14.652344 12.75 82.082031 87.957031 36.871094-46.949219 74.210938 46.949219 74.207031-87.957031 36.871093-12.75 82.085938-92.203125-14.652344-64.304688 59.417969-62.09375-57.378906zm44.890625-213.222656 75.519531 32.480469-54.710937 114.855469 132.5625-63.609375 56.523437 52.230469 54.324219-50.191407 76.347656 12.132813 10.636719-68.484375 70.140625-29.402344-37.835937-59.804687 37.835937-59.804688-70.140625-29.402344-10.636719-68.484375-76.351562 12.128907-54.320313-50.191407-54.320312 50.191407-76.347656-12.132813-10.621094 68.394531-68.605469 29.503906 36.042969 59.792969zm0 0"/></svg>