<svg height="512pt" viewBox="-1 0 512 512" width="512pt" xmlns="http://www.w3.org/2000/svg"><path d="m240 182h30v30h-30zm0 0"/><path d="m180 182h30v30h-30zm0 0"/><path d="m120 182h30v30h-30zm0 0"/><path d="m473.335938 316.050781c-3.824219-3.167969-5.832032-8.019531-5.367188-12.980469 1.636719-17.574218-4.523438-34.753906-16.902344-47.136718-12.378906-12.378906-29.566406-18.539063-47.136718-16.898438-4.972657.460938-9.816407-1.546875-12.980469-5.371094-2.132813-2.582031-4.496094-4.976562-7.039063-7.171874 3.976563-9.191407 6.089844-19.199219 6.089844-29.492188 0-22.25-9.867188-43.175781-27.074219-57.414062-6.375-5.277344-9.722656-13.359376-8.949219-21.621094 2.046876-21.949219-5.636718-43.398438-21.089843-58.851563s-36.90625-23.136719-58.851563-21.089843c-8.253906.769531-16.34375-2.574219-21.621094-8.949219-15.289062-18.476563-36.21875-29.074219-57.414062-29.074219-21.199219 0-42.125 10.597656-57.417969 29.074219-5.273437 6.375-13.359375 9.71875-21.617187 8.949219-21.949219-2.050782-43.398438 5.636718-58.851563 21.089843s-23.136719 36.90625-21.089843 58.851563c.769531 8.261718-2.574219 16.34375-8.949219 21.621094-17.207031 14.238281-27.074219 35.164062-27.074219 57.414062s9.867188 43.175781 27.074219 57.414062c6.375 5.277344 9.71875 13.359376 8.949219 21.621094-2.046876 21.949219 5.636718 43.398438 21.089843 58.851563 15.453125 15.449219 36.90625 23.136719 58.851563 21.089843 8.269531-.773437 16.34375 2.574219 21.621094 8.949219 14.238281 17.207031 35.164062 27.074219 57.414062 27.074219 2.640625 0 5.265625-.144531 7.859375-.417969 3.546875 6.1875 8.195313 11.726563 13.804687 16.367188 3.824219 3.167969 5.832032 8.019531 5.367188 12.980469-1.636719 17.574218 4.523438 34.753906 16.902344 47.136718 12.382812 12.378906 29.566406 18.539063 47.136718 16.898438 4.964844-.460938 9.8125 1.542968 12.980469 5.371094 11.390625 13.765624 28.140625 21.664062 45.949219 21.664062s34.558594-7.898438 45.949219-21.664062c3.167969-3.828126 8.023437-5.835938 12.980469-5.371094 17.574218 1.636718 34.757812-4.519532 47.136718-16.902344 12.378906-12.378906 18.539063-29.558594 16.902344-47.136719-.464844-4.957031 1.542969-9.808593 5.367188-12.976562 13.769531-11.390625 21.664062-28.140625 21.664062-45.949219s-7.894531-34.558594-21.664062-45.949219zm-312.640626 29.746094c-10.507812-12.695313-26.058593-19.933594-42.378906-19.933594-1.707031 0-3.421875.078125-5.140625.242188-13.207031 1.234375-25.597656-3.183594-34.851562-12.433594-9.25-9.25-13.664063-21.628906-12.429688-34.851563 1.691407-18.148437-5.671875-35.910156-19.695312-47.515624-10.296875-8.519532-16.199219-21.023438-16.199219-34.304688s5.902344-25.785156 16.199219-34.304688c14.023437-11.605468 21.386719-29.371093 19.695312-47.519531-1.234375-13.21875 3.179688-25.597656 12.429688-34.847656 9.253906-9.253906 21.628906-13.667969 34.855469-12.433594 18.144531 1.695313 35.910156-5.667969 47.515624-19.695312 4.53125-5.472657 16.9375-18.199219 34.304688-18.199219s29.773438 12.726562 34.304688 18.199219c11.605468 14.027343 29.367187 21.386719 47.519531 19.695312 13.230469-1.234375 25.601562 3.183594 34.851562 12.429688 9.25 9.253906 13.664063 21.632812 12.429688 34.851562-1.691407 18.148438 5.671875 35.914063 19.695312 47.519531 10.296875 8.519532 16.199219 21.023438 16.199219 34.304688s-5.902344 25.785156-16.199219 34.304688c-14.023437 11.605468-21.386719 29.371093-19.695312 47.519531 1.234375 13.21875-3.179688 25.597656-12.429688 34.847656-9.253906 9.25-21.640625 13.664063-34.851562 12.433594-18.160157-1.695313-35.914063 5.667969-47.519531 19.691406-8.523438 10.296875-21.027344 16.203125-34.304688 16.203125s-25.78125-5.90625-34.304688-16.203125zm293.515626 39.042969c-11.476563 9.496094-17.5 24.027344-16.113282 38.875.816406 8.785156-2.109375 17-8.242187 23.136718-6.136719 6.136719-14.359375 9.0625-23.136719 8.242188-14.847656-1.386719-29.382812 4.640625-38.878906 16.117188-5.675782 6.855468-14 10.789062-22.839844 10.789062s-17.164062-3.933594-22.839844-10.792969c-9.496094-11.476562-24.027344-17.5-38.878906-16.113281-8.769531.820312-17-2.105469-23.136719-8.242188-6.132812-6.132812-9.0625-14.351562-8.242187-23.136718 1.386718-14.847656-4.636719-29.378906-16.113282-38.875-1.140624-.945313-2.199218-1.964844-3.179687-3.046875 7.433594-4.359375 14.148437-10.03125 19.804687-16.867188 5.277344-6.375 13.355469-9.722656 21.621094-8.953125 21.953125 2.046875 43.398438-5.636718 58.851563-21.089844 15.453125-15.449218 23.136719-36.898437 21.089843-58.847656-.769531-8.261718 2.574219-16.34375 8.949219-21.621094 1.226563-1.011718 2.410157-2.0625 3.558594-3.140624.464844.492187.921875.996093 1.355469 1.519531 9.496094 11.472656 24.027344 17.496093 38.875 16.113281 8.78125-.820312 17.003906 2.105469 23.136718 8.242188 6.136719 6.132812 9.0625 14.351562 8.246094 23.136718-1.386718 14.847656 4.636719 29.378906 16.113282 38.875 6.855468 5.679688 10.789062 14 10.789062 22.839844s-3.933594 17.164062-10.789062 22.839844zm0 0"/><path d="m480 467h30v30h-30zm0 0"/><path d="m30 332c-16.542969 0-30 13.457031-30 30s13.457031 30 30 30 30-13.457031 30-30-13.457031-30-30-30zm0 0"/></svg>