<svg height="511pt" viewBox="1 0 511.999 511" width="511pt" xmlns="http://www.w3.org/2000/svg"><path d="m464.292969 411.371094 47.324219-19.46875-27.238282-45.1875 27.238282-45.1875-53.992188-22.207032-7.640625-49.207031-55.453125 8.8125-7.398438-6.835937-26.941406-44.695313 34.753906-57.65625-66.441406-28.574219-9.882812-63.632812-71.222656 11.316406-49.925782-48.347656-49.929687 48.347656-71.21875-11.316406-9.886719 63.632812-66.4375 28.574219 34.753906 57.65625-34.753906 57.660157 60.046875 25.824218-59.96875 129.78125 149.808594-72.78125 47.585937 43.96875 30.449219-28.136718 1.8125 3.003906-27.097656 44.953125 51.828125 22.292969 7.667968 49.355468 55.453126-8.808594 38.472656 35.542969 36.476562-33.703125 119.464844 55.511719zm-309.203125-118.671875-93.839844 45.589843 38.105469-82.472656-56.824219-24.4375 26.511719-43.984375-26.511719-43.984375 50.433594-21.6875 7.855468-50.5625 56.613282 8.992188 40.039062-38.773438 40.039063 38.773438 56.613281-8.996094 7.855469 50.5625 50.433593 21.691406-26.515624 43.984375 26.515624 43.984375-50.433593 21.6875-7.855469 50.5625-56.398438-8.960937-40.253906 37.191406zm231.96875 128.722656-31 28.644531-29.007813-26.800781-40.421875 6.421875-5.636718-36.289062-35.824219-15.40625 18.855469-31.277344-12.085938-20.050782 66.683594 10.597657 9.882812-63.632813 41.152344-17.699218 15.40625 14.234374 40.421875-6.425781 5.660156 36.441407 37.65625 15.488281-18.710937 31.046875 18.710937 31.042968-44.320312 18.234376 26.082031 54.9375zm0 0"/><path d="m238.589844 180.789062h29.367187v29.367188h-29.367187zm0 0"/><path d="m179.851562 180.789062h29.367188v29.367188h-29.367188zm0 0"/><path d="m121.117188 180.789062h29.367187v29.367188h-29.367187zm0 0"/></svg>