<svg height="512pt" viewBox="0 -9 512 512" width="512pt" xmlns="http://www.w3.org/2000/svg"><path d="m22.539062 493.003906 32.195313-128.789062c-35.363281-39.578125-54.734375-88.699219-54.734375-139.214844 0-60.480469 26.785156-117.226562 75.417969-159.78125 48.0625-42.058594 111.839843-65.21875 179.582031-65.21875 67.832031 0 131.941406 23.140625 180.519531 65.164062 49.320313 42.664063 76.480469 99.429688 76.480469 159.835938s-27.160156 117.171875-76.480469 159.835938c-48.578125 42.023437-112.6875 65.164062-180.519531 65.164062-36.621094 0-72.128906-6.859375-105.652344-20.402344zm232.460938-463.003906c-124.066406 0-225 87.476562-225 195 0 45.378906 18.492188 89.625 52.074219 124.585938l5.746093 5.980468-20.359374 81.429688 80.875-40.433594 6.417968 2.777344c31.640625 13.710937 65.371094 20.660156 100.246094 20.660156 125.167969 0 227-87.476562 227-195s-101.832031-195-227-195zm0 0"/></svg>