<svg height="512pt" viewBox="0 -10 512 512" width="512pt" xmlns="http://www.w3.org/2000/svg"><path d="m512 169c0-45.527344-20.972656-88.277344-59.054688-120.363281-37.222656-31.363281-86.210937-48.636719-137.945312-48.636719-51.652344 0-100.316406 17.296875-137.03125 48.707031-26.816406 22.945313-44.988281 51.414063-53.121094 82.507813-24.746094 8.246094-47.480468 20.898437-66.878906 37.492187-37.382812 31.984375-57.96875 74.703125-57.96875 120.292969 0 37.394531 14.363281 73.738281 40.625 103.222656l-25.699219 100.507813 100.992188-49.371094c25.132812 9.71875 51.699219 14.640625 79.082031 14.640625 51.652344 0 100.316406-17.296875 137.03125-48.707031 26.878906-23 45.078125-51.550781 53.179688-82.730469 2.976562-1.003906 5.933593-2.066406 8.871093-3.203125l100.992188 49.371094-25.691407-100.480469c27.542969-30.601562 42.617188-66.972656 42.617188-103.25zm-317 259c-25.683594 0-50.515625-5.003906-73.808594-14.867188l-6.292968-2.667968-54.824219 26.804687 13.746093-53.765625-5.929687-6.03125c-24.433594-24.875-37.890625-56.296875-37.890625-88.472656 0-53.925781 36.644531-100.777344 90.054688-123.816406-.03125 1.269531-.054688 2.542968-.054688 3.816406 0 45.589844 20.585938 88.308594 57.96875 120.292969 36.714844 31.410156 85.378906 48.707031 137.03125 48.707031 12.054688 0 23.953125-.957031 35.640625-2.855469-22.636719 54.03125-83.855469 92.855469-155.640625 92.855469zm164.183594-125.152344c-14.34375 3.417969-29.113282 5.152344-44.183594 5.152344-90.980469 0-165-62.355469-165-139 0-4.703125.28125-9.351562.824219-13.933594 14.066406-3.296875 28.878906-5.066406 44.175781-5.066406 90.980469 0 165 62.355469 165 139 0 4.671875-.28125 9.292969-.816406 13.847656zm35.917968-12.382812-5.152343 2.183594c.027343-1.214844.050781-2.429688.050781-3.648438 0-45.589844-20.585938-88.308594-57.96875-120.292969-36.714844-31.410156-85.378906-48.707031-137.03125-48.707031-12.078125 0-23.984375.957031-35.621094 2.808594 22.652344-54.003906 83.855469-92.808594 155.621094-92.808594 92.085938 0 167 62.355469 167 139 0 30.863281-14.167969 62.285156-39.890625 88.472656l-5.929687 6.03125 13.746093 53.765625zm0 0"/></svg>