<svg height="512pt" viewBox="0 0 512 512" width="512pt" xmlns="http://www.w3.org/2000/svg"><path d="m422 392h30v30h-30zm0 0"/><path d="m362 392h30v30h-30zm0 0"/><path d="m302 392h30v30h-30zm0 0"/><path d="m90 392c-33.085938 0-60-26.914062-60-60s26.914062-60 60-60 60 26.914062 60 60-26.914062 60-60 60zm0-90c-16.542969 0-30 13.457031-30 30s13.457031 30 30 30 30-13.457031 30-30-13.457031-30-30-30zm0 0"/><path d="m180 512h-180v-30c0-49.625 40.375-90 90-90s90 40.375 90 90zm-150-30h120c0-33.085938-26.914062-60-60-60s-60 26.914062-60 60zm0 0"/><path d="m422 120c-33.085938 0-60-26.914062-60-60s26.914062-60 60-60 60 26.914062 60 60-26.914062 60-60 60zm0-90c-16.542969 0-30 13.457031-30 30s13.457031 30 30 30 30-13.457031 30-30-13.457031-30-30-30zm0 0"/><path d="m60 90h30v30h-30zm0 0"/><path d="m120 90h30v30h-30zm0 0"/><path d="m180 90h30v30h-30zm0 0"/><path d="m270 210h-270v-210h270v65.730469l78.539062 39.269531-78.539062 39.269531zm-240-30h210v-54.269531l41.460938-20.730469-41.460938-20.730469v-54.269531h-210zm0 0"/><path d="m512 240h-180v-30c0-49.625 40.375-90 90-90s90 40.375 90 90zm-150-30h120c0-33.085938-26.914062-60-60-60s-60 26.914062-60 60zm0 0"/><path d="m512 512h-270v-65.730469l-78.539062-39.269531 78.539062-39.269531v-65.730469h270zm-240-30h210v-150h-210v54.269531l-41.460938 20.730469 41.460938 20.730469zm0 0"/></svg>