<svg height="512pt" viewBox="0 -20 512 512" width="512pt" xmlns="http://www.w3.org/2000/svg"><path d="m60 471.214844v-135.78125c-38.214844-36.746094-60-87.542969-60-140.433594 0-107.523438 87.476562-195 195-195h120c52.167969 0 101.460938 20.253906 138.804688 57.035156 37.527343 36.957032 58.195312 85.957032 58.195312 137.964844s-20.667969 101.007812-58.195312 137.964844c-37.34375 36.78125-86.636719 57.035156-138.804688 57.035156h-120c-16.113281 0-32.15625-2.003906-47.816406-5.96875zm135-441.214844c-90.980469 0-165 74.019531-165 165 0 46.640625 20.050781 91.371094 55.015625 122.726562l4.984375 4.472657v76.585937l48.507812-48.507812 8.601563 2.605468c15.59375 4.722657 31.707031 7.117188 47.890625 7.117188h120c92.085938 0 167-74.019531 167-165s-74.914062-165-167-165zm0 0"/><path d="m253.023438 307.441406-26.046876-14.882812 47.175782-82.558594h-90l72.824218-127.441406 26.046876 14.882812-47.175782 82.558594h90zm0 0"/></svg>