<svg height="512pt" viewBox="0 -20 512 512" width="512pt" xmlns="http://www.w3.org/2000/svg"><path d="m318.640625 110.148438-63.640625 63.636718-63.640625-63.636718-21.210937 21.210937 63.636718 63.640625-63.636718 63.640625 21.210937 21.210937 63.640625-63.636718 63.640625 63.636718 21.210937-21.210937-63.636718-63.640625 63.636718-63.640625zm0 0"/><path d="m453.804688 57.035156c-37.34375-36.78125-86.636719-57.035156-138.804688-57.035156h-120c-107.523438 0-195 87.476562-195 195 0 52.890625 21.785156 103.6875 60 140.433594v135.78125l87.183594-87.183594c15.660156 3.964844 31.707031 5.96875 47.816406 5.96875h120c52.167969 0 101.460938-20.253906 138.804688-57.035156 37.527343-36.957032 58.195312-85.957032 58.195312-137.964844s-20.667969-101.007812-58.195312-137.964844zm-138.804688 302.964844h-120c-16.183594 0-32.296875-2.394531-47.890625-7.117188l-8.601563-2.605468-48.507812 48.507812v-76.585937l-4.984375-4.472657c-34.964844-31.355468-55.015625-76.085937-55.015625-122.726562 0-90.980469 74.019531-165 165-165h120c92.085938 0 167 74.019531 167 165s-74.914062 165-167 165zm0 0"/></svg>