<svg height="512pt" viewBox="0 0 512 512" width="512pt" xmlns="http://www.w3.org/2000/svg"><path d="m210 512h-210v-15c0-57.898438 47.101562-105 105-105s105 47.101562 105 105zm-178.492188-30h146.984376c-6.96875-34.191406-37.273438-60-73.492188-60s-66.523438 25.808594-73.492188 60zm0 0"/><path d="m105 392c-41.355469 0-75-33.644531-75-75s33.644531-75 75-75 75 33.644531 75 75-33.644531 75-75 75zm0-120c-24.8125 0-45 20.1875-45 45s20.1875 45 45 45 45-20.1875 45-45-20.1875-45-45-45zm0 0"/><path d="m193.082031 312.519531 22.472657-86.289062c-21.703126-24.433594-33.554688-54.390625-33.554688-85.230469 0-38.164062 17.503906-73.882812 49.285156-100.582031 31.03125-26.0625 72.125-40.417969 115.714844-40.417969s84.683594 14.355469 115.714844 40.417969c31.78125 26.699219 49.285156 62.417969 49.285156 100.582031s-17.503906 73.882812-49.285156 100.582031c-31.03125 26.0625-72.125 40.417969-115.714844 40.417969-22.761719 0-44.859375-3.960938-65.792969-11.78125zm153.917969-282.519531c-74.4375 0-135 49.792969-135 111 0 25.554688 10.925781 50.550781 30.761719 70.375l6.078125 6.074219-10.421875 40.03125 41.761719-20.046875 6.199218 2.578125c19.125 7.957031 39.519532 11.988281 60.621094 11.988281 74.4375 0 135-49.792969 135-111s-60.5625-111-135-111zm0 0"/><path d="m392 120h30v30h-30zm0 0"/><path d="m272 120h30v30h-30zm0 0"/><path d="m332 120h30v30h-30zm0 0"/></svg>