<svg id="Capa_1" enable-background="new 0 0 512 512" height="512" viewBox="0 0 512 512" width="512" xmlns="http://www.w3.org/2000/svg"><path d="m497 49.594h-482c-8.284 0-15 6.716-15 15v382.812c0 8.284 6.716 15 15 15h482c8.284 0 15-6.716 15-15v-382.812c0-8.284-6.716-15-15-15zm-15 30v25h-452v-25zm0 352.812h-452v-297.812h452z"/><path d="m353 397.979h89c8.284 0 15-6.716 15-15v-162.394c0-8.284-6.716-15-15-15h-5.057v-37.606c0-8.284-6.716-15-15-15h-48.887c-8.284 0-15 6.716-15 15v37.606h-5.056c-8.284 0-15 6.716-15 15v162.394c0 8.284 6.716 15 15 15zm74-30h-59v-132.394h59zm-38.943-185h18.887v22.606h-18.887z"/><path d="m201.969 332.423v43.258c0 12.295 9.771 22.297 21.78 22.297h64.505c12.008 0 21.777-10.002 21.777-22.297v-43.258c0-.502 12.493-156.433 12.493-156.433.535-5.901-1.406-11.761-5.34-16.102-3.979-4.392-9.708-6.91-15.718-6.91h-90.934c-6.011 0-11.741 2.52-15.721 6.912-3.934 4.342-5.873 10.203-5.337 16.105.002.001 12.495 155.926 12.495 156.428zm78.062 35.556h-48.063v-20.556h48.063zm11.828-185-10.906 134.444h-49.907l-10.906-134.444z"/><path d="m73.221 397.979h87.196c10.047 0 18.221-8.174 18.221-18.221v-112.354c0-18.509-8.188-35.132-21.119-46.471.003-.117.018-.23.018-.347v-26.889c0-22.452-18.266-40.717-40.718-40.717-22.451 0-40.717 18.266-40.717 40.717v26.889c0 .117.015.23.018.347-12.932 11.338-21.12 27.961-21.12 46.471v112.354c0 10.047 8.174 18.221 18.221 18.221zm75.417-30h-63.638v-100.575c0-17.545 14.273-31.819 31.818-31.819s31.819 14.274 31.819 31.819v100.575zm-42.536-174.283c0-5.91 4.808-10.717 10.717-10.717 5.91 0 10.718 4.808 10.718 10.717v12.838c-3.484-.612-7.061-.949-10.718-.949-3.656 0-7.233.337-10.717.949z"/></svg>