<svg id="Capa_1" enable-background="new 0 0 512 512" height="512" viewBox="0 0 512 512" width="512" xmlns="http://www.w3.org/2000/svg"><path d="m497 141.023h-62.223c-8.284 0-15 6.716-15 15v8.89l-260.534 8.543c-8.089.266-14.509 6.899-14.509 14.992v3.18h-59.734v-3.304c0-8.284-6.716-15-15-15h-55c-8.284 0-15 6.716-15 15v135.352c0 8.284 6.716 15 15 15h55c8.284 0 15-6.716 15-15v-3.304h59.734v3.18c0 8.093 6.42 14.727 14.509 14.992l260.534 8.543v8.89c0 8.284 6.716 15 15 15h62.223c8.284 0 15-6.716 15-15v-199.954c0-8.284-6.716-15-15-15zm-442 167.653h-25v-105.352h25zm30-18.304v-68.744h59.734v68.744zm89.734 18.663v-106.07l245.043-8.035v122.14zm307.266 31.942h-32.223v-169.954h32.223z"/></svg>