<svg id="Layer_1" enable-background="new 0 0 512 512" height="512" viewBox="0 0 512 512" width="512" xmlns="http://www.w3.org/2000/svg"><path d="m209.094 473.966c-13.276 0-26.272-5.125-36.092-14.816l-148.906-144.484c-.051-.05-.102-.1-.153-.149-15.44-15.306-23.943-35.732-23.943-57.516s8.503-42.209 23.943-57.515l149.032-146.606c14.741-14.613 36.8-18.882 56.14-10.82 19.591 8.165 31.761 26.351 31.761 47.46l.105 106.481h191.019c33.084 0 60 26.916 60 60s-26.916 60-60 60c-11.046 0-20-8.954-20-20s8.954-20 20-20c11.028 0 20-8.972 20-20s-8.972-20-20-20h-211c-11.038 0-19.989-8.942-20-19.98l-.125-126.481c0-6.842-5-9.662-7.149-10.558-2.172-.906-7.754-2.487-12.646 2.361l-149.032 146.604c-7.75 7.683-12.048 18.02-12.048 29.054 0 11.001 4.273 21.309 12.033 29.038l148.894 144.471c.051.05.102.1.153.149 4.892 4.848 10.473 3.266 12.646 2.36 2.149-.896 7.149-3.716 7.149-10.539l.125-126.5c.011-11.039 8.963-19.98 20-19.98h.02c11.046.011 19.991 8.974 19.98 20.02l-.125 126.48c0 21.09-12.17 39.276-31.761 47.441-6.492 2.707-13.293 4.024-20.02 4.025zm185.906-177.965c0-11.046-8.954-20-20-20h-54c-11.046 0-20 8.954-20 20s8.954 20 20 20h54c11.046 0 20-8.954 20-20z"/></svg>