<svg id="Capa_1" enable-background="new 0 0 512 512" height="512" viewBox="0 0 512 512" width="512" xmlns="http://www.w3.org/2000/svg"><g><path d="m150 177.46h362v-120h-364.092c-7.921-32.919-37.594-57.46-72.908-57.46-41.355 0-75 33.645-75 75v437h512v-304.58h-90v214.58h-272zm0-90h59.771v60h-59.771zm89.771 0h30v60h-30zm242.229 60h-182.229v-60h182.229zm-407-117.46c24.813 0 45 20.187 45 45v287h-90v-287c0-24.813 20.187-45 45-45zm-45 362h90v30h-90zm422-154.58h30v184.58h-30zm30 214.58v30h-452v-30z"/></g></svg>