<svg id="Capa_1" enable-background="new 0 0 512 512" height="512" viewBox="0 0 512 512" width="512" xmlns="http://www.w3.org/2000/svg"><g><path d="m411.35 324.551c4.144 0 7.502-3.358 7.502-7.502v-247.814c0-4.144-3.358-7.502-7.502-7.502h-54.633v-54.363c-.738-5.454-3.842-7.881-9.314-7.28l-248.436 61.833c-3.365.772-5.851 3.855-5.819 7.374v435.202c0 4.144 3.359 7.502 7.502 7.502h310.7c4.144 0 7.502-3.358 7.502-7.502v-154.75c0-4.144-3.358-7.502-7.502-7.502s-7.502 3.358-7.502 7.502v147.248h-264.628v-38.06c0-4.144-3.359-7.502-7.502-7.502s-7.502 3.358-7.502 7.502v38.06h-16.064v-420.26h16.064v349.51c0 4.144 3.359 7.502 7.502 7.502s7.502-3.358 7.502-7.502v-349.51h115.97c4.143 0 7.501-3.358 7.501-7.502s-3.358-7.502-7.501-7.502h-93.338l179.86-44.765v44.765h-53.834c-4.144 0-7.502 3.358-7.502 7.502s3.358 7.502 7.502 7.502h115.969v240.312c.001 4.144 3.359 7.502 7.503 7.502z"/><path d="m371.456 290.369 15.535-31.071c1.799-6.113-.437-9.733-6.71-10.857h-23.569v-8.063c0-38.982-26.332-71.93-62.143-81.991v-11.192c-1.318-14.039-8.997-21.717-23.035-23.036-12.702 0-23.036 10.334-23.036 23.036v11.209c-35.78 10.081-62.082 43.014-62.082 81.973v8.063h-23.626c-6.272 1.125-8.509 4.744-6.71 10.857l15.534 31.071c1.271 2.541 3.869 4.147 6.71 4.147h186.422c2.842 0 5.439-1.606 6.71-4.146zm-107.954-143.173c0-4.429 3.603-8.032 8.032-8.032 4.893.462 7.57 3.139 8.031 8.032v8.407c-2.634-.247-5.303-.373-8.001-.373-2.719 0-5.408.128-8.063.379v-8.413zm-62.082 93.182c0-38.678 31.467-70.144 70.145-70.144s70.144 31.466 70.144 70.144v8.063h-140.289zm-18.459 39.133-8.033-16.067h193.214l-8.033 16.067z"/><path d="m356.713 317.945c0-4.144-3.358-7.502-7.502-7.502h-155.351c-4.143 0-7.502 3.358-7.502 7.502v30.903c0 4.144 3.359 7.502 7.502 7.502h155.351c4.144 0 7.502-3.358 7.502-7.502zm-15.004 23.402h-140.347v-15.9h140.347z"/><path d="m224.93 387.726h93.21c4.144 0 7.502-3.358 7.502-7.502s-3.358-7.502-7.502-7.502h-93.21c-4.143 0-7.502 3.358-7.502 7.502s3.359 7.502 7.502 7.502z"/><path d="m224.93 419.101h93.21c4.144 0 7.502-3.358 7.502-7.502s-3.358-7.502-7.502-7.502h-93.21c-4.143 0-7.502 3.358-7.502 7.502s3.359 7.502 7.502 7.502z"/><path d="m186.417 442.071c0 4.144 3.359 7.502 7.502 7.502h155.293c4.144 0 7.502-3.358 7.502-7.502s-3.358-7.502-7.502-7.502h-155.294c-4.143 0-7.501 3.358-7.501 7.502z"/></g></svg>