<svg id="Capa_1" enable-background="new 0 0 512 512" height="512" viewBox="0 0 512 512" width="512" xmlns="http://www.w3.org/2000/svg"><path d="m449.588 430.167h-144.736v-23.082h144.736c8.284 0 15-6.716 15-15 0-109.971-85.548-200.329-193.588-208.044v-26.421h17.911c8.284 0 15-6.716 15-15s-6.716-15-15-15h-65.822c-8.284 0-15 6.716-15 15s6.716 15 15 15h17.911v26.421c-108.04 7.715-193.588 98.072-193.588 208.044 0 8.284 6.716 15 15 15h144.736v23.082h-144.736c-8.284 0-15 6.716-15 15v51.833c0 8.284 6.716 15 15 15h387.176c8.284 0 15-6.716 15-15v-51.833c0-8.284-6.716-15-15-15zm-193.588-216.67c93.425 0 170.324 72.103 177.964 163.588h-355.928c7.64-91.485 84.539-163.588 177.964-163.588zm-18.852 193.588h37.703v23.082h-37.703zm197.44 74.915h-357.176v-21.833h357.176z"/><path d="m255.01 60.17c-20.7.163-39.714 7.982-52.164 21.452-5.624 6.083-5.251 15.573.833 21.196 2.886 2.668 6.536 3.985 10.178 3.985 4.037 0 8.063-1.62 11.019-4.818 6.851-7.411 17.921-11.718 30.371-11.816 12.773-.078 24.782 4.381 32.04 11.989 5.722 5.994 15.213 6.217 21.208.499 5.994-5.719 6.217-15.214.499-21.208-12.924-13.546-32.321-21.281-53.31-21.281-.224 0-.45.001-.674.002z"/><path d="m179.26 59.209c3.976 0 7.943-1.571 10.894-4.685 14.573-15.386 38.049-24.324 64.407-24.521.289-.002.577-.003.866-.003 26.62 0 51.458 9.197 66.576 24.687 5.786 5.928 15.282 6.042 21.212.257 5.928-5.786 6.043-15.283.257-21.212-20.957-21.471-52.982-33.732-88.01-33.732-.374 0-.752.001-1.127.004-34.475.259-65.807 12.61-85.963 33.89-5.696 6.015-5.439 15.509.575 21.205 2.902 2.748 6.61 4.11 10.313 4.11z"/></svg>