<svg id="Capa_1" enable-background="new 0 0 512.001 512.001" height="512" viewBox="0 0 512.001 512.001" width="512" xmlns="http://www.w3.org/2000/svg"><path d="m492.001 472h-16v-20c0-11.046-8.954-20-20-20s-20 8.954-20 20v20h-40v-76h96c6.405 0 12.423-3.068 16.185-8.251 3.763-5.183 4.815-11.855 2.831-17.945l-116-356c-2.683-8.232-10.359-13.804-19.017-13.804s-16.333 5.571-19.016 13.804l-100.984 309.916-100.984-309.916c-2.682-8.232-10.358-13.804-19.016-13.804s-16.334 5.571-19.016 13.804l-116 356c-1.984 6.09-.932 12.762 2.831 17.945s9.78 8.251 16.185 8.251h96v76h-40v-20c0-11.046-8.954-20-20-20s-20 8.954-20 20v20h-16c-11.046 0-20 8.954-20 20s8.954 20 20 20h472c11.046 0 20-8.954 20-20s-8.953-20-19.999-20zm-116.001-387.444 88.449 271.444h-68.449v-60c0-11.046-8.954-20-20-20s-20 8.954-20 20v60h-68.448zm-328.448 271.444 88.448-271.444 88.449 271.444h-68.449v-60c0-11.046-8.954-20-20-20s-20 8.954-20 20v60zm108.448 40h200v76h-80v-20c0-11.046-8.954-20-20-20s-20 8.954-20 20v20h-80z"/></svg>