<svg id="Capa_1" enable-background="new 0 0 512 512" height="512" viewBox="0 0 512 512" width="512" xmlns="http://www.w3.org/2000/svg"><g><path d="m482 392h-120.175v120h30v-90h90.175v90h30v-240h-30z"/><path d="m30 272h-30v240h30v-90h90.175v90h30v-120h-120.175z"/><path d="m447.564 95.009-176.564-57.877v-37.132h-30v37.132l-176.564 57.877c-38.541 12.635-64.436 48.373-64.436 88.932v15h211v73.059h-105.14c-24.813 0-45 20.187-45 45v45h150.14v150h90v-150h150.14v-45c0-24.813-20.187-45-45-45h-105.14v-73.059h196 15v-15c0-40.559-25.895-76.297-64.436-88.932zm-26.424 221.991v15h-150.14v150h-30v-150h-150.14v-15c0-8.271 6.729-15 15-15h300.28c8.271 0 15 6.729 15 15zm-150.14-45h-30v-73.059h30zm-239.222-103.059c5.085-21.072 20.7-38.441 42.003-45.424l182.219-59.732 182.219 59.732c21.303 6.983 36.918 24.352 42.003 45.424z"/></g></svg>