<svg id="Capa_1" enable-background="new 0 0 512 512" height="512" viewBox="0 0 512 512" width="512" xmlns="http://www.w3.org/2000/svg"><g><path d="m76 160c11.046 0 20-8.954 20-20 0-23.944 7.344-34.96 16.641-48.906 10.407-15.611 23.359-35.038 23.359-71.094 0-11.046-8.954-20-20-20s-20 8.954-20 20c0 23.944-7.344 34.96-16.641 48.906-10.407 15.611-23.359 35.038-23.359 71.094 0 11.046 8.954 20 20 20z"/><path d="m196 160c11.046 0 20-8.954 20-20 0-23.944 7.344-34.96 16.641-48.906 10.407-15.611 23.359-35.038 23.359-71.094 0-11.046-8.954-20-20-20s-20 8.954-20 20c0 23.944-7.344 34.96-16.641 48.906-10.407 15.611-23.359 35.038-23.359 71.094 0 11.046 8.954 20 20 20z"/><path d="m316 160c11.046 0 20-8.954 20-20 0-23.944 7.344-34.96 16.641-48.906 10.407-15.611 23.359-35.038 23.359-71.094 0-11.046-8.954-20-20-20s-20 8.954-20 20c0 23.944-7.344 34.96-16.641 48.906-10.407 15.611-23.359 35.038-23.359 71.094 0 11.046 8.954 20 20 20z"/><path d="m432 232c-11.835 0-23.343 2.606-33.832 7.506.329-8.919.506-18.083.506-27.506 0-11.046-8.954-20-20-20h-358.674c-11.046 0-20 8.954-20 20 0 205.917 82.353 290.636 85.858 294.142 3.75 3.751 8.837 5.858 14.142 5.858h198.674c5.305 0 10.392-2.107 14.142-5.858 1.209-1.209 11.792-12.077 25.141-34.235 70.239-1.921 112.635-37.574 135.994-67.625 27.916-35.913 38.049-74.864 38.049-92.282 0-44.112-35.888-80-80-80zm-236 80c11.028 0 20 8.972 20 20v60h-40v-60c0-11.028 8.972-20 20-20zm93.482 160h-180.291c-6.775-8.596-19.431-26.706-31.98-55.546-15.798-36.301-34.409-96.977-36.917-184.454h135.706v43.44c-23.278 8.256-40 30.487-40 56.56v80c0 11.046 8.954 20 20 20h80c11.046 0 20-8.954 20-20v-80c0-26.073-16.722-48.304-40-56.56v-43.44h142.38c-2.508 87.477-21.12 148.153-36.917 184.454-12.55 28.84-25.205 46.95-31.981 55.546zm69.851-42.263c12.567-29.482 24.707-68.125 32.099-116.99.347-1.243.584-2.537.687-3.873 1.587-20.677 19.106-36.874 39.881-36.874 22.056 0 40 17.944 40 40 0 13.657-23.201 102.425-112.667 117.737z"/></g></svg>