<svg id="Capa_1" enable-background="new 0 0 512.001 512.001" height="512" viewBox="0 0 512.001 512.001" width="512" xmlns="http://www.w3.org/2000/svg"><g><circle cx="100" cy="292.001" r="20"/><circle cx="180" cy="292.001" r="20"/><circle cx="260" cy="292.001" r="20"/><path d="m492 352.001c-11.046 0-20 8.954-20 20 0 9.226-4.19 20-16 20h-40c-11.028 0-20-8.972-20-20 0-56.842 77.503-122.89 107.354-143.536 7.207-4.97 10.344-14.051 7.741-22.41-2.604-8.359-10.341-14.054-19.096-14.054h-103.925l-34.376-65.315c-3.458-6.571-10.272-10.685-17.698-10.685h-27.926l-34.376-65.315c-3.458-6.571-10.272-10.685-17.698-10.685h-56v-20c0-11.046-8.954-20-20-20s-20 8.954-20 20v20h-40v-20c0-11.046-8.954-20-20-20s-20 8.954-20 20v20h-40v-20c0-11.046-8.954-20-20-20s-20 8.954-20 20v472c0 11.046 8.954 20 20 20h472c11.046 0 20-8.954 20-20v-120c0-11.046-8.954-20-20-20zm-72.38-103.901c-42.215 43.671-63.62 85.357-63.62 123.9 0 11.028-8.972 20-20 20h-40c-11.028 0-20-8.972-20-20 0-11.046-8.954-20-20-20s-20 8.954-20 20c0 11.028-8.972 20-20 20h-40c-11.028 0-20-8.972-20-20 0-11.046-8.954-20-20-20s-20 8.954-20 20c0 11.028-8.972 20-20 20h-36c-11.028 0-20-8.969-20-20 0-20.629 0-122.434 0-140h396.065c-5.352 4.971-10.893 10.357-16.445 16.1zm-76.747-56.099h-302.873v-36h283.926zm-80-76h-222.873v-36h203.925zm209.127 356h-432v-43.427c6.258 2.219 12.991 3.427 20 3.427h36c15.355 0 29.376-5.805 40-15.327 10.624 9.522 24.645 15.327 40 15.327h40c15.355 0 29.376-5.805 40-15.327 10.624 9.522 24.645 15.327 40 15.327h40c15.355 0 29.376-5.805 40-15.327 10.624 9.522 24.645 15.327 40 15.327h40c5.604 0 10.968-.795 16-2.291z"/></g></svg>