<svg id="Capa_1" enable-background="new 0 0 512 512" height="512" viewBox="0 0 512 512" width="512" xmlns="http://www.w3.org/2000/svg"><path d="m466.222 106.013h-116.788l-5.818-34.911c-2.424-14.537-14.88-25.089-29.618-25.089h-115.995c-14.738 0-27.194 10.552-29.618 25.09l-5.818 34.91h-116.789c-25.242 0-45.778 20.536-45.778 45.778v268.418c0 25.242 20.536 45.778 45.778 45.778h420.443c25.242 0 45.778-20.536 45.778-45.778v-268.418c.001-25.242-20.535-45.778-45.777-45.778zm-268.219-30 116.021.021 4.996 29.979h-126.032zm-152.225 60h129.495 161.453 129.495c8.7 0 15.778 7.078 15.778 15.778v74.677h-116.668c-21.147-38.682-62.225-64.979-109.331-64.979s-88.183 26.296-109.331 64.979h-116.669v-74.677c0-8.7 7.078-15.778 15.778-15.778zm436.222 179.519h-105.037c2.313-9.471 3.548-19.359 3.548-29.532s-1.235-20.061-3.548-29.532h105.037zm-452-59.064h105.037c-2.313 9.471-3.548 19.359-3.548 29.532s1.235 20.061 3.548 29.532h-105.037zm131.489 29.532c0-52.113 42.397-94.511 94.511-94.511s94.511 42.397 94.511 94.511-42.398 94.511-94.511 94.511-94.511-42.398-94.511-94.511zm304.733 149.987h-420.444c-8.7 0-15.778-7.078-15.778-15.778v-74.677h116.669c21.148 38.682 62.225 64.979 109.331 64.979s88.184-26.296 109.331-64.979h116.669v74.677c0 8.7-7.078 15.778-15.778 15.778z"/><path d="m256 355.511c38.328 0 69.511-31.183 69.511-69.511s-31.183-69.511-69.511-69.511-69.511 31.183-69.511 69.511 31.183 69.511 69.511 69.511zm0-109.022c21.786 0 39.511 17.725 39.511 39.511s-17.725 39.511-39.511 39.511-39.511-17.725-39.511-39.511 17.725-39.511 39.511-39.511z"/></svg>