<svg id="Capa_1" enable-background="new 0 0 512 512" height="512" viewBox="0 0 512 512" width="512" xmlns="http://www.w3.org/2000/svg"><g id="Credit_Card"><g><path d="m412 456h-392c-11.046 0-20-8.954-20-20v-280c0-11.046 8.954-20 20-20h392c11.046 0 20 8.954 20 20v280c0 11.046-8.954 20-20 20zm-372-40h352v-240h-352z"/></g><g><path d="m180 376h-80c-11.046 0-20-8.954-20-20v-80c0-11.046 8.954-20 20-20h80c11.046 0 20 8.954 20 20v80c0 11.046-8.954 20-20 20zm-60-40h40v-40h-40z"/></g><g><path d="m492 376c-11.046 0-20-8.954-20-20v-260h-372c-11.046 0-20-8.954-20-20s8.954-20 20-20h392c11.046 0 20 8.954 20 20v280c0 11.046-8.954 20-20 20z"/></g><g><path d="m332 376h-72c-11.046 0-20-8.954-20-20s8.954-20 20-20h72c11.046 0 20 8.954 20 20s-8.954 20-20 20z"/></g></g></svg>