<svg id="Capa_1" enable-background="new 0 0 512.001 512.001" height="512" viewBox="0 0 512.001 512.001" width="512" xmlns="http://www.w3.org/2000/svg"><g><path d="m494.428 293.574c-6.439-6.439-14.086-11.229-22.428-14.17v-43.404h20c11.045 0 20-8.954 20-20v-40c0-33.084-26.916-60-60-60h-60v-40h20c11.046 0 20-8.954 20-20s-8.954-20-20-20h-312c-11.046 0-20 8.954-20 20s8.954 20 20 20h20v40h-60c-33.084 0-60 26.916-60 60v240c0 11.046 8.954 20 20 20h63.44c8.256 23.278 30.487 40 56.56 40s48.303-16.722 56.56-40h118.88c8.256 23.278 30.487 40 56.56 40s48.303-16.722 56.56-40h63.44c11.045 0 20-8.954 20-20l.001-79.999c0-16.026-6.241-31.094-17.573-42.427zm-62.428-17.574h-40v-40h40zm-272-200h192v40h-192zm-20 360c-11.028 0-20-8.972-20-20s8.972-20 20-20 20 8.972 20 20-8.972 20-20 20zm232 0c-11.028 0-20-8.972-20-20s8.972-20 20-20 20 8.972 20 20-8.972 20-20 20zm100-40h-43.44c-8.256-23.278-30.487-40-56.56-40s-48.303 16.722-56.56 40h-118.88c-8.256-23.278-30.487-40-56.56-40s-48.303 16.722-56.56 40h-43.44v-220c0-11.028 8.972-20 20-20h392c11.028 0 20 8.972 20 20v20h-100c-11.046 0-20 8.954-20 20v80c0 11.046 8.954 20 20 20h80.001c5.342 0 10.365 2.081 14.142 5.858 3.778 3.778 5.858 8.8 5.858 14.142z"/><path d="m292 196h-192c-11.046 0-20 8.954-20 20v80c0 11.046 8.954 20 20 20h192c11.046 0 20-8.954 20-20v-80c0-11.045-8.954-20-20-20zm-20 80h-152v-40h152z"/></g></svg>