<svg id="Capa_1" enable-background="new 0 0 512 512" height="512" viewBox="0 0 512 512" width="512" xmlns="http://www.w3.org/2000/svg"><g><path d="m20 140h20v40c0 33.084 26.916 60 60 60s60-26.916 60-60v-40h192v40c0 33.084 26.916 60 60 60s60-26.916 60-60v-40h20c11.046 0 20-8.954 20-20s-8.954-20-20-20h-20v-40c0-33.084-26.916-60-60-60s-60 26.916-60 60v40h-192v-40c0-33.084-26.916-60-60-60s-60 26.916-60 60v40h-20c-11.046 0-20 8.954-20 20s8.954 20 20 20zm372-80c0-11.028 8.972-20 20-20s20 8.972 20 20v120c0 11.028-8.972 20-20 20s-20-8.972-20-20zm-312 0c0-11.028 8.972-20 20-20s20 8.972 20 20v120c0 11.028-8.972 20-20 20s-20-8.972-20-20z"/><path d="m492 372h-20v-40c0-33.084-26.916-60-60-60s-60 26.916-60 60v40h-192v-40c0-33.084-26.916-60-60-60s-60 26.916-60 60v40h-20c-11.046 0-20 8.954-20 20s8.954 20 20 20h20v40c0 33.084 26.916 60 60 60s60-26.916 60-60v-40h192v40c0 33.084 26.916 60 60 60s60-26.916 60-60v-40h20c11.046 0 20-8.954 20-20s-8.954-20-20-20zm-372 80c0 11.028-8.972 20-20 20s-20-8.972-20-20v-120c0-11.028 8.972-20 20-20s20 8.972 20 20zm312 0c0 11.028-8.972 20-20 20s-20-8.972-20-20v-120c0-11.028 8.972-20 20-20s20 8.972 20 20z"/></g></svg>