<svg id="Capa_1" enable-background="new 0 0 512 512" height="512" viewBox="0 0 512 512" width="512" xmlns="http://www.w3.org/2000/svg"><g><path d="m0 0v512h512v-512zm30 30h332v90h-332zm452 452h-452v-332h452zm-90-362v-90h90v90z"/><path d="m59.735 60h30v30h-30z"/><path d="m119.735 60h212.265v30h-212.265z"/><path d="m422 60h30v30h-30z"/><path d="m231.558 331h48.884v41.997h30v-113.994h-30v41.997h-48.884v-41.997h-30v113.994h30z"/><path d="m141.558 199.001v203.997h-81.463v30h310.348v-203.997h81.991v-30zm198.884 203.998h-168.884v-173.998h168.885v173.998z"/><path d="m422.433 267h30v30h-30z"/><path d="m422.433 335h30v30h-30z"/><path d="m422.433 402.999h30v30h-30z"/><path d="m60.095 199.001h30v30h-30z"/><path d="m60.095 267h30v30h-30z"/><path d="m60.095 335h30v30h-30z"/></g></svg>