<svg id="Capa_1" enable-background="new 0 0 512.001 512.001" height="512" viewBox="0 0 512.001 512.001" width="512" xmlns="http://www.w3.org/2000/svg"><path d="m477.858 316.985-22.805 22.805-18.856-37.713 41.661-41.661c7.811-7.81 7.812-20.474.001-28.284-7.812-7.811-20.475-7.81-28.284 0l-32.234 32.233-28.284-56.569 105.371-105.371c11.331-11.331 17.572-26.398 17.572-42.425s-6.241-31.094-17.573-42.426c-11.333-11.333-26.4-17.574-42.427-17.574s-31.094 6.241-42.427 17.574l-105.37 105.37-56.568-28.284 32.233-32.233c7.81-7.811 7.81-20.474-.001-28.284-7.81-7.811-20.473-7.811-28.284 0l-41.661 41.661-37.712-18.857 22.805-22.805c7.811-7.811 7.811-20.474 0-28.284-7.811-7.811-20.474-7.811-28.284 0l-32.233 32.233-43.675-21.837c-7.699-3.849-17-2.341-23.086 3.747l-42.427 42.425c-3.955 3.955-6.073 9.385-5.841 14.973s2.794 10.824 7.064 14.437l167.255 141.524-54.793 54.793h-76.568c-5.304 0-10.392 2.107-14.142 5.858l-42.427 42.426c-4.693 4.692-6.752 11.408-5.497 17.924s5.661 11.986 11.761 14.601l91.642 39.275 39.275 91.642c3.158 7.368 10.401 12.122 18.383 12.122 5.252 0 10.355-2.072 14.142-5.858l42.426-42.426c3.751-3.75 5.858-8.838 5.858-14.142v-76.569l54.793-54.793 141.524 167.255c3.718 4.394 9.259 7.081 15.269 7.081 5.292 0 10.383-2.1 14.142-5.858l42.424-42.427c6.087-6.087 7.596-15.387 3.746-23.086l-21.837-43.675 32.234-32.234c7.811-7.811 7.81-20.474-.001-28.284s-20.474-7.811-28.284 0zm-408.894-241.644 16.864-16.864 188.562 94.281-52.219 52.219zm120.742 275.238c-3.751 3.75-5.858 8.838-5.858 14.142v76.569l-15.68 15.68-30.79-71.843c-2.023-4.72-5.784-8.481-10.504-10.504l-71.843-30.79 15.68-15.68h76.569c5.304 0 10.392-2.107 14.142-5.858l276.437-276.437c7.797-7.798 20.486-7.798 28.283 0 7.799 7.798 7.799 20.486 0 28.284zm246.954 92.458-129.637-153.207 52.219-52.219 94.281 188.562z"/></svg>