<svg id="Capa_1" enable-background="new 0 0 512 512" height="512" viewBox="0 0 512 512" width="512" xmlns="http://www.w3.org/2000/svg"><g><path d="m126.995 276.751c9.585-5.489 12.906-17.709 7.417-27.294-12.045-21.036-18.412-45.054-18.412-69.457 0-77.196 62.804-140 140-140s140 62.804 140 140c0 24.403-6.367 48.42-18.413 69.457-5.488 9.585-2.167 21.806 7.418 27.294 9.587 5.487 21.805 2.168 27.295-7.417 15.505-27.078 23.7-57.969 23.7-89.334 0-99.252-80.748-180-180-180s-180 80.748-180 180c0 31.366 8.196 62.257 23.701 89.333 5.489 9.586 17.708 12.907 27.294 7.418z"/><path d="m492 472h-30.78c-21.61-12.694-125.22-80.464-125.22-212 0-11.046-8.954-20-20-20h-120c-11.046 0-20 8.954-20 20 0 62.421-22.697 116.366-63.753 161.405-25.689 28.181-51.786 44.889-61.482 50.595h-30.765c-11.046 0-20 8.954-20 20s8.954 20 20 20h472c11.046 0 20-8.954 20-20s-8.954-20-20-20zm-276.706-192h81.411c2.132 30.045 9.089 59.03 20.62 86.39l-21.325 21.326-25.858-25.858c-7.811-7.811-20.474-7.811-28.284 0l-25.858 25.858-21.326-21.326c11.532-27.36 18.489-56.345 20.62-86.39zm-74.583 169.549c13.296-14.436 24.885-29.757 34.742-45.812l26.405 26.405c3.905 3.905 9.023 5.858 14.142 5.858s10.237-1.953 14.142-5.858l25.858-25.858 25.857 25.858c3.751 3.751 8.838 5.858 14.143 5.858s10.392-2.107 14.143-5.858l26.405-26.405c9.857 16.055 21.446 31.376 34.742 45.812 7.729 8.392 15.456 15.86 22.866 22.451h-276.31c7.408-6.591 15.135-14.059 22.865-22.451z"/></g></svg>