<svg id="Capa_1" enable-background="new 0 0 512 512" height="512" viewBox="0 0 512 512" width="512" xmlns="http://www.w3.org/2000/svg"><path d="m344.934 0c-42.143 0-76.428 34.285-76.428 76.428 0 .345.029.683.052 1.022h-161.306c-9.161 0-16.614 7.453-16.614 16.614v140.262c0 68.059 51.533 124.299 117.627 131.774v115.9h-34.047c-8.284 0-15 6.716-15 15s6.716 15 15 15h101.152c8.284 0 15-6.716 15-15s-6.716-15-15-15h-37.104v-115.9c66.094-7.475 117.627-63.715 117.627-131.774v-82.268c36.968-5.333 65.47-37.209 65.47-75.63-.001-42.143-34.286-76.428-76.429-76.428zm-19.042 234.326c0 56.589-46.038 102.627-102.627 102.627s-102.627-46.038-102.627-102.627v-36.066h205.254zm0-66.066h-205.254v-60.81h205.254zm30-46.724v-27.472c0-9.161-7.453-16.614-16.614-16.614h-40.823c.023-.339.052-.677.052-1.022 0-25.601 20.827-46.428 46.428-46.428s46.428 20.827 46.428 46.428c-.001 21.825-15.144 40.169-35.471 45.108z"/></svg>