<svg id="Capa_1" enable-background="new 0 0 512 512" height="512" viewBox="0 0 512 512" width="512" xmlns="http://www.w3.org/2000/svg"><g><path d="m0 0v45c0 24.813 20.187 45 45 45h16v60h30v77c0 90.981 74.019 165 165 165s165-74.019 165-165v-77h30v-60h16c24.813 0 45-20.187 45-45v-45zm391 227c0 74.439-60.561 135-135 135s-135-60.56-135-135v-77h270zm30-107h-330v-30h330zm61-75c0 8.271-6.729 15-15 15h-422c-8.271 0-15-6.729-15-15v-15h452z"/><path d="m357.306 427.873-13.551-26.765c-27.38 13.863-56.905 20.892-87.755 20.892s-60.374-7.029-87.754-20.892l-13.552 26.765c31.62 16.009 65.704 24.127 101.306 24.127 35.603 0 69.687-8.118 101.306-24.127z"/><path d="m355.287 461.915c-31.511 13.327-64.916 20.085-99.287 20.085-34.372 0-67.776-6.758-99.279-20.082-6.06-2.567-11.991-5.345-17.628-8.256l-13.765 26.656c6.31 3.258 12.935 6.361 19.699 9.227 35.228 14.9 72.565 22.455 110.973 22.455s75.744-7.555 110.98-22.458c6.755-2.861 13.38-5.964 19.691-9.224l-13.764-26.656c-5.638 2.912-11.57 5.69-17.62 8.253z"/><path d="m256 332c57.897 0 105-47.103 105-105v-47h-210v47c0 57.898 47.103 105 105 105zm-75-122h60v46h30v-46h60v17c0 41.355-33.645 75-75 75s-75-33.645-75-75z"/></g></svg>