<svg id="Capa_1" enable-background="new 0 0 512 512" height="512" viewBox="0 0 512 512" width="512" xmlns="http://www.w3.org/2000/svg"><g><path d="m416 356h-20v-296c0-33.084-26.916-60-60-60h-160c-33.084 0-60 26.916-60 60v296h-20c-33.084 0-60 26.916-60 60v76c0 11.046 8.954 20 20 20h400c11.046 0 20-8.954 20-20v-76c0-33.084-26.916-60-60-60zm-60-236v40h-40v-40zm-80 116h-40v-116h40zm-80-76h-40v-40h40zm-40 40h40v56c0 11.046 8.954 20 20 20h80c11.046 0 20-8.954 20-20v-56h40v176c0 11.028-8.972 20-20 20h-160c-11.028 0-20-8.972-20-20zm20-160h160c11.028 0 20 8.972 20 20v20h-200v-20c0-11.028 8.972-20 20-20zm260 432h-360v-56c0-11.028 8.972-20 20-20h23.44c8.256 23.278 30.487 40 56.56 40h160c26.073 0 48.303-16.722 56.56-40h23.44c11.028 0 20 8.972 20 20z"/><path d="m216 356h80c11.046 0 20-8.954 20-20s-8.954-20-20-20h-80c-11.046 0-20 8.954-20 20s8.954 20 20 20z"/></g></svg>