<svg id="Capa_1" enable-background="new 0 0 512 512" height="512" viewBox="0 0 512 512" width="512" xmlns="http://www.w3.org/2000/svg"><path d="m413.833 396c54.13 0 98.167-44.037 98.167-98.167 0-31.892-15.497-62.601-43.17-81.315-59.824-45.459-56.607-43.074-57.582-43.723-16.48-10.987-35.662-16.795-55.47-16.795h-235.778v-60c0-33.084-26.916-60-60-60s-60 26.916-60 60v360c0 11.046 8.954 20 20 20h472c11.046 0 20-8.954 20-20s-8.954-20-20-20h-132v-40zm0-40h-373.833v-40h180c33.084 0 60-26.916 60-60v-60h40v60c0 33.084 26.916 60 60 60h89.079c-7.649 23.201-29.516 40-55.246 40zm-213.833 40v40h-80v-40zm-80-200v80h-80v-80zm40 0h80v60c0 11.028-8.972 20-20 20h-60zm286.099 53.436c9.886 6.591 17.326 15.895 21.642 26.564h-87.741c-11.028 0-20-8.972-20-20v-59.851c10.187.712 19.982 3.995 28.579 9.61 39.365 29.914 56.705 43.133 57.52 43.677zm-386.099-173.436c11.028 0 20 8.972 20 20v60h-40v-60c0-11.028 8.972-20 20-20zm-20 320h40v40h-40zm280 40h-80v-40h80z"/></svg>