<svg id="Layer_1" enable-background="new 0 0 512 512" height="512" viewBox="0 0 512 512" width="512" xmlns="http://www.w3.org/2000/svg"><path d="m198.033 511.999h-78c-66.168 0-120-53.832-120-120v-309.999c0-45.215 36.785-82 82-82h258c45.215 0 82 36.785 82 82v169.999c0 11.046-8.954 20-20 20s-20-8.954-20-20v-169.999c0-23.159-18.841-42-42-42h-258c-23.159 0-42 18.841-42 42v309.999c0 44.112 35.888 80 80 80h78c11.046 0 20 8.954 20 20s-8.955 20-20 20zm-17.998-100.224c-2.121 0-4.277-.34-6.397-1.056-48.811-16.475-81.604-62.175-81.604-113.721 0-66.168 53.832-120 120-120 28.543 0 56.693 11.022 79.268 31.035 8.266 7.328 9.025 19.969 1.698 28.233s-19.968 9.025-28.233 1.698c-15.251-13.521-33.978-20.967-52.732-20.967-44.112 0-80 35.888-80 80 0 34.369 21.86 64.84 54.396 75.82 10.466 3.533 16.087 14.88 12.555 25.346-2.821 8.348-10.606 13.612-18.951 13.612zm138.998-290.776h-80c-11.046 0-20-8.954-20-20s8.954-20 20-20h80c11.046 0 20 8.954 20 20s-8.955 20-20 20zm113.355 391.001h-112.711c-35.121 0-64.969-26.147-69.429-60.821l-9.742-75.744c-1.833-14.251 2.559-28.612 12.049-39.401 2.982-3.392 6.379-6.327 10.081-8.76l-17.125-18.996c-7.396-8.204-6.741-20.851 1.463-28.246 8.205-7.396 20.851-6.74 28.246 1.463l33.863 37.562h133.898l33.863-37.562c7.396-8.203 20.041-8.859 28.246-1.463 8.204 7.396 8.859 20.042 1.463 28.246l-17.125 18.996c3.702 2.433 7.099 5.368 10.081 8.76 9.49 10.789 13.882 25.15 12.049 39.401l-9.742 75.745c-4.459 34.673-34.307 60.82-69.428 60.82zm-142.29-152.944c-3.935 0-6.394 2.127-7.509 3.396s-2.911 3.979-2.409 7.88l9.742 75.745c1.9 14.779 14.692 25.924 29.755 25.924h112.711c15.062 0 27.854-11.145 29.755-25.923l9.742-75.746c.502-3.901-1.294-6.611-2.409-7.88s-3.574-3.396-7.509-3.396zm-190.065-238.056c-11.028 0-20-8.972-20-20s8.972-20 20-20 20 8.972 20 20-8.972 20-20 20z"/></svg>