<svg id="Capa_1" enable-background="new 0 0 512 512" height="512" viewBox="0 0 512 512" width="512" xmlns="http://www.w3.org/2000/svg"><path d="m481.42 0h-275.42c-8.284 0-15 6.716-15 15v90.326h-160.42c-8.284 0-15 6.716-15 15v376.674c0 8.284 6.716 15 15 15h275.42c8.284 0 15-6.716 15-15v-90.326h160.42c8.284 0 15-6.716 15-15v-376.674c0-8.284-6.716-15-15-15zm-260.42 52.584 50.075 52.741h-50.075zm-175.42 314.326 41.604 52.273-41.604 41.604zm60.406 75.896 31.194 39.194h-70.387zm124.608.001 39.193 39.193h-70.387zm18.802-23.624 41.604-52.273v93.877zm41.604-283.857v183.41l-122.71 154.177-122.71-154.177v-183.41zm175.42 241.348h-145.42v-256.348c0-4.752-2.216-8.98-5.664-11.728-.394-.547-.814-1.082-1.291-1.584l-73.12-77.014h225.495z"/><path d="m366 336.345h55.42c8.284 0 15-6.716 15-15s-6.716-15-15-15h-55.42c-8.284 0-15 6.716-15 15s6.716 15 15 15z"/><path d="m366 276.345h55.42c8.284 0 15-6.716 15-15s-6.716-15-15-15h-55.42c-8.284 0-15 6.716-15 15s6.716 15 15 15z"/><path d="m366 216.345h55.42c8.284 0 15-6.716 15-15s-6.716-15-15-15h-55.42c-8.284 0-15 6.716-15 15s6.716 15 15 15z"/><path d="m366 160.848h55.42c8.284 0 15-6.716 15-15v-61.615c0-8.284-6.716-15-15-15h-55.42c-8.284 0-15 6.716-15 15v61.615c0 8.284 6.716 15 15 15zm15-61.615h25.42v31.615h-25.42z"/><path d="m159.271 380.919c2.857 2.589 6.464 3.883 10.07 3.883s7.213-1.294 10.07-3.883c2.873-2.602 70.349-64.394 70.349-122.187 0-28.215-8.024-51.708-23.205-67.941-14.23-15.215-34.549-23.594-57.214-23.594s-42.984 8.379-57.214 23.594c-15.182 16.232-23.206 39.726-23.206 67.941.001 57.793 67.477 119.585 70.35 122.187zm10.071-183.722c32.042 0 50.419 22.429 50.419 61.535 0 30.9-30.594 69.394-50.43 90.081-19.839-20.653-50.409-59.086-50.409-90.081 0-39.106 18.377-61.535 50.42-61.535z"/><path d="m192.384 249.973c0-12.706-10.337-23.042-23.042-23.042s-23.042 10.337-23.042 23.042 10.337 23.042 23.042 23.042 23.042-10.337 23.042-23.042z"/></svg>