<svg id="Capa_1" enable-background="new 0 0 512.008 512.008" height="512" viewBox="0 0 512.008 512.008" width="512" xmlns="http://www.w3.org/2000/svg"><path d="m442.181 52.756c-5.622-20.98-21.927-37.374-45.912-46.162-22.144-8.114-48.596-8.76-74.483-1.826-27.665 7.413-51.076 22.574-65.782 41.546-14.706-18.973-38.117-34.134-65.782-41.546-25.886-6.936-52.337-6.288-74.483 1.826-23.985 8.788-40.291 25.182-45.912 46.162-1.03 3.843-.491 7.937 1.499 11.382 1.989 3.445 5.265 5.959 9.108 6.989l80.124 21.469c-7.83 5.121-15.304 11.177-22.205 18.078-18.951 18.95-31.615 42.182-35.661 65.417-4.382 25.166 1.663 47.483 17.021 62.842 2.929 2.929 6.768 4.394 10.606 4.394 3.839 0 7.678-1.464 10.606-4.394l73.561-73.561-8.431 231.717c-24.103 4.646-46.272 12.661-64.867 23.651-33.381 19.73-51.764 46.816-51.764 76.267 0 8.284 6.716 15 15 15h303.159c8.284 0 15-6.716 15-15 0-29.451-18.383-56.537-51.764-76.267-18.594-10.991-40.764-19.006-64.867-23.651l-8.431-231.717 73.561 73.561c2.929 2.929 6.768 4.394 10.606 4.394s7.678-1.464 10.606-4.394c15.358-15.358 21.403-37.676 17.021-62.842-4.045-23.234-16.71-46.466-35.661-65.417-7.327-7.327-15.298-13.702-23.658-19.014l81.577-20.533c3.843-1.03 7.119-3.543 9.108-6.989 1.991-3.445 2.53-7.539 1.5-11.382zm-259.724-19.01c26.875 7.201 48.728 23.793 56.793 42.487-9.457-2.622-19.889-3.289-30.939-1.899l-101.83-27.286c14.512-15.441 45.125-21.567 75.976-13.302zm-49.36 170.59c-6.117-20.288 3.884-49.864 26.468-72.448 18.207-18.207 40.954-28.234 59.719-28.234 4.512 0 8.796.581 12.729 1.767zm107.617 65.261h30.579l1.496 41.109h-33.571zm29.488-30h-28.396l1.496-41.109h25.404zm119.477 242.411h-267.351c13.116-33.539 69.013-59.596 133.675-59.596s120.56 26.056 133.676 59.596zm-133.675-89.597c-6.66 0-13.264.241-19.784.714l1.907-52.419h35.754l1.907 52.419c-6.52-.472-13.124-.714-19.784-.714zm11.61-223.923h-23.221l1.247-34.27 10.364-10.364 10.364 10.364zm111.296 35.848-98.916-98.916c20.287-6.118 49.863 3.884 72.448 26.468s32.586 52.16 26.468 72.448zm-75.213-130.002c-11.05-1.391-21.482-.724-30.939 1.897 8.065-18.693 29.918-35.284 56.792-42.485 30.851-8.266 61.464-2.139 75.975 13.302z"/></svg>