<svg id="Capa_1" enable-background="new 0 0 512 512" height="512" viewBox="0 0 512 512" width="512" xmlns="http://www.w3.org/2000/svg"><g><path d="m241 60.09h30v30h-30z"/><path d="m181 60.09h30v30h-30z"/><path d="m121 60.09h30v30h-30z"/><path d="m301 60.09h30v30h-30z"/><path d="m361 60.09h30v30h-30z"/><path d="m0 0v150.18 361.82h512v-361.82-150.18zm30 30h452v90.18h-452zm372 452h-30v-301.82h-232v301.82h-30v-331.82h292zm-131-271.82h71v271.82h-71zm-30 271.82h-71v-271.82h71zm-211-331.82h50v331.82h-50zm452 331.82h-50v-331.82h50z"/></g></svg>