<svg id="Capa_1" enable-background="new 0 0 512 512" height="512" viewBox="0 0 512 512" width="512" xmlns="http://www.w3.org/2000/svg"><g><path d="m448.8 340.73c-19.291 0-36.58 8.698-48.182 22.366-1.121-1.319-2.287-2.609-3.525-3.847-11.929-11.942-27.801-18.52-44.693-18.52-19.291 0-36.581 8.698-48.182 22.367-1.121-1.319-2.287-2.609-3.525-3.847-11.929-11.942-27.801-18.52-44.692-18.52-19.291 0-36.581 8.698-48.182 22.367-1.121-1.319-2.287-2.609-3.525-3.847-11.929-11.942-27.801-18.52-44.692-18.52-19.291 0-36.581 8.698-48.182 22.367-1.121-1.319-2.287-2.609-3.525-3.847-11.929-11.942-27.801-18.52-44.692-18.52-34.849 0-63.2 28.351-63.2 63.2v108.071h512v-108.07c0-16.878-6.575-32.749-18.507-44.68-11.932-11.943-27.804-18.52-44.696-18.52zm-96.4 30c8.872 0 17.206 3.452 23.474 9.727 6.272 6.272 9.727 14.608 9.727 23.473v18.07h-66.4v-18.07c-.001-18.307 14.893-33.2 33.199-33.2zm-96.4 0c8.872 0 17.206 3.452 23.474 9.727 6.272 6.272 9.727 14.609 9.727 23.473v18.07h-66.4v-18.07c-.001-18.307 14.892-33.2 33.199-33.2zm-96.4 0c8.872 0 17.206 3.452 23.474 9.727 6.272 6.272 9.726 14.608 9.726 23.473v18.07h-66.4v-18.07c0-18.307 14.893-33.2 33.2-33.2zm-129.6 33.2c0-18.307 14.894-33.2 33.2-33.2 8.872 0 17.206 3.452 23.474 9.727 6.272 6.272 9.726 14.608 9.726 23.473v18.07h-66.4zm452 78.07h-452v-30h452zm-66.4-60v-18.07c0-18.307 14.893-33.2 33.2-33.2 8.872 0 17.206 3.452 23.474 9.727 6.272 6.272 9.727 14.608 9.727 23.473v18.07z"/><path d="m0 0v310.794h512v-310.794zm121 30v40h30v-40h90v40h30v-40h90v40h30v-40h91v190.794h-452v-190.794zm-91 250.794v-30h452v30z"/></g></svg>