<svg id="Capa_1" enable-background="new 0 0 512 512" height="512" viewBox="0 0 512 512" width="512" xmlns="http://www.w3.org/2000/svg"><g><path d="m492 36h-472c-11.046 0-20 8.954-20 20v400c0 11.046 8.954 20 20 20h472c11.046 0 20-8.954 20-20v-400c0-11.046-8.954-20-20-20zm-452 120h40v200h-40zm40-80v40h-40v-40zm-40 320h40v40h-40zm80 40v-360h352v160h-20c-11.046 0-20 8.954-20 20s8.954 20 20 20h20v160z"/><path d="m296 156c-55.141 0-100 44.86-100 100s44.859 100 100 100 100-44.86 100-100-44.859-100-100-100zm0 160c-33.084 0-60-26.916-60-60 0-26.073 16.722-48.304 40-56.56v56.56c0 11.046 8.954 20 20 20s20-8.954 20-20v-56.56c23.278 8.256 40 30.487 40 56.56 0 33.084-26.916 60-60 60z"/></g></svg>