<svg id="Layer_1" enable-background="new 0 0 512 512" height="512" viewBox="0 0 512 512" width="512" xmlns="http://www.w3.org/2000/svg"><path d="m431.496 512c-11.046 0-20-8.954-20-20 0-51.217-25.747-97.357-67.843-122.797-4.855 17.644-19.287 33.816-43.081 48.224-9.013 5.457-17.988 9.796-25.076 12.899v37.674c0 24.262-19.738 44-44 44h-120.977c-15.339 0-29.606-6.889-39.145-18.901-9.552-12.03-13.033-27.514-9.55-42.482 5.929-25.48 18.158-50.309 35.368-71.802 16.705-20.864 37.77-38.226 60.913-50.208.049-.025.098-.05.146-.075 11.694-5.933 23.786-6.028 33.177-.262 8.871 5.447 13.988 15.308 14.065 27.083.001.063.001.127.001.191 0 13.649 26.896 30.864 49.457 40.041 6.163-2.515 15.891-6.865 25.408-12.684 15.738-9.623 25.135-19.85 25.135-27.357 0-.063 0-.127.001-.191.077-11.775 5.194-21.636 14.065-27.083 9.393-5.766 21.483-5.67 33.177.262 29.423 14.927 54.211 37.951 71.687 66.583 17.709 29.018 27.07 62.52 27.07 96.885.002 11.046-8.952 20-19.998 20zm-264.147-142.696c-33.033 20.332-58.132 54.13-66.565 90.377-.96 4.125.789 7.124 1.916 8.543 1.12 1.41 3.624 3.775 7.819 3.775h120.977c2.205 0 4-1.794 4-4v-37.312c-7.135-3.131-16.392-7.62-25.685-13.328-23.413-14.379-37.636-30.496-42.462-48.055zm189.147 142.696h-28c-11.046 0-20-8.954-20-20s8.954-20 20-20h28c11.046 0 20 8.954 20 20s-8.954 20-20 20zm-8.935-372h-189c-22.056 0-40-17.944-40-40-.001-.106-.065-18.125-.065-40 0-33.084 26.916-60 60-60h149c33.084 0 60 26.916 60 60 0 21.798.064 39.748.065 39.927 0 22.129-17.944 40.073-40 40.073zm-169.065-100c-11.028 0-20 8.972-20 20 0 21.798.064 39.748.065 39.927l189 .073c-.001-.106-.065-18.125-.065-40 0-11.028-8.972-20-20-20zm206.962 150.455c1.908-10.88-5.365-21.246-16.245-23.154-10.872-1.911-21.245 5.366-23.153 16.245-7.972 45.459-47.322 78.454-93.564 78.454s-85.592-32.995-93.563-78.455c-1.908-10.879-12.273-18.156-23.153-16.245-10.88 1.908-18.153 12.274-16.245 23.154 11.333 64.634 67.252 111.546 132.961 111.546s121.628-46.912 132.962-111.545z"/></svg>