<svg id="Capa_1" enable-background="new 0 0 512 512" height="512" viewBox="0 0 512 512" width="512" xmlns="http://www.w3.org/2000/svg"><g><path d="m467.503 234.429-161.903-40.308c-1.292-20.817-15.448-38.203-34.6-44.279v-17.412c29.781-6.831 52.061-33.547 52.061-65.37 0-36.977-30.083-67.06-67.061-67.06s-67.061 30.083-67.061 67.061h30c0-20.436 16.626-37.061 37.061-37.061s37.061 16.625 37.061 37.061-16.626 37.06-37.061 37.06h-15v45.721c-19.152 6.076-33.308 23.462-34.6 44.28l-161.903 40.307c-26.199 6.523-44.497 29.935-44.497 56.934 0 32.351 26.32 58.671 58.671 58.671h62.329v161.966h270v-161.966h62.329c32.352 0 58.671-26.32 58.671-58.671 0-26.999-18.298-50.411-44.497-56.934zm-211.503-56.905c10.867 0 19.707 8.84 19.707 19.707s-8.84 19.707-19.707 19.707-19.707-8.84-19.707-19.707 8.84-19.707 19.707-19.707zm105 244.476h-210v-101.966h210zm-210 60v-30h210v30zm302.329-161.966h-62.329v-30h-270v30h-62.329c-15.81 0-28.671-12.862-28.671-28.671 0-13.194 8.942-24.635 21.745-27.822l161.912-40.31c8.758 14.211 24.461 23.707 42.344 23.707s33.586-9.496 42.344-23.707l161.912 40.31c12.801 3.187 21.743 14.628 21.743 27.822 0 15.809-12.862 28.671-28.671 28.671z"/></g></svg>