<svg id="Capa_1" enable-background="new 0 0 512 512" height="512" viewBox="0 0 512 512" width="512" xmlns="http://www.w3.org/2000/svg"><g><path d="m452 240h-112c-33.084 0-60 26.916-60 60v40h-40v-102.128c24.728-25.261 40-59.814 40-97.872 0-77.196-62.804-140-140-140s-140 62.804-140 140c0 38.058 15.272 72.611 40 97.872v214.128c0 33.084 26.916 60 60 60h80c33.084 0 60-26.916 60-60v-72h40v40c0 33.084 26.916 60 60 60h112c33.084 0 60-26.916 60-60v-120c0-33.084-26.916-60-60-60zm-312-200c55.141 0 100 44.86 100 100s-44.859 100-100 100-100-44.86-100-100 44.859-100 100-100zm60 412c0 11.028-8.972 20-20 20h-80c-11.028 0-20-8.972-20-20v-185.526c18.196 8.667 38.54 13.526 60 13.526s41.804-4.859 60-13.526zm272-32c0 11.028-8.972 20-20 20h-112c-11.028 0-20-8.972-20-20v-120c0-11.028 8.972-20 20-20h112c11.028 0 20 8.972 20 20z"/><path d="m140 200c33.084 0 60-26.916 60-60s-26.916-60-60-60-60 26.916-60 60 26.916 60 60 60zm0-80c11.028 0 20 8.972 20 20s-8.972 20-20 20-20-8.972-20-20 8.972-20 20-20z"/><circle cx="412" cy="340" r="20"/></g></svg>