<svg id="Capa_1" enable-background="new 0 0 512.001 512.001" height="512" viewBox="0 0 512.001 512.001" width="512" xmlns="http://www.w3.org/2000/svg"><path d="m400.735 252.161c0-17.653-9.106-33.311-23.073-42.972 7.701-9.106 12.324-20.663 12.324-33.235 0-21.731-13.792-40.444-33.479-48.656 5.146-8.037 8.114-17.47 8.114-27.551 0-29.281-25.031-53.103-55.799-53.103h-11.157c-17.163-34.83-51.494-45.532-53.075-46.008-5.061-1.524-10.552-.27-14.45 3.3-3.899 3.57-5.631 8.928-4.56 14.104 2.772 13.393 2.644 22.05 1.364 28.603h-23.765c-30.768 0-55.799 23.822-55.799 53.103 0 10.081 2.968 19.514 8.114 27.551-19.686 8.211-33.479 26.925-33.479 48.656 0 12.571 4.623 24.129 12.324 33.234-13.967 9.661-23.073 25.32-23.073 42.972 0 20.044 11.733 37.526 29.003 46.563l9.522 77.181c.927 7.517 7.313 13.164 14.887 13.164h8.157l7.666 108.984c.553 7.856 7.087 13.947 14.963 13.947h121.074c7.876 0 14.41-6.091 14.963-13.947l7.666-108.984h8.157c7.574 0 13.96-5.646 14.887-13.164l9.522-77.181c17.269-9.035 29.002-26.516 29.002-46.561zm-55.799-23.103c14.226 0 25.799 10.364 25.799 23.104 0 12.739-11.573 23.103-25.799 23.103h-177.871c-14.226 0-25.799-10.364-25.799-23.103s11.573-23.104 25.799-23.104zm-141.757-152.413h34.791c6.127 0 11.639-3.727 13.921-9.413 2.729-6.801 5.109-14.47 5.754-24.576 6.212 5.688 12.271 13.481 15.886 23.903 2.094 6.037 7.782 10.085 14.172 10.085h21.119c14.226 0 25.799 10.364 25.799 23.103s-11.573 23.104-25.799 23.104h-105.643c-14.226 0-25.799-10.364-25.799-23.104s11.573-23.102 25.799-23.102zm-25.365 76.206h156.373c14.226 0 25.799 10.364 25.799 23.104s-11.573 23.103-25.799 23.103h-156.373c-14.226 0-25.799-10.364-25.799-23.104s11.573-23.103 25.799-23.103zm124.742 329.15h-93.111l-6.537-92.931h106.186zm31.505-122.932h-156.121l-6.638-53.805h169.396z"/></svg>