<svg id="Capa_1" enable-background="new 0 0 512 512" height="512" viewBox="0 0 512 512" width="512" xmlns="http://www.w3.org/2000/svg"><path d="m476 232c0-35.46-15.466-67.372-40-89.36v-122.64c0-11.046-8.954-20-20-20s-20 8.954-20 20v98.864c-12.518-4.439-25.98-6.864-40-6.864h-200c-66.168 0-120 53.832-120 120s53.832 120 120 120c41.69 0 78.483-21.371 100-53.732 21.517 32.361 58.31 53.732 100 53.732 14.02 0 27.482-2.425 40-6.864v66.864c0 11.028-8.972 20-20 20h-63.44c-8.256-23.278-30.487-40-56.56-40-33.084 0-60 26.916-60 60s26.916 60 60 60c26.073 0 48.303-16.722 56.56-40h63.44c33.084 0 60-26.916 60-60v-90.64c24.534-21.988 40-53.9 40-89.36zm-220 240c-11.028 0-20-8.972-20-20s8.972-20 20-20 20 8.972 20 20-8.972 20-20 20zm100-160c-44.112 0-80-35.888-80-80 0-11.046-8.954-20-20-20s-20 8.954-20 20c0 44.112-35.888 80-80 80s-80-35.888-80-80 35.888-80 80-80h200c44.112 0 80 35.888 80 80s-35.888 80-80 80z"/></svg>