<svg id="Capa_1" enable-background="new 0 0 512 512" height="512" viewBox="0 0 512 512" width="512" xmlns="http://www.w3.org/2000/svg"><path d="m492 472h-216v-112h140c5.305 0 10.392-2.107 14.143-5.858l40-40c7.81-7.811 7.81-20.474 0-28.284l-40-40c-3.751-3.751-8.838-5.858-14.143-5.858h-140v-120h140c5.305 0 10.392-2.107 14.143-5.858l40-40c7.81-7.811 7.81-20.474 0-28.284l-40-40c-3.751-3.751-8.838-5.858-14.143-5.858h-160c-11.046 0-20 8.954-20 20v100h-140c-5.305 0-10.392 2.107-14.143 5.858l-40 40c-7.81 7.811-7.81 20.474 0 28.284l40 40c3.751 3.751 8.838 5.858 14.143 5.858h140v232h-216c-11.046 0-20 8.954-20 20s8.954 20 20 20h472c11.046 0 20-8.954 20-20s-8.954-20-20-20zm-84.284-192 20 20-20 20h-131.716v-40zm20-220-20 20h-131.716v-40h131.716zm-323.432 140-20-20 20-20h131.716v40z"/></svg>