<svg id="Capa_1" enable-background="new 0 0 512 512" height="512" viewBox="0 0 512 512" width="512" xmlns="http://www.w3.org/2000/svg"><path d="m497 248.67h-105.71v-232.5c0-8.284-6.716-15-15-15h-240.148c-8.284 0-15 6.716-15 15v232.5h-106.142c-8.284 0-15 6.716-15 15v232.16c0 8.284 6.716 15 15 15h482c8.284 0 15-6.716 15-15v-232.16c0-8.284-6.716-15-15-15zm-467 30h91.142v202.16h-91.142zm204.828 202.16v-55.657c0-11.675 9.498-21.173 21.172-21.173 11.675 0 21.173 9.498 21.173 21.173v55.657zm126.462 0h-54.117v-55.657c0-28.217-22.956-51.173-51.173-51.173-28.216 0-51.172 22.956-51.172 51.173v55.657h-53.686v-449.66h210.148zm120.71 0h-90.71v-202.16h90.71z"/><path d="m196.18 91.17h119.64c8.284 0 15-6.716 15-15s-6.716-15-15-15h-119.64c-8.284 0-15 6.716-15 15s6.716 15 15 15z"/><path d="m196.18 152.461h119.64c8.284 0 15-6.716 15-15s-6.716-15-15-15h-119.64c-8.284 0-15 6.716-15 15s6.716 15 15 15z"/><path d="m196.18 213.753h119.64c8.284 0 15-6.716 15-15s-6.716-15-15-15h-119.64c-8.284 0-15 6.716-15 15s6.716 15 15 15z"/><path d="m196.18 275.044h119.64c8.284 0 15-6.716 15-15s-6.716-15-15-15h-119.64c-8.284 0-15 6.716-15 15s6.716 15 15 15z"/><path d="m196.18 336.336h119.64c8.284 0 15-6.716 15-15s-6.716-15-15-15h-119.64c-8.284 0-15 6.716-15 15s6.716 15 15 15z"/><path d="m64.964 336.096h20.781c8.284 0 15-6.716 15-15s-6.716-15-15-15h-20.781c-8.284 0-15 6.716-15 15s6.716 15 15 15z"/><path d="m85.745 364.75h-20.781c-8.284 0-15 6.716-15 15s6.716 15 15 15h20.781c8.284 0 15-6.716 15-15s-6.716-15-15-15z"/><path d="m85.745 423.404h-20.781c-8.284 0-15 6.716-15 15s6.716 15 15 15h20.781c8.284 0 15-6.716 15-15s-6.716-15-15-15z"/><path d="m426.255 336.096h20.78c8.284 0 15-6.716 15-15s-6.716-15-15-15h-20.78c-8.284 0-15 6.716-15 15s6.716 15 15 15z"/><path d="m426.255 394.75h20.78c8.284 0 15-6.716 15-15s-6.716-15-15-15h-20.78c-8.284 0-15 6.716-15 15s6.716 15 15 15z"/><path d="m447.035 423.404h-20.78c-8.284 0-15 6.716-15 15s6.716 15 15 15h20.78c8.284 0 15-6.716 15-15s-6.716-15-15-15z"/></svg>