<svg id="Capa_1" enable-background="new 0 0 512 512" height="512" viewBox="0 0 512 512" width="512" xmlns="http://www.w3.org/2000/svg"><g><path d="m0 36.608v368h191v40.783h-30v30h190v-30h-30v-40.783h71v10.783c0 33.084 26.916 60 60 60s60-26.916 60-60v-378.783zm291 408.784h-70v-40.783h70zm191-130.785h-60v-29.999h60zm-60-59.999h-30v59.999h-302v-188h332zm30 190.784c-16.542 0-30-13.458-30-30v-70.784h60v70.784c0 16.542-13.458 30-30 30zm0-190.784v-158.001h-392v248h332v30.001h-362v-308h452v188z"/><g><path d="m308.5 198.107v-30c-57.897 0-105 47.103-105 105h30c0-41.355 33.645-75 75-75z"/><path d="m263.5 273.107h30c0-8.271 6.729-15 15-15v-30c-24.813 0-45 20.187-45 45z"/></g></g></svg>