<svg id="Capa_1" enable-background="new 0 0 512 512" height="512" viewBox="0 0 512 512" width="512" xmlns="http://www.w3.org/2000/svg"><path d="m419.215 121.685c-.208-8.132-6.86-14.616-14.995-14.616h-66.72v-25.569c0-44.939-36.561-81.5-81.5-81.5s-81.5 36.561-81.5 81.5v25.569h-66.72c-8.135 0-14.787 6.484-14.995 14.616l-9.594 374.931c-.104 4.043 1.431 7.958 4.254 10.854s6.697 4.53 10.742 4.53h315.627c4.045 0 7.918-1.633 10.741-4.53s4.357-6.811 4.254-10.854zm-214.715-40.185c0-28.397 23.103-51.5 51.5-51.5s51.5 23.103 51.5 51.5v25.569h-103zm-30 55.569v28.091c0 8.284 6.716 15 15 15s15-6.716 15-15v-28.091h103v28.091c0 8.284 6.716 15 15 15s15-6.716 15-15v-28.091h52.099l7.035 274.931h-281.268l7.035-274.931zm-60.925 344.931 1.023-40h282.803l1.023 40z"/><path d="m197.98 334.286c2.757 0 5.547-.759 8.044-2.35l34.976-22.275v28.757l-15.604 15.604c-5.858 5.858-5.858 15.355 0 21.213 5.857 5.857 15.355 5.858 21.213 0l9.391-9.391 9.391 9.391c2.929 2.929 6.768 4.394 10.606 4.394s7.678-1.465 10.606-4.393c5.858-5.858 5.858-15.355 0-21.213l-15.603-15.605v-28.757l34.976 22.275c2.498 1.591 5.286 2.35 8.044 2.35 4.955 0 9.807-2.455 12.666-6.944 4.45-6.987 2.393-16.259-4.595-20.709l-51.091-32.539v-46.562c0-8.284-6.716-15-15-15s-15 6.716-15 15v46.562l-51.091 32.539c-6.987 4.45-9.045 13.722-4.595 20.709 2.861 4.49 7.711 6.944 12.666 6.944z"/></svg>