<svg id="Capa_1" enable-background="new 0 0 512.002 512.002" height="512" viewBox="0 0 512.002 512.002" width="512" xmlns="http://www.w3.org/2000/svg"><path d="m488.243 469.842c-13.193 9.488-38.143 9.488-51.336 0-.031-.022-.063-.045-.094-.067-23.772-17.029-62.348-17.044-86.143-.039-.049.034-.099.069-.147.104-13.194 9.488-38.144 9.488-51.338 0-.02-.015-.041-.029-.061-.044-23.816-17.084-62.518-17.069-86.313.042-13.168 9.47-38.047 9.489-51.262.056-.026-.02-.052-.038-.079-.057-23.796-17.113-62.505-17.125-86.321-.035-.017.013-.034.024-.051.037-13.194 9.488-38.145 9.488-51.339 0-6.727-4.837-16.1-3.306-20.936 3.42-4.837 6.726-3.306 16.099 3.42 20.936 23.794 17.111 62.495 17.126 86.312.042.02-.015.041-.029.061-.044 13.172-9.473 38.059-9.488 51.27-.049.023.017.047.034.07.051 23.813 17.125 62.559 17.124 86.371-.001 13.195-9.488 38.145-9.49 51.339 0l.066.048c23.771 17.045 62.363 17.064 86.165.055.049-.034.099-.069.147-.104 13.193-9.488 38.143-9.489 51.337-.001.03.021.06.043.09.065 11.896 8.521 27.5 12.784 43.103 12.784 15.639 0 31.278-4.28 43.184-12.843 6.726-4.837 8.257-14.21 3.42-20.936-4.836-6.725-14.208-8.258-20.935-3.42z"/><path d="m6.243 434.195c23.794 17.11 62.495 17.127 86.312.042.02-.015.041-.029.061-.044 13.172-9.473 38.059-9.488 51.27-.049.023.017.047.034.07.051 23.813 17.125 62.559 17.124 86.371-.001 13.195-9.489 38.145-9.489 51.339 0l.066.048c23.771 17.044 62.363 17.063 86.165.055.049-.034.099-.069.147-.104 13.193-9.489 38.143-9.488 51.337-.001.03.021.06.043.09.065 11.896 8.521 27.5 12.784 43.103 12.784 15.639 0 31.278-4.28 43.184-12.843 6.726-4.837 8.257-14.21 3.42-20.936-4.836-6.726-14.209-8.258-20.936-3.42-13.193 9.488-38.143 9.488-51.336 0-.031-.022-.063-.045-.094-.067-10.277-7.362-23.321-11.537-36.741-12.539 20.439-29.236 31.867-64.396 31.867-100.861v-29.189c0-6.6-4.313-12.424-10.625-14.348l-28.119-8.573v-78.798c0-8.284-6.716-15-15-15h-17.585v-49.962c0-8.284-6.716-15-15-15h-47.108v-65.543c0-8.284-6.716-15-15-15h-55c-8.284 0-15 6.716-15 15v65.543h-47.108c-8.284 0-15 6.716-15 15v49.962h-17.585c-8.284 0-15 6.716-15 15v78.798l-28.119 8.573c-6.313 1.924-10.625 7.748-10.625 14.348v29.189c0 36.466 11.428 71.627 31.866 100.863-13.437 1.002-26.498 5.186-36.781 12.565-.017.013-.034.024-.051.037-13.194 9.488-38.145 9.488-51.339 0-6.727-4.838-16.1-3.306-20.936 3.42-4.837 6.725-3.305 16.098 3.42 20.935zm292.942-24.355c-.02-.015-.041-.029-.061-.044-23.816-17.084-62.518-17.069-86.313.042-10.778 7.751-29.399 9.167-43.051 4.253-25.534-18.745-44.028-45.125-53.19-74.746l139.431-42.315 139.431 42.315c-9.162 29.622-27.657 56.003-53.192 74.747-13.652 4.916-32.275 3.5-43.055-4.252zm-55.684-374.878h25v50.543h-25zm-62.108 80.542h149.216v34.962h-149.216zm-32.585 64.962h214.386v54.652l-102.818-31.348c-2.852-.869-5.897-.869-8.749 0l-102.818 31.348v-54.652zm-38.744 97.828 145.937-44.494 145.937 44.494v18.081c0 4.496-.213 8.969-.625 13.405l-140.956-42.778c-2.84-.861-5.872-.861-8.712 0l-140.956 42.778c-.412-4.436-.625-8.908-.625-13.405z"/></svg>