<svg id="Capa_1" enable-background="new 0 0 512 512" height="512" viewBox="0 0 512 512" width="512" xmlns="http://www.w3.org/2000/svg"><path d="m448.696 424.393h-13.83v-358.588c0-36.285-29.519-65.805-65.804-65.805h-226.124c-36.285 0-65.805 29.52-65.805 65.805v358.588h-13.83c-8.284 0-15 6.716-15 15s6.716 15 15 15h17.587c-1.446 4.343-2.241 8.981-2.241 13.804 0 24.153 19.651 43.803 43.804 43.803s43.804-19.65 43.804-43.804c0-4.823-.795-9.461-2.241-13.804h183.969c-1.446 4.343-2.241 8.981-2.241 13.804 0 24.153 19.65 43.804 43.804 43.804s43.804-19.65 43.804-43.804c0-4.823-.795-9.461-2.241-13.804h17.587c8.284 0 15-6.716 15-15s-6.718-14.999-15.002-14.999zm-341.562-358.588c0-19.743 16.062-35.805 35.805-35.805h226.123c19.743 0 35.805 16.062 35.805 35.805v358.588h-40.341v-227.872c0-8.284-6.716-15-15-15h-43.521v-42.673c0-8.284-6.716-15-15-15h-70.008c-8.284 0-15 6.716-15 15v42.673h-43.521c-8.284 0-15 6.716-15 15v227.872h-40.341v-358.588zm165.041 208.632v149.956h-32.35v-149.956zm-94.7-30v-32.916h157.051v32.916zm98.529-62.916h-40.008v-27.673h40.008zm-153.551 300.479c-7.611 0-13.804-6.192-13.804-13.804s6.192-13.804 13.804-13.804 13.804 6.192 13.804 13.804-6.193 13.804-13.804 13.804zm55.022-207.563h32.351v149.956h-32.351zm124.7 149.956v-149.956h32.351v149.956zm87.372 57.607c-7.611 0-13.804-6.192-13.804-13.804s6.192-13.804 13.804-13.804 13.804 6.192 13.804 13.804-6.193 13.804-13.804 13.804z"/></svg>