<svg id="Capa_1" enable-background="new 0 0 512.003 512.003" height="512" viewBox="0 0 512.003 512.003" width="512" xmlns="http://www.w3.org/2000/svg"><path d="m391.271 176.049c-2.848-3.238-6.951-5.094-11.264-5.094h-50.244l18.782-110.957 47.794 14.175c7.941 2.354 16.29-2.173 18.646-10.116 2.355-7.942-2.173-16.291-10.116-18.646l-64.024-18.988c-4.115-1.222-8.557-.62-12.2 1.651s-6.139 5.994-6.855 10.226l-22.455 132.655h-53.78l22.178-38.414c4.14-7.169 1.688-16.337-5.478-20.483-7.34-4.247-15.092-7.696-23.11-10.337 3.609-6.483 5.674-13.938 5.674-21.869 0-20.805-14.161-38.356-33.348-43.545-6.266-16.905-21.217-37.573-48.9-36.245-8.275.394-14.664 7.421-14.27 15.696s7.431 14.68 15.696 14.27c7.557-.354 12.57 4.238 15.794 9.361-14.912 7.369-25.197 22.735-25.197 40.464 0 8.083 2.148 15.67 5.886 22.238-7.615 2.59-14.979 5.922-21.972 9.968-7.166 4.146-9.618 13.314-5.478 20.483l22.178 38.414h-23.217c-4.313 0-8.416 1.856-11.264 5.094-32.632 37.109-50.605 85.65-50.605 136.68 0 109.879 83.385 199.273 185.879 199.273s185.879-89.394 185.879-199.273c.001-51.029-17.973-99.57-50.609-136.681zm-191.563-81.086c-8.333 0-15.111-6.779-15.111-15.112 0-8.321 6.761-15.091 15.077-15.11.005 0 .011.001.016.001.012 0 .023-.002.035-.002 8.324.01 15.094 6.784 15.094 15.11.001 8.334-6.778 15.113-15.111 15.113zm-32.59 36.613c10.568-4.005 21.851-6.086 33.266-6.086 11.416 0 22.699 2.081 33.267 6.086l-22.735 39.378h-21.063zm-28.163 69.378h234.091c8.439 10.402 15.587 21.768 21.367 33.844l-47.564 47.563h-181.696l-47.564-47.564c5.78-12.075 12.928-23.441 21.366-33.843zm117.046 281.049c-85.952 0-155.879-75.936-155.879-169.273 0-16.063 2.075-31.822 6.068-46.904l42.143 42.142c2.813 2.813 6.628 4.394 10.606 4.394h194.124c3.978 0 7.793-1.581 10.606-4.394l42.142-42.142c3.993 15.082 6.069 30.841 6.069 46.904.001 93.337-69.926 169.273-155.879 169.273z"/></svg>