<svg id="Capa_1" enable-background="new 0 0 512 512" height="512" viewBox="0 0 512 512" width="512" xmlns="http://www.w3.org/2000/svg"><g><path d="m0 76v360h512v-360zm482 30v30h-452v-30zm-452 300v-240h452v240z"/><path d="m377.25 195.75c-23.677 0-45.937 11.305-59.997 30h-257.253v150h149.41v-60h107.843c14.061 18.695 36.32 30 59.997 30 41.355 0 75-33.645 75-75s-33.645-75-75-75zm0 120c-16.017 0-30.954-8.625-38.985-22.51l-4.332-7.49h-154.523v60h-29.705v-59.938h-30v59.938h-29.705v-90h243.933l4.332-7.49c8.031-13.885 22.969-22.51 38.985-22.51 24.813 0 45 20.187 45 45s-20.187 45-45 45z"/></g></svg>