<svg id="Capa_1" enable-background="new 0 0 512 512" height="512" viewBox="0 0 512 512" width="512" xmlns="http://www.w3.org/2000/svg"><g><path d="m492 176h-76c0-44.112-35.888-80-80-80-3.537 0-7.062.24-10.562.717-13.927-24.68-40.282-40.717-69.438-40.717s-55.511 16.037-69.438 40.717c-3.5-.477-7.025-.717-10.562-.717-44.112 0-80 35.888-80 80h-76c-11.046 0-20 8.954-20 20s8.954 20 20 20c8.741 0 16.614 5.832 19.146 14.18l43.43 143.246c5.696 18.786 19.754 33.015 37.425 39.191v23.383c0 11.046 8.954 20 20 20s20-8.954 20-20v-20h192v20c0 11.046 8.954 20 20 20s20-8.954 20-20v-23.383c17.67-6.177 31.728-20.405 37.425-39.191l43.43-143.245c2.53-8.349 10.403-14.181 19.144-14.181 11.046 0 20-8.954 20-20s-8.954-20-20-20zm-316-40c4.985 0 9.983.992 14.856 2.949 5.301 2.129 11.26 1.888 16.374-.659 5.113-2.548 8.893-7.162 10.385-12.677 4.718-17.436 20.502-29.613 38.385-29.613s33.667 12.177 38.385 29.613c1.492 5.515 5.271 10.128 10.385 12.676 5.113 2.55 11.074 2.788 16.373.66 4.874-1.957 9.873-2.949 14.857-2.949 22.056 0 40 17.944 40 40h-240c0-22.056 17.944-40 40-40zm215.146 225.819c-2.532 8.349-10.405 14.181-19.146 14.181h-232c-8.741 0-16.614-5.831-19.146-14.18-46.192-152.271-43.356-143.206-44.276-145.82h358.844c-.919 2.613 1.906-6.418-44.276 145.819z"/></g></svg>