<svg id="Layer_1" enable-background="new 0 0 512 512" height="512" viewBox="0 0 512 512" width="512" xmlns="http://www.w3.org/2000/svg"><path d="m441.021 512c-11.046 0-20-8.954-20-20 0-54.876-27.846-104.261-73.289-131.107-4.683 18.885-19.953 36.196-45.568 51.607-9.804 5.898-19.567 10.551-27.143 13.819v45.681c0 22.056-17.944 40-40 40h-132.351c-15.851 0-30.607-7.116-40.484-19.524-9.802-12.313-13.407-28.143-9.89-43.43 6.163-26.785 18.971-52.896 37.039-75.51 17.539-21.95 39.668-40.208 63.997-52.802.048-.024.097-.05.145-.074 11.984-6.08 24.345-6.195 33.916-.318 9.027 5.542 14.233 15.604 14.311 27.637 0 .063.001.127.001.19 0 8.596 9.821 19.596 26.945 30.182 9.793 6.054 19.785 10.587 26.05 13.188 24.741-9.762 54.583-28.458 54.583-43.37 0-.063 0-.127.001-.19.078-12.033 5.283-22.095 14.31-27.637 9.572-5.876 21.934-5.76 33.917.318 30.836 15.643 56.816 39.772 75.132 69.781 18.565 30.416 28.378 65.535 28.378 101.559 0 11.046-8.954 20-20 20zm-277.768-151.006c-35.789 21.557-62.986 57.952-71.976 97.021-1.053 4.577.928 7.947 2.203 9.548 2.245 2.82 5.594 4.438 9.189 4.438h132.351v-45.364c-7.519-3.297-17.44-8.103-27.403-14.261-24.892-15.389-39.758-32.624-44.364-51.382zm200.768 151.006h-33c-11.046 0-20-8.954-20-20s8.954-20 20-20h33c11.046 0 20 8.954 20 20s-8.954 20-20 20zm67-191c-11.046 0-20-8.954-20-20 0-173.187-53.832-261-160-261-50.827 0-88.58 19.357-115.415 59.177-29.585 43.9-44.585 111.467-44.585 200.823 0 11.046-8.954 20-20 20s-20-8.954-20-20c0-97.466 17.298-172.553 51.415-223.177 17.201-25.523 38.782-45.005 64.146-57.901 24.692-12.556 53.102-18.922 84.439-18.922 31.363 0 59.759 6.317 84.4 18.777 25.401 12.844 46.996 32.289 64.186 57.796 34.116 50.624 51.415 126.132 51.415 224.427-.001 11.046-8.955 20-20.001 20zm-109.793-71.37c19.854-12.687 36.291-30.804 47.532-52.394 5.102-9.797 1.294-21.874-8.502-26.976-9.798-5.101-21.875-1.295-26.976 8.503-16.706 32.083-47.457 51.237-82.261 51.237-28.8 0-55.558-13.367-73.28-35.8 22.641-15.312 61.551-45.497 87.24-86.601 5.854-9.366 3.007-21.705-6.36-27.56s-21.706-3.007-27.56 6.36c-31.726 50.761-90.186 83.8-90.753 84.116-9.472 5.263-13.03 17.109-8.026 26.72 23.369 44.884 68.868 72.765 118.739 72.765 25.073 0 49.35-7.044 70.207-20.37z"/></svg>