<svg id="Capa_1" enable-background="new 0 0 512 512" height="512" viewBox="0 0 512 512" width="512" xmlns="http://www.w3.org/2000/svg"><path d="m486.391 332.488c0-25.24-20.535-45.775-45.775-45.775s-45.775 20.535-45.775 45.775c0 18.791 11.385 34.966 27.616 42.009-9.081 16.363-37.028 31.215-74.149 31.215s-65.068-14.853-74.149-31.215c16.231-7.043 27.616-23.219 27.616-42.009 0-25.24-20.535-45.775-45.775-45.775s-45.775 20.535-45.775 45.775c0 18.791 11.385 34.966 27.616 42.009-9.081 16.363-37.028 31.215-74.149 31.215s-65.068-14.853-74.149-31.215c16.231-7.043 27.616-23.219 27.616-42.009 0-25.24-20.535-45.775-45.775-45.775s-45.775 20.535-45.775 45.775c0 19.987 12.882 37.012 30.775 43.237v106.275h-14.72c-8.284 0-15 6.716-15 15s6.716 15 15 15h59.44c8.284 0 15-6.716 15-15s-6.716-15-15-15h-14.72v-68.031c19.38 13.479 46.649 21.744 77.308 21.744s57.929-8.265 77.308-21.744v68.031h-14.72c-8.284 0-15 6.716-15 15s6.716 15 15 15h59.44c8.284 0 15-6.716 15-15s-6.716-15-15-15h-14.72v-68.031c19.38 13.479 46.649 21.744 77.308 21.744s57.928-8.265 77.308-21.744v68.031h-14.72c-8.284 0-15 6.716-15 15s6.716 15 15 15h59.44c8.284 0 15-6.716 15-15s-6.716-15-15-15h-14.72v-106.274c17.893-6.226 30.775-23.25 30.775-43.238zm-415.007-15.775c8.699 0 15.775 7.077 15.775 15.775s-7.077 15.774-15.775 15.774-15.775-7.076-15.775-15.774 7.077-15.775 15.775-15.775zm184.616 0c8.698 0 15.775 7.077 15.775 15.775s-7.077 15.774-15.775 15.774-15.775-7.076-15.775-15.774 7.077-15.775 15.775-15.775zm184.616 0c8.699 0 15.775 7.077 15.775 15.775s-7.077 15.774-15.775 15.774-15.775-7.076-15.775-15.774 7.076-15.775 15.775-15.775z"/><path d="m482.275 0h-452.55c-8.284 0-15 6.716-15 15v217.798c0 8.284 6.716 15 15 15h452.55c8.284 0 15-6.716 15-15v-217.798c0-8.284-6.716-15-15-15zm-15 217.798h-422.55v-187.798h422.55z"/><path d="m350.929 173.339h68.88c8.284 0 15-6.716 15-15v-68.88c0-8.284-6.716-15-15-15h-68.88c-8.284 0-15 6.716-15 15v68.88c0 8.284 6.716 15 15 15zm15-68.88h38.88v38.88h-38.88z"/><path d="m256 173.339c27.261 0 49.44-22.179 49.44-49.44s-22.179-49.439-49.44-49.439c-27.262 0-49.44 22.179-49.44 49.439 0 27.261 22.179 49.44 49.44 49.44zm0-68.88c10.719 0 19.44 8.721 19.44 19.439 0 10.72-8.721 19.44-19.44 19.44-10.72 0-19.44-8.721-19.44-19.44 0-10.718 8.721-19.439 19.44-19.439z"/><path d="m92.19 173.339h79.536c5.359 0 10.311-2.859 12.99-7.5 2.68-4.641 2.68-10.359 0-15l-39.768-68.88c-2.679-4.641-7.631-7.5-12.99-7.5s-10.311 2.859-12.99 7.5l-39.768 68.88c-2.68 4.641-2.68 10.359 0 15 2.679 4.64 7.632 7.5 12.99 7.5zm39.768-53.88 13.787 23.88h-27.574z"/></svg>