<svg id="Capa_1" enable-background="new 0 0 512 512" height="512" viewBox="0 0 512 512" width="512" xmlns="http://www.w3.org/2000/svg"><g><path d="m482 240.086v-240.086h-452v240.086h-30v170.714c0 16.877 6.575 32.747 18.507 44.681 8.36 8.369 18.66 14.091 29.887 16.773v39.746h30v-39.868c13.059-3.237 24.537-10.525 32.987-20.473 1.117 1.314 2.293 2.589 3.526 3.823 11.93 11.941 27.802 18.518 44.693 18.518 19.283 0 36.579-8.683 48.181-22.342 1.117 1.314 2.294 2.589 3.526 3.823 11.928 11.942 27.801 18.519 44.693 18.519 19.283 0 36.579-8.683 48.181-22.342 1.117 1.314 2.294 2.59 3.526 3.823 11.929 11.942 27.801 18.519 44.693 18.519 19.283 0 36.578-8.683 48.18-22.342 1.118 1.314 2.294 2.59 3.527 3.823 8.254 8.263 18.42 13.953 29.499 16.677v39.842h30v-39.803c10.893-2.689 20.958-8.332 29.245-16.554 12.17-12.074 19.149-28.745 19.149-45.739v-169.818zm-30-210.086v135.127c-8.986-6.761-19.537-11.537-31-13.711v-16.244c0-24.813-20.187-45-45-45h-60c-24.813 0-45 20.187-45 45v14.914h-30v-14.914c0-24.813-20.187-45-45-45h-60c-24.813 0-45 20.187-45 45v16.244c-11.463 2.174-22.014 6.95-31 13.711v-135.127zm-61 120.086h-90v-14.914c0-8.271 6.729-15 15-15h60c8.271 0 15 6.729 15 15zm-180 0h-90v-14.914c0-8.271 6.729-15 15-15h60c8.271 0 15 6.729 15 15zm-151 75c0-24.813 20.187-45 45-45h302c24.813 0 45 20.187 45 45v15h-392zm-30 45h452v60h-452zm452 139.818c0 9.053-3.746 17.962-10.278 24.443-6.342 6.292-14.547 9.687-23.19 9.652-8.768-.069-17.007-3.521-23.205-9.726-6.273-6.273-9.727-14.609-9.727-23.473h-30c0 18.307-14.894 33.2-33.199 33.2-8.872 0-17.206-3.452-23.474-9.727-6.272-6.272-9.727-14.608-9.727-23.473h-30c0 18.307-14.894 33.2-33.2 33.2-8.872 0-17.206-3.452-23.474-9.727-6.272-6.273-9.726-14.609-9.726-23.473h-30c0 18.307-14.894 33.2-33.2 33.2-8.871 0-17.206-3.452-23.474-9.727-6.271-6.272-9.726-14.608-9.726-23.474h-30c0 18.307-14.894 33.2-33.2 33.2-8.872 0-17.206-3.452-23.474-9.727-6.272-6.272-9.726-14.608-9.726-23.472v-50.714h452z"/></g></svg>