<svg id="Capa_1" enable-background="new 0 0 512 512" height="512" viewBox="0 0 512 512" width="512" xmlns="http://www.w3.org/2000/svg"><g><path d="m492 312h-296v-120h20c11.046 0 20-8.954 20-20v-60h16c11.046 0 20-8.954 20-20s-8.954-20-20-20h-96v-52c0-11.046-8.954-20-20-20s-20 8.954-20 20v52h-96c-11.046 0-20 8.954-20 20s8.954 20 20 20h16v60c0 11.046 8.954 20 20 20h20v120h-56c-11.046 0-20 8.954-20 20v160c0 11.046 8.954 20 20 20h472c11.046 0 20-8.954 20-20v-160c0-11.046-8.954-20-20-20zm-296-200v40h-120v-40zm-80 80h40v120h-40zm280 280h-80v-40h80zm76 0h-36v-60c0-11.046-8.954-20-20-20h-120c-11.046 0-20 8.954-20 20v60h-236v-120h432z"/><path d="m76 412c0 11.046 8.954 20 20 20h120c11.046 0 20-8.954 20-20s-8.954-20-20-20h-120c-11.046 0-20 8.954-20 20z"/><path d="m296 272h40c5.304 0 10.392-2.107 14.142-5.858l45.858-45.858v31.716c0 11.046 8.954 20 20 20s20-8.954 20-20v-71.716l34.142-34.142c7.811-7.811 7.811-20.474 0-28.284s-20.474-7.811-28.284 0l-34.142 34.142h-71.716c-11.046 0-20 8.954-20 20s8.954 20 20 20h31.716l-40 40h-31.716c-11.046 0-20 8.954-20 20s8.954 20 20 20z"/></g></svg>