<svg id="Capa_1" enable-background="new 0 0 512 512" height="512" viewBox="0 0 512 512" width="512" xmlns="http://www.w3.org/2000/svg"><g><path d="m508.727 445.035-236-360c-3.697-5.638-9.985-9.035-16.727-9.035s-13.03 3.397-16.727 9.035l-236 360c-4.028 6.145-4.363 14.005-.87 20.47s10.249 10.495 17.597 10.495h472c7.349 0 14.104-4.03 17.597-10.495 3.492-6.465 3.158-14.325-.87-20.47zm-451.702-9.035 26.222-40h92.753c11.046 0 20-8.954 20-20s-8.954-20-20-20h-66.53l26.222-40h60.308c11.046 0 20-8.954 20-20s-8.954-20-20-20h-34.086l94.086-143.52 94.086 143.52h-34.086c-11.046 0-20 8.954-20 20s8.954 20 20 20h60.308l26.222 40h-66.53c-11.046 0-20 8.954-20 20s8.954 20 20 20h92.752l26.222 40z"/><path d="m416 156c33.084 0 60-26.916 60-60s-26.916-60-60-60-60 26.916-60 60 26.916 60 60 60zm0-80c11.028 0 20 8.972 20 20s-8.972 20-20 20-20-8.972-20-20 8.972-20 20-20z"/></g></svg>