<svg id="Capa_1" enable-background="new 0 0 512 512" height="512" viewBox="0 0 512 512" width="512" xmlns="http://www.w3.org/2000/svg"><path d="m475.573 407.887-39.573-189.948v-117.939c0-11.046-8.954-20-20-20h-20v-60c0-11.046-8.954-20-20-20h-80c-11.046 0-20 8.954-20 20v140h-40c0-19.968 0-120.128 0-140 0-11.046-8.954-20-20-20h-80c-11.046 0-20 8.954-20 20v60h-20c-11.046 0-20 8.954-20 20v117.939l-39.573 189.948c-.267 1.28-.427 2.696-.427 4.113v80c0 11.046 8.954 20 20 20h160c11.046 0 20-8.954 20-20 0-17.928 0-155.139 0-172h40v172c0 11.046 8.954 20 20 20h160c11.046 0 20-8.954 20-20v-80c0-1.414-.16-2.829-.427-4.113zm-159.573-367.887h40v40h-40zm-120 240v-80h120v80zm-40-240h40v40h-40zm-80 432v-40h120v40zm120-80h-115.404l34.983-167.921c.279-1.342.42-2.708.42-4.079v-100h80v40h-20c-11.046 0-20 8.954-20 20v120c0 11.046 8.954 20 20 20h20v72zm140-72c11.046 0 20-8.954 20-20v-120c0-11.046-8.954-20-20-20h-20v-40h80v100c0 1.371.141 2.737.42 4.079l34.984 167.921h-115.404v-72zm-20 152v-40h120v40z"/></svg>