<svg id="Capa_1" enable-background="new 0 0 512 512" height="512" viewBox="0 0 512 512" width="512" xmlns="http://www.w3.org/2000/svg"><g><path d="m60 0v181h-60v150h60v181h452v-512zm-30 301v-90h30v90zm90 181h-30v-452h30zm362-452v196h-29.75v-49.478c0-10.724-2.365-21.543-6.838-31.288l-8.162-17.78v-67.454h-90v67.454l-8.161 17.78c-4.474 9.745-6.839 20.564-6.839 31.288v49.478h-32.5v-49.478c0-10.724-2.365-21.543-6.838-31.288l-8.162-17.78v-67.454h-90v67.454l-8.162 17.78c-4.474 9.745-6.838 20.564-6.838 31.288v49.478h-29.75v-196zm-63.853 127.75c1.286 2.801 2.272 5.752 2.961 8.772h-57.716c.688-3.02 1.675-5.971 2.961-8.772l10.896-23.739v-44.011h30v44.011zm-55.897 38.772h60v29.478h-60zm-96.603-38.772c1.286 2.801 2.272 5.752 2.961 8.772h-57.716c.688-3.02 1.675-5.971 2.961-8.772l10.897-23.739v-44.011h30v44.011zm-55.897 38.772h60v29.478h-60zm0 285.478v-29.478h60v29.478zm55.897-68.25c1.286 2.801 2.272 5.752 2.961 8.772h-57.716c.688-3.02 1.675-5.971 2.961-8.772l10.897-23.739v-44.011h30v44.011zm111.603 68.25v-76h30v76zm30-106h-30v-30h30zm30 106v-166h-90v166h-47.5v-49.478c0-10.724-2.365-21.543-6.838-31.288l-8.162-17.78v-67.454h-90v67.454l-8.162 17.78c-4.474 9.745-6.838 20.564-6.838 31.288v49.478h-29.75v-226h332v226z"/></g></svg>