<svg id="Capa_1" enable-background="new 0 0 512 512" height="512" viewBox="0 0 512 512" width="512" xmlns="http://www.w3.org/2000/svg"><path d="m376 240h-10.64c19.04-21.246 30.64-49.292 30.64-80 0-51.874-33.52-97.485-81.6-113.716-6.222-26.493-30.036-46.284-58.4-46.284s-52.178 19.791-58.4 46.284c-48.08 16.231-81.6 61.842-81.6 113.716 0 30.708 11.6 58.754 30.64 80h-10.64c-11.046 0-20 8.954-20 20v80c0 11.046 8.954 20 20 20h24.582l36.076 137.09c2.313 8.786 10.257 14.91 19.342 14.91h80c9.085 0 17.029-6.124 19.342-14.91l36.076-137.09h24.582c11.046 0 20-8.954 20-20v-80c0-11.046-8.954-20-20-20zm-120-200c10.534 0 19.17 8.19 19.926 18.534-.283 1.644-.355 3.274-.238 4.87-1.623 9.409-9.822 16.596-19.688 16.596s-18.065-7.187-19.688-16.596c.118-1.595.045-3.226-.238-4.87.756-10.344 9.392-18.534 19.926-18.534zm-100 120c0-31.711 18.782-59.897 46.596-72.704 9.954 19.394 30.147 32.704 53.404 32.704s43.45-13.31 53.404-32.704c27.814 12.807 46.596 40.993 46.596 72.704 0 44.112-35.888 80-80 80h-40c-44.112 0-80-35.888-80-80zm200 160h-20c-9.085 0-17.029 6.124-19.342 14.91l-36.076 137.09h-49.164l-36.076-137.09c-2.313-8.786-10.257-14.91-19.342-14.91h-20v-40h200z"/></svg>