<svg id="Capa_1" enable-background="new 0 0 512 512" height="512" viewBox="0 0 512 512" width="512" xmlns="http://www.w3.org/2000/svg"><g><path d="m376 276h-40c-11.028 0-20-8.972-20-20v-.051c24.273-18.262 40-47.303 40-79.949 0-14.163 0-140.145 0-156 0-11.046-8.954-20-20-20h-160c-11.046 0-20 8.954-20 20v156c0 32.646 15.727 61.687 40 79.949v.051c0 11.028-8.972 20-20 20h-40c-55.14 0-100 44.86-100 100v116c0 11.046 8.954 20 20 20h400c11.046 0 20-8.954 20-20v-116c0-55.14-44.859-100-100-100zm-60-100c0 33.084-26.916 60-60 60s-60-26.916-60-60v-60h120zm0-136v36h-120v-36zm-60 236c7.766 0 15.328-.89 22.589-2.573 3.729 12.261 11.283 22.869 21.27 30.43l-43.859 43.859-43.859-43.859c9.987-7.561 17.541-18.169 21.27-30.43 7.261 1.683 14.823 2.573 22.589 2.573zm-180 100c0-33.084 26.916-60 60-60h31.716l60 60-25.858 25.858c-3.751 3.75-5.858 8.838-5.858 14.142v56h-120zm360 96h-200v-47.716l108.285-108.284h31.715c33.084 0 60 26.916 60 60z"/><circle cx="336" cy="416" r="20"/></g></svg>