<svg id="Capa_1" enable-background="new 0 0 512.004 512.004" height="512" viewBox="0 0 512.004 512.004" width="512" xmlns="http://www.w3.org/2000/svg"><path d="m412.328 412.11c13.509-5.65 25.774-14.237 35.776-25.317 18.988-21.035 28.219-49.267 25.327-77.457l-25.605-249.568c-3.496-34.074-31.961-59.768-66.213-59.768h-251.222c-34.252 0-62.717 25.694-66.213 59.768l-25.604 249.568c-2.892 28.19 6.339 56.422 25.327 77.457 10.001 11.08 22.267 19.667 35.776 25.317l-37.522 78.416c-3.576 7.473-.417 16.43 7.056 20.006 2.089.999 4.293 1.473 6.464 1.473 5.595 0 10.965-3.146 13.542-8.529l12.939-27.041h307.693l12.939 27.041c2.576 5.384 7.946 8.529 13.542 8.529 2.17 0 4.375-.474 6.464-1.473 7.473-3.576 10.632-12.533 7.056-20.006zm-318.307-349.28c1.92-18.717 17.556-32.83 36.37-32.83h251.222c18.814 0 34.45 14.113 36.37 32.83l17.66 172.132h-359.281zm-7.851 303.861c-13.31-14.744-19.78-34.533-17.753-54.293l4.867-47.437h365.436l4.867 47.437c2.027 19.76-4.443 39.549-17.753 54.293-13.309 14.745-32.334 23.201-52.198 23.201h-235.268c-19.863.001-38.889-8.455-52.198-23.201zm30.34 79.743 12.755-26.656c.047-.098.08-.199.124-.298 2.974.268 250.251.268 253.225 0 .045.099.077.199.124.298l12.755 26.656z"/><path d="m360.502 368.879c24.221 0 43.927-19.705 43.927-43.927s-19.706-43.927-43.927-43.927-43.927 19.705-43.927 43.927 19.706 43.927 43.927 43.927zm0-57.854c7.679 0 13.927 6.247 13.927 13.927s-6.248 13.927-13.927 13.927-13.927-6.247-13.927-13.927 6.248-13.927 13.927-13.927z"/><path d="m195.429 324.952c0-24.222-19.706-43.927-43.927-43.927s-43.927 19.705-43.927 43.927 19.706 43.927 43.927 43.927 43.927-19.705 43.927-43.927zm-57.854 0c0-7.68 6.248-13.927 13.927-13.927s13.927 6.247 13.927 13.927-6.248 13.927-13.927 13.927-13.927-6.247-13.927-13.927z"/><path d="m120.675 209.962h270.653c4.245 0 8.291-1.799 11.135-4.949s4.22-7.359 3.787-11.582l-12.82-124.962c-.784-7.652-7.23-13.469-14.921-13.469h-245.013c-7.691 0-14.137 5.817-14.922 13.469l-12.82 124.962c-.433 4.223.943 8.432 3.787 11.582s6.89 4.949 11.134 4.949zm104.319-30v-94.962h62.268v94.962zm149.717 0h-57.449v-94.962h47.707zm-227.675-94.962h47.958v94.962h-57.701z"/></svg>