<svg id="Capa_1" enable-background="new 0 0 512 512" height="512" viewBox="0 0 512 512" width="512" xmlns="http://www.w3.org/2000/svg"><g><path d="m256 0c-141.497 0-191.733 115.643-191.733 256 0 113.877 47.148 240.915 49.155 246.267 2.195 5.854 7.792 9.733 14.045 9.733h257.066c6.253 0 11.85-3.878 14.045-9.733 2.007-5.353 49.155-132.39 49.155-246.267 0-142.114-51.39-256-191.733-256zm145.196 385.6h-290.392c-3.609-15.965-6.973-32.936-9.714-50.333h309.82c-2.741 17.397-6.105 34.368-9.714 50.333zm-304.105-80.333c-2.705-25.123-3.498-47.519-2.251-74.267h191.125l131.597 36.37c-.36 12.536-1.291 25.238-2.654 37.896h-317.817zm158.909-275.267c116.105 0 157.198 91.277 161.375 206.194-136.293-37.668-126.434-35.194-129.375-35.194h-190.785c11.452-100.409 56.108-171 158.785-171zm117.932 452h-235.864c-4.322-12.588-12.116-36.482-19.943-66.4h275.75c-7.828 29.918-15.622 53.812-19.943 66.4z"/><path d="m230.424 166.567h52.611c25.826 0 46.837-21.011 46.837-46.837s-21.011-46.836-46.837-46.836h-52.611c-25.826 0-46.836 21.011-46.836 46.836 0 25.826 21.011 46.837 46.836 46.837zm0-63.673h52.611c9.284 0 16.837 7.553 16.837 16.836s-7.553 16.837-16.837 16.837h-52.611c-9.284 0-16.836-7.553-16.836-16.837s7.553-16.836 16.836-16.836z"/></g></svg>