<svg id="Capa_1" enable-background="new 0 0 512 512" height="512" viewBox="0 0 512 512" width="512" xmlns="http://www.w3.org/2000/svg"><g><path d="m437.02 74.98c-48.353-48.351-112.64-74.98-181.02-74.98s-132.667 26.629-181.02 74.98c-48.351 48.353-74.98 112.64-74.98 181.02s26.629 132.667 74.98 181.02c48.353 48.351 112.64 74.98 181.02 74.98s132.667-26.629 181.02-74.98c48.351-48.353 74.98-112.64 74.98-181.02s-26.629-132.667-74.98-181.02zm-21.214 340.826c-42.686 42.686-99.439 66.194-159.806 66.194s-117.12-23.508-159.806-66.194-66.194-99.439-66.194-159.806 23.508-117.12 66.194-159.806 99.439-66.194 159.806-66.194 117.12 23.508 159.806 66.194 66.194 99.439 66.194 159.806-23.508 117.12-66.194 159.806z"/><path d="m247.289 101.514c-8.284 0-15 6.716-15 15v7.302c0 18.508-11.949 34.267-28.533 39.998v-47.3c0-8.284-6.716-15-15-15s-15 6.716-15 15v46.379c-15.305-6.377-26.094-21.488-26.094-39.077v-7.302c0-8.284-6.716-15-15-15s-15 6.716-15 15v7.302c0 34.297 24.007 63.073 56.094 70.458v58.453h-16.252c-8.284 0-15 6.716-15 15v116.508c0 25.503 20.749 46.252 46.252 46.252s46.252-20.749 46.252-46.252v-116.508c0-8.284-6.716-15-15-15h-16.252v-57.93c33.303-6.454 58.533-35.82 58.533-70.981v-7.302c0-8.285-6.716-15-15-15zm-42.28 282.72c0 8.961-7.291 16.252-16.252 16.252s-16.252-7.291-16.252-16.252v-101.507h32.505v101.507z"/><path d="m303.488 81.514c-8.284 0-15 6.716-15 15v287.721c0 25.504 20.749 46.252 46.252 46.252s46.252-20.748 46.252-46.252v-101.604c7.505-.825 13.345-7.18 13.345-14.904v-95.363c.001-50.095-40.754-90.85-90.849-90.85zm15 31.87c26.322 6.698 45.85 30.602 45.85 58.979v80.363h-45.85zm16.253 287.102c-8.961 0-16.252-7.291-16.252-16.252v-101.507h32.505v101.508c-.001 8.96-7.292 16.251-16.253 16.251z"/></g></svg>