<svg id="Capa_1" enable-background="new 0 0 511.984 511.984" height="512" viewBox="0 0 511.984 511.984" width="512" xmlns="http://www.w3.org/2000/svg"><g><path d="m448.64 240.992v-60.048h-29.176v-90.072h-90.048v90.072h-30.048v-90.072h-90.048v90.072h-30.048v-90.072h-90.048v90.072h-29.176v90.072h-60.048v78.589l35.753 71.507h440.207l36.024-180.12zm-89.224-120.12h30.048v60.072h-30.048zm-120.096 0h30.048v60.072h-30.048zm-120.096 0h30.048v60.072h-30.048zm-29.176 90.072h328.592v30.048h-150.653l-20.015 30.024h-157.924zm173.98 90.073 20.016-30.024h191.347l-12.015 60.072h-433.376v-30.048zm-209.734 90.095-15.024-30.048h418.105l-6.01 30.048z"/></g></svg>