<svg id="Capa_1" enable-background="new 0 0 510.029 510.029" height="512" viewBox="0 0 510.029 510.029" width="512" xmlns="http://www.w3.org/2000/svg"><g><path d="m495.029 480.014h-45.864c31.01-49.74 40.69-133.437 43.972-192.163.462-8.271-5.868-15.352-14.14-15.813-8.269-.44-15.352 5.868-15.813 14.14-.299 5.344-.633 10.542-.999 15.604-20.742-5.611-37.586-21.343-44.613-41.602 46.722-9.301 80.904-52.908 75.995-102.63-.815-8.244-8.154-14.258-16.402-13.453-8.244.814-14.267 8.158-13.453 16.402 3.529 35.637-22.169 69.916-64.83 71.516-39.181-.086-69.647-34.765-64.225-74h72.373c3.245 0 6.403-1.053 9-3l64-48c8.003-6.002 7.986-18.011 0-24l-58.396-43.797c9.923-5.961 21.368-9.203 33.396-9.203 8.284 0 15-6.716 15-15s-6.716-15-15-15c-27.565 0-53.068 11.574-71.095 32h-113.906v-17c0-8.284-6.716-15-15-15s-15 6.716-15 15v17h-57c-8.284 0-15 6.716-15 15v96c0 8.284 6.716 15 15 15h57v34h-137c-3.245 0-6.403 1.053-9 3l-64 48c-8.003 6.002-7.986 18.011 0 24l64 48c2.597 1.947 5.755 3 9 3h137v162h-37.195c6.876-17.658 2.369-37.308-10.666-50.313 21.144-38.373-17.55-82.683-58.555-66.339-25.458-21.739-64.641-10.812-75.187 20.818-47.439 3.442-74.134 56.681-48.461 96.729-5.789 2.079-9.937 7.601-9.937 14.105 0 8.284 6.716 15 15 15h480c8.284 0 15-6.716 15-15s-6.715-15.001-14.999-15.001zm-336 0h-96c-18.196 0-33-14.804-33-33 0-20.278 18.274-35.953 38.51-32.54 9.368 1.583 17.829-5.843 17.49-15.324 0-17.409 22.725-23.566 31.577-8.896 2.265 3.754 6.059 6.329 10.384 7.048 11.199 1.875 11.777-7.287 23.039-7.287 16.355 0 23.311 21.046 9.99 30.761-9.706 7.082-7.542 22.174 3.771 26.237 6.722 2.413 11.238 8.844 11.238 16.002.001 9.373-7.625 16.999-16.999 16.999zm39-352v-66h204l44 33-44 33c-25.85 0-174.141 0-204 0zm109.345 64h-37.345v-34h34.439c-1.091 11.586-.113 22.947 2.906 34zm-199.345 96-44-33 44-33h204v66zm302.603 192h-140.603v-162h57c8.284 0 15-6.716 15-15v-60.048c12.768 9.606 28.026 16.072 44.616 18.241 8.478 35.304 36.569 63.129 72.809 70.757-12.177 111.041-41.023 141.683-48.822 148.05z"/></g></svg>