<svg id="Capa_1" enable-background="new 0 0 512 512" height="512" viewBox="0 0 512 512" width="512" xmlns="http://www.w3.org/2000/svg"><g><path d="m482 120.916v30.036h-30.048v-150.952h-391.904v150.952h-30.048v-30.036h-30v90.072h30v-30.036h30.048v90.928h-30.025v180.12h30.024v60h90.048v-60h211.809v60h90.048v-60h30.023v-180.12h-30.023v-90.928h30.048v30.036h30v-90.072zm-60.048 60.892h-150.952v-91.76h150.952zm-331.904 0v-91.76h150.952v91.76zm331.904-151.808v30.048h-331.904v-30.048zm-301.856 271.88v30.048h-60.073v-30.048zm241.808 120.12h-211.808v-150.144h211.809v150.144zm-301.881-60.072h60.072v60.072h-60.072zm60.073 120.072h-30.048v-30h30.048zm301.856 0h-30.048v-30h30.048zm-30.048-60v-60.072h60.071v60.072zm60.072-90.072h-60.071v-30.048h60.071zm-60.072-60.048v-30.024h-271.808v30.024h-30.048v-60.072h331.904v60.072z"/><path d="m180.132 301.904h151.736v30h-151.736z"/><path d="m180.132 361.952h151.736v30h-151.736z"/></g></svg>