<svg id="Capa_1" enable-background="new 0 0 511.976 511.976" height="512" viewBox="0 0 511.976 511.976" width="512" xmlns="http://www.w3.org/2000/svg"><g><path d="m426.578 245.637c-3.961 0-7.853.293-11.672.818l-9.373-28.889c6.826-1.263 13.859-1.929 21.045-1.929 15.287 0 30.14 2.953 44.148 8.778l11.519-27.701c-17.677-7.351-36.406-11.077-55.667-11.077-10.412 0-20.571 1.104-30.368 3.195l-30.268-93.29h-64.929v30h43.124l9.749 30.048h-268.511c-24.826 0-45.024 20.198-45.024 45.024 0 12.795 5.374 24.351 13.972 32.555-32.597 20.417-54.323 56.65-54.323 97.867v15h31.346c7.113 39.957 42.083 70.398 84.052 70.398s76.939-30.441 84.052-70.398h111.73v-15c0-45.895 26.934-85.615 65.823-104.193l9.369 28.878c-26.87 14.402-45.192 42.755-45.192 75.315 0 47.089 38.31 85.398 85.398 85.398 47.089 0 85.398-38.31 85.398-85.398s-38.309-85.399-85.398-85.399zm-341.203-30c-8.284 0-15.024-6.739-15.024-15.023s6.74-15.024 15.024-15.024h155.602v30.048h-155.602zm30.023 30c41.973 0 76.97 30.437 84.079 70.398h-168.158c7.109-39.961 42.106-70.398 84.079-70.398zm0 140.797c-25.348 0-46.759-17.119-53.318-40.398h106.635c-6.558 23.279-27.969 40.398-53.317 40.398zm114.424-70.398c-3.619-27.758-17.137-52.449-36.889-70.398h116.039c-14.697 20.184-24.335 44.276-27.025 70.398zm108.41-100.399h-67.256v-30.047h92.642l4.062 12.521c-10.532 4.685-20.407 10.588-29.448 17.526zm88.346 170.797c-30.546 0-55.398-24.852-55.398-55.398 0-19.191 9.812-36.129 24.679-46.074l16.45 50.703 28.536-9.258-16.454-50.714c.726-.028 1.453-.055 2.187-.055 30.547 0 55.398 24.852 55.398 55.398s-24.851 55.398-55.398 55.398z"/></g></svg>