<svg id="Capa_1" enable-background="new 0 0 512 512" height="512" viewBox="0 0 512 512" width="512" xmlns="http://www.w3.org/2000/svg"><g><path d="m512 219.733h-104.656l-40.033-107.586h-307.263v62.55h-60.048v120.072h60.048v60.048h61.946c6.678 25.869 30.212 45.036 58.139 45.036s51.46-19.167 58.138-45.036h95.506c6.678 25.869 30.212 45.036 58.139 45.036s51.461-19.167 58.139-45.036h61.945zm-136.665 0h-74.31v-77.586h45.441zm-179.799 0v-77.586h75.488v77.586zm-30-77.586v77.586h-75.488v-77.586zm-135.536 122.622v-60.072h30.048v60.072zm150.132 105.084c-16.562 0-30.036-13.474-30.036-30.036s13.474-30.036 30.036-30.036 30.036 13.474 30.036 30.036-13.474 30.036-30.036 30.036zm211.784 0c-16.562 0-30.036-13.474-30.036-30.036s13.475-30.036 30.036-30.036 30.036 13.474 30.036 30.036-13.474 30.036-30.036 30.036zm90.084-45.036h-31.945c-6.678-25.869-30.212-45.036-58.139-45.036s-51.46 19.166-58.139 45.036h-95.506c-6.678-25.869-30.212-45.036-58.138-45.036s-51.46 19.166-58.139 45.036h-31.946v-75.083h391.952z"/></g></svg>