<svg id="Capa_1" enable-background="new 0 0 510.001 510.001" height="512" viewBox="0 0 510.001 510.001" width="512" xmlns="http://www.w3.org/2000/svg"><g><path d="m495.001 480.001h-15.967l30.933-464.002c.551-8.266-5.703-15.413-13.969-15.964-8.251-.544-15.413 5.703-15.964 13.969l-12.859 192.889c-124.961 33.36-298.672 33.551-424.348 0l-12.86-192.89c-.55-8.266-7.706-14.518-15.964-13.969-8.266.551-14.52 7.699-13.969 15.964l30.933 464.002h-15.966c-8.284 0-15 6.716-15 15s6.716 15 15 15h480c8.284 0 15-6.716 15-15s-6.716-14.999-15-14.999zm-46.034 0h-387.933l-9.588-143.821c125.555 88.217 281.494 88.259 407.109 0zm12.224-183.356c-125.141 100.919-287.157 100.986-412.381 0l-3.881-58.215c125.695 31.448 294.245 31.498 420.143 0z"/></g></svg>