<svg id="Capa_1" enable-background="new 0 0 512.004 512.004" height="512" viewBox="0 0 512.004 512.004" width="512" xmlns="http://www.w3.org/2000/svg"><g><path d="m497.002 482.004h-77.95l19.422-93.659c26.522 5.485 25.581 5.411 27.701 5.411 6.964 0 13.208-4.878 14.674-11.965 1.678-8.113-3.539-16.05-11.652-17.728-15.55-3.216-40.542-8.385-56.102-11.602l25.879-124.826c26.522 5.484 25.585 5.411 27.705 5.411 6.964 0 13.208-4.878 14.674-11.966 1.678-8.112-3.539-16.049-11.652-17.727-8.135-1.682-56.051-11.591-63.968-13.228l22.514-108.595c35.067 7.251 33.393 7.038 35.571 7.038 6.964 0 13.208-4.878 14.674-11.965 1.678-8.113-3.539-16.05-11.651-17.728l-283.197-58.561c-8.112-1.68-16.049 3.539-17.727 11.651-1.678 8.113 3.539 16.05 11.651 17.728l32.503 6.721-22.513 108.596-63.984-13.231c-8.111-1.679-16.049 3.539-17.727 11.651-1.678 8.113 3.539 16.05 11.651 17.728l24.636 5.095-25.879 124.826-56.115-11.605c-8.11-1.681-16.049 3.539-17.727 11.651-1.678 8.113 3.539 16.05 11.651 17.728l24.632 5.094-34.842 168.057h-28.852c-8.284 0-15 6.716-15 15s6.716 15 15 15h482c8.284 0 15-6.716 15-15s-6.716-15-15-15zm-257.553-439.514 159.417 32.967-22.514 108.594-33.553-6.938 12.096-58.348c1.682-8.111-3.531-16.051-11.643-17.732-8.107-1.68-16.051 3.531-17.732 11.643l-12.099 58.362-33.554-6.938 12.096-58.348c1.682-8.111-3.531-16.051-11.643-17.732-8.109-1.679-16.051 3.531-17.732 11.643l-12.099 58.362-33.554-6.938zm148.965 439.514h-34.994l8.337-40.191c1.683-8.111-3.529-16.052-11.641-17.734-8.114-1.677-16.052 3.529-17.734 11.641l-9.602 46.285h-34.986l11.031-53.211c1.682-8.112-3.531-16.051-11.643-17.732-8.107-1.676-16.051 3.531-17.732 11.643l-12.293 59.301h-51.402l14.404-69.478c1.682-8.111-3.531-16.051-11.643-17.732-8.11-1.678-16.051 3.531-17.732 11.643l-15.667 75.567h-34.994l17.104-82.484c1.682-8.112-3.53-16.052-11.642-17.733-8.105-1.679-16.051 3.53-17.733 11.642l-18.367 88.576h-34.994l33.583-161.978c24.988 5.167 265.261 54.849 301.022 62.244zm-4.698-135.617c-11.322-2.341-13.319-2.754-33.553-6.938l15.462-74.579c1.682-8.111-3.53-16.051-11.643-17.732-8.107-1.676-16.051 3.529-17.732 11.643l-15.465 74.594-41.42-8.565 15.461-74.579c1.682-8.111-3.53-16.051-11.643-17.732-8.107-1.681-16.051 3.53-17.732 11.643l-15.464 74.594-41.42-8.565 15.461-74.579c1.682-8.111-3.531-16.051-11.643-17.732-8.111-1.676-16.051 3.53-17.732 11.643l-15.464 74.594-33.554-6.938 25.878-124.826c20.284 4.195 181.846 37.604 238.082 49.233z"/></g></svg>