<svg id="Capa_1" enable-background="new 0 0 512 512" height="512" viewBox="0 0 512 512" width="512" xmlns="http://www.w3.org/2000/svg"><g><path d="m512 85.852v-30h-512v30h178.609l46.722 60.072h-201.127l-24.204 72.614v207.586h62.627c6.193 17.472 22.878 30.024 42.445 30.024s36.251-12.552 42.445-30.024h216.966c6.193 17.472 22.877 30.024 42.445 30.024s36.252-12.552 42.445-30.024h62.627v-207.586l-24.204-72.614h-224.46l-46.722-60.072zm-30 150.12v70.08h-66.4v-70.08zm-96.4 70.08h-66.4v-70.08h66.4zm-96.4 0h-66.4v-70.08h66.4zm0 30v60.072h-66.4v-60.072zm-96.4-30h-66.4v-70.08h66.4zm-96.4 0h-66.4v-70.08h66.4zm-66.4 30h162.8v60.072h-45.283c-6.193-17.472-22.877-30.024-42.445-30.024s-36.252 12.552-42.445 30.024h-32.627zm75.072 90.096c-8.284 0-15.024-6.74-15.024-15.024s6.74-15.024 15.024-15.024 15.023 6.74 15.023 15.024-6.739 15.024-15.023 15.024zm301.856 0c-8.284 0-15.023-6.74-15.023-15.024s6.739-15.024 15.023-15.024 15.024 6.74 15.024 15.024-6.74 15.024-15.024 15.024zm42.445-30.024c-6.193-17.472-22.878-30.024-42.445-30.024s-36.251 12.552-42.445 30.024h-45.283v-60.072h162.8v60.072zm26.815-190.152h-440.376l10.016-30.048h420.346z"/></g></svg>