<svg id="Capa_1" enable-background="new 0 0 512.595 512.595" height="512" viewBox="0 0 512.595 512.595" width="512" xmlns="http://www.w3.org/2000/svg"><g><path d="m495.229 235.012c-12.638-10.343-18.618-15.229-26.79-21.917 10.949-59.177-8.715-113.328-36.891-140.109-31.42-29.866-75.527-29.809-106.887 0-28.167 26.772-47.842 80.91-36.892 140.11-29.26 23.943-27.505 22.396-29.789 24.606-4.027-4.795-4.445-4.728-33.163-28.226 10.968-59.287-8.795-113.405-36.891-140.11-31.421-29.865-75.527-29.807-106.887 0-28.168 26.773-47.842 80.91-36.892 140.11-8.341 6.825-3.52 2.872-26.792 21.916-36.581 29.938-11.281 91.208 38.163 91.208h3.342c.942 25.578-.497 36.191-1.158 42.712-3.32 32.692 9.781 62.548 31.626 80.28 41.823 33.949 101.375 12.951 118.427-42.597 5.959-19.413 3.889-33.918 2.517-47.466-.455-8.138-.679-19.081-.168-32.93h4.025c15.203 0 29.967-6.16 40.822-18.234 10.526 13.613 26.62 21.854 44.189 21.854h3.343c.995 27.009-.681 38.003-1.159 42.714-3.315 32.693 9.782 62.547 31.627 80.279 41.823 33.949 101.375 12.951 118.427-42.597 5.959-19.413 3.889-33.917 2.517-47.465-.456-8.139-.68-19.082-.168-32.932h4.026c49.486.002 73.666-61.594 37.476-91.206zm-458.874 19.598 14.005-11.461c2.692 16.252 4.937 32.787 6.501 49.452-23.908 0-34.708-26.367-20.506-37.991zm145.068 113.804c3.633 35.874-20.749 63.57-46.941 63.57-27.4 0-50.469-28.825-46.933-63.643 4.687-46.257-2.13-101.626-10.557-146.977l57.489-47.04 57.489 47.039c-8.438 45.417-15.19 101.207-10.547 147.051zm16.073-181.291-48.014-39.287v-19.441c0-8.284-6.716-15-15-15s-15 6.716-15 15v19.441l-48.015 39.287c-3.635-50.083 20.044-110.102 63.015-110.102 42.747 0 66.685 59.541 63.014 110.102zm34.178 98.213c-5.889 5.897-12.182 7.266-19.569 7.266 1.567-16.682 3.792-33.118 6.498-49.452l14.004 11.46c9.912 8.11 7.15 22.654-.933 30.726zm48.303-27.106 14.005-11.462c2.745 16.58 4.963 33.05 6.502 49.452-23.916 0-34.724-26.354-20.507-37.99zm145.069 113.804c3.633 35.874-20.749 63.57-46.941 63.57-27.4 0-50.466-28.819-46.933-63.642 4.669-46.043-2.061-101.255-10.557-146.979l57.489-47.04 57.489 47.04c-8.469 45.587-15.236 100.774-10.547 147.051zm16.073-181.292-48.015-39.287v-19.441c0-8.284-6.716-15-15-15s-15 6.716-15 15v19.441l-48.015 39.288c-3.684-50.754 20.441-110.102 63.015-110.102 42.746-.001 66.686 59.542 63.015 110.101zm34.179 98.213c-5.899 5.905-12.197 7.266-19.571 7.266 1.568-16.689 3.781-33.044 6.498-49.452l14.005 11.462c9.923 8.116 7.137 22.664-.932 30.724z"/></g></svg>