<svg id="Capa_1" enable-background="new 0 0 511.914 511.914" height="512" viewBox="0 0 511.914 511.914" width="512" xmlns="http://www.w3.org/2000/svg"><g><path d="m457.642 54.255c-72.338-72.34-190.042-72.34-262.381 0-35.042 35.042-54.341 81.633-54.341 131.19 0 23.833 4.476 46.974 13.007 68.48l-132.396 132.394c-28.685 28.686-28.685 75.36 0 104.046 13.896 13.896 32.372 21.549 52.023 21.549s38.127-7.652 52.023-21.549l132.394-132.394c21.506 8.531 44.647 13.007 68.48 13.007 49.558 0 96.148-19.299 131.19-54.342 72.34-72.339 72.34-190.042.001-262.381zm-353.277 414.897c-8.23 8.229-19.172 12.762-30.81 12.762-11.639 0-22.58-4.532-30.81-12.762-16.989-16.988-16.989-44.632 0-61.62l72.723-72.723 61.62 61.62zm93.935-93.936-61.62-61.62 31.397-31.397c7.584 12.362 16.669 23.922 27.183 34.437s22.075 19.6 34.437 27.184zm238.129-79.793c-29.376 29.376-68.434 45.555-109.978 45.555s-80.602-16.179-109.978-45.555-45.554-68.434-45.554-109.978 16.178-80.602 45.554-109.978c30.325-30.324 70.145-45.481 109.978-45.481 39.823 0 79.66 15.164 109.978 45.481 29.376 29.376 45.554 68.434 45.554 109.978s-16.178 80.602-45.554 109.978z"/><path d="m435.939 170.445h-57.344l-25.749-59.265c-3.302-7.598-12.138-11.08-19.735-7.78-7.598 3.302-11.081 12.137-7.78 19.735l20.555 47.31h-101.233l-9.429-21.702c-3.301-7.598-12.136-11.081-19.735-7.78-7.598 3.302-11.081 12.137-7.78 19.735l10.752 24.748-10.752 24.748c-3.301 7.599.182 16.434 7.78 19.735 1.947.846 3.975 1.246 5.97 1.246 5.792 0 11.31-3.375 13.765-9.026l9.43-21.703h101.232l-20.555 47.31c-3.301 7.599.183 16.434 7.78 19.735 1.947.846 3.975 1.246 5.97 1.246 5.793 0 11.31-3.375 13.766-9.026l25.749-59.265h57.344c8.284 0 15-6.716 15-15s-6.717-15.001-15.001-15.001z"/></g></svg>