<svg id="Capa_1" enable-background="new 0 0 512 512" height="512" viewBox="0 0 512 512" width="512" xmlns="http://www.w3.org/2000/svg"><g><path d="m455.232 202.86-41.34-40.284c-2.802-2.729-6.558-4.257-10.469-4.257h-51.088v-65.569c0-8.284-6.716-15-15-15h-25.574v-62.75c0-8.284-6.716-15-15-15h-82.008c-8.284 0-15 6.716-15 15v62.75h-91.178c-3.911 0-7.667 1.527-10.469 4.257l-41.34 40.284c-2.897 2.823-4.531 6.697-4.531 10.743 0 4.045 1.634 7.919 4.531 10.743l41.34 40.285c2.801 2.729 6.558 4.257 10.469 4.257h51.088v50.569h-20.839c-3.911 0-7.668 1.527-10.469 4.257l-41.34 40.284c-2.897 2.823-4.531 6.697-4.531 10.743s1.634 7.919 4.531 10.743l41.34 40.285c2.801 2.729 6.558 4.257 10.469 4.257h60.929v132.543h-8.324c-8.284 0-15 6.716-15 15s6.716 15 15 15h128.655c8.284 0 15-6.716 15-15s-6.716-15-15-15h-8.323l.242-213.111h91.42c3.911 0 7.668-1.527 10.469-4.257l41.34-40.285c2.897-2.824 4.531-6.698 4.531-10.743.001-4.046-1.633-7.92-4.531-10.744zm-225.478-172.86h52.008v47.75h-52.008zm-141.025 103.034 25.946-25.284h207.66v50.569h-207.66zm30.25 161.139 25.946-25.284h29.739 107.098v50.569h-136.837zm110.775 187.827v-132.542h52.008v132.542zm167.57-243.111h-207.66v-50.569h207.66l25.946 25.284z"/></g></svg>