<svg id="Capa_1" enable-background="new 0 0 512 512" height="512" viewBox="0 0 512 512" width="512" xmlns="http://www.w3.org/2000/svg"><g><path d="m497 63.046h-482c-8.284 0-15 6.716-15 15v355.907c0 8.284 6.716 15 15 15h482c8.284 0 15-6.716 15-15v-355.907c0-8.284-6.716-15-15-15zm-15 355.908h-452v-325.908h452z"/><path d="m251.018 305.082h185.982c8.284 0 15-6.716 15-15v-136.328c0-8.284-6.716-15-15-15h-185.982c-8.284 0-15 6.716-15 15v136.328c0 8.284 6.716 15 15 15zm15-136.328h155.982v106.328h-155.982z"/><path d="m75 168.754h108.964c8.284 0 15-6.716 15-15s-6.716-15-15-15h-108.964c-8.284 0-15 6.716-15 15s6.716 15 15 15z"/><path d="m75 236.918h108.964c8.284 0 15-6.716 15-15s-6.716-15-15-15h-108.964c-8.284 0-15 6.716-15 15s6.716 15 15 15z"/><path d="m75 305.082h108.964c8.284 0 15-6.716 15-15s-6.716-15-15-15h-108.964c-8.284 0-15 6.716-15 15s6.716 15 15 15z"/><path d="m75 373.246h362c8.284 0 15-6.716 15-15s-6.716-15-15-15h-362c-8.284 0-15 6.716-15 15s6.716 15 15 15z"/></g></svg>