<svg id="Capa_1" enable-background="new 0 0 514.143 514.143" height="512" viewBox="0 0 514.143 514.143" width="512" xmlns="http://www.w3.org/2000/svg"><g><path d="m405.051 4.885c-2.842-3.112-6.862-4.885-11.076-4.885h-273.807c-4.215 0-8.235 1.773-11.077 4.886s-4.243 7.276-3.861 11.475l30.016 329.739c.17 1.862.686 3.677 1.522 5.349l28.416 56.833v90.861c0 8.284 6.716 15 15 15h153.808c8.284 0 15-6.716 15-15v-90.861l28.416-56.833c.837-1.673 1.353-3.487 1.522-5.35l29.982-329.74c.383-4.198-1.019-8.362-3.861-11.474zm-54.756 324.855h-186.414l-21.292-233.903h228.974zm-25.573 60h-134.537c-.24 0-.474.025-.712.036l-15.018-30.036h165.267zm52.827-359.74-3.259 35.837h-234.432l-3.262-35.837zm-182.364 454.143v-64.403h123.808v64.402h-123.808z"/><path d="m257.089 152.607c-33.185 0-60.182 26.997-60.182 60.181 0 33.185 26.997 60.182 60.182 60.182 33.184 0 60.181-26.997 60.181-60.182 0-33.184-26.998-60.181-60.181-60.181zm0 90.363c-16.643 0-30.182-13.539-30.182-30.182 0-16.642 13.539-30.181 30.182-30.181 16.642 0 30.181 13.539 30.181 30.181 0 16.643-13.54 30.182-30.181 30.182z"/></g></svg>