<svg id="Capa_1" enable-background="new 0 0 512 512" height="512" viewBox="0 0 512 512" width="512" xmlns="http://www.w3.org/2000/svg"><g><path d="m392.075 0h-156.666v30h66.619v251.032h-66.619c-63.678 0-115.484 51.806-115.484 115.484s51.805 115.484 115.484 115.484c62.657 0 113.819-50.158 115.443-112.43l41.223-100.583zm-30 30v30.048h-30.048v-30.048zm-30.048 60.048h30.048v190.984h-30.048zm22.69 220.984-14.859 36.254c-6.529-13.797-15.707-26.105-26.882-36.254zm-119.308 170.968c-47.136 0-85.484-38.348-85.484-85.484s38.348-85.484 85.484-85.484 85.484 38.348 85.484 85.484-38.348 85.484-85.484 85.484z"/><path d="m235.409 346.036c-27.835 0-50.48 22.645-50.48 50.48s22.645 50.48 50.48 50.48 50.48-22.645 50.48-50.48-22.645-50.48-50.48-50.48zm0 70.96c-11.292 0-20.48-9.188-20.48-20.48s9.188-20.48 20.48-20.48 20.48 9.188 20.48 20.48-9.188 20.48-20.48 20.48z"/></g></svg>