<svg id="Capa_1" enable-background="new 0 0 510.072 510.072" height="512" viewBox="0 0 510.072 510.072" width="512" xmlns="http://www.w3.org/2000/svg"><g><path d="m470.052 120.986v-105.95c0-8.284-6.716-15-15-15h-64c-8.284 0-15 6.716-15 15v73h-253c-107.959 0-164.608 131.041-87.235 208.979 23.7 23.873 55.136 37.021 88.516 37.021h50.953c18.434 0 34.973-11.589 41.155-28.838 12.914-36.033 64.238-36.212 77.221.002 6.183 17.248 22.721 28.836 41.154 28.836h41.236c0 72.709.191 68.609-.41 69.82h-52.244c-8.391-29.858-35.843-51.82-68.346-51.82-39.149 0-71 31.851-71 71v72c0 8.284 6.716 15 15 15h192c43.561 0 79-40.905 79-91.183v-117.043c52.372-47.964 54.339-130.844 0-180.824zm-174 359.05h-82v-57c0-22.607 18.393-41 41-41s41 18.393 41 41zm110-450h34v70.457c-10.723-5.221-22.15-8.86-34-10.803zm34 388.817c0 33.736-21.981 61.183-49 61.183h-65v-46.18h50.77c16.118 0 29.23-14.328 29.23-31.94v-69.337c11.856-1.828 23.287-5.362 34-10.484zm-53-114.817h-52.236c-5.803 0-10.993-3.601-12.914-8.959-9.815-27.378-35.955-47.041-66.85-47.041-29.902 0-56.768 18.904-66.852 47.041-1.92 5.359-7.11 8.959-12.914 8.959h-50.953c-25.326 0-49.201-10-67.226-28.157-59.097-59.529-15.015-157.843 65.945-157.843h262.719c21.423 0 41.4 6.795 59.967 21.545 69.131 56.911 26.338 164.455-58.686 164.455z"/></g></svg>