<svg id="Capa_1" enable-background="new 0 0 512.064 512.064" height="512" viewBox="0 0 512.064 512.064" width="512" xmlns="http://www.w3.org/2000/svg"><g><path d="m436.721 75.374c-100.467-100.467-260.842-100.514-361.355 0-101.555 101.555-99.126 262.119-.875 361.306 130.215 131.454 346.345 82.511 417.001-81.262 40.052-92.838 21.532-203.741-54.771-280.044zm-182.327 406.678c-123.707 0-224.351-101.383-224.351-226s101.383-226 226-226 226 101.383 226 226c0 122.505-104.251 226-227.649 226z"/><path d="m314.168 196.631c-2.981-2.637 6.638 1.69-165.02-66.972-12.227-4.885-24.385 7.28-19.498 19.498 68.231 170.577 64.25 160.751 64.899 162 1.717 3.308 4.61 5.78 7.723 7.024 174.508 69.803 162.062 65.34 166.235 65.34 10.625 0 17.861-10.744 13.93-20.571-70.268-175.671-64.418-162.91-68.269-166.319zm-143.666-26.12 107.049 42.819-64.23 64.23zm64.033 128.263 64.23-64.23 42.819 107.049z"/><path d="m256.043 126.452c8.284 0 15-6.716 15-15v-32.133c0-8.284-6.716-15-15-15s-15 6.716-15 15v32.133c0 8.284 6.716 15 15 15z"/><path d="m111.444 241.053h-32.134c-8.284 0-15 6.716-15 15s6.716 15 15 15h32.134c8.284 0 15-6.716 15-15s-6.716-15-15-15z"/><path d="m385.644 256.053c0 8.284 6.716 15 15 15h32.133c8.284 0 15-6.716 15-15s-6.716-15-15-15h-32.133c-8.284 0-15 6.716-15 15z"/><path d="m256.043 385.652c-8.284 0-15 6.716-15 15v32.133c0 8.284 6.716 15 15 15s15-6.716 15-15v-32.133c0-8.284-6.716-15-15-15z"/></g></svg>