<svg id="Capa_1" enable-background="new 0 0 512.022 512.022" height="512" viewBox="0 0 512.022 512.022" width="512" xmlns="http://www.w3.org/2000/svg"><g><path d="m112 313.432c-12.682 0-23 10.318-23 23s10.318 23 23 23 23-10.318 23-23-10.318-23-23-23z"/><path d="m352 313.432c-12.683 0-23 10.318-23 23s10.317 23 23 23 23-10.318 23-23-10.317-23-23-23z"/><path d="m192 313.432c-12.682 0-23 10.318-23 23s10.318 23 23 23 23-10.318 23-23-10.318-23-23-23z"/><path d="m272 313.432c-12.683 0-23 10.318-23 23s10.317 23 23 23 23-10.318 23-23-10.317-23-23-23z"/><path d="m502.24 402.592-27.402-12.537c-11.976-6.794-26.636-6.638-38.486.473l-16.138 9.683c-2.6 1.56-5.829 1.559-8.427 0-1.521-.912-8.544 9.121 97.044-126.359 7.683-9.858.611-24.221-11.831-24.221h-87.588l-67.332-120.795c-8.184-14.683-23.71-23.804-40.52-23.804h-52.357l-44.053-88.108c-2.541-5.082-7.735-8.292-13.417-8.292h-48.2c-8.284 0-15 6.716-15 15v81.4h-19.158c-19.189 0-36.132 11.538-43.163 29.394l-45.36 115.206c-6.514 0-12.836-.715-17.869 6.023-2.832 3.79-3.709 8.694-2.367 13.231l35.924 121.454-26.781 12.252c-7.533 3.446-10.846 12.347-7.399 19.881 3.446 7.533 12.347 10.847 19.881 7.399l28.069-12.842c7.635-3.49 5.128-3.643 26.043 8.906 12.12 7.271 27.177 7.271 39.296 0l16.138-9.683c2.6-1.56 5.829-1.559 8.427 0l16.14 9.684c12.12 7.271 27.176 7.271 39.296 0l16.138-9.683c2.6-1.56 5.829-1.559 8.427 0l16.14 9.684c12.12 7.271 27.178 7.271 39.296 0l16.138-9.683c2.6-1.56 5.829-1.559 8.427 0l16.14 9.684c12.119 7.271 27.177 7.271 39.296 0l16.138-9.683c2.6-1.56 5.829-1.559 8.427 0 15.813 9.488 22.726 15.137 35.787 15.137 12.993-.001 19.588-5.417 35.786-15.137 4.52-2.712 8.156-.021 9.904.777l28.069 12.842c7.532 3.447 16.434.134 19.881-7.399 3.443-7.537.13-16.438-7.404-19.884zm-155.228-203.29 28.054 50.33h-72.066v-50.33zm-124.012-64.27h78.561c5.938 0 11.424 3.222 14.314 8.41l14.415 25.86h-107.29zm50 64.27v50.33h-114v-50.33zm-114.467-160.67h23.93l33.2 66.4h-57.129v-66.4zm-64.407 106.785c2.484-6.309 8.47-10.385 15.249-10.385h83.625v34.27h-108.278zm-21.216 53.885h56.09v50.33h-75.906zm310.617 186.526c-17.349-3.498-27.252 4.746-43.313 14.383-2.6 1.56-5.829 1.559-8.427 0l-16.14-9.684c-12.119-7.271-27.177-7.271-39.296 0l-16.138 9.683c-2.6 1.56-5.829 1.559-8.427 0l-16.14-9.684c-12.119-7.271-27.175-7.271-39.296 0l-16.138 9.683c-2.6 1.56-5.829 1.559-8.427 0l-16.14-9.684c-12.119-7.271-27.176-7.271-39.296 0l-16.138 9.683c-2.6 1.56-5.829 1.559-8.427 0-17.479-10.488-19.093-11.831-25.06-13.583l-31.645-106.993h431.213z"/><path d="m502.24 474.592-27.402-12.537c-11.976-6.794-26.636-6.638-38.486.473l-16.138 9.683c-2.6 1.56-5.829 1.559-8.427 0l-16.14-9.684c-12.119-7.271-27.177-7.271-39.296 0l-16.138 9.683c-2.6 1.56-5.829 1.559-8.427 0l-16.14-9.684c-12.119-7.271-27.177-7.271-39.296 0l-16.138 9.683c-2.6 1.56-5.829 1.559-8.427 0l-16.14-9.684c-12.119-7.27-27.175-7.271-39.296 0l-16.138 9.683c-2.6 1.56-5.829 1.559-8.427 0l-16.14-9.684c-12.119-7.27-27.176-7.271-39.296 0l-16.138 9.683c-2.6 1.56-5.829 1.559-8.427 0l-16.14-9.684c-11.852-7.11-26.512-7.267-38.485-.473l-27.399 12.542c-7.533 3.446-10.846 12.347-7.399 19.881 3.446 7.533 12.347 10.846 19.881 7.399l28.069-12.842c7.635-3.49 5.128-3.643 26.043 8.906 12.12 7.271 27.177 7.271 39.296 0l16.138-9.683c2.6-1.56 5.829-1.559 8.427 0l16.14 9.684c12.12 7.271 27.176 7.271 39.296 0l16.138-9.683c2.6-1.56 5.829-1.559 8.427 0l16.14 9.684c12.12 7.271 27.178 7.271 39.296 0l16.138-9.683c2.6-1.56 5.829-1.559 8.427 0l16.14 9.684c12.119 7.271 27.177 7.271 39.296 0l16.138-9.683c2.6-1.56 5.829-1.559 8.427 0 15.813 9.488 22.726 15.137 35.787 15.137 12.993-.001 19.588-5.417 35.786-15.137 4.52-2.712 8.156-.021 9.904.777l28.069 12.842c7.532 3.447 16.434.134 19.881-7.399 3.443-7.537.13-16.438-7.404-19.884z"/></g></svg>