<svg id="Capa_1" enable-background="new 0 0 512 512" height="512" viewBox="0 0 512 512" width="512" xmlns="http://www.w3.org/2000/svg"><g><path d="m497 205.943h-190.296v-51.933-139.01c0-8.284-6.716-15-15-15h-276.704c-8.284 0-15 6.716-15 15v139.01 9.679 127.368c0 8.284 6.716 15 15 15h190.295v120.83 22.845 47.268c0 8.284 6.716 15 15 15h276.705c8.284 0 15-6.716 15-15v-276.057c0-8.284-6.716-15-15-15zm-467-175.943h246.704v109.01h-28.944c-4.235-18.871-14.068-36.092-28.472-49.486-17.96-16.7-41.376-25.897-65.937-25.897s-47.977 9.197-65.936 25.897c-14.404 13.394-24.237 30.615-28.472 49.486h-28.943zm186.636 109.01h-126.568c8.962-26.426 34.2-45.383 63.284-45.383s54.322 18.957 63.284 45.383zm-186.636 137.047v-107.047h246.704v36.934h-56.409c-8.284 0-15 6.716-15 15v55.113zm452 205.943h-246.705v-40.114h246.705zm0-70.114h-246.705v-47.954l58.725-58.588 54.182 54.054-.099.098c-5.865 5.851-5.876 15.349-.025 21.213 5.852 5.865 15.348 5.876 21.213.025l56.19-56.058 56.519 56.387zm0-73.199-45.925-45.817c-5.854-5.841-15.334-5.841-21.188 0l-45.448 45.341-64.826-64.674c-5.854-5.841-15.334-5.841-21.188 0l-48.131 48.018v-85.612h246.706z"/></g></svg>