<svg id="Capa_1" enable-background="new 0 0 512 512" height="512" viewBox="0 0 512 512" width="512" xmlns="http://www.w3.org/2000/svg"><g><path d="m256 60c-108.075 0-196 87.925-196 196s87.925 196 196 196 196-87.925 196-196-87.925-196-196-196zm0 30c75.943 0 140.134 51.262 159.799 121h-19.166c-24.496 0-47.724-10.009-65.402-28.183-19.961-20.517-46.678-31.817-75.231-31.817s-55.27 11.3-75.23 31.818c-17.679 18.173-40.907 28.182-65.403 28.182h-19.166c19.665-69.738 83.856-121 159.799-121zm-159.799 211h19.851c24.148 0 47.062 9.936 64.52 27.979 1.374 1.419 2.807 2.818 4.259 4.159 17.94 16.564 28.229 40.605 28.229 65.957v17.263c-56.394-15.116-101.038-59.252-116.859-115.358zm146.86 120.499v-22.404c0-33.698-13.806-65.771-37.877-87.997-1.041-.962-2.07-1.967-3.054-2.983-22.823-23.588-54.196-37.115-86.077-37.115h-25.368c-.445-4.943-.685-9.943-.685-15s.24-10.057.685-15h24.682c32.666 0 63.53-13.233 86.906-37.263 14.264-14.662 33.344-22.737 53.727-22.737s39.463 8.075 53.727 22.736c23.376 24.03 54.24 37.264 86.906 37.264h24.682c.445 4.943.685 9.943.685 15s-.24 10.057-.685 15h-24.467c-32.727 0-63.695 13.26-87.209 37.345-.346.354-.695.705-1.052 1.056-22.547 22.2-35.479 53.321-35.479 85.383v26.34c-5.625.578-11.332.876-17.108.876-4.354 0-8.669-.171-12.939-.501zm60.047-6.318v-20.397c0-24.078 9.669-47.407 26.523-64.003.501-.492.997-.99 1.48-1.486 17.814-18.246 41.16-28.295 65.737-28.295h18.951c-15.429 54.716-58.271 98.047-112.691 114.181z"/><path d="m437.02 74.98c-48.353-48.351-112.64-74.98-181.02-74.98s-132.667 26.629-181.02 74.98c-48.351 48.353-74.98 112.64-74.98 181.02s26.629 132.667 74.98 181.02c48.353 48.351 112.64 74.98 181.02 74.98s132.667-26.629 181.02-74.98c48.351-48.353 74.98-112.64 74.98-181.02s-26.629-132.667-74.98-181.02zm-21.214 340.826c-42.686 42.686-99.439 66.194-159.806 66.194s-117.12-23.508-159.806-66.194-66.194-99.439-66.194-159.806 23.508-117.12 66.194-159.806 99.439-66.194 159.806-66.194 117.12 23.508 159.806 66.194 66.194 99.439 66.194 159.806-23.508 117.12-66.194 159.806z"/><path d="m301 256c0-24.813-20.187-45-45-45s-45 20.187-45 45 20.187 45 45 45 45-20.187 45-45zm-60 0c0-8.271 6.729-15 15-15s15 6.729 15 15-6.729 15-15 15-15-6.729-15-15z"/></g></svg>