<svg id="Capa_1" enable-background="new 0 0 512.001 512.001" height="512" viewBox="0 0 512.001 512.001" width="512" xmlns="http://www.w3.org/2000/svg"><g><g><g><path d="m497.001 479.247c-2.916 0-5.828-.849-8.35-2.538l-25.059-16.787c-14.356-9.618-32.908-9.616-47.263 0l-25.058 16.787c-5.051 3.385-11.646 3.385-16.697 0l-25.059-16.787c-14.354-9.616-32.906-9.618-47.263 0l-25.059 16.787c-4.856 3.254-11.162 3.39-16.155.347-4.992-3.043-7.762-8.709-7.096-14.518l40.209-350.612c5.176-45.136 43.339-79.172 88.771-79.172 45.433 0 83.596 34.037 88.771 79.173l40.207 350.611c.666 5.809-2.104 11.475-7.096 14.518-2.397 1.463-5.103 2.191-7.803 2.191zm-171.116-56.558c14.042 0 28.078 4.103 40.329 12.31l16.71 11.194 16.709-11.194c23.874-15.993 54.554-16.399 78.774-1.22l-36.517-318.434c-3.438-29.981-28.788-52.591-58.966-52.591-30.179 0-55.529 22.608-58.967 52.59l-36.517 318.434c11.793-7.391 25.122-11.089 38.445-11.089z"/></g><g><path d="m382.924 219.767c-8.284 0-15-6.716-15-15v-78.479c0-8.284 6.716-15 15-15s15 6.716 15 15v78.479c0 8.284-6.716 15-15 15z"/></g></g><g><g><path d="m129.076 479.246c-45.433 0-83.596-34.037-88.771-79.173l-40.207-350.611c-.666-5.809 2.104-11.475 7.096-14.518 4.993-3.043 11.299-2.907 16.155.347l25.059 16.787c14.355 9.616 32.907 9.615 47.263 0l25.058-16.787c5.051-3.385 11.646-3.385 16.697 0l25.059 16.787c14.355 9.616 32.907 9.618 47.263 0l25.059-16.787c4.856-3.254 11.162-3.39 16.155-.347 4.992 3.043 7.762 8.709 7.096 14.518l-40.209 350.612c-5.178 45.136-43.341 79.172-88.773 79.172zm-95.483-401.024 36.517 318.434c3.438 29.981 28.788 52.591 58.966 52.591 30.179 0 55.529-22.608 58.967-52.59l36.519-318.434c-24.222 15.181-54.898 14.773-78.774-1.221l-16.71-11.194-16.709 11.194c-23.875 15.994-54.553 16.401-78.776 1.22z"/></g><g><path d="m129.076 400.712c-8.284 0-15-6.716-15-15v-78.479c0-8.284 6.716-15 15-15s15 6.716 15 15v78.479c0 8.284-6.715 15-15 15z"/></g></g></g></svg>