<svg id="Capa_1" enable-background="new 0 0 512 512" height="512" viewBox="0 0 512 512" width="512" xmlns="http://www.w3.org/2000/svg"><g><path d="m443.013 319.208v-205.551c0-8.284-6.716-15-15-15h-102.688v-48.618c0-8.284-6.716-15-15-15h-108.65c-8.284 0-15 6.716-15 15v48.618h-102.688c-8.284 0-15 6.716-15 15v205.551c-38.782 4.516-68.987 37.55-68.987 77.524v2.159c0 43.048 35.021 78.069 78.069 78.069h355.862c43.048 0 78.069-35.021 78.069-78.069v-2.159c0-39.974-30.205-73.007-68.987-77.524zm-30-.545h-31.364v-190.006h31.364zm-61.365-190.006v190.006h-191.296v-190.006zm-134.973-63.618h78.65v33.618h-78.65zm-86.323 63.618v190.006h-31.365v-190.006zm351.648 270.235c0 26.506-21.563 48.069-48.069 48.069h-355.862c-26.506 0-48.069-21.564-48.069-48.069v-2.159c0-26.506 21.563-48.069 48.069-48.069h355.862c26.506 0 48.069 21.563 48.069 48.069z"/><path d="m256 382.812c-7.846 0-15.363 6.899-15 15 .364 8.127 6.591 15 15 15 7.846 0 15.363-6.899 15-15-.364-8.127-6.591-15-15-15z"/><path d="m95.333 382.812c-7.846 0-15.363 6.899-15 15 .364 8.127 6.591 15 15 15 7.846 0 15.363-6.899 15-15-.364-8.127-6.59-15-15-15z"/><path d="m175.667 382.812c-7.846 0-15.363 6.899-15 15 .364 8.127 6.591 15 15 15 7.846 0 15.363-6.899 15-15-.364-8.127-6.591-15-15-15z"/><path d="m336.333 382.812c-7.846 0-15.363 6.899-15 15 .364 8.127 6.591 15 15 15 7.846 0 15.363-6.899 15-15-.364-8.127-6.59-15-15-15z"/><path d="m416.667 382.812c-7.846 0-15.363 6.899-15 15 .364 8.127 6.591 15 15 15 7.846 0 15.363-6.899 15-15-.364-8.127-6.591-15-15-15z"/></g></svg>