<svg id="Capa_1" enable-background="new 0 0 512 512" height="512" viewBox="0 0 512 512" width="512" xmlns="http://www.w3.org/2000/svg"><g><path d="m416.116 271.03v-90.096h30.036v-30h-120.176v-90.084h-30v30.036h-30.036v30h30.036v30.048h-82.297l-30.024 150.12h-61.655v-118.917l-122-59.643v83.472h30v-35.412l62 30.31v100.191h-92v100.064l37.524 50.032h328.208c80.653-.001 146.268-65.616 146.268-146.269v-33.852zm-30-90.096v30.048h-60.14v-30.048zm-90.14 0v30.048h-63.713l6.009-30.048zm-69.712 60.048h159.853v30.048h-78.097l-20.016 30.024h-73.755zm255.736 63.9c0 64.11-52.157 116.268-116.268 116.268h-313.208l-22.524-30.032v-60.064h274.06l20.016-30.024h157.924z"/><path d="m341.068 331.078h30.024v30h-30.024z"/><path d="m401.116 331.078h30.024v30h-30.024z"/></g></svg>