<svg id="Capa_1" enable-background="new 0 0 512 512" height="512" viewBox="0 0 512 512" width="512" xmlns="http://www.w3.org/2000/svg"><g><path d="m437.02 74.98c-48.353-48.351-112.64-74.98-181.02-74.98s-132.667 26.629-181.02 74.98c-48.351 48.353-74.98 112.64-74.98 181.02s26.629 132.667 74.98 181.02c48.353 48.351 112.64 74.98 181.02 74.98s132.667-26.629 181.02-74.98c48.351-48.353 74.98-112.64 74.98-181.02s-26.629-132.667-74.98-181.02zm-383.711 281.213 27.384-11.343-11.48-27.717-27.385 11.343c-6.212-18.413-10.039-37.697-11.326-57.476h29.534v-30h-29.534c1.288-19.779 5.114-39.063 11.326-57.477l27.385 11.343 11.48-27.717-27.384-11.343c8.628-17.413 19.558-33.755 32.634-48.651l20.884 20.884 21.213-21.213-20.884-20.884c14.896-13.075 31.238-24.006 48.651-32.634l11.343 27.384 27.717-11.48-11.343-27.385c18.414-6.213 37.698-10.039 57.477-11.326v29.534h30v-29.533c19.779 1.288 39.063 5.114 57.477 11.326l-11.343 27.385 27.717 11.48 11.343-27.384c17.413 8.628 33.755 19.558 48.651 32.634l-20.884 20.884 21.213 21.213 20.884-20.884c13.075 14.896 24.006 31.238 32.634 48.651l-27.384 11.343 11.48 27.717 27.385-11.343c6.212 18.414 10.039 37.698 11.326 57.477h-29.534v30h29.534c-1.288 19.779-5.114 39.063-11.326 57.477l-27.385-11.343-11.48 27.717 27.384 11.343c-8.627 17.413-19.558 33.755-32.634 48.651l-20.884-20.884-21.213 21.213 20.884 20.884c-14.896 13.075-31.238 24.006-48.651 32.634l-11.343-27.384-27.717 11.48 11.343 27.385c-18.414 6.212-37.698 10.039-57.477 11.326v-29.534h-30v29.534c-19.779-1.288-39.063-5.114-57.477-11.326l11.343-27.385-27.717-11.48-11.343 27.384c-17.413-8.627-33.755-19.558-48.651-32.634l20.884-20.884-21.213-21.213-20.884 20.884c-13.076-14.898-24.006-31.239-32.634-48.653z"/><path d="m256 422c91.532 0 166-74.468 166-166s-74.468-166-166-166-166 74.468-166 166 74.468 166 166 166zm0-212c25.364 0 46 20.636 46 46s-20.636 46-46 46-46-20.636-46-46 20.636-46 46-46zm-42.053 109.266c8.07 5.382 17.219 9.264 27.053 11.241v60.662c-26.274-2.896-50.315-13.306-69.927-29.029zm57.053 11.24c9.833-1.977 18.983-5.859 27.053-11.241l42.874 42.874c-19.611 15.724-43.652 26.133-69.927 29.029zm48.266-32.453c5.382-8.07 9.264-17.219 11.241-27.053h60.662c-2.896 26.274-13.305 50.315-29.029 69.927zm11.24-57.053c-1.977-9.833-5.859-18.983-11.241-27.053l42.874-42.874c15.724 19.611 26.133 43.652 29.029 69.927zm-32.453-48.266c-8.07-5.382-17.219-9.264-27.053-11.241v-60.662c26.274 2.896 50.315 13.306 69.927 29.029zm-57.053-11.24c-9.833 1.977-18.983 5.859-27.053 11.241l-42.874-42.874c19.611-15.724 43.652-26.133 69.927-29.029zm-48.266 32.453c-5.382 8.07-9.264 17.219-11.241 27.053h-60.662c2.896-26.274 13.306-50.315 29.029-69.927zm-11.24 57.053c1.977 9.833 5.859 18.983 11.241 27.053l-42.874 42.874c-15.724-19.611-26.133-43.652-29.029-69.927z"/></g></svg>