<svg id="Capa_1" enable-background="new 0 0 512 512" height="512" viewBox="0 0 512 512" width="512" xmlns="http://www.w3.org/2000/svg"><g><path d="m509.99 365.614-186.648-323.283c-2.68-4.641-7.631-7.5-12.99-7.5s-10.311 2.859-12.99 7.5l-79.154 137.1-39.353-68.159v-61.441c0-8.284-6.716-15-15-15s-15 6.716-15 15v2.97h-18.159c-8.284 0-15 6.716-15 15s6.716 15 15 15h18.159v28.471l-146.845 254.342c-1.316 2.28-2.01 4.867-2.01 7.5v89.055c0 8.284 6.716 15 15 15h482c8.284 0 15-6.716 15-15v-89.055c0-2.633-.693-5.219-2.01-7.5zm-199.638-285.783 161.421 279.589c-6.968.815-12.473 1.909-17.871 2.984-9.582 1.908-18.633 3.711-37.238 3.711-18.604 0-27.655-1.803-37.238-3.711-10.587-2.109-21.535-4.289-43.099-4.289-4.933 0-9.305.115-13.25.316v-38.772h48.135c5.359 0 10.311-2.859 12.99-7.5s2.68-10.359 0-15l-20.994-36.363c2.901-1.261 5.38-3.428 7.014-6.258 2.68-4.641 2.68-10.359 0-15l-46.878-81.196c-2.68-4.641-7.631-7.5-12.99-7.5-5.358 0-10.311 2.859-12.99 7.5l-46.879 81.196c-2.68 4.641-2.68 10.359 0 15 1.634 2.83 4.112 4.998 7.014 6.258l-20.994 36.363c-2.68 4.641-2.68 10.359 0 15s7.631 7.5 12.99 7.5h43.583v42.775c-9.525 1.897-18.579 3.68-37.083 3.68-18.604 0-27.653-1.803-37.235-3.711-10.586-2.109-21.533-4.289-43.095-4.289-11.417 0-19.857.611-26.844 1.5zm-14.601 159.706c-1.634-2.83-4.112-4.998-7.014-6.258l21.615-37.438 21.614 37.438c-2.9 1.261-5.38 3.428-7.014 6.258-2.68 4.641-2.68 10.359 0 15l20.277 35.122h-69.757l20.277-35.122c2.682-4.641 2.682-10.359.002-15zm-185.031 126.066c-4.361.32-9.37.511-15.389.511-18.604 0-27.654-1.803-37.235-3.711-5.391-1.074-10.9-2.167-17.87-2.982l123.628-214.131 37.031 64.14zm-80.72 81.566v-58.573c9.314.66 15.638 1.914 22.235 3.228 10.587 2.109 21.533 4.289 43.096 4.289s32.51-2.18 43.096-4.289c9.582-1.908 18.633-3.711 37.236-3.711s27.653 1.803 37.235 3.711c10.586 2.109 21.533 4.289 43.095 4.289 21.563 0 32.51-2.18 43.097-4.289 9.582-1.908 18.633-3.711 37.236-3.711 18.605 0 27.656 1.803 37.239 3.711 10.587 2.109 21.534 4.289 43.098 4.289s32.511-2.18 43.099-4.289c6.592-1.313 12.91-2.571 22.238-3.232v58.576h-452z"/></g></svg>