<svg id="Capa_1" enable-background="new 0 0 512 512" height="512" viewBox="0 0 512 512" width="512" xmlns="http://www.w3.org/2000/svg"><g><path d="m512 0h-512v451.952h30.024v60.048h90.048v-60.048h271.856v60.048h90.048v-60.048h30.024zm-30 30v90.096h-452v-90.096zm0 120.096v151.761h-452v-151.761zm-391.928 331.904h-30.048v-30.048h30.048zm361.904 0h-30.048v-30.048h30.048zm-421.976-60.048v-90.096h452v90.096z"/><path d="m60.036 361.904h30.024v30h-30.024z"/><path d="m120.084 361.904h30.024v30h-30.024z"/><path d="m421.94 361.904h30.023v30h-30.023z"/><path d="m361.892 361.904h30.024v30h-30.024z"/><path d="m165.928 60.048h180.144v30h-180.144z"/></g></svg>