<svg id="Capa_1" enable-background="new 0 0 510 510" height="512" viewBox="0 0 510 510" width="512" xmlns="http://www.w3.org/2000/svg"><g><path d="m237.316 185.263h-97.506l57.163-81.661c4.75-6.786 3.1-16.14-3.687-20.89-6.788-4.752-16.14-3.101-20.891 3.687l-73.684 105.262c-6.934 9.906.146 23.602 12.289 23.602h98.288l-47.611 71.417c-4.595 6.893-2.732 16.206 4.161 20.801 6.862 4.575 16.185 2.764 20.801-4.16l63.158-94.737c6.63-9.947-.509-23.321-12.481-23.321z"/><path d="m486 161.738v-50.738c0-8.284-6.716-15-15-15h-64c-8.284 0-15 6.716-15 15v50.738c-4.756 2.516-8 7.507-8 13.262v49.361c0 24.864 17.009 45.826 40 51.876v136.723c0 36.966-27.01 67.04-60.21 67.04h-113.58c-23.809 0-49.154-12.673-57.419-34h100.677c22.35 0 40.532-18.183 40.532-40.532v-364.936c0-22.349-18.183-40.532-40.532-40.532h-236.936c-22.349 0-40.532 18.183-40.532 40.532v364.936c0 22.349 18.183 40.532 40.532 40.532h105.021c8.329 39.488 48.714 64 88.658 64h113.58c49.742 0 90.21-43.532 90.21-97.04v-136.723c22.991-6.05 40-27.012 40-51.876v-49.361c-.001-5.754-3.245-10.746-8.001-13.262zm-429.468 254.262c-5.807 0-10.532-4.725-10.532-10.532v-364.936c0-5.807 4.725-10.532 10.532-10.532h236.936c5.807 0 10.532 4.725 10.532 10.532v364.936c0 5.808-4.725 10.532-10.532 10.532zm365.468-290h34v34h-34zm42 98.361c0 13.035-10.604 23.639-23.639 23.639h-2.723c-13.034 0-23.638-10.604-23.638-23.639v-34.361h50z"/><path d="m223 352h-96c-8.284 0-15 6.716-15 15s6.716 15 15 15h96c8.284 0 15-6.716 15-15s-6.716-15-15-15z"/></g></svg>