<svg id="Capa_1" enable-background="new 0 0 512 512" height="512" viewBox="0 0 512 512" width="512" xmlns="http://www.w3.org/2000/svg"><g><path d="m256 170.65c30.493 0 55.301-24.808 55.301-55.301s-24.808-55.301-55.301-55.301-55.301 24.809-55.301 55.302 24.808 55.3 55.301 55.3zm0-80.602c13.951 0 25.301 11.351 25.301 25.302s-11.35 25.3-25.301 25.3-25.301-11.35-25.301-25.301 11.35-25.301 25.301-25.301z"/><path d="m256 311.302c30.493 0 55.301-24.809 55.301-55.302s-24.808-55.302-55.301-55.302-55.301 24.809-55.301 55.302 24.808 55.302 55.301 55.302zm0-80.604c13.951 0 25.301 11.351 25.301 25.302s-11.35 25.302-25.301 25.302-25.301-11.351-25.301-25.302 11.35-25.302 25.301-25.302z"/><path d="m256 451.952c30.493 0 55.301-24.809 55.301-55.302s-24.808-55.3-55.301-55.3-55.301 24.808-55.301 55.301 24.808 55.301 55.301 55.301zm0-80.602c13.951 0 25.301 11.35 25.301 25.301s-11.35 25.302-25.301 25.302-25.301-11.351-25.301-25.302 11.35-25.301 25.301-25.301z"/><path d="m458.152 311.302 27.466-110.604h-84.245v-30.048h56.778l27.466-110.603h-84.245v-60.047h-290.746v60.048h-84.244l27.466 110.602h56.778v30.048h-84.244l27.466 110.604h56.778v30.048h-84.244l27.466 110.603h56.778v60.047h290.747v-60.048h56.778l27.466-110.603h-84.245v-30.048h56.78zm-10.895-80.604-12.566 50.604h-33.317v-50.604zm0-140.65-12.566 50.603h-33.317v-50.603zm-369.948 50.602-12.566-50.602h45.883v50.603h-33.317zm0 140.652-12.566-50.604h45.883v50.604zm0 140.65-12.566-50.602h45.883v50.603h-33.317zm294.065 60.048h-230.748v-452h230.747v452zm75.883-110.65-12.566 50.603h-33.317v-50.603z"/></g></svg>