<svg id="Capa_1" enable-background="new 0 0 512 512" height="512" viewBox="0 0 512 512" width="512" xmlns="http://www.w3.org/2000/svg"><g><path d="m416 401.667h-35.123l-27.404-178.867h14.527c8.284 0 15-6.716 15-15v-64.267c0-8.284-6.716-15-15-15h-17.717c-5.029-63.322-30.818-128.533-94.283-128.533-63.573 0-89.27 65.413-94.283 128.533h-17.717c-8.284 0-15 6.716-15 15v64.267c0 8.284 6.716 15 15 15h14.527l-27.404 178.867h-35.123c-8.284 0-15 6.716-15 15v80.333c0 8.284 6.716 15 15 15h320c8.284 0 15-6.716 15-15v-80.333c0-8.284-6.716-15-15-15zm-160-371.667c49.687 0 61.4 67.67 64.155 98.533h-128.31c2.755-30.863 14.468-98.533 64.155-98.533zm-97 128.533h194v34.267c-30.232 0-187.244 0-194 0zm65 146.734c-7.336 0-13.596 5.307-14.797 12.544l-13.918 83.856h-33.811l27.403-178.867h134.246l27.404 178.867h-33.811l-13.918-83.856c-1.201-7.237-7.461-12.544-14.797-12.544zm62.305 96.4h-60.61l11.021-66.4h38.569zm114.695 80.333h-290v-50.333h290z"/></g></svg>