<svg id="Capa_1" enable-background="new 0 0 512 512" height="512" viewBox="0 0 512 512" width="512" xmlns="http://www.w3.org/2000/svg"><g><path d="m436.144 155.123h-70.068v-45.047c0-60.696-49.38-110.076-110.076-110.076s-110.076 49.38-110.076 110.076v45.047h-70.068v30h40.044v200.069c0 36.812 29.949 66.76 66.76 66.76h23.312v60.048h100.056v-60.048h23.312c36.812 0 66.76-29.948 66.76-66.76v-200.069h40.044zm-260.22-45.047c0-44.154 35.922-80.076 80.076-80.076s80.076 35.922 80.076 80.076v45.047h-32.349c-6.388-20.279-25.366-35.027-47.727-35.027s-41.34 14.748-47.727 35.027h-32.349zm100.104 60.047c0 11.044-8.984 20.028-20.028 20.028s-20.028-8.984-20.028-20.028c0-11.043 8.984-20.027 20.028-20.027s20.028 8.984 20.028 20.027zm0 201.785h-40.056v-30.049h40.056zm-40.056 110.092v-80.092h40.056v80.092zm130.128-96.808c0 20.27-16.491 36.76-36.76 36.76h-23.312v-110.093h-100.056v110.093h-23.312c-20.27 0-36.76-16.49-36.76-36.76v-200.069h62.372c6.387 20.28 25.366 35.028 47.728 35.028s41.34-14.749 47.728-35.028h62.372z"/></g></svg>