<svg id="Capa_1" enable-background="new 0 0 512 512" height="512" viewBox="0 0 512 512" width="512" xmlns="http://www.w3.org/2000/svg"><g><path d="m410.22 0h-308.44c-8.284 0-15 6.716-15 15v482c0 8.284 6.716 15 15 15h308.44c8.284 0 15-6.716 15-15v-482c0-8.284-6.716-15-15-15zm-232.739 181.178c.532 17.834 11.815 42.259 34.459 74.602 9.298 13.28 18.512 25 24.789 32.709h-119.949v-107.311zm78.519-49.86c26.768 0 48.545 21.777 48.545 48.544 0 5.158-2.817 21.185-28.918 58.507-6.984 9.987-14.027 19.167-19.627 26.204-5.6-7.037-12.643-16.217-19.627-26.204-26.101-37.322-28.918-53.349-28.918-58.507 0-26.767 21.777-48.544 48.545-48.544zm139.22 235.679h-278.44v-48.508h278.44zm0-78.508h-119.949c6.277-7.709 15.491-19.429 24.789-32.709 23.204-33.143 34.484-57.975 34.484-75.917 0-38.179-27.388-70.068-63.545-77.091v-72.772h124.22v258.489zm-154.22-258.489v72.772c-26.572 5.161-48.389 23.755-58.097 48.406h-66.123v-121.178zm-124.22 452v-85.003h278.44v85.003z"/><path d="m256 197.647c7.846 0 15.363-6.899 15-15-.364-8.127-6.591-15-15-15-7.846 0-15.363 6.899-15 15 .364 8.127 6.591 15 15 15z"/><path d="m274.488 424.498h-36.977c-8.284 0-15 6.716-15 15s6.716 15 15 15h36.977c8.284 0 15-6.716 15-15s-6.716-15-15-15z"/></g></svg>