<svg id="Capa_1" enable-background="new 0 0 512.051 512.051" height="512" viewBox="0 0 512.051 512.051" width="512" xmlns="http://www.w3.org/2000/svg"><g><path d="m256.025 245.156c27.586 0 50.028-22.442 50.028-50.028s-22.442-50.028-50.028-50.028-50.028 22.442-50.028 50.028 22.443 50.028 50.028 50.028zm0-70.056c11.044 0 20.028 8.984 20.028 20.028s-8.984 20.028-20.028 20.028-20.028-8.984-20.028-20.028 8.985-20.028 20.028-20.028z"/><path d="m436.157 491.297v-183.66l-60.048-30.024v-109.079c0-36.274-10.88-71.235-31.464-101.104s-49.382-52.482-83.28-65.396l-5.34-2.034-5.34 2.034c-33.898 12.914-62.696 35.527-83.28 65.396-20.584 29.868-31.464 64.829-31.464 101.104v109.079l-60.048 30.024v183.66l78.588-39.294h25.681l20.016 60.048h111.695l20.016-60.048h25.681zm-30-165.119v116.578l-30.048-15.023v-116.579zm-150.132-293.957c21.375 9.096 40.105 22.949 55.012 40.599-16.121 7.941-35.138 12.232-55.012 12.232-19.873 0-38.89-4.292-55.012-12.232 14.907-17.65 33.637-31.504 55.012-40.599zm-72.091 65.561c21.067 11.207 46.11 17.27 72.091 17.27 25.983 0 51.025-6.063 72.092-17.27 11.8 21.659 17.992 45.83 17.992 70.752v193.421h-180.168v-193.421c0-24.922 6.193-49.093 17.993-70.752zm-78.04 228.396 30.048-15.024v116.579l-30.048 15.023zm184.356 155.873h-68.449l-10.016-30.048h88.481zm-124.309-60.048v-30.048h180.168v30.048z"/></g></svg>